<svg xmlns="http://www.w3.org/2000/svg" viewBox="0 0 841.84 21.19">
    <path fill="#22612b"
          d="M841.9,21.19H-.17S0,12.52,0,9c2.18.88,8.3-.52,10.48-.52C22.7,9,34.91,10.69,47.12,9.82c14.4-.44,29.23-1.31,44.06,0,2.18.44,4.36-.87,6.54-.44.88.44,1.31,2.18,2.62,2.18,6.11-.43,11.78-3.05,17.45-3.05,19.63,0,39.26-.44,58.89.87.87,0,1.74,1.75,2.61,1.75,13.53-2.18,27.05-1.31,40.14-.87,9.59.43,19.62-1.75,29.66-1.75,10.47,0,19.63,2.18,30.53.44,1.75,0,3.93,2.18,6.54,1.74S291,9,293.58,8.51c.87,0,2.18.87,3.05,1.31,17.89.44,35.34-2.18,53.66,0,5.23.87,10.47-2.18,15.7-1.75,2.62,0,4.8,1.31,7.42,1.75,3,0,6.1-3.05,8.72-2.62,8.29,2.18,16.58,3.93,24.86.87,2.62-.87,3.06,2.19,3.93,3.06,4.36,2.61,9.6-1.75,15.27-1.31,2.18,0,4.36-1.75,7-2.18,12.21-.44,24.42,2.62,36.64,2.18.87,0,.87,2.18,1.74,1.74,9.6,0,20.07-3.05,29.66-1.74,19.12,2.55,40.3-1.11,58.31-.09.49,0,1,0,1.41.09l9.18-.32,1.53,0c5.47,2.1,9.84,3.85,15.13-.23.5,0,1,0,1.5,0a47.92,47.92,0,0,1,11.41.38l1.32.07a92.48,92.48,0,0,0,9.6-.13l1.59.05c3.18.12,6.32.33,9.42.68,8.29.87,16.14-2.62,24.86-.44,2.62.44,5.67-.44,8.29-.44,14,0,27-3.92,40.57-.43,4.79.87,8.72,0,13.52.43,1.74.44,1.74,5.24,4.8,3.49C724.12,7.64,735,9.38,746.36,9c1.75,0,3.93-.44,5.67-.44,9.16,0,17.89,2.18,27.05-.87,1.31-.44,3.49.87,5.23.87,14,1.31,27.92-1.31,42.31,1.75,3.49.87,7-1.75,10.44-1.23h4.84Z"/>
</svg>