<?xml version="1.0" encoding="utf-8"?>
<!-- Generator: Adobe Illustrator 26.0.2, SVG Export Plug-In . SVG Version: 6.00 Build 0)  -->
<svg version="1.1" id="Layer_2_00000123400011420675027190000012264015669335770038_"
	 xmlns="http://www.w3.org/2000/svg" xmlns:xlink="http://www.w3.org/1999/xlink" x="0px" y="0px" viewBox="0 0 992.1 1190.6"
	 style="enable-background:new 0 0 992.1 1190.6;" xml:space="preserve">
<style type="text/css">
	.st0{fill-rule:evenodd;clip-rule:evenodd;fill:#FCB817;}
	.st1{fill-rule:evenodd;clip-rule:evenodd;fill:#00A8BC;}
	.st2{fill-rule:evenodd;clip-rule:evenodd;fill:#246231;}
</style>
<path class="st0" d="M193.1,1129.5c25.7-3.1,51.7-4.1,77.5-5.8c30.3-2,60.6-4.2,90.8-7.2c7.4-0.8,14.9-1.6,22.3-2.4
	c3.9-0.5,7.7-0.9,11.5-1.4l3.3-0.4c-0.4,0.1-1.8,0.2,0,0l5.8-0.8c15.2-2.1,30.3-4.7,45.4-7.6c27.7-5.4,55.4-10.4,82.8-17.1
	c54.9-13.4,108.8-30.5,163.6-44c22.2-5.5,44.7-10.3,67.3-14.2L640.1,902c0,0-205.6-660-460.1-201.8
	c-95.6,172.1-67.7,316.8,4.5,430.4C187.4,1130.2,190.2,1129.9,193.1,1129.5z"/>
<path class="st0" d="M473.2,177.1C504,241.9,541,333.6,547,395.9c10.1,14.8,21.3,30.1,30.8,46.6c-9.3-3-20.3-8.7-30.9-15.5
	c-0.3,2-0.6,3.9-1,5.8c-2.2,10.5-0.8,32.7,4,62.5l4.2-4.1c13.5,18.5,21.4,37.6,29.6,55.7c2.5,5.5,7.4,11.4,5.8,17
	c-10.1-6.6-20-12.2-29.8-17.9c4.9,21.9,10.9,45.7,18,70.5c10.1-10.3,21.1-25,30.9-32.6c12,24.2,25.3,48.2,35.8,72.3
	c-22-10.1-44.5-27-66.3-38.7c14.1,49,32.4,101.8,54.3,151.1c4.4,9.2,9.1,18.3,14,27.5c-0.5-0.1-0.9-0.2-1.4-0.3
	c19.3,39.6,40.9,75.9,64.6,104.8c1.2,1.5,2.5,2.8,4,4c12.8-15.3,32.9-34.8,43.8-48.4c4.1,7.7,7.8,15.3,11.2,22.8
	c5.8-6.7,11.8-14.4,18-22.8c-6.8-2.6-13.7-5.2-20.7-8.5c-0.7-1.4-1.3-2.8-0.6-4.3c12.5-10.9,24.4-26,37.9-34.4c1.8,5,3.8,10,5.7,15
	c3.5-5.1,7-10.4,10.5-15.8c-3-1.4-6-2.9-8.8-4.6c7.9-9.1,29.3-26,34.8-36.2l0.4,0.6c28.7-43.6,59.5-89.5,91.3-124.7
	c-26.5-12.3-49.5-29.2-75.7-51.6c4.1-15.3,22.9-27.6,35.5-41.3c18.8,31.7,30.8,62.1,41.1,92c18.3-20.2,36.8-36.8,55.4-47.5
	c-1.4-1.7-2.7-3.4-3.9-5.2c-27.1-11-55.3-22.6-84.3-45.2c9-8.8,24.4-23.8,34.1-35.5c14.5,19.3,26.6,38.5,38.9,58.4
	c-6-15.5-10.7-33.9-15.2-53.1c-5.8-3.7-11.3-7.8-16.5-12.3c3.9-3.4,7.6-7.1,11-11c-3.6-15-7.5-29.9-12.1-43.6
	c-12.6-5.4-25.4-13.8-38.2-21.3c6-9,9.2-10.7,17.9-20c-7.4-11.6-15.5-22.8-24.1-33.5c-19.7-9.6-39.7-22.7-59.7-37.3
	c2.8-2.7,5.8-5.6,8.8-8.6c-2.7-1.8-5.5-3.6-8.4-5.4c-9.3-5.7-18.4-12-27-18.7c3.4,6.8,7,13.7,10.8,20.6c-25-10.3-51-24.4-77-38.5
	c14.7-13.7,24.7-30.8,38.1-39.3c1.4,2.6,2.8,5.2,4.1,7.9c0.9-3.7,2.1-7.4,3.3-11.4c-1.1-1-2.2-1.9-3.2-3c2-1.9,3.8-3.9,5.5-6
	c2-9.5,1.9-19.3-0.4-28.7c-21.6-4.6-42.3-13.2-60.9-25.1c10.7-11.5,22-19.9,32.6-28c-12.5-16.5-26.9-31.4-43-44.4
	c2,23.2-5.4,44.9-0.1,68.8c-16.4-1.9-35.8-20.8-53-25.6c-1.4-1.4-2-2.2-1.1-3.4c7.5-11.8,29.7-27.1,49-43.8
	c-27.9-20.7-55.3-30.6-77.6-31.3c6.2,22.4,10.3,45.2,12.2,68.4c-22.8-14.2-39.9-20.5-59.5-40.5c-0.3,1.1-0.6,2.2-0.9,3.4l-5.9-0.1
	c14.6,16.4,21.3,30.9,33.7,43.8c-8.4-0.8-16.9-8.2-25.5-13.6c-7.9-5.3-16.5-10.7-24.4-17.5c5.7-3.4,7-9.9,11-12.9
	c-19.6-0.7-61.8-2.2-96.5-2.7c7.8,18.1,14.4,35.9,24.7,54.4c-25.5-14.3-52.5-35.3-78.5-53c-1.7,3.8-2.4,7.9-2.1,12
	c9.4,11.4,17.7,24.6,25.9,37.7C462.9,158.8,468.6,167.6,473.2,177.1z M545.7,380.6c19.7-11.4,36.6-42.3,49.9-58.1
	c3.5-2.1,3.3,6.4,3.9,9.9c5.4,27.4,10.3,61.6,9.8,88.6C588.7,411.1,567.1,396.5,545.7,380.6L545.7,380.6z M572.9,237.2
	c7.5-8.1,15.7-14,23.6-20.3c12.8,17.1,21.5,33.4,34.7,50.1C612.7,263.4,592.9,252.1,572.9,237.2L572.9,237.2z M670.5,344.9
	c-21.8-7.6-44-16.2-67.4-29.8c9.3-7.7,23.6-19.6,31.7-28.6C649.9,302.4,658.7,326.1,670.5,344.9z M679.5,361.6
	c16.9,25.5,24.9,50,41,76.3c-8.4,0.6-17.6-3.8-26.3-8.6c-21.9-3.3-44.5-6.6-66.5-10C644.6,400.5,660.6,381.7,679.5,361.6
	L679.5,361.6z M736,448.2c7.2-13.6,26.6-24.4,33.8-38c18.1,24,30,56,46.1,83C789.6,483.1,763.1,467,736,448.2L736,448.2z
	 M839.3,547.4c4.2,11.3,7.1,23.1,8.5,35.1c-19.9-15-43.1-23.3-59.8-39.3c11.1-10.9,21.1-20,34-31.2
	C828.9,523.3,834.7,535.1,839.3,547.4z M645.3,479.7c-12.5-6.4-28.6-14.7-43.7-26.1c-0.9,0.5-2.8-1.4-4.1-2.8
	c11.7-6.6,14-13,23.3-22.8c12.8,19.2,24.9,38.3,38.7,57.9C654.9,487.6,650.3,482,645.3,479.7L645.3,479.7z M687.6,506.5
	c7.1,9.6,9.8,21.1,14.5,31.2c5,10.3,12.8,20.6,12.8,30.8c-17.8-14.3-35.1-22.2-53.1-34.5C672.8,525.1,677.2,515.3,687.6,506.5
	L687.6,506.5z M686.9,614.6c-23.2-9-47.2-24.7-70.9-35.6c5.9-12.7,26.4-27.6,39.5-36.3C668.2,566.8,677.4,590.9,686.9,614.6
	L686.9,614.6z M697.2,632.1c7.1,9.6,12.5,23.2,19,35.8c6.7,12.8,12.6,25.5,18.6,36.9c-12.2,0.3-24.6-9.7-36-15
	c-11.9-5.2-24.6-6.9-35.5-17.6C675.3,656.3,684.7,646.5,697.2,632.1L697.2,632.1z M703.3,626.1c13.7-16.1,17.7-18.6,32.7-31.9
	c12.2,17,25.5,42.6,35.5,63.1c-11.3,0.4-22.5-9.7-33.9-14.4C726.5,637.9,713.6,636,703.3,626.1L703.3,626.1z M692.5,499.3
	c11.7-14.6,19.6-30.3,36.3-44.1c19.2,25.9,25.6,50,40.8,76.1C743.9,518.2,718.6,510.6,692.5,499.3L692.5,499.3z M743.1,587.2
	c11.9-13.7,25-21.8,37.2-34.4c9.6,20.9,19.5,41.5,33.7,62.8C790,604.9,766.3,596.8,743.1,587.2L743.1,587.2z M753.7,384.7
	c-21.4-4.2-44.5-23.3-66.2-30.8c5.5-8.8,18.4-22.1,24.8-33.6c19.9,20.1,30.9,46.9,50.1,69.8C760.1,392.1,756.7,387.9,753.7,384.7
	L753.7,384.7z M646.4,277.6c6.4-4.9,12.3-14.7,19.3-16.8c11.3,10.3,20.3,26.3,34.6,41.9C683.2,299.4,664.6,287.3,646.4,277.6z
	 M562.8,482.7c9.3-8.5,13.6-11.2,25.1-22.4c17.7,18.5,34.5,43.4,49,66.4C613.2,518,583.7,498.7,562.8,482.7z M620.6,718.1
	c10.3-7.3,23.7-24.6,34.2-37.6c1.4-0.7,4.2,0,3.1,1.1c14.3,22.2,21.6,42.9,36.4,64.9c-12.2,0.3-24.6-9-37-14
	S632.6,726.3,620.6,718.1L620.6,718.1z M703.2,822.6c-14.9-6.8-30.1-13.3-42.5-20.5c9.8-14.4,26.9-27.7,40.5-39.7
	c15.2,25.4,29.8,50,46.6,75.6C734.4,836.4,718.5,829.2,703.2,822.6L703.2,822.6z M710.5,758.3c8.8-10.4,22.3-23.2,31.3-35.5
	c18.4,24.3,37.8,49.8,51.6,70.7C766.3,787,737.4,764,710.5,758.3L710.5,758.3z M748.6,714c10.4-10.9,18.7-25.5,32.5-38.6
	c17.6,27.8,27.2,53.9,45.3,81.4C800.6,744.4,774.6,729.5,748.6,714L748.6,714z M788.6,668c10.7-11.3,19.4-22.5,31.9-33.4
	c16.6,20.3,29.8,48.6,47,72.4C841.7,694.5,816,690.2,788.6,668L788.6,668z M907.9,670c-26.2-8.5-52.9-20.5-80.5-42
	c11.2-9.3,21.6-23.9,31.2-30.5c16.9,24.2,30.9,48.3,49.3,72.6L907.9,670z M831.6,507.5c7.2-10.5,23.6-21,34.4-33.7
	c12.9,21.5,18.1,42.2,28.4,63.1C873.8,531.3,852.4,517.7,831.6,507.5z M935.7,494.4c-20-4.2-40.8-16.5-62.2-28
	c7.2-8.5,18.5-27.1,27.7-32C919.4,455.6,925,474.6,935.7,494.4L935.7,494.4z M834.8,341.8c16.4,20.8,32.8,43.7,50.9,67
	c-12-2.4-25-13-37.5-18.1c-11.8-3.6-24.5-13.3-36.5-19.3c-1.2,0.9-3.1-1.1-4.5-2.6L834.8,341.8z M844.8,441.5
	c-20.8-8.6-42.3-25.4-66.4-39.7c7.7-7.9,14.5-20.4,23.2-25.1C818.6,400.3,828.8,417.5,844.8,441.5L844.8,441.5z M729.9,186.3
	c17,11.2,32.5,27.4,43.9,44.5c-20.5-4.7-41.5-14.4-62.3-23.7C719.3,200.7,721.6,192.9,729.9,186.3z M780.4,349.6
	c-11.8-0.8-23.9-14.1-35.8-22.2c-7.6-4.3-14.5-5.8-20.7-12.1c-0.7,0.7-2.6-1.2-3.9-2.7l20.8-20.4
	C755.9,311.5,765.6,330.3,780.4,349.6L780.4,349.6z M665.3,153.6c8.4,14.6,23,29.9,30,43.7c-15.6-4.7-32.7-21.8-48.2-25.8
	C645.5,165.5,658.8,159.1,665.3,153.6L665.3,153.6z M704.6,215.8c9.9,21.3,18,41.3,27.6,62.2c-20.8-5.8-41.8-16.2-63-25.2
	C681.6,241.1,693.5,228.7,704.6,215.8L704.6,215.8z M637.5,178.9c9.2,23.4,14.2,46,18.8,68.3c-17.6-8.2-35.7-23.5-53.6-34.2
	c7.6-12.3,23.3-24.9,34.8-34L637.5,178.9z M565.1,124.4c4.4,6.7,4.2,13.1,9.5,20c-0.3,20,13.2,42.8,12.9,62.8
	c-20.2-10.2-40.8-28.9-61.2-40.7C539.8,150.1,551.7,143,565.1,124.4L565.1,124.4z M517.4,171c20.5,19.9,21.5,32.7,38.8,50.8
	c-18.5-3.5-39.6-22.5-58.6-29.4C499.3,182.6,509.9,177.7,517.4,171L517.4,171z M566.5,243.4c12.4,20.2,15.8,39,26.4,58.8
	c-23.4-1.9-48.1-12.5-71.6-16.7C532.3,269.4,551.9,254.3,566.5,243.4L566.5,243.4z"/>
<path class="st1" d="M226.2,103.5h0.2c1.5-0.2,3,0.8,3.3,2.3c0.3,0.7,0.8,1.3,1.5,1.6c0.7,0.3,1.4,0.4,2.2,0.3
	c2.9,0,5.8-0.9,8.3-2.4c0.8-0.8,1.9-1.2,3-1.4c2.3-0.7,4.6-1.3,6.9-1.6c1.1-0.3,2.2-0.5,3.3-0.6c2.6-0.2,5.2-0.9,7.5-2.2
	c0.4-0.2,0.5-0.4,0.9-0.6c1.9-1,3.8-0.4,5.8,0.1c1.4,0.4,1.6,1.9,2.2,3c0.3,0.5,0.5,1.1,0.6,1.7c0.4,0.9,0.8,1.7,1.4,2.5
	c0.4,1.2,1.7,1.9,2.9,1.7c2.4-0.4,4.4-0.8,6.9-1.3c0,0.2,0.4,0.4,0.8,0.8c0.5,0.7,1.1,1.2,1.9,1.5c0.8,0.3,1.6,0.4,2.4,0.2
	c1.8-0.3,3.5-0.7,5.2-1.4c2.3-1,4.7-1.6,7.1-2c2.3-0.2,2.3-0.4,3.5,1.7c0.5,1.4,1.9,2.1,3.3,1.9c1.2-0.2,2.1-0.2,3.3-0.4
	c2.9-0.6,2.9-0.6,4.5,2c0.4,0.8,0.8,1.5,1.6,1.7c2.5,0.6,5.2,0.9,7.7-0.5c1.3-0.7,2.6-1.2,4-1.6c1.7-0.6,3.5-1,5-1.6
	c0.4-0.3,1-0.5,1.5-0.4c0.5,0.1,1,0.3,1.4,0.8c0.7,0.6,1.5,1.1,2.4,1.3c2.3,0.5,4.6,0.2,6.7-0.9c1.8-1,3.8-1.6,5.9-1.7
	c3.4,0.1,6.7-1.2,9.2-3.4c2-1.7,4.2-2.9,6.7-3.8c3.4-1.2,6.9-2.4,10.6-0.9c0.6,0.1,1.3,0.2,1.9,0.2c1.7-0.4,3.6-0.6,5.2-1
	c1.3-0.4,2.5-0.2,3.1,0.9c1.4,2.7,3.7,3.2,6.4,2.8c0.6-0.2,1.2-0.2,1.9-0.4c1.9-0.4,2.4,0,3.5,1.5c0.2,0.6,0.4,1,0.6,1.5
	c0.5,1.3,1.9,2.1,3.3,1.9c2.4-0.2,4.8-1,6.9-2.2c0.4,0.6,0.8,1.2,1.2,1.7c0.2,0.2,0.4,0.4,0.6,0.5c0.2,0.1,0.5,0.2,0.8,0.2
	c1.3,0.1,2.7,0.2,4,0.1c1.2-0.2,2.4-0.3,3.7-0.2c2.4-0.2,4.6,0.3,6.5-1.1c1.4-1.1,3.2-1.8,5-2c2.1-0.4,3.5,0,4.5,1.8
	c0.9,1.4,2.5,2.1,4.1,1.9c1.9-0.1,3.9-0.3,5.8-0.7c2.4,2.3,5.1,3.8,8.5,3.1c0.2-0.2,0.4-0.2,0.8,0c0.7,0.2,1.5,0.4,2.1,0.7
	c0.5,0.5,1.1,0.8,1.8,1c0.7,0.2,1.4,0.2,2.1,0.1c1-0.1,2.1-0.3,3.1-0.6c2-0.9,3.9-2.1,5.7-3.4c1.2-1,0.7-2.7,0.9-4.1
	c0-0.2,0-0.2,0.4-0.8c1.9-0.2,4.2-0.7,6.5-0.9c2.5-0.1,4.9-0.5,7.3-1.3c-3-1.1-5.9-2.5-8.6-4.1c-4.5-2.4-8.4-5.8-12.7-9
	c-2.5-1.9-5.1-3.8-7.8-5.5l-1.1,1.2c-0.7,1-1.8,1.6-3.1,1.5c-0.6,0-1,0.2-1.5,0.2c-0.6-0.7-1.1-1.4-1.6-2.2
	c-2.2-3.2-4.7-4.4-8.5-3.7c-1.5,0.1-3,0.4-4.4,0.7c-2,0.5-4.1-0.4-5.1-2.2c-0.3-0.6-0.8-1.2-1.5-1.5c-0.6-0.4-1.3-0.5-2-0.5
	c-0.4,0-0.8-0.2-1.2-0.2c-2-0.6-4.2-0.4-6.1,0.5c-0.9,0.3-1.7,0.8-2.2,1.5c-0.5,0.7-0.8,1.6-0.8,2.6c0,0.8-0.4,1.3-0.4,1.9
	c-2.3-0.5-4.4-1.1-6.4-1.6c-1.3-0.4-2.6-0.5-4-0.5c-2.9-0.3-5.2,1-7.5,2c-2,0.6-4.1,0.8-6.1,0.7c-0.4-0.1-0.7-0.3-1-0.6
	c-2.8-2.5-6.9-3.3-10.4-2c-0.6,0.1-1.3,0.1-1.9-0.2c-2.2-1.2-4.6-1.8-7.1-1.8c-1.3,0.1-2.6,0-3.9-0.5c-2.6-1.3-5.7-1.6-8.5-0.8
	c-2.9,0.8-4.4,2.4-4.5,5.5c0.1,0.5,0,0.9-0.2,1.3c-2.3,0.8-4.4,1.6-6.5,2.2c-0.6,0.2-1,0.5-1.3,1c-0.6,0.8-1.7,1.3-2.7,1.2
	c-1.4,0.2-2.7,0.6-4,1c-0.3,0.2-0.7,0.3-1.1,0.2c-0.4-0.1-0.7-0.3-1-0.6c-0.6-0.6-1-1.2-1.4-1.5c-0.9-1.3-2.3-2.1-3.8-2.4
	c-1.9-0.6-3.9-0.7-5.8-0.1c-2.1,0.8-4.4,1-6.5,0.5c-2.4-0.6-5.2,0.5-7.1-2.2c-0.6-0.5-1.4-0.8-2.1-0.7c-1.6,0.1-3.2,0.3-4.7,0.7
	c-1.9,0.6-3.6,1.8-5.5,2.4c-2.5,0.6-5,0.9-7.5,1.1c-1.7,0.2-3.6,0.4-5.8,0.7c-1.1-0.6-2-1.3-2.9-2.1c-0.8-1-1.9-1.6-3.1-1.7
	c-1.6-0.4-3.3-0.7-5-0.7c-0.4,0-0.7-0.2-1.1-0.4c-0.3-0.2-0.6-0.6-0.7-0.9c-0.8-1.3-1.6-2.9-2.4-4.4c-0.4-0.4-0.6-1-1-1.2
	c-2.4-0.7-4.5-1.7-7-1c-0.9,0.3-1.8,0.3-2.7,0.2c-3.7-0.6-7.4,0.5-10.2,3c-1.6,1.7-3.6,2.9-5.9,3.4c-1.4,0.4-3,0.4-4.4,0.1
	c-3.3-0.7-6.8-1.1-9.8,0.9c-1.7,1-3.8,1.1-5.6,0.3c-0.9-0.3-1.8-0.5-2.7-0.5c-0.9-0.1-1.8-0.1-2.7,0c-0.6,7.2-1.4,14.2-2.4,21.3
	C221.4,102.9,223.8,102.1,226.2,103.5z M202.4,156.5c0.4,0.1,0.8,0.3,1.2,0.5c0.6,0.2,1.3,0.2,1.9,0.2c2.5,0.1,5-0.6,7.1-1.8
	c2.2-1.3,4.6-2.1,7.1-2.4c0.3-0.1,0.7,0,1,0.1c0.3,0.1,0.6,0.4,0.8,0.6c0.5,0.6,1.2,1,2,1.1c0.8,0.2,1.5,0.2,2.3-0.1
	c1.9-0.4,3.8-1,5.8-1.4c1.3-0.4,2.7-0.6,4-1c1.3-0.1,2.6-0.3,3.9-0.6c2.9-1,5.4-2,5.3-5.7c0.1-0.6,0.4-1.2,0.9-1.6
	c1.4-0.7,3.1-0.9,4.6-0.5c1.1,0.5,2.3,0.6,3.5,0.5c0.8-0.1,1.7,0.1,2.4,0.6c0.7,0.5,1.2,1.2,1.5,2c0.8,1.9,1.4,2.3,3.5,1.9
	c1.8-0.4,3.6-0.8,5.4-1.4c0.4-0.1,0.7-0.2,1.1-0.1c0.4,0.1,0.7,0.2,1,0.5c0.5,0.4,1.1,0.7,1.7,0.9c0.6,0.2,1.3,0.2,1.9,0
	c2.4-0.2,4.4-0.6,6.9-1.1c0.7,1,1.5,1.9,2.4,2.9c0.5,0.8,1.4,1.3,2.4,1.3c2.6,0.1,5.1-0.4,7.5-1.5c0.6-0.5,1.3-0.9,2.1-1.2
	c1.7-0.6,3.5-1,5.2,0.5c0.9,0.5,1.9,0.8,2.9,0.7c2.4,0,4.7-0.6,6.7-1.8c0.8,0.9,1.4,1.7,2.2,2.7c0.9,1.3,2.5,2,4.1,1.7
	c2.3,0.1,4.6-0.4,6.7-1.3c0.4-0.2,0.9-0.4,1.4-0.4l5.2,0.5c0.7-0.1,1.5,0,2.1,0.4c1.6,0.5,3.2,0.6,4.8,0.1c0.6-0.1,1.2-0.1,1.7,0
	c0.6,0.1,1.1,0.4,1.6,0.7c1,0.8,2.3,1.1,3.5,0.7c5.9-0.9,11.9-2.4,17.9-2.4c0.7,0,1.3-0.2,1.9-0.4c2.8-0.5,4.8-3,4.8-5.8
	c0-1,0.1-1.9,0.1-2.7c2.1-0.6,4.3,0.1,5.6,1.8c0.3,0.5,0.8,0.8,1.3,1c0.5,0.2,1.1,0.2,1.6,0.1c2.7-0.2,5.4-0.5,7.9-2.1
	c0.4,0.8,0.7,1.6,1,2.5c0.6,1.2,0.8,2.1,1.4,3.2c0.3,0.7,0.8,1.3,1.5,1.7c0.7,0.3,1.5,0.4,2.2,0.2c1.8-0.2,3.6-0.3,5.4-0.3
	c0.8,1.2,1.4,2.3,2.2,3.4c0.5,0.9,1.5,1.4,2.5,1.3c1.7-0.2,3.4-0.5,5-0.9l8.6-1.9c1.9-0.2,2.1,0,3.1,1.5l0.6,1.2
	c1.2,2.3,1.4,2.3,3.9,2.2c3.3-0.2,6.6-0.2,9.8,0c3.9,0.3,7.5,0.1,10.8-1.9c4.1,2.2,7.5,0.3,11.4-0.6c0.6,0.8,1.3,1.6,2,2.3
	c0.8,0.8,1.8,1.2,2.9,1.1c1.8-0.2,3.6-0.5,5.4-0.9c2.9-0.4,5.8-1.2,8.8-1.9c0.2,0.8,0.5,1.6,0.8,2.3c0.6,2.5,2.2,3.2,4.7,2.8
	c1,0,2.1,0.2,3.5,0.1c0.6,1.2,1.1,2.5,1.6,3.8c0.2,0.7,0.7,1.4,1.4,1.8c0.6,0.4,1.4,0.6,2.1,0.5h2.5c1.4,0,2.8-0.4,4-1.2
	c1.3-0.9,2.8-1.5,4.4-1.6c1.1-0.2,2.2-0.6,3.2-1c0.6-0.2,1-0.4,1.5-0.6c0.5,0.7,1,1.5,1.4,2.3c0.6,1.7,2.3,2.7,4.1,2.4
	c0.6,0,1.2-0.2,1.7-0.2c3.5-0.2,6.3-1.4,7.4-5.3c0-0.4,0.4-0.6,0.8-1c1.3-1.6,3.1-2.8,5.1-3.4c0.4,0.5,0.9,0.9,1.6,1.1
	c0.6,0.2,1.3,0.2,1.9,0c0.6-0.2,1.1-0.2,1.7-0.2c1.5,0.1,2.9-0.4,4-1.4c-2.1-0.8-4.1-1.8-6.1-2.8c-8.4-4.6-9.1-13.1-5.8-19.7
	c-0.1,0.1-0.3,0.2-0.4,0.3c-2.1,1.4-4.6,1.2-6.9,1.5c-0.2,0.1-0.3,0.1-0.5,0.1c-0.2,0-0.3-0.1-0.5-0.2c-2.7-1.5-6-1.6-8.9-0.2
	c-2.9,1.2-5.5,2.8-8.6,3.6c-0.2,0-0.2,0.2-0.4,0.2c-1.9,0.6-3.8,1.4-5.7,2c-0.8-0.9-1.2-1.9-1.8-2.7c-0.7-1.2-1.4-2.3-2.2-3.4
	c-0.4-0.5-0.9-0.9-1.5-1.2c-0.6-0.2-1.3-0.3-1.9-0.1c-0.7,0.1-1.4,0.1-2.1,0c-2.9-0.3-5.6-0.7-8.3-1.2c-1.2-0.2-2.3-0.5-3.5-0.9
	c-0.8-0.3-1.7-0.5-2.5-0.5c-2.1,0-4.2,0.1-6.5-0.1c-1.4-1-2.5-2.3-3.3-3.8c-0.4-1.1-1.1-2-2.1-2.5c-1-0.6-2.1-0.8-3.2-0.7
	c-0.6,0.1-1.2,0.1-1.7,0c-2.3,0.2-4.2,1.8-6.1,2.6c-0.4,0-0.8,0.6-0.7,1c-0.4,1.5-1.3,1.8-2.7,1.8c-3.1,0-5.6,1.6-8,3
	c-2,1.4-4.3,2.2-6.7,2.2c-0.4,0-0.8,0-1.2-0.2c-0.4-0.2-0.7-0.4-1-0.7c-1-1.3-2.5-2.1-4.1-2.2c-1.4-0.2-2.7-0.5-4.1-0.9
	c-0.6-0.2-1.2-0.6-1.6-1.2c-1.5-1.8-3.8-2.8-6.2-2.6c-1,0-2.1-0.2-3.3-0.1c-1.1,0.1-2.2-0.2-3.1-0.9c-0.8-0.5-1.8-0.8-2.7-0.7
	c-2.3-0.3-4.8-0.3-7-1c-3.1-0.8-6.4-1-9.6-0.6c-0.8,0-1.7,0-2.5-0.2c-1.7-0.3-3.7-1.1-5.4-0.9c-3,0.6-5.9,0.1-9,0
	c-1,0-1.9,0.2-2.7,0.2c-0.9,0.1-1.7,0.3-2.4,0.7c-0.8,0.4-1.4,1-1.9,1.6c-0.8,0.8-1.9,1.3-3,1.4c-2.8,0.2-5.4,1.4-7.4,3.3
	c-0.8,1-1.8,1.8-3,2.4c-1.9,1-4,1.8-5.9-0.1c-1.2-0.8-2.7-1.2-4.2-1.1c-2.6,0.1-5.2-0.2-7.7-0.8c-2.2-0.9-4.7-0.9-6.9,0.1
	c-0.8,0.4-1.6,0.8-2.5,1c-1.8,0.4-3.7,0.5-5.6,0.1c-1.8-0.4-3.6-1-5.2-2c-1.2-0.9-2.6-1.2-4.1-1.1c-1.9-0.1-3.9-0.4-5.8-0.9
	c-4.2-0.9-7.9,0.1-10.3,3.6c-0.3,0.5-0.8,1-1.3,1.2c-1.2,0.3-2.5,0.3-3.8,0c-1.2-0.3-2.4-0.8-3.4-1.6c-1.8-1.8-4.1-2.8-6.6-3
	c-2.2,0-4.4-0.5-6.4-1.6c-1.4-0.5-2.8-0.8-4.2-0.9c-1.7-0.2-3.7-0.1-5.4-0.3c-2.3-0.4-4.6-0.1-6.7,0.9c-1.9,1.2-4.1,1.7-6.3,1.5
	c-0.5,0-0.9,0-1.3,0.2c-2.5,1.2-5.2,1-7.9,1.1c-3.7,0.2-6.9,1.1-8,5.3l-0.4,0.4c-2,0.3-4.1,0-5.9-0.9c-0.4-0.2-0.9-0.3-1.4-0.4
	c-0.6,2.4-1.2,4.7-1.7,7.1c-1.4,4.6-4.8,8.3-9.2,10.2C202.7,152.3,202.7,154.4,202.4,156.5L202.4,156.5z M90.6,257.1
	c1.2-0.6,23.2-1,24.5-1.2c3.7-0.4,3.8-0.3,4.9,2.8c0.8,1.9,1.8,2.7,3.7,2.4c1.3,0,2.5-0.2,3.7-0.2c0.2,0.4,0.6,0.8,0.8,1.2
	c0.4,1.4,1.9,2.2,3.3,1.9c2.1-0.4,4.3-0.5,6.4-0.1c0.6,0,1.3-0.1,1.9-0.2c0.7-0.3,1.4-0.3,2.1-0.1c0.7,0.2,1.3,0.7,1.6,1.4
	c1.4,2.1,3.3,2.3,5.6,1.8c2.9-0.6,5.8-1.6,9-1.7c1.8-0.1,3.5-0.4,5.2-1c1.5-0.8,3.7-0.2,5.4-0.5c0.8,0,1.3-0.6,2.1-0.6
	c1.3-0.4,2.6-0.6,4-0.6c1.7-0.1,3.3-0.2,5-0.5c2.5-0.6,5-1.6,5.1-4.9c0.2-1.4,1.2-1.8,2.3-2c1.5-0.4,3.1-0.6,4.6-1
	c1.7-0.4,2.3-0.4,3.3,0.9c1.6,2.1,3.4,3.8,6.2,2.8c0.4,0.6,0.8,1,0.8,1.5c0.8,2.3,2.7,2.7,4.9,2.6c1.1-0.1,2.2-0.2,3.3-0.4
	c2.5-0.6,4.8-1.4,7.3-1.9c2.1-0.4,4-1.3,5.5-2.8c0.4-0.6,0.9-1,1.5-1.3c0.6-0.3,1.3-0.4,1.9-0.3c0.5,0,0.9-0.2,1.3-0.4
	c1.2,0.8,2.1,1.5,3.1,2.3c1.3,1.3,3.3,1.7,5,1.1c1.4-0.4,2.8-1,4.2-1.6c1.2-0.4,2.5-0.6,3.6-1c0.4,0.6,0.8,0.8,0.8,1
	c0.9,1.6,2.7,2.4,4.5,2c0.7-0.2,1.5-0.4,2.3-0.4c1.2-0.3,2.5-0.5,3.8-0.5c1.6,0.2,3.3,0.1,4.8-0.5c1.1-0.6,2.5-0.7,3.7-0.2
	c1.9,1,4.1,1.2,6.2,0.5c0.7-0.2,1.4-0.3,2.1-0.2c1.3-1.9,3-3.5,5-4.7c5.7-3.3,12.9-2.9,18.2,1c2.8-0.9,5.5-2.1,8.2-3.1
	c1.2-0.5,2.4-0.8,3.6-1c1.9-0.4,2.4-0.2,3.1,1.5c0.5,0.8,1,1.6,1.4,2.5c1.8,3.4,2.6,3.8,6.2,3.4c1.7-0.3,3.3-0.5,5-0.7
	c0.8,1.7,1.8,3.1,2.6,4.7c1.8,3.4,4.3,5.7,10.1,4.6c0.8-0.2,1.5-0.2,2.5-0.4c0.4,0.8,0.8,1.6,1.2,2.3c0.4,1.3,1.8,2.1,3.1,1.8
	c1,0,1.9-0.2,3.1-0.2s2.1-0.4,2.9,0c3.5,1.5,6.8,0.7,10-0.5c1.5-0.4,3.1-0.8,4.6-1c2.1-0.4,4.2-0.6,6.3-1.1c2.4-0.5,4.6-1.6,6.5-3.2
	c1.6-1.4,3.6-2.4,5.7-2.8c2.9-0.6,5.8-0.9,8.4-2.1c0.8-0.3,1.6-0.3,2.3,0.2c1.3,0.5,2.7,0.7,4.1,0.5c1.4-0.2,2.7-0.5,4-0.9
	c1.6-0.7,3.4,0,4.3,1.5c1.4,1.8,3.8,2.6,6,2c3.7-0.8,3.9-0.3,4.9,2.6c0.1,0.3,0.2,0.5,0.4,0.8c1,2.1,2.2,2.9,4.5,2.4
	c1.7-0.4,3.4-0.6,5.4-1c1.1-0.3,2.2-0.5,3.3-0.4c3.5,0.9,6.7-0.1,9.8-0.5c2.4-0.4,4.6-1.6,6.1-3.5c0.4-0.8,1.2-1.3,2.1-1.4
	c1.9-0.8,4-1.4,5.9-2.2s1.9-1,3.5,0.7c1.1,1.3,2.8,2,4.5,1.9c2.5,0.2,5-0.2,7.3-1.1c0.9-0.4,1.9-0.6,2.9-0.4
	c2.7,0.6,5.6,0.4,8.3-0.3c3.3-1.3,6.7-2.3,10.1-2.9c3.1-0.4,3.1-0.6,4.3,2.2c0.8,1.6,2.3,2.7,4.1,3c2.6,0.6,5.4,0.4,7.9-0.7
	c1.3-0.5,2.6-0.9,4-1c3.1-0.6,6.2-0.9,9.2-1.5c0.8,0,1.3,0,1.8,0.5c0.6,0.8,0.8,1.5,1.4,1.9c1,0.9,2,2.3,3.1,2.5
	c3,0.7,6.1,0.3,8.8-0.9c1.3-0.8,2.7-2,4.2-2.8c0.6-0.5,1.3-0.7,2.1-0.8c1.6-0.1,3.2-0.6,4.6-1.4c0.9,0.3,1.7,0.7,2.5,1.2
	c2.2,0.6,4.5,0.6,6.7,0.1c1.1-0.3,2.3-0.5,3.5-0.5c1.5,0.2,3,0.2,4.4,0c0.4,0.7,1,1.3,1.8,1.7c2.1,0.7,4.3,1.5,6.4,2
	c0.6,0.1,1.3,0.1,1.9,0c0.9,0,1.8-0.1,2.7-0.2c1.9-0.2,3.8-0.5,5.4-2c0.4-0.6,0.8-1.3,1.1-2c1.3,0.3,2.6,0.5,3.9,0.5
	c2.4,0.3,4.8,0.9,7.1,1.6c1.5,0.5,3.1,0.6,4.6,0.3c1.5-0.3,3-1,4.2-2c0.7-0.5,1.4-0.8,2.2-0.9c0.8-0.1,1.6-0.1,2.4,0.1
	c1.5,0.2,3.3,0.1,5,0.3c1.3,0.1,2.5,0.4,3.8,0.7c1.4,0.6,2.9,0.9,4.5,0.7c2.2-0.1,4.3,0.2,6.4,0.9c3.2,0.9,6.4,1.5,9.7,2
	c0.4,0.2,0.8,0.2,1.2,0.2c0-3.9-2.2-7.1-4-10.4c-1-2-1.8-4.1-2.2-6.3c-0.4-1.7-0.6-3.6-1-5.6c-0.2,0.2-0.6,0.6-0.8,0.8
	c-1.3,1.4-3.1,0.6-4.6,0.1c-0.4,0-0.8-0.4-1.2-0.8c-2.2-1.2-4.6-2.1-7-2.8c-2.2-0.4-4.3-1.2-6.2-2.4c-2.3-1-4.8-1.4-7.3-1.2
	c-0.8-0.2-1.7,0.6-2.5,1.4c-1.7,1.4-1.5,1.4-3.5,0.8c-2.2-0.5-4.5-0.9-6.8-1.2c-0.9,0.1-1.7,0-2.5-0.3c-2.3-0.7-4.7-1.1-7.1-1.1
	c-0.7,0-1.4,0.2-2,0.5c-0.6,0.3-1.2,0.8-1.6,1.3c-0.4,0.4-0.8,0.8-1.1,1.2c-0.6,0.8-1.2,0.8-2.1,0.6c-2.9-1.3-6.1-1.7-9.3-1.2
	c-0.5,0.1-1.1,0.1-1.5-0.2c-2.3-0.1-4.6-0.7-6.9-0.9c-1.8-0.1-3.6-0.6-5.2-1.4c-2.6-1.3-5.3-2.1-8.2-2.4c-2.5-0.1-3.8,0.6-4.6,3
	c-0.7,2-1.1,3.7-1.6,5.6c-0.1,0.1-0.1,0.2-0.2,0.3c0,0.1,0,0.2,0,0.3c-1.7-0.2-3.5,0-5.2,0.5c-1.9,0.5-3.9,0.5-5.8-0.1
	c-5.6-1.6-10.7-0.8-15,3.1c-1.5,0.9-3.2,1.4-5,1.2c-1.4-0.2-1.8-1.3-2.5-2.1c-0.3-0.3-0.5-0.6-0.6-1c-0.9-1.4-2.3-2.4-3.9-2.8
	c-0.5-0.1-1-0.4-1.5-0.7c-0.4-0.3-0.8-0.7-1.1-1.2c-0.8-1.1-2-1.8-3.3-1.9c-2.8-0.5-5.6-0.3-8.3,0.5c-2.3,1-4.2,1.8-4.7,4.5
	c0,0.2-0.2,0.2,0,0.2c-0.3,0.2-0.6,0.3-0.9,0.4c-0.3,0.1-0.7,0.1-1,0c-0.3-0.1-0.6-0.2-0.9-0.5c-0.3-0.2-0.5-0.5-0.6-0.8
	c-0.7-1.2-1.7-2.1-2.9-2.6c-2.5-0.9-5.2-1.1-7.7-0.5c-2.1,0.4-4.2,0.8-5.7,2.6c-0.4,0.6-0.9,1-1.6,1.2c-0.7,0.2-1.4,0.2-2-0.1
	c-3.8-0.7-7.8,0-11.1,1.9c-1.5,0.6-2.5,2.1-2.4,3.7c-3.2,1-6.3,2.4-9.4,3c-3.3,0.5-6.7,0.7-10,0.5c-1.5,0-3.1-0.3-4.6-0.3
	c-4-0.1-3.6,0.4-6.2-3.4c-1.4-2.3-3.6-3.9-6.2-4.5c-1.2-0.1-2.4-0.2-3.6-0.1c-1.6,0.2-3.2-0.1-4.5-1.1c-1-0.8-2.1-1.4-3.3-1.8
	c-2.8-0.7-5.8-0.7-8.7,0c-2.5,0.4-4.6,1.2-5.9,3.4c-0.5,1-1.3,1-2.5,1.2c-1.2-0.1-2.5,0.1-3.6,0.4c-2,0.5-4.1,0.8-6.1,0.9
	c-0.8,0.1-1.7-0.1-2.4-0.5c-0.7-0.4-1.3-1-1.7-1.7c-0.6-0.6-1.1-1.2-1.6-1.9c-1.1-1.7-2.9-2.8-4.9-3.2c-3.4-0.8-6.9-0.1-9.8,1.9
	c-0.8,0.5-1.6,0.9-2.5,1.2c-3.8,1-7.7,1.9-11.7,2.7c-1.2,0.2-2.4,0-3.5-0.5c-2.4-1.5-5.2-2.1-7.9-1.6c-0.7,0.2-1.5-0.1-1.9-0.7
	c-0.5-0.5-1-1-1.4-1.5c-0.7-1.1-1.7-1.9-2.9-2.5c-1.1-0.6-2.4-1-3.6-1c-1.8-0.1-3.6,0-5.4,0.5c-4.2,0.6-8.3,1.5-12.5,2.4h-1.7
	c-1.8,0.2-3.6-0.4-4.8-1.6c-2.2-2.3-5.1-3.4-7.9-2.4c-1.8,0.6-3.8,0.5-5.6-0.3c-2.1-0.8-4.5-0.6-6.5,0.5c-1.5,0.8-3,1.5-4.6,2
	c-2.3,0.8-4.7,1.4-7.1,1.9c-2.1,0.4-4,0.6-6-1.1c-1-0.8-2.2-1.3-3.5-1.5c-1.7-0.2-3.3-0.3-5-0.1c-2.7,0-5.4,0.1-8.1-0.1
	c-0.8-0.1-1.5-0.4-2.1-0.9c-2.3-2-5.6-2.6-8.5-1.6c-1.1,0.4-2.3,0.6-3.5,0.6c-1.6-0.1-3.2,0.2-4.7,0.8c-0.8,0.4-1.8,0.7-2.7,0.8
	c-3.3-0.3-6.5,0.5-9.6-0.2c-0.8-0.3-1.7-0.5-2.5-0.6c-1.1-0.2-2.3-0.6-3.3-1.1c-2.4-1.4-5.3-1.7-7.9-0.8c-4.6,1.4-9,3.2-13.6,4.6
	c-1.2,0.4-2.5,0.6-3.8,0.4c-1.1-0.3-2.4-0.2-3.5,0.2c-2.1,0.6-4,1.6-6.3,1.4c-1.7,0-3.5,0.4-5,1.2c-3.8,2.2-4.4,1.8-3.7,6.4
	c0.2,0.8-0.1,1.7-0.6,2.3c-0.3,0.3-0.6,0.5-1,0.7c-0.4,0.1-0.8,0.2-1.2,0.2c-2-0.1-4.1-0.6-6-1.3c-1.9-0.5-3.7-1.7-5.6-2.4
	c-1.2-0.4-2.2-1.1-2.9-2.1c-0.6-0.9-1.5-1.7-2.5-2.1c-1.4-0.5-2.8-0.8-4.2-0.7c-0.9,0.2-1.7-0.1-2.4-0.7c-1.8-2.1-4.3-2.6-6.8-3
	c-1.1-0.2-2.3-0.6-3.3-1.1c-2.7-1.3-26.3-2.2-29.6-1c-1,0.4-18,0.2-18.9-0.1c-1.7-1-3.6-1.6-5.6-1.5c-1.2,0.2-2.5,0-3.7-0.5
	c-4.7-1.9-8.1-0.8-11.3,2.7c-0.4,0.4-0.7,1-1.3,1c-2.1,0.6-4.4,1.6-6.7,1.1h-0.6c-0.6,0.4-1,0.8-1.7,1.4c-2.7,2-4.9,4.9-7.6,7.4
	c2.4,2.7,4.3,4.9,6.3,7.2c1.6,1.9,3,4,4.5,6.1c0.8-0.4,1.5-1,2.3-1.4c1.6-0.7,3.4-0.9,5.2-0.7c1.4,0.3,2.8,0.4,4.2,0.1
	c4.6-0.5,9.2-1.1,13.8-1.8c2.2,2.5,18,2.5,21.3,2.6C86.8,258.1,88.8,257.7,90.6,257.1z M639.1,286.5c-1.1,0.1-2.2-0.2-3.2-0.7
	c-1.6-0.8-3.4-0.9-5-0.3c-2.1,0.9-4.1,2-5.9,3.4c-1.7,1.2-3.5,1.6-5.2,0.7c-2.1-1.1-4.2-0.9-6.5-0.5c-1.1,0.4-2.3,0.4-3.5,0
	c-1.9-0.8-4-1.1-6-0.9c-1.5,0.1-2.9-0.3-4.2-0.9c-0.8-0.4-1.6-0.7-2.5-0.7c-0.9,0-1.7,0.2-2.5,0.6c-1.6,0.9-3.4,1.3-5.2,1.2
	c-1.6,0.2-3.1,0.6-4.6,1c-1.3,0.4-2.6,0.6-4,0.5c-1-1.1-2.4-1.8-3.9-2.1l-2.9-0.5c-0.7-0.4-1.5-0.6-2.4-0.5c-0.3,0-0.7-0.1-1-0.2
	c-2.6-0.4-5.2-0.2-7.7,0.5c-1.8-0.5-3.7-0.4-5.4,0.3c-1.1,0.5-2.3,0.7-3.5,0.8c-2.4-0.2-4.4-0.3-6.5,1.1l-0.2,0.2
	c-0.4-0.2-0.8-0.2-1.2-0.4c-1-0.1-2.1-0.1-3.1,0c-1,0.2-2,0.4-2.9,0.8c-0.7,0.3-1.5,0.4-2.3,0.2c-0.8-0.2-1.5-0.5-2-1.1
	c-0.6-0.4-1.3-0.7-2-0.9c-1.8-0.4-3.6-0.7-5.4-0.9c-1.2-0.1-2.3-0.5-3.1-1.3c-0.7-0.8-1.7-1.4-2.7-1.7c-2-0.4-4.1-0.6-6.2-0.5
	c-2.9,0.4-5.9,0.9-7.2,4.2c-0.2,0.3-0.5,0.5-0.8,0.6c-1.6,0.7-3.2,1.4-4.7,2.2c-0.2,0.1-0.5,0.2-0.8,0.3c-0.3,0-0.6,0-0.9-0.1
	c-0.3-0.1-0.5-0.2-0.8-0.4c-0.2-0.2-0.4-0.4-0.5-0.7c-0.6-1-1.5-1.7-2.5-2.1c-3.1-0.9-6-1.5-8.9-0.6c-2.5,0.6-4.7,1.4-7.1,2.2
	c-1.7,0.5-3.6,0.9-5.4,1c-1.5,0.1-3,0.4-4.4,0.8c-1.3,0.5-2.5,1.1-3.6,1.8c-1.2,0.6-2.7,0.8-4,0.5c-0.2,0-0.5-0.1-0.7-0.2
	c-0.2-0.1-0.4-0.3-0.5-0.5c-1-1.5-2.5-2.7-4.3-3.2c-0.5-0.3-1-0.7-1.4-1.2c-1.1-1-2.4-1.6-3.9-1.9c-2.5-0.8-5.2-0.8-7.7,0
	c-2,0.8-4.3,0.9-6.3,0.3c-3.9-0.9-7.1,0.9-10.4,1.9c-0.3,0.1-0.5,0.2-0.7,0.4c-0.2,0.2-0.4,0.4-0.5,0.6c-0.9,1.4-2.3,1.4-3.6,1.6
	c-3.3-0.1-6.6,0.8-9.4,2.5c-1.7,1.2-3.8,1.4-5,0.1c-1.8-2.1-3.9-3.5-5.7-5.5l-0.4-0.4c-0.5-1-1.2-1.9-2.1-2.6
	c-0.9-0.7-2-1.1-3.1-1.2c-4-0.5-7.9-0.6-10.9,2.5c-0.2,0.3-0.5,0.5-0.8,0.6c-0.3,0.1-0.7,0.2-1,0.2c-2.4,0.1-4.7,0-7.1-0.3
	c-3.5-0.7-7-1-10.2,1c-1.6,0.8-3.4,1-5.2,0.7c-1.4-0.4-2.9-0.5-4.3-0.9c-1.6-0.3-3.2-0.3-4.7,0.1c-1.6,0.4-3,1-4.3,2
	c-0.6,0.7-1.6,1-2.5,0.8c-1.1,0-2.2-0.2-3.3-0.5l-4.5-1.1c-1-0.4-2.2-0.7-3.3-0.7c-3.3-0.4-6.6-1.1-9.9-2c-1.8-0.5-3.6-0.9-5.4-1.3
	c-0.8-0.1-4.3,1.5-5.2,1.3l0,0c-0.1-0.2-0.1-0.5-0.5-0.4c-0.2,0.1-0.2,0.3-0.2,0.6l0.5,2.2l0.4,1.3c0.6,1.9,2.2,2.7,2.8,4.4
	c0.1,0.6,0.2,1.2,0.1,1.8c-0.1,0.6-0.1,1.1,0,1.7c0.4,1.6,0,2.7,0.3,3.5s1,1.2,1.1,1.5c0.2,0.8,0.1,1.7-0.2,2.5
	c-0.3,1.2,0,1.5,0.2,2.9c0.2,1,0,2.1-0.5,3.1c-0.4,0.8-0.9,1.1-1,1.7c-0.3,1.2,0.6,1.3-0.1,2.7c-0.3,0.8-0.8,1.5-1.5,2
	c-0.3,0.2-1.2,0.8-2,1.4s-1.6,1.2-2.5,1.8c-0.4,0.1-1.1,0.1-1.2-0.3c-0.2-0.9,0.8-0.9,1.2-1.6c0.1-0.7,0.2-1.4,0.2-2.1
	c0.1-1.3,0.7-2.6,1.6-3.6c1.2-1.6,1.2-1.8,0.8-4c-0.3-1.8,0.7-3.1,0.4-4.2s-1.1-1.4-1-2.5c0-0.5,0.1-0.9,0.3-1.3
	c0.4-1.3-0.4-2.5-1-3.7c-0.4-0.9-0.9-1.9-1.5-2.7c-1.2-1.4-2.2-2.9-3.1-4.5c-0.7-1.5-2.2-2.4-3.3-4.5c-0.9-1.4-2.2-2.5-3.8-3.1
	c-1.4-0.9-2.8-2-4-3.1c-1.5-1-2.2-3-3.2-4.4c-0.6-1-1.3-2-2-3c-0.9-1.2-1.5-2.4-1.9-3.8c-0.4-1-0.7-2.1-1-3
	c-0.5-1.4-1.3-1.6-1.2,0.1c0,0.9,0.5,2.1,0.6,3c0.2,1.7-0.2,3.1,0.4,4.9c0.8,2.3,2.8,4.7,2.5,6.3c-0.5,2.5,0.6,4.1,2.1,5.9
	c2,2.2,2.5,1.9,4.5,3.5c0.5,0.3,0.9,0.7,1.3,1.2c0.4,0.6,0.8,1.1,1.2,1.6c0.7,0.9,1.3,1.1,1.6,2c0.2,0.6-0.6,1.9-0.3,2.6
	c0.4,1.2,1.6,1.2,2,2.2c0.5,1.4-1.2,2.9-0.8,4.2s1.3,1.4,1.6,2.1c0.2,0.6,0.1,1.2-0.1,1.8c-0.7,1.4-0.3,1.5,0,2.7
	c0.4,2.1-0.4,3.3-0.7,5.2c-0.1,1-0.3,2-0.7,3c-0.2,0.4-0.3,0.8-0.6,1.2c-0.5,1-0.7,1.2-0.5,2.2c0.4,1.7-0.7,1.1-2,2.7
	c-0.7,0.9-1.4,3.3-2.1,3.5c-1,0.4-1.3-1.8-1.3-2.4c0.1-0.8,0.9-2.1,0.7-2.7c-0.4-1.2-0.8-1.3-1.3-2.4l-0.2-0.7
	c-1-2.7,2.9-3.9,2.2-7.4c-0.2-1.2-0.5-1.6-0.5-2.1c0-0.8,0.2-1.5,0.5-2.2c0.8-2.3,0-2.3,0-4.5c0.1-3.9,1-4-3-6.8
	c-1.4-1-1.2-2.8-2.1-4.4c-0.5-0.9-2.6-1.2-3.1-2.6c-2-5.7-1.5-5.6-5.7-8.4c-1.1-0.7-2.8-2.2-3.7-2.7c-0.7-0.3-1.3-0.6-1.9-1.1
	c-0.5-0.4-1.2-2-1.7-1.8c-0.8,0.3-0.3,2.7,0,3.5l0.2,0.5c1.2,3.4,4.9,4.6,5.3,5.9l0.1,0.2c0.6,1.8-1.3,2.4,1,4.7
	c0.9,0.9,1.7,1.8,2.4,2.9c0.3,0.4,0.6,0.8,0.7,1.3c0.1,0.5,0.1,1-0.1,1.5c-0.3,0.5-0.4,1.2-0.2,1.8c0.6,1.7,2.4,1.1,3.6,4.4
	c1.1,3.1-1.6,3.4-1,6v0.3c0.6,1.9,2.4,3,1.5,4.9c-1.2,2.4-1.2,2-0.2,4.7l0.2,0.5c0.4,1.3-0.5,3.9,0.1,6.8c0.7,3.5-0.2,4.4,0.1,6.9
	c0.3,2.9,1.5,4.3,1.2,7.3c-0.2,2-0.8,4.3,0.1,6.8c0.3,1,1.5,1.7,2,2.6c0.4,0.6,1.5,2.9,2,2.7c1-0.4,0.9-2.4,0.6-4.1
	c-0.1-0.8,0-1.6,0.1-2.4c0.1-1,0.4-1.9,0.9-2.8c0.4-1,0.6-2.1,0.6-3.2c0.1-0.8,0.5-1.6,1.1-2.3c0.9-0.9,1.6-1.9,2.1-3
	c0.1-0.5,0.2-0.9,0.5-1.4c0.4-0.5,0.8-0.7,1.4-1.2c0.7-0.8,1.5-1.6,2.5-2.1c1.6-0.6,2.6,0.7,4.1,0.2c0.7-0.2,1.6-1.9,2.6-2.3
	c3.8-1.4,6.1-2.2,9.5-0.6c0.7,0.4,1.3,0.8,1.8,1.3c0.6,0.4,1,0.3,1.7,0.7c0.6,0.4,1.1,0.8,1.5,1.4c0.3,0.5,0.4,1,0.7,1.4
	c0.4,0.6,0.9,1,1.4,0.9c0.5-0.2,0.9-0.5,1.3-0.8c0.8-0.5,1.7-0.7,2.6-0.7c0.6,0.2,1.1,0.5,1.5,1c0.9,1,0.5,1.2,1.8,2.2l0,0
	c-0.1,0.5-0.2,1.1-0.3,1.8c0,0.1-0.1,0.3-0.2,0.4c-0.6,0.4-1.2,0.5-1.9,0.5h-0.3c-0.2-0.2-0.4-0.5-0.6-0.7c-0.4-0.5-0.9-0.8-1.5-1.1
	c-0.6-0.2-1.2-0.3-1.8-0.3c-2.3-0.1-1.5-0.2-3.5-1c-1.3-0.6-2.7-1.1-4-1.6c-0.6-0.1-1.2-0.1-1.8,0c-0.5,0-1-0.2-1.5-0.2
	s-0.9,0.4-2,0.3c-0.6-0.1-1.2-0.1-1.9-0.2c-2.1-0.3-2.5,1.3-3.7,1.7c-0.9,0.3-1.6,0.6-2.3,0.8c-1.2,0.3-2,0.2-3.2,1.8
	c-0.4,0.5-0.9,1.4-1.5,2.2s-1,1.3-1.4,1.9c-0.5,0.7-0.8,1.5-1.1,2.4c-0.2,0.9-0.3,1.8-0.4,2.8c-0.3,1.7-0.2,3.6,0.2,5.3l0.2,0.5
	c0.6,1.7,1.8,3,2.6,4.6s1.3,3.3,2.5,4s1.6-0.1,3,1.1c0.4,0.3,0.9,0.6,1.4,0.9c0.4,0.3,0.8,0.5,1.2,0.7c0.5,0.2,1.1,0.2,1.6,0.1
	c1.7-0.3,1.9-1.1,3.5-0.1c0.8,0.5,1,0.7,1.9,0.4c0.8-0.4,1.5-0.9,2-1.5c0.8-0.8,1.4-0.6,2-1.2c0.8-0.6,1.4-1.4,2-2.2
	c0.6-0.9,1.1-1.9,1.4-2.9c0.1-0.7,0.1-1.4,0-2.1c0-0.8-0.1-1.5-0.3-2.2l-0.3-0.9c-0.5-1.6-2.2-4.1-3.5-3.9s-1.3,0.8-3,0.3
	c-0.3-0.1-0.6-0.3-0.9-0.5c-0.3-0.2-0.6-0.6-1-0.5c-1.2,0.3-1.6,1.2-2.4,1.4c-0.3,0-0.6,0.2-0.8,0.3c-0.3,0.2-0.5,0.4-0.6,0.6
	c-0.4,0.7-0.7,1.4-0.8,2.2c-0.1,1.4,0.3,3,1,2.7c1.2-0.5,1.3-2.2,2.3-2.5s3.2,0.2,3.5,1.4l0.3,1c0.5,1.5-0.9,2.6-1.7,3.5
	c-0.2,0.3-0.9,1.2-1.6,2c-1.1,1.3-1.2,1.7-2.9,0.9c-0.8-0.4-1.6-1-2.5-1.4s-1.5-0.5-2.1-0.8c-0.6-0.3-1-0.7-1.3-1.3l-0.6-1.8
	c-0.2-0.6-0.2-1.3-0.1-1.9c0.1-0.7,0.3-1.5,0.4-2.4c0.2-1.3,0.2-2.8,0.3-3.3c0.2-1,0.7-1.9,1.3-2.6c0.6-0.9,1.5-1.7,2.6-2.1
	c0.7-0.2,1.4,0,2-0.2c1.2-0.4,1.8-1.3,3-1.8l2-0.7c1.5-0.5,2.4,0.9,3.4,1.5c0.6,0.4,1.4,0.7,2.1,0.7c0.6-0.2,1.2-0.2,1.8,0
	c0.5,0.2,1.5,2.2,2.2,3c1.1,1.3,1.5-0.1,2.4,2.2c0.5,1.3,1,2.4,1.3,3.5c1,3.2,0.8,6.7-0.4,9.8c-0.6,1.8-1.8,3.5-3.2,4.7
	c-1.6,1-1.6,0.2-3.1,1.7s-1.2,0.9-2.9,1.5l-0.7,0.2c-1.2,0.5-1.6,1.4-3.4,2l-0.4,0.1c-1.3,0.5-2.2-0.1-3.3-0.4s-2.4,0.3-3.5,0.1
	c-1.7-0.5-3.5-2.7-5.3-3.5c-1.3-0.6-1.7,0.4-3-0.8c-0.7-0.8-1.5-1.6-2.5-2.1c-1-0.4-1.9-0.9-2.7-1.6c-0.4-0.5-1.4-2.6-2.4-2.4
	s-0.5,1.9-0.2,2.8l0.6,1.9c0.6,1.8,1.5,1.5,2.6,2.1s1.5,1.2,2.5,2.5c0.5,0.7,1.1,1.2,1.8,1.6c1.2,0.6,2.2,0.3,3.8,2
	c4.4,4.4,3.8,1.4,5.9,2.9c1.1,0.7,1.5,1.4,3.1,1.2c2.5-0.2,2.5-1,4.3-1.6c1.2-0.2,2.4-0.4,3.6-0.7c1-0.4,2-0.8,3-1.2
	c0.9-0.2,1.7-0.4,2.6-0.5c1.5-0.5,2.2-3,3.4-3.3c1-0.3,1.8-0.9,2.4-1.7c0.4-0.7,0.8-1.4,1.4-2c1.1-0.8,1.9-2,2.3-3.2
	c0.3-0.4,0.5-0.9,0.6-1.4c-0.1,0.5-0.2,1-0.4,1.5c1.3-0.4,2.6-0.9,3.8-1.7c1.5-1,1.5-2.5,1.9-3.9c1.9-0.6,3.5-1.2,5.2-1.6
	c1.1-0.3,2.2-0.3,3.3,0c2.7,0.9,5.5,1.2,8.3,0.8c0.1,0.3,0.3,0.6,0.6,0.8c1.2,1.7,2.4,3.2,5,2.4c1.7-0.4,3.5,0.5,4.1,2.2
	c0.6,1.7,1.4,3.5,2,5.2c1,2.7,1.8,3.3,4.5,3.2c2.7-0.2,5.6-0.5,8.6-0.7c0.6,0.6,1.4,1.5,2.2,2.3c0.6,0.6,1.2,1.3,1.9,1.3
	c3.1,0.1,6.2,0.3,9-1.1c1.3-0.8,3.2-1.6,3.8-3.1c0.4-1.9,1.7-2.7,3.2-3.5c2.1-1,3.8-2.4,3.8-4.9c1.5,0,2.9-0.2,4.4-0.3
	c0.2,0.5,0.5,0.9,0.9,1.3c0.4,0.6,1,1,1.7,1.3c0.7,0.3,1.4,0.3,2.1,0.2c2.7-0.4,3.1-0.4,4.3,1.9c0.2,0.4,0.6,0.8,0.6,1.2
	c0.8,2,2.8,3.2,5,3c3.3,0,6.8-0.1,10.2,0c3.2,0.1,6.4-0.8,9.2-2.5c0.5-0.3,0.9-0.7,1.3-1.1c0.3-0.5,0.5-1,0.6-1.6
	c0-1,0.2-1.7,0.1-2.9c3.5,0,6.9-0.9,10-2.5c0.3,0,0.5-0.1,0.8-0.2c0.7-0.2,1.3-0.2,2-0.1c0.7,0.1,1.3,0.4,1.9,0.8
	c0.8,0.4,1.6,0.7,2.5,0.9c2.4,0,3.3,1.1,3.9,3c0.4,1.3,1,2.6,1.6,3.8c0.5,0.9,1.2,1.5,2.2,1.9c2.7,0.7,5.4,1.1,8.1-0.1
	c2.5-1.2,5.3-1.7,8.1-1.5c1.1,0.1,2.2-0.1,3.3-0.4c3.1-1.2,6.3-0.7,9.5-0.9c0.4,0,0.8,0.4,1.2,0.5c1.2,0.7,2.6,1,4.1,0.9
	c1.7,0,3.5,0.1,5.2,0.1c3.1,0.1,6.2,0.3,8.8-1.1c0.3-0.1,0.7-0.2,1-0.1c0.4,0,0.7,0.1,1,0.3c2.3,0.9,4.8,0.9,7.1,0.1
	c1-0.6,1.7-1,2.7-1.6c2.1-1,2.9-0.8,4.5,0.9c0.3,0.3,0.6,0.7,0.8,1.2c0.2,0.4,0.5,0.8,0.9,1c0.5,0.3,1,0.4,1.6,0.4
	c1.7,0.1,3.5,0,5.2-0.1c0.6-0.1,1.2-0.1,1.8,0.1c0.6,0.2,1.2,0.4,1.6,0.8c0.9,0.7,2,1.1,3.1,1.1c2.2,0.1,4.4,0,6.5-0.3
	c0.9-0.1,1.8-0.5,2.6-1c0.8-0.5,1.4-1.3,1.8-2.1c0.7-1.3,1.6-2.3,2.8-3.1c2,1,4.2,1.2,6.4,0.7c1-0.2,1.9-0.2,2.9,0
	c2.7,0.2,5.5-0.1,8.1-1.1c1.4-0.3,2.8-0.4,4.2-0.3c2.3-0.1,4.6,0.7,6.4,2.2c1.1,1,2.4,1.6,3.9,1.8c1.4,0.2,2.9,0,4.2-0.6l1.7-0.6
	c1.1-0.4,2.3-0.4,3.3,0.1c0.7,0.4,1.4,0.5,2.2,0.6c0.8,0,1.5-0.1,2.2-0.5c0.4,0,0.8-0.2,1.2-0.2c1.4-5,4.5-8.9,7.7-12.8
	c1-1.1,1.7-2.4,1.9-3.9c-0.2-0.1-0.4-0.3-0.6-0.3c-1.3-0.4-3.1-0.7-4.6-1.1c-1,0-1.8-0.7-2-1.7c-0.2-3.1-2.8-4-4.9-5.3
	c-0.2-0.2-0.6-0.2-1-0.4c-2.4-0.7-4.6-0.9-6.5,0.7c-2.2-0.9-4.5-1.6-6.8-2.2c-1.5-0.4-2.9,0.4-3.8,2.2c-0.6,1.2-1.1,2.4-1.7,3.5
	c-0.4,1.2-0.9,2.1-1.3,3.1c-1.8,0.2-3.6-0.1-5.2-0.7c-0.9-0.5-1.9-0.8-2.9-1.1c-0.6-0.2-1.2-0.2-1.5-0.6c-1.8-1.5-3.9-1.7-6-2
	c-0.6-0.1-1.2-0.1-1.8,0.1c-0.6,0.2-1.1,0.5-1.5,0.9c-0.4-0.2-0.6-0.4-1-0.6c-0.6-0.5-1.3-0.8-2.1-0.9c-3.1-0.1-6.2-1.1-9.2,0.3
	l-1.2,0.6c-0.7-0.4-1.4-0.7-2.1-0.9c-1.9-0.7-3.8-1.1-5.8-1.3c-1-0.1-1.9-0.1-2.9,0c-1.7,0.3-3.5,0.4-5.2,0.1
	c-3.1-0.4-3.8,0-5.1,3.2l-0.6,1c-0.8-0.4-1.5-0.7-2.4-0.9c-2.3-0.7-4.6-0.8-6.9-0.3c-0.7,0.1-1.4,0-2.1-0.2c-3.3-0.8-6.8-0.6-10,0.5
	c-1.9,0.8-3.8,1.4-4.4,3.5c-3.5-0.1-6.7-0.3-10.2-0.6c-1.3-2-3.4-3.4-5.8-3.5c-2.8-0.3-5.5,0.2-8.1,1.3c-2.6,1.1-5.5,1.6-8.3,1.3
	c-0.5-0.9-1.2-1.6-2-2.2c-0.8-0.6-1.7-1-2.7-1.2c-0.6-0.3-1.1-0.7-1.6-1.2c-1-1.8-3-2.9-5-3c-1.9-0.3-3.7-0.6-5.6-0.7
	c-1.5,0-3.1-0.1-4.8-0.1c-1.1-0.2-2.3-0.3-3.5-0.3c-3.6,0.4-7.7,0.7-8.6,5.5c-1,0.2-1.7,0.4-2.5,0.6c-2.5,0.4-5,0.9-6.3,3.2
	c-1,1.7-2.7,2.8-4.6,3c-1.8,0.5-3.8-0.2-4.9-1.8c-0.4-0.7-1-1.2-1.8-1.5c-3.6-1.4-7.6-1.7-11.4-1c-1.6,0.3-3.3,0.3-5,0.1
	c-2.4-0.3-4.7-0.3-7.1-0.1c-1.9,0.3-3.6,1.1-5.1,2.3c-0.7,0.7-1.2,1.5-1.7,2.4c-0.2,0.4-0.6,0.8-0.8,1.2c-0.6-0.3-1.3-0.6-1.9-0.8
	c-3-1.1-6.1-1.6-9.3-1.4c-0.9,0.1-1.8-0.1-2.5-0.5c-1.7-1-3.5-1.6-5.4-1.8c-1.5-0.4-3.1-0.5-4.8-0.9c-1.5-0.4-3.5-0.3-4.7-1.3
	s-1.8-2.7-2.6-4.2c-0.4-0.9-1-1.7-1.7-2.3c-0.7-0.6-1.6-1.1-2.6-1.3c-0.5-0.2-1-0.3-1.5-0.4c-1.5,0-2.8-1-3.3-2.5
	c-0.9-1.9-2.8-3.2-4.9-3.4c-3.4-0.8-6.9-0.5-10.1,0.9c0.1-0.7,0-1.4-0.3-2l-0.2-0.5c-0.3-0.9-1.5-1.6-1.7-2.9
	c-0.3-1.4-0.1-2.9-0.4-3.9c-0.6-1.7-1.5-2.3-2.2-4.3c-0.6-1.7-0.9-3.3-1.5-5.3l-0.1-0.2c-0.3-0.8-1.7-2.5-2.2-2.4s-0.6,0.8-0.5,1.6
	c0.1,0.4,0.2,0.8,0.2,1.2c-0.1,0.2-0.1,0.5-0.2,0.8c0.1,0.6,0,1.2-0.2,1.8c-0.3,0.6-0.5,1.3-0.5,1.9c0,1.4,0.7,2,0.1,2.7
	c-0.4,0.4-1,0.2-1.3-0.1s-0.7-0.6-1.1-1s-0.7-0.5-1.1-0.8c-0.4-0.3-0.6-0.6-0.7-1.1c-0.1-0.4-0.1-0.9,0.1-1.3
	c0.2-0.6,0.6-1.1,0.8-1.8c0.1-0.5,0.2-1.1,0.1-1.7c0-2.5,0.4-1.7,0.1-3.1c-0.1-0.3-0.2-0.6-0.4-0.9c1.7,1.7,3.3,1.9,6.4,1.3
	c0.4-0.1,0.8-0.2,1.2-0.4c0.6,0.7,1.3,1.2,2.1,1.6c0.8,0.4,1.7,0.5,2.6,0.5c1.8-0.2,3.6-0.5,5.4-0.9c1.3-0.3,2.7-0.5,4-0.5
	c2.9,0.1,5.8,0.3,8.3-1.1c2.1-1.2,4.5-1.7,6.9-1.5c0.8,1,1.6,1.7,2.4,2.7c0.2,0.4,0.6,0.8,1,1c0.4,0.2,0.9,0.3,1.4,0.3l4.8-0.1
	c1,0,2.1-0.2,2.7,0.9c0.7,1.7,2.5,2.6,4.3,2.4c4,0.1,7.7-0.7,9.8-4.2c2.7-0.6,5.2-1.2,7.8-1.9c1.9-0.6,3.5,0.1,4.3,2.2
	c0.6,1.3,1.2,2.9,1.8,4.2c0.7,1.6,2.2,2.6,3.9,2.6c1.8,0,3.6,0.1,5.4,0.3l1.8,2.9c0.2,0.5,0.6,1,1.1,1.3c0.5,0.3,1.1,0.4,1.6,0.4
	c3.6,0.2,7.3-0.7,10.4-2.7c0.7-0.4,1.2-1,1.5-1.8c0.2-1,0.4-2.1,0.5-3.3c0.8,0,1.6,0,2.4,0.2c3.6,0.2,7.2-1,10-3.2
	c0.5-0.3,1.1-0.5,1.7-0.6c2.8-0.2,5.5-0.7,8.1-1.5c1.4-0.5,2.9-0.6,4.4-0.3c2.1,0.4,4.4,0.5,6.8,0.7h3.1c3.3,0.3,6.6,0.5,9.8-0.9
	c1,3.1,1.4,3.5,4.7,3.4h1.5c3.7-0.2,6.9-2.2,10.6-2.3c0.6-0.1,1.3-0.1,1.9,0c1,0.4,1.9,0.5,2.9,0.9c1.7,0.5,3.5,1.1,5.2,0.5
	c2.3-0.6,4.7-0.7,7.1-0.3c2.7,0.1,5.4,0.1,7.7-1.7c0.5-0.3,1.2-0.3,1.7,0c3.4,1.1,7.1,0.9,10.4-0.5c1.6-0.8,3.4-1.2,5.2-1.2
	c1.7-0.3,3.3-0.8,4.7-1.6c0.2,0,0.4-0.2,0.6-0.2c0.1,1.8,0.6,3.6,1.6,5.2c0.6,0.6,1,1.3,1.6,1.9c1.8,1.7,3.7,2.5,6,1.6
	c1.3-0.6,2.6-1.3,3.8-2c0.5-0.2,1-0.5,1.5-0.8c0.1,0,0.2,0,0.3,0c0.1,0,0.2,0.1,0.3,0.2c2.7,0.1,5.4,0.7,7.9-0.1
	c0.6,0.7,1.1,1.4,1.6,2.1c0.6,1.1,1.6,1.9,2.8,2.4c1.2,0.5,2.4,0.5,3.7,0.2c1.2-0.5,2.4-0.9,3.6-1.2c0.7-0.3,1.5-0.5,2.3-0.6
	c2.5-0.4,5-0.9,6.9-2.8c1.2-1.2,2.6-2.3,4-3.3c0.2-0.1,0.4-0.2,0.7-0.3c0.2,0,0.5,0,0.7,0c2.3,0.7,4.8,0.5,6.9-0.5
	c0.7-0.2,1.4-0.2,2.1,0c1.6,0.7,3.4,0.8,5,0.1c0.7-0.4,1.4-0.5,2.2-0.4c0.7,0.1,1.4,0.5,1.9,1.1c1.6,1.7,3.5,1.9,5.6,1.5
	c1.5-0.4,3.1-0.8,4.8-1.2c0.8,0.8,1.5,1.7,2.2,2.6c0.5,0.7,1.1,1.3,1.8,1.8c0.7,0.4,1.6,0.7,2.4,0.7c2.7,0,5.2-0.3,7.1-2.2
	c0.8-0.8,1.7-1.4,2.7-2c0.6-0.2,1.2-0.2,1.7,0c0.4,0,0.7,0.1,1,0.4c0.4-0.9,0.7-1.9,0.9-2.9c0.2-2.4,0.5-4.6,0.7-6.8
	c0.3-3.5-0.1-7.5,1.3-10.4c0.5-1.1,0.9-2.3,1.1-3.5C641.3,285.9,640.2,286.4,639.1,286.5z M322.8,294.6c-0.1-0.3-0.3-0.6-0.4-0.9
	c0.3,0.4,0.5,0.9,0.7,1.3L322.8,294.6z M131.1,206.5c0,0.2,0,0.5,0.1,0.7c0.6-0.2,1.2-0.4,1.8-0.7c2.9-1.2,5.9-1.1,8.6-2.3
	c0.4-0.2,0.8-0.2,1.2,0c4.6,1.3,9.2,0.4,13.7-1c1.5-0.4,3-0.8,4.6-1c0.2-0.1,0.4-0.1,0.6-0.1c0.2,0,0.4,0.1,0.6,0.2
	c1.3,0.5,2.7,0.6,4,0.1c0.8-0.2,1.7-0.4,2.5-0.4c1.4,0,2.7,0,3.7,1.3c0.6,1,1.8,0.9,2.9,0.7c2.3-0.7,4.7-1.1,7.1-1.3
	c1.9-0.2,3.9-0.4,5.8-0.9c1.2-0.4,2.7-0.8,3.7,0.3c1.8,2.2,4.9,3,7.5,2c1.5-0.6,3.3-0.2,4.4,0.9c0.5,0.5,1.1,0.8,1.8,1
	c0.7,0.2,1.4,0.1,2.1-0.1c1.2-0.4,2.5-0.6,3.6-1c2.5-1,5-2,5.1-5.3c0-0.4,0.1-0.9,0.4-1.2c0.3-0.4,0.7-0.6,1.1-0.7
	c1.4-0.3,2.8-0.6,4.2-1c1.3,1.5,3.4,2.1,5.2,1.5c2.8-0.7,5.6-0.9,8.5-0.5c1,0,2,0.2,2.9,0.5c1.3,0.6,2.7,0.9,4.1,0.7
	c2.3-0.6,4.6-1.4,6.9-2c0.4,0.6,1,1.2,1.4,1.7c0.6,0.8,1.4,1.3,2.4,1.6c0.9,0.3,1.9,0.3,2.9,0c2.3-0.6,4.6-1.4,7.1-2
	c0.4,0.3,0.7,0.7,1,1.2c0.4,0.8,1.1,1.4,1.9,1.7c0.8,0.3,1.7,0.3,2.5,0c0.8-0.1,1.6-0.3,2.4-0.6c0.5-0.2,1-0.3,1.6-0.3
	c0.5,0.1,1.1,0.3,1.5,0.6c0.5,0.5,1.1,0.8,1.7,0.9c0.7,0.1,1.3,0,1.9-0.4l1.2-0.6c0.5-0.3,1-0.3,1.5-0.1c0.3,0.1,0.5,0.2,0.7,0.4
	c0.2,0.2,0.4,0.4,0.5,0.6c0.3,0.3,0.4,0.6,0.4,1c0.3,0.6,0.8,1.1,1.4,1.5c0.6,0.3,1.3,0.5,2,0.4c1.7-0.2,3.5-0.4,5.4-0.7
	c1.3,2.2,4.1,3.1,6.4,1.8c0.5-0.3,1.1-0.3,1.6-0.2c0.5,0.1,1,0.5,1.3,0.9c1.5,1.9,4.1,2.6,6.4,1.6c1-0.4,1.9-0.6,2.9-1
	c0.5,1,1.1,2,1.8,2.9c1,1.7,2.2,3.4,3.4,5.1c1.4,2.1,3.3,2.5,5.6,1.9c1-0.4,2-0.8,3-1c5.2-1.4,5.5-3.2,5.9-7h1.4
	c5.2-0.9,10.2-1.7,15.4-2.8c1.6-0.4,3.2-0.9,4.7-1.6c2.3-1.2,4.4-2.6,4.1-5.7c0-0.4,0.2-0.8,0.4-1.2c1.3-1,3-1,4.4-0.1
	c0.4,0.3,0.8,0.7,1,1.2c0.6,1.2,0.8,2.3,1.4,3.2c0.8,1.9,1.6,2.5,3.7,2.1c0.5-0.1,1.1-0.2,1.5-0.4c1.2-0.2,2.1-0.6,3.5-0.8
	c1.2,2.1,2.2,4.2,3.2,6.1c1.4,2.7,2.5,3.1,5.2,2.2c2.1-0.6,4.6-1,6.3-2.4c1.9-1.6,4.2-0.8,6.1-1.6h0.2c1.9-0.8,3.9-1.4,5.9-2
	c0.5,1,1.1,2,1.8,2.9c1.4,2.1,2.6,2.7,4.8,1.7c1.4-0.4,2.5-0.8,4-1.4c0.6,0.6,1.1,1.4,1.6,2.1c0.4,0.8,1.1,1.5,1.9,1.9
	c0.8,0.4,1.7,0.6,2.6,0.5c0.9,0,1.8-0.2,2.7-0.6c2.1-0.6,2.7-0.4,4.1,1.5c0.4,0.6,0.6,1.4,1,1.9c0.3,0.6,0.7,1,1.3,1.3
	c0.6,0.3,1.2,0.4,1.8,0.4c1.1,0.1,2.2,0,3.3-0.2c3-1.2,6.1-1.8,8.8-3.6c0.2-0.2,0.6-0.4,0.4-0.2c1.4,0.2,2.5,0.4,3.5,0.5
	c1.6,0.1,3.3-0.2,4.8-0.9c2.3-1,4.7-1.8,7.3-0.7c0.6,0.2,1.3,0.4,2,0.3c0.7,0,1.3-0.2,1.9-0.6c2.3-0.9,4.8-1.4,7.3-1.3
	c1,0.1,2-0.1,2.9-0.6c1.2-0.7,2.5-1,3.9-1c1.3,0,2.7,0.3,3.9,1c0.7,0.4,1.4,0.6,2.1,0.6c2.5-0.6,4.7-1.4,6.9-2
	c0.7-0.1,1.3-0.4,1.9-0.8c0.6-0.4,1-0.9,1.3-1.6c1.6,0.9,2.9,2.3,4.5,2.6s3.5,0.1,5.4,0.3c1.2,1.5,2.4,3.4,3.5,5.1
	c0.9,1.3,2.3,2,3.9,1.9c3-0.1,6-0.9,8.6-2.3c1.6-0.8,2.5-2.5,2.2-4.3v-3.3c1.3-0.9,2.7-1.7,4.2-2.4c1.5-0.9,3.3-0.7,4.6,0.3
	c1,1,2.4,1.3,3.7,0.9c0.5,0,1-0.1,1.5-0.2c2.4,0,4.8-0.7,6.9-2c1-0.4,2.1-1,2.9-0.6c1.9,0.4,4,0.4,5.9,0.1c0.8-0.1,1.7,0.1,2.5,0.3
	c0.8,0.3,1.5,0.7,2.2,1.3c1.5,1.2,2.8,2.7,3.7,4.4c0.2,0.7,0.7,1.3,1.3,1.8c0.6,0.5,1.3,0.7,2,0.8c1.4,0.2,2.8,0.3,4.2,0.1
	c1,1.9,1.8,4,2.6,5.9c0.4,0.8,1,1.5,1.8,2.1c1.2,1.2,2.5,0.7,3.8-0.1c1.1-0.7,2.5-1.1,3.8-1c3.3,0.1,6.5-0.8,9.4-2.5
	c1-0.7,1.8-1.6,2.3-2.7c0-0.2,0-0.5,0.1-0.7c0.1-0.2,0.2-0.4,0.4-0.5c2-1.3,4-2.5,6.1-3.6c2.1-0.8,4.6-1.6,6.6,0.7
	c0.6,0.5,1.4,0.8,2.1,0.7c2.7,0,5.3-0.7,7.7-2c0.4-0.2,1-0.2,1.3-0.4c0.1,0.7,0.4,1.3,0.8,1.9c0.8,2.1,1.6,2.7,3.9,2.6
	c1,0,1.9-0.4,3.1-0.4c-0.8-2.2-1.9-4.4-3.1-6.4c-2.8-4.9-5.1-10.1-7-15.5c-0.2-0.8-0.4-1.5-0.6-2.1c-0.6,0.2-1,0.4-1.5,0.6
	c-2.1,1.1-4.5,1.3-6.7,0.7c-2-0.7-4.1-0.8-6.2-0.5c-1.3,0.3-2.7,0.3-4-0.1c-1.7-0.8-3.6-1.3-5.6-1.3h-0.6c-0.5-0.5-1-1-1.4-1.5
	c-0.6-0.8-1.2-1.6-1.6-2.5c-0.6-1.8-2.4-3-4.3-3c-1.9-0.2-3.8,0-5.6,0.7c-3.4,1-7.1,2.2-10.5,3.4c-1-1.2-2-2.3-2.8-3.2
	c-0.7-1-1.9-1.5-3.1-1.5c-1.3,0-2.9-0.1-4.2-0.1c-1,0.1-1.9,0.3-2.9,0.6c-3.1,0.8-5.5,2.4-4.9,6.2c-1.2-0.4-2.4-0.5-3.3-0.9
	c-1.7-0.4-3.5-0.6-5.2-0.5c-1.7,0.4-3.4,0.3-5-0.1c-3.9-1.1-7.5-0.1-11,1c-0.7,0.2-1.3,0.6-1.7,1.1c-0.5,0.5-0.8,1.2-0.9,1.8
	c0.1,0.6,0,1.3-0.2,1.9c-2.3,1-4.6,2-6.9,2.8c-0.2,0.1-0.5,0.1-0.7,0.1c-0.2,0-0.5-0.1-0.7-0.2c-1.9-0.7-4-1.2-6-1.4
	c-1.2-0.1-2.4-0.3-3.5-0.7c-0.8-0.4-1.7-0.7-2.5-0.9c-1.6-0.3-3-1.3-3.9-2.6c-0.6-1-1.4-1.7-2.4-2.3c-1-0.6-2.1-0.9-3.2-0.9
	c-2.9-0.2-5.9,0.3-8.6,1.3c-1.6,0.5-2.8,1.7-3.2,3.3c-0.4,1.9-1.7,2.4-3.4,2.4c-0.8,0-1.6,0-2.4-0.2c-2.9-0.7-5.9-0.7-8.9,0
	c-0.7,0.1-1.4,0-2.1-0.2c-4.1-1.7-8.7-1.9-12.9-0.6c-1.5,0.6-3.2,0.7-4.8,0.3c-2.8-0.6-5.7-0.4-8.5,0.3c-1.3,0.8-2.9,0.6-4-0.3
	c-0.8-0.4-1.6-0.6-2.5-0.7c-1.9-0.1-3.7-0.2-5.6-0.5c-0.9,0-1.8-0.2-2.5-0.7c-1.5-1.2-3.3-1.9-5.2-2c-1.5,0-2.9-0.2-4.4-0.1
	c-1.2,0.1-2.3-0.3-3.1-1.1c-1.3-1.2-2.9-2-4.7-2.2c-2.2-0.5-4.4-0.4-6.5,0.3c-1.2,0.3-2.4,0.5-3.7,0.4c-2.6-0.4-5.3-0.2-7.9,0.5
	c-0.5,0.1-1,0-1.5-0.2c-0.4-0.2-0.8-0.6-1.1-1c-0.6-0.9-1.3-1.8-2-2.7c-0.8-1.3-2.2-2.1-3.7-2.3c-2.5-0.5-5-0.5-7.5,0.1
	c-1.3,0.5-2.6,0.7-4,0.8c-2.5,0.4-4.8,1.4-6.7,3c-2.3,2.1-5,2.8-7.8,3.4c-0.4-0.6-1-1-1.2-1.3c-2.3-2.7-6-3.7-9.3-2.4
	c-1.2,0.4-2.5,0.8-3.8,1.4c-1.7,0.9-3.6,1.1-5.4,0.7c-0.9-0.3-1.8-0.3-2.7,0c-2.1,0.8-4.2,1.8-6.3,2.8c-0.8,0.3-1.6,0.5-2.5,0.4
	c-1.7-0.4-3.5-0.5-5.2-0.5c-0.8,0.1-1.5-0.2-2.1-0.7c-1.4-1.4-3.3-2.2-5.2-2.2l-4.2,0.1c-1-1.5-2-3.1-3-4.7c-1.8-3.1-4.7-3.8-8-3.7
	c-1.5,0.1-3,0-4.4-0.1c-1.4-0.2-2.9-0.7-4.1-0.3c-2.5,0.6-5,1.2-6.9,3c-1.6,1.4-3.9,1.9-5.9,1.2c-0.8-0.3-1.6-0.4-2.5-0.3
	c-0.8,0.1-1.6,0.3-2.4,0.7c-1.9,1.1-4.3,1.3-6.4,0.5c-1.3-0.3-2.6-0.5-3.9-0.7c-1,0-1.9,0.1-2.9,0.2c-1.2,0.4-2.5,0.4-3.7,0.1
	c-2.4-0.6-4.9-0.4-7.1,0.7c-1.5,0.6-3.3,0.8-4.7,1.4c-0.2-0.4-0.6-0.4-0.8-0.8c-3.9-3.2-8-4.3-12.8-1.9c-1.6,0.7-3.3,0.8-5,0.5
	c-0.8-0.2-1.7-0.1-2.5,0.2c-0.5,0.4-1.1,0.5-1.8,0.4c-0.6-0.1-1.2-0.4-1.5-0.9c-0.2-0.4-0.6-0.6-1-0.9c-2.1-2-5.3-2.6-8-1.4
	c-0.9,0.4-1.7,0.8-2.7,1c-2.1,0.4-3.1,2-3.4,4.1c0,0.6-0.2,1-0.2,1.6c-0.4,0.2-0.8,0.2-1.2,0.2c-2.3,0.8-4.8,0.9-7.1,0.1
	c-1.1-0.3-2.3-0.4-3.5-0.1c-1.2,0.5-2.6,0-3.3-1.1c-1-1.2-2.4-2-3.9-2.4c-2.4-0.7-4.2-0.1-6.3,0.5c-0.6-0.7-1.2-1.2-2-1.7
	c-2.4-1.5-4.7-2.6-7.3-1.2c-2.1,0.8-4.2,1.4-6.4,0.7c-0.7-0.3-1.5-0.4-2.3-0.1c-1.3,0.4-2.9-0.1-4.2-0.3c-1.4-0.3-2.8-0.2-4.2,0.1
	c-2.4,0.5-4.6,1.5-6.5,3c-0.1,0.2-0.3,0.3-0.5,0.4c-0.2,0.1-0.4,0.2-0.6,0.2c-2.3,0.2-4.2,1.6-6.3,2.4c-0.5,0.1-0.9,0.4-1.2,0.7
	c-0.3,0.3-0.6,0.8-0.7,1.2c-0.4,0.9-0.9,1.8-1.5,2.7c-0.6-0.7-1.3-1.4-2-2.1c-2-1.6-3.9-2.4-6.1-1.8c0.5,1.3,0.8,2.7,1,4.1
	C122.5,192,129.5,197.7,131.1,206.5z M331.2,375.7c-1.2,0.9-1.3,2-2.1,2.2c-0.6,0.1-1.2,0.2-1.9,0.3c-0.5,0.2-0.9,0.5-1.5,0.7
	c-0.9,0.3-1.4-0.8-3-0.2c-0.8,0.4-1.6,0.7-2.4,1c-1.7,0.3-1.9-0.9-5.2-0.7c-0.5,0-1-0.1-1.5-0.4c-0.6-0.3-1.2-0.8-1.9-1.1
	c-0.6-0.2-1.1-0.4-1.7-0.5l-0.9-0.2c-0.7-0.2-1.2-0.2-0.9,0.6s1,1.3,1.2,1.9c0.4,0.9-0.3,1.2,0.7,2.1s2.1,0.4,3.3,2.2
	c0.8,1.1,1.8,2.1,2.9,3c1.2,1.1,1.7,2.5,3.1,3c0.4,0.2,0.9,0.2,1.4,0.1c2.8-0.8,2.2-2.9,3.6-3.5c0.9-0.4,1.1,0,1.9-0.2
	s1.3-1.7,1.5-2.2c0.3-0.8,1-1.3,1.8-1.5c1.2-0.4,1.4-0.7,1.7-1.9c0.2-0.9,0.4-1.7,0.6-2.5c0.4-1.1,1.6-1.6,1.4-2.4
	S331.7,375.2,331.2,375.7L331.2,375.7z M309.2,388.6c-1.4-1.1-2.6-2.4-3.5-3.9c-2.2-3-4.9-4.7-7-8.1c-1.2-1.9-1.6-3.8-2.9-5.3
	s-2.3-2.1-3.2-4.6c-0.7-2.1-1.3-4.2-1.8-6.4c-0.1-0.8-0.3-2.1-0.5-3s-1.1-1.9-1.4-2.8c-0.5-1.4-0.4-2.8-0.8-4.2
	c-0.8-2.2-1-2.3-0.7-4.1c0.2-1.1,0.2-2.1,0.1-3.2c-0.4-1.6-0.7-3.3-0.8-5c0.2-1.2,0.3-2.4,0.3-3.7c-0.2-1.5-0.6-3-1-4.5
	c-0.4-2,0-1.9,0.7-3.4c0.5-1.3,0.6-1.6,0.3-2.4c-0.2-0.4-0.5-0.8-0.6-1.3l-0.4-1.3c-1.1-2.9,2.2-2.6,0.3-6c-0.6-0.9-0.8-2-0.7-3
	c0.2-1.3,1.2-2.1,0.7-3.6c-0.4-1.2-1.1-1.2-1.3-1.9c-0.3-1,0.8-1.8,0.6-2.5c-0.3-1.1-0.6-0.8-1-1.7c-0.7-1.6-1.4-3.2-1.9-4.9
	l-0.6-1.6c-0.4-1.2,0.1-2.2-0.4-3.6c-0.1-0.5-0.3-1-0.6-1.5c-1.4-2.1-4-6.1-5.6-8.5c-0.6-1.2-1.4-2.4-2.2-3.5
	c-0.6-0.8-1.6-1.2-2.6-1l-0.7,0.3c-1.3,0.6-2.6,1.3-3.8,2.1c-2.6,0.9-1.8,1.8-3.8,1.9c-1.2,0.5-1.3,1.7-2.5,2.4
	c-1.5,0.5-1.8,1.1-2,1.6c-0.3,0.8-0.6,0.7-1.3,1c-1.2,0.5-2,0.9-2.3,2c-0.1,0.4-0.3,0.8-0.6,1.2c-0.1,0.1-0.3,0.3-0.5,0.4
	c0-0.2,0-0.5,0.1-0.7c-1.7,0.7-3.6,0.8-5.4,0.4c-2.3-0.7-4.7-0.7-6.9-0.1c-2.7,0.8-23.1,3.2-25.6,4.2c-2.7,0.8-25.9,2.1-28.2-0.3
	c-0.6-0.6-1.3-1-2.1-1.1c-2.1-0.6-3.7-2.2-4.5-4.2c-0.3-0.6-0.6-1.2-1-1.7c-0.6-1.1-1.5-2-2.7-2.5c-1.4-0.2-2.5-0.5-3.7-0.7
	c-2.1-0.4-4.1-0.5-6.2-0.7c-0.9-0.1-1.8-0.1-2.7,0c-1.2,0.4-2.4,0.7-3.6,1c-0.7,0.2-1.3,0.5-1.8,1c-0.5,0.5-0.9,1.1-1.1,1.7
	c-0.4,1.5-1.3,2-2.6,2.2c-0.8,0-1.6-0.1-2.4-0.3c-1.6-0.5-3.4-0.4-5,0.1c-1.6,0.5-3.4,0.5-5-0.1c-1.5-0.4-3.1-0.3-4.6,0.1
	c-2.3,0.8-4.7,1-7.1,0.5c-1.5-0.5-3.2-0.4-4.6,0.3c-1,0.3-2,0.5-3.1,0.6c-2.4,0.2-4.2-0.3-5.3-2.6c-0.6-1.1-1.2-2.1-2-3
	c-0.6-1.2-9.3-1.9-10.5-2.3c-3.3-1.1-15.4,0.5-18.2,1.5c-0.4,0-0.6,0.4-0.8,0.8c-0.6,0.8-1.5,1.3-2.5,1.4c-0.9,0.3-1.8,0.5-2.7,0.6
	c-0.9,0.3-1.8,0.4-2.7,0.2c-1.6-0.5-3.3-0.7-5-0.5c0.6,0.4,1.3,0.8,2,1.2c0.7,0.5,1.2,1.1,1.6,1.8c0.4,0.7,0.6,1.5,0.7,2.3
	c0,1-1.9,2-3.8,3.5c1.6,1.3,2.8,3.2,4.3,3.8c5,1.3,6.8,5.1,8.6,9.1l0.6-0.2c3.1-2,16.1-2.2,19.6-3.8c0.4,1.2,8.6,2.1,9,3.1
	c1,2.3,2.2,4.7,3.2,7.1c0.3,0.6,0.6,1.1,1.1,1.5c0.5,0.4,1,0.7,1.6,0.9c1.6,0.4,3.2,0.6,4.8,0.5c2.9-0.6,6.1-1,6.6-5.1
	c0-0.2,0.1-0.3,0.1-0.5c0.1-0.1,0.2-0.3,0.3-0.4c0.1-0.1,0.3-0.2,0.4-0.2c0.2,0,0.3,0,0.5,0c2.5,0.2,5.1-0.2,7.5-1.1
	c0.7-0.3,1.4-0.3,2.1,0c1.7,1,3.7,1.4,5.7,1.1c1.2-0.1,2.4-0.1,3.6,0c2.7,0.3,5.3-0.2,7.7-1.5c1.3-0.6,2.7-1,3.8-1.4
	s2.3-0.8,3.2-1.2c0.8-0.5,1.7-0.7,2.6-0.8c0.9-0.1,1.9,0,2.8,0.3c1.2,0.4,2.4,0.6,3.7,0.7c0.5,0,1,0.1,1.4,0.4
	c0.4,0.3,0.7,0.7,0.9,1.1c0.4,0.9,0.8,2.1,1.2,3.1c0.3,1.5,1.8,2.5,3.3,2.3h2.7c0.9-0.2,24.4-0.2,25.1,0.2c2.5,0.5,21-2.2,23.5-2.6
	c2.9-0.6,5.4-1.6,6.5-4.5c0.3-0.4,0.4-0.9,0.6-1.4c0.5,0.6,0.9,1.2,1.4,1.8c-0.1,0.2-0.3,0.4-0.4,0.6c-1.2,2.7-0.1,2.1,0.3,3.5
	c0.1,0.3,0.1,0.7,0.1,1c0,0.3-0.2,0.6-0.4,0.9c-0.4,0.8-0.8,1.6-1,2.2c1.5-0.2,3-0.5,4.5-0.9c1.7-0.5,2.3-1.5,5.1-2.4
	c1.2-0.4,2.1,0.2,3-0.1s0.9-1,1.8-1.4c1.9-0.6,3.4-0.8,5.8-1.4l2.3-0.8c2.2-0.8,3.7-2.3,6.2-3.2c1.7-0.7,3.9-1,7.3-2.3l3.1-1.1
	c0.1,0.5,0,1-0.2,1.5c-0.2,0.5-0.6,0.9-1,1.1c-1,0.7-2,1.3-3,1.8c-0.8,0.5-1.5,1-2.2,1.6c-2.5,2.1-5.3,3.9-8.3,5.1l-8.9,3.2
	c-2.7,0.9-5.5,1.6-8.3,1.9c-1.6,0.2-4.8,0.2-6.7,0.3c-0.8,0-1.5,0.2-1.4,1.2c0.1,0.5,0.2,1,0.4,1.5c0.2,0.7,0.5,1.2,0.7,1.6
	c0.3,0.6,0.4,1.2,0.3,1.8c-0.1,0.6-0.3,1.2-0.7,1.7c-0.6,0.9-2.5,3-2.1,4.3c0.1,0.3,0.3,0.6,0.5,0.9c-1.4-0.2-2.9-0.2-4.3,0.1
	c-1.8,0.4-3.6,0.1-5.2-0.7c-2.4-1.3-37.9,5.3-40.4,5.7c-1.3,0.3-2.6,0.3-3.9,0c-2.2-0.5-4.4-0.6-6.6-0.3c-1.9,0-3.7-0.1-5.6-0.3
	c-0.6,0-1.4-0.2-2.1-0.2c-3.5,0.4-7.1,0.9-10.6,1.2c-1.7,0.3-3.5,0.4-5.2,0.5c-4.2,0.5-8.3,0.7-12.5,1c-0.3,0.1-0.7,0.2-0.9,0.4
	c-1,0.2-2,0.2-2.9-0.1c-3-1.3-6.2-1.9-9.5-1.8c-1,0.1-2,0.1-2.9-0.1c-1.5-0.2-3.1-0.5-4.4-0.7c-1.6-0.4-2.9-0.5-4.1-1.9
	c-0.4-0.4-1-0.6-1.4-1c0.9,2.9,2.1,5.7,3.6,8.4c2.6,5,4.4,10.3,6.8,15.5c2.1-0.4,4-0.8,5.9-1.3c0.9-0.3,1.9-0.5,2.9-0.4
	c1.6,0.3,3.3,0.2,4.8-0.3c0.8-0.2,1.7-0.2,2.5-0.2c0.3,0,0.6,0.1,0.9,0.2c0.3,0.1,0.6,0.3,0.8,0.5c1.4,2.3,3.3,2.3,5.4,1.9l4-0.6
	c0.8,1.1,1.4,2.2,2,3.4c0.3,0.6,0.7,1.1,1.3,1.4c0.6,0.3,1.2,0.4,1.9,0.3c2.5-0.4,5-1,7.5-1.7c1.9-0.5,3.1-2.3,2.8-4.3
	c0-2.4,0.7-2.7,2.7-1.6c1.8,0.9,3.8,1.2,5.8,0.9c2.1-0.2,3.9,0,5.4,1.8c0.4,0.2,0.8,0.4,1.2,0.6c0.3,0,0.5,0,0.8,0.2
	c1.2,1.7,3.1,1.9,5,1.6l2.3-0.6c0.8-0.4,34.6-6.9,35-6.4c0.4,0.6,1,1.1,1.7,1.4c0.7,0.3,1.5,0.4,2.2,0.2c3.8-0.6,7.5-1.1,11.1-1.7
	c0.3-0.1,0.7-0.1,1-0.2l0.3,0.8c0.4,1.2,1.3,1.5,2,1.3c0.6-0.3,1.1-0.7,1.5-1.2c0.5-0.4,0.9-0.9,1.3-1.4c0.2-0.3,0.3-0.6,0.5-0.9
	l0.2,0c0,0-0.1-0.1-0.1-0.1c0,0,0,0,0-0.1c0.5-0.9,1.1-1.7,1.9-2.4c1.7-1.1,3.6-1.8,5.6-1.9c0.7,0.1,1.4,0.1,2.1,0
	c1.1-0.2,1.3-0.7,2.4-0.6c0.8,0.1,1.4,0.2,1.9,0.2s1.3-0.1,2.2,0c1.5,0.1,2.1,1.2,3.8,0.6c0.6-0.2,1.2-0.4,1.8-0.5
	c1.1-0.1,1.5,0.6,3,0c1-0.3,1.2-1,2.5-1.5s3.1-0.3,3.5,1c0.7,1.6,0.7,3.4,0.2,5c-0.2,0.7-0.6,1.3-1.2,1.8c-0.5,0.5-1.2,0.9-1.9,1.1
	c-0.2,0.1-0.5,0.1-0.7,0.1c-0.2,0-0.5-0.1-0.7-0.3c-0.5-0.3-0.8-0.8-1.4-1.1c-1-0.6-1.1-0.5-2.1-0.1l-1.5,0.5
	c-2.3,0.8-3.6-1.6-4.9-1.3c-1,0.2-1.4,1.5-2.4,1.8c-0.2,0.1-0.5,0.1-0.8,0c-1-0.2-2-1.7-3.2-1.2c-0.4,0.2-0.7,0.6-1.2,1.2
	c-0.4,0.3-0.7,0.5-1,0.9c-0.6,0.6-0.9,1.2-1.4,1.4c-0.7,0.3-1,0-1.8,0.2c-0.9,0.3-1.6,0.8-2.2,1.5c-1.5,2.1-2.6,4.5-3.4,6.9
	c-0.1,0.5-0.3,0.6,0.1,1s0.4,0.5,1,0.3c1.1-0.5,1.2-1,1.9-1.8c0.3-0.3,0.7-0.4,1-0.7s0.7-0.9,1.1-1.2c1-1.1,2.5-1.7,4-1.6
	c0.9,0,1.1-0.4,1.7-0.3c1.1,0.1,2.1,1.2,3.4,0.8l1.1-0.4c1.5-0.5,2.5-1.5,4-1.2c1.2,0.3,2.1,1.3,3.1,1.6c0.8,0.3,1.8,0.4,2.6,0.2
	c1.5-0.2,3.7,0.8,5.2,0.2c1.1-0.5,0.9-1,1.4-1.2c0.3-0.1,0.7-0.1,1,0c0.3,0.1,0.6,0.4,0.8,0.7c0.3,0.9-0.2,1.2,0.2,2.5
	c0.3,1,1,1.5,1.1,2.5c-1.8,0.2-1.5,1-2.6,1.3l-0.7,0.3c-1.2,0.4-2.4-0.2-3.6-0.2c-1.7,0-2.2,0.3-3.6-0.7c-1.6-1.1-1.3-1.6-3.4-0.7
	c-0.9,0.3-1.3,0-2,0.1s-1,0.8-1.9,1s-1.8-0.5-3.3-0.1c-2,0.8-2.1,0.1-4,0.8c-1.2,0.4-2.2,2-3.5,2.9c-0.5,0.4-0.5,0.5-0.2,1
	c1.2,1.8,2.5,3.5,3.9,5c0.6,0.6,0.6,0.6,1.3,0.4c1-0.1,2-0.2,3-0.5c1-0.4,1.3-0.7,2.1-1c1.4-0.6,2.9-0.7,4.3-0.3
	c1.4,0.6,1.5,0,2.9,0.2c1.7,0.2,2.1,0.4,2.6,0.2s0.5-0.4,1-0.5c1.4-0.5,1.9-0.1,3.1,0.1c1.5,0.2,2-0.4,3.5-0.5
	c1.2-0.1,2.3-0.3,3.4-0.7c1.8-0.7,3.2-0.3,3.5,0.5c0.2,0.5,0.2,0.6,0.4,1.2c0.3,0.6,0.6,1.2,1,1.7c0.3,0.5,0.3,1.2,0,1.8
	c-0.7,0.8-2.4,1-3.7,1.4c-0.8,0.3-1.3,0.7-1.8,0.9c-1.2,0.3-2.4,0.3-3.5,0c-1.3-0.3-1.2,0.5-2.8,0.1c-0.9-0.3-1.8-0.4-2.7-0.4
	c-0.6,0.2-0.8,0.5-1.2,0.6c-1.4,0.4-1.8-0.3-2.5-0.8c-1.2-0.8-1.6-0.6-2.6,0.2l-1,0.8c-0.6,0.2-1.2,0-1.6,0.1
	c-0.3,0.1-0.6,0.3-0.8,0.5c-0.5,0.5-0.3,0.9,0.2,1.4c1.9,1.9,4.1,3.5,6.5,4.9c1.7,0.8,2.5,1.2,4.5,0c1.8-1,4,0.4,5,0
	c0.8-0.3,0.8-0.9,2-1.3h0.2c0.8-0.1,1.6,0,2.4,0.3c1.3,0.3,1.7-0.1,2.4-1.2c0.2-0.4,0.3-1,0.6-1.5c1.1-1.8,2.6-3.6,3.9-3.2
	c0.3,0.1,0.6,0.3,0.8,0.5c0.2,0.2,0.4,0.5,0.5,0.9c1,2.2,3,2.1,2.2,4.6c-0.3,0.8-0.9,1-1.8,2.2s-0.9,1.4-1.7,1.7l-0.5,0.2
	c-2,0.7-4.7,0-5.5,0.1c-0.1,0-0.1,0.1-0.2,0.1c-0.1,0.1-0.1,0.1-0.1,0.2c0,0.1,0,0.2,0,0.2c0,0.1,0,0.1,0.1,0.2
	c0.4,0.7,1.9,1.2,3.4,1.4c0.6,0.1,1.3,0.1,1.9,0.1c0.4-0.1,0.8-0.1,1.2-0.1c1.9,0.4,2.8,1.5,4.6,0.8l0.5-0.2c2.1-0.7,1.7-2,3.9-1.7
	c0.9,0.1,3,1.5,3.9,1c0.7-0.2,0.8-0.5,1.3-0.9c0.3-0.2,0.7-0.3,1.1-0.4c0.3-0.1,0.5-0.3,0.6-0.6c0.1-0.3,0.1-0.6,0-0.8
	C312.3,391.4,309.8,389.1,309.2,388.6L309.2,388.6z M275.5,300.2c-1.1,1.5-3.1,2.4-5.5,3.3c-1.2,0.4-2.4,0.8-3.5,1.3
	c-0.9,0.6-1.8,1.1-2.7,1.6c-1.9,0.7-6.5,2.5-7.7-0.5c-0.3-0.8,0.1-1.5,0.6-2.5c0.3-0.8,0.8-1.5,1.3-2.2c1.1-1,2.4-1.6,2.6-3
	c0.1-0.7,0.1-1.4-0.2-2.1c-0.3-0.6-0.6-1.2-0.8-1.8c-0.1-0.4-0.1-0.8,0-1.2c0.5-0.9,1.2-1.6,2.1-2c1.3-0.5,2.9,0,3.7-0.3l0.5-0.2
	c1.2-0.4,0.7-1.3,2-1.8c1.7-0.5,3.4-0.3,5,0.4c0.9,0.4,1.2,0.9,0.6,2c-0.4,0.5-0.9,0.9-1.5,1.2c-1.2,0.4-2.5,0.2-3.3,0.6
	c-0.2,0.1-0.3,0.2-0.5,0.3c-0.1,0.1-0.2,0.3-0.3,0.5c-0.1,0.2-0.1,0.4-0.1,0.5c0,0.2,0.1,0.4,0.1,0.5c0.5,1.4,2.1,2,4.7,2.2
	c0.7,0,1.5,0.1,2.2,0.4C276,297.8,276.6,298.8,275.5,300.2L275.5,300.2z M258.7,321.2c0.5-1.2,0.2-2.7,2.1-3.4
	c2.8-1.1,7.6-3.4,8.5-0.6l0.6,1.6c1.3,3.7-2.1,4.4-5.3,5c-1.6,0.3-4,1.6-5.9,1.8c-0.5,0.1-1,0-1.5-0.2c-0.5-0.3-0.8-0.7-1-1.2
	C255.8,323.2,258.2,322.4,258.7,321.2L258.7,321.2z M276,336.3l-0.5,0.2c-2.1,0.8-5.8-3.1-11.2-1.2c-1.8,0.6-3.3,1.7-4.4,3.2
	c-0.6,0.8-0.6,1.3-1.3,2s-1.3,1.5-2,1.6c-1.2,0.2-2-1.2-2.4-2.2l-0.3-0.6c-0.9-2.7,1.7-4.5,2.6-6.3c0.5-1.2,0.4-2.2,1.2-3.3
	c1.4-1.9,1.7-1,3.4-2.2c3.2-2.5,4.1,0.5,6.8,0.2c0.8-0.2,1.5-0.2,2.3-0.2c1.5,0.2,2.7,1.2,3.5,3.5c0.3,1,0,1.2,0.3,2
	c0.1,0.2,0.2,0.3,0.3,0.5c0.1,0.1,0.3,0.2,0.5,0.3c0.2,0.1,0.4,0.1,0.5,0.1c0.2,0,0.4-0.1,0.6-0.1c1-0.5,1.5-1.6,1.1-2.7
	c-0.6-1.8-2.5-3.2-3.4-4.1c-0.6-0.7,0-1.2,0.6-0.9c0.8,0.4,1.5,0.8,2.2,1.3c0.9,0.7,1.6,1.6,2,2.6
	C279.5,332.6,278.8,335.4,276,336.3L276,336.3z"/>
<path class="st2" d="M889.7,382.3c1.5,2.9,4.6,5.2,4,8.2c-1.5,3.3-2.8-2.1-3.6,0.2c3.4,6.7,7.7,12.1,11.3,19
	c16.5,20.1,34.1,36.9,43.8,66.4c2.6,14.2,9.2,28.9,15.6,41.3l-2.8-69.1c0-0.9-0.4-1.8-1-2.5c-1.7-4-5-7.7-7.7-12.3
	c-13-20.3-28.9-37.6-47.1-48.5c-3.6-2.1-8.2-3.7-12-5.9c-3.2-2.1-7.1-8.5-11-4.4C883,376.1,887.7,379.3,889.7,382.3z M955.9,578
	c-5.8-8.7-12.8-16.9-18.1-25c-12.2-17.8-21.8-38-34-54.2c-2.7-8.2-7.5-12.3-11.7-17.8c-1.6-7.1-5.5-13.4-11.1-18
	c-0.5-2.7-2.5-2.6-2.7-5.8c-3.8-1.6-4.7-7.7-8.2-9.4c-0.2-5.4-4.7-5.2-5-10.9c-0.8-0.8-2.2-0.8-2.9-1.4c-0.6-6.5-7.7-7.8-6.6-13.7
	c-4.5-2.5-7.5-9.2-11.1-14c-3.8-4.5-8.4-8.4-10.5-13.5c-2.2,1-1.8-2.2-3.9-1.1c-1.6-3.2-3.7-6.1-6.3-8.5c-2.3-1-4-8.5-6.8-6
	c1,6,6.2,11,8.2,18.6c1.3,2.2,3.6,2.1,4.3,4.8c-0.7,3-2,3.1-0.9,6.6c10.6,28,23,50,38.3,72.2c15.4,23.8,29.5,48.9,45.8,71.3
	c7.5,12,15.3,23.8,23.8,33.7c8.7,10.1,17.9,20.9,29.7,25.3c3-13.8-4.9-24.8-10.3-33.1L955.9,578z M888.3,818.5c-1,0.1-1.8-0.1-2,0.9
	c0.5,0,0.9,0,0.5,0.8c0.2,0,0.4,0,0.6-0.1c0.2-0.1,0.4-0.2,0.5-0.4c0.1-0.2,0.2-0.4,0.3-0.6C888.3,818.9,888.3,818.7,888.3,818.5
	L888.3,818.5z M504.7,356.6c9.7,13.2,18.7,26.1,26.3,41.4c7.7,14.8,16.8,29,27,42.2c10.4,13,19.6,26.8,27.6,41.4
	c4,7.1,7.9,15.3,12.3,21.9c2.6,3.5,5.2,6.1,7.1,9.8c2.2,3.4,3.3,8.8,6.5,11.3c2.9-0.1,5.8-0.9,8.3-2.3c2-3.8,4.2-7.2,3.3-14.5
	c18.6-31,35.2-63.1,49.7-96.3c7.6-16.8,14.5-33.5,22.5-52c6.8-15.2,17.2-36.7,17.8-57c0-5.7-1.2-9.5-4.2-11.6
	c-3.2,2.4-4.6,7.8-6.3,11.2c-1.9,4.4-3.7,7-5.7,11.3c-11.8,30.2-28.8,55.3-43,82.9c-10.5,20.6-22.4,42-31,63.6
	c-3.2,7.9-4,17.4-8.1,24.8c-9.8-11.8-15.5-28.1-24.2-41.5s-18.9-24-27.3-37c-16.8-26-30-60.1-56.8-71.7c-1.6-2.4-3.5-4.5-5.6-6.5
	c-2.8-0.5-1,3.7-3.7,3c-0.6-2.5-2.3-2-1,0.7c-1.6-0.5-3.4-5.3-4.4-1.3C493.7,339.5,500.5,348.7,504.7,356.6z M658.7,869.5
	c-5.2-7.5-13.7-13.1-20.6-22.3c-8.6-12.4-14-35.4-29.7-30.7c-1.3,0.4,1,3-0.5,4.4l-3.3,0.2c-8,14.6-15.5,33.2-27.3,47.7
	c-8.7,10.7-17.4,21.7-26.7,30.8c-2,1.9-5.5,3.3-7.1,6.5l11.5-0.6c10.2-6,18.5-14.9,26-23.6c10.7-12.2,18.8-27.8,28.3-41.7
	c4.5,6.7,7.8,14.5,12.5,21c9,13.5,20.4,22.9,29.9,34.4c0.9,1.6,2.3,3,3.3,4.6l19.2-1c0-0.6-0.2-1.4-0.3-2.2
	C668,889.2,664.7,877.9,658.7,869.5L658.7,869.5z M552.4,605.9c-6.8-21.1-19.7-37.3-30.4-59.9c-5.5-11.8-9.3-24.9-16.7-37.6
	c-2.6-4.6-5.6-10.9-9.2-17.2c-2.5-4.5-7.8-14.4-10.4-16.1c-3.2-2.3-7.6-0.6-10.5-2.9c-1.3-2.4,1-6.7-1.5-8.1c-2.5-2.8-1.4,4-4.4,3.2
	c0.1,3.4-3.6,2.2-5,3.7c-0.8,3.7-3.1,4.5-5,6.2c-8.9,35.3-26.9,60.5-40.2,88.4c-3.2,7-5.7,14-8.8,20.8
	c-5.4,13.3-15.4,23.3-18.5,38.8c-0.2,6.8,4.2,10.6,8.1,17.1c2.7,4.8,5.2,9.8,7.4,14.9c5.7,10.1,11.5,18.5,16,26.7
	c10.5,19.8,21.9,36.6,31.7,53.6c0.1,14.7,5.8,24.8,14.8,21.1c3.7-1.4,8.6-7.8,12.9-12.3c12-12.7,23.6-33.3,32.3-45.2
	c15.1-19.9,29.3-40.5,42.3-61.9c1.7-9.1,7.5-15.7,5-27C560.3,607.5,555.4,608,552.4,605.9z M512.1,634c-10,14-18.2,28.5-28.3,42.5
	c-7.4,10.6-14.2,17.7-19,31c-5-5.2-8.4-13.2-12-20.3c-11.4-19.7-22.3-42.6-35.6-61.1c20.8-29.4,37.8-62.9,55.3-96.6
	c9,12.9,13.5,31.5,23.6,42.2c9.4,13.4,17.8,27.7,29,37.8C524.9,618.4,517.7,626.4,512.1,634z M474.9,558.9c-2.1,0.3-1.8,4.4-3.6,3.6
	c-3.1,1.1-4.8,4.6-8.3,5.2c1.1,15.5-6.5,25.8-10.1,38.3c-6.5,8.3-11.8,18.4-16.3,29.5c7.3,10.9,15.7,21.1,21.6,34.9
	c3.7-0.7,6.5,1.7,9.6-0.5c5.7-4.6,7.4-10.4,11.6-18.2c8.1-15.2,22.6-27.3,22.8-50.8C493.8,585.8,486.8,568.6,474.9,558.9
	L474.9,558.9z M453.5,629.6c-1.6-0.1-0.6-3.1-0.1-3.5C455.3,626.8,454.5,628.6,453.5,629.6L453.5,629.6z M233.6,367.8
	c7.9,17.3,15.9,33.8,25.9,49c9.1,14.3,20,28.3,29.8,42.8c14.8,21.7,27.1,44.5,46.5,56.4c0.9,4.6,2.8,7.8,5.7,9.5
	c11.5-9.2,19.6-26.3,27.7-42.5c7.9-15.4,16-31.4,24.4-47.5c13.9-26.9,28.9-54.6,39.7-85.9c1.7-4.9,4.1-9.8,5.4-13.7
	c2.4-13.1-2.3-21.6-4.6-31.6c-2.3,6-4.5,11.6-6.5,18.1c-1.2,0.5-2.1,1.2-3.5,1.8c-1.6,8.1-7,12-10.5,18.1
	c-2.7,5.2-4.4,11.9-7.1,17.2c-8.6,16.2-19,29.7-26.8,45.8c-5.5,10.8-10.4,22.2-15.1,33.6c-5.1,11-10.1,22.7-16.5,32.5
	c-2.5,6.5-5.7,12.6-9.7,18.3c-13.8-11.1-23.3-28-33.6-44.1c-10.3-16.3-21.2-31.7-31.7-47.1c-13.8-19.7-25.4-41.6-36.9-62.6
	c-5.3-9.8-10.2-19.1-15.4-27.4l-16.1,0.9c1.8,2.9,4,5.4,6.6,7.6C219.9,332.8,226.4,350.6,233.6,367.8z M436.6,413.1
	c1.6,0,3.2-2.7,1.6-3.5C438.3,411.4,436.8,411.5,436.6,413.1L436.6,413.1z M422,459.2c-0.1,1.3-1,1.4-1.3,2.6
	C422.2,462.6,423.6,459.3,422,459.2L422,459.2z M393.4,791.3c-8.5-16.2-16.1-32.4-23.3-49.3c-2.7-5.4-3.8-12.3-7.7-17.1
	c0.9,5.2-0.9,5.5-3.5,4.5c0.4,3.4-0.9,4.6-0.8,7.6c-11.7,20.8-19.4,46.6-29.7,68.8c-9.6,12-17.9,27.2-26,40.8c-2.9,5-6.3,9-8.6,13.9
	c-1,2.3-1,6.2-1.9,8.7c-1.3,2.9-2.6,4.8-3,7.5c17.2-12,30-30.4,41.5-49.2c12.1-19.4,18.7-42.8,28.8-65.2c13.5,40.8,35.6,72,56,101.8
	c2.8,3.9,5.4,10,9.8,12c1.1-2.3,3.1-3.1,4.6-5.3c1.2-7.6-0.3-12.4-0.9-21C417.9,829.4,404.2,812.1,393.4,791.3L393.4,791.3z
	 M406.4,873.7c-4.6-12.8-11.9-19.5-18.3-29.3c-4.6-6.8-8.9-14.5-15.3-17.7c-16.1,11.5-20.5,38.3-32.6,54.8c-3.3,2-5.1,5.6-8.4,6.8
	c-5.8,12.7-18.9,15.4-22.5,30.4l9.8-0.5c6.5-4.2,12-9.5,16.9-12.9c6.1-4,8.7-7.6,13.2-13.3c7.7-11.2,14.8-23,21-35.1
	c11,10.6,18,27.4,30.2,35.6c3-2,5.2-5.3,7.1-8.7C406.5,882.3,406.7,878,406.4,873.7L406.4,873.7z M189.9,567.2c-2.5,6-6,11-8.6,17.4
	c-5.1,13.1-7.8,27.5-13.6,39.4c-2.9,5.3-6.7,11.3-8.7,17.9c-2.3,8.9-1.9,19.3-3.4,28.8c1.3,4.4,3.5,8.4,4,13.9
	c8.5,5.5,14.4,14.5,22.8,19c13.8,19.8,31.2,33.6,43.3,55.6c5.9,4.8,7.1,16.8,15.9,17.1c4.4,0,5.9-5.4,7.5-9.1
	c6.2-12.9,10.1-27,15.1-41.1c7.1-22.2,19.9-40.5,21.5-66.5c3.1-6.3,9.1-9.2,11.6-15.7c-0.2-4.5-0.4-9.4-1.1-11.8
	c-3.3-9.4-14.7-19-21.8-28.4c-3.3-4.3-7-10-10.7-15.1c-3.4-5.3-8-9.8-10.7-14.4c-5.1-9-8.3-21-13.1-30.5c-3.8-8.3-9.8-22.4-15-26.9
	c-5.6-5-18.2-5.2-23.9-1.9c-0.8,4.2-0.5,6.9-0.1,11.8C194.9,539.2,195,554.7,189.9,567.2z M259.7,641.7c1,11.3-3.7,19.6-6.5,28.1
	c-6.2,19-14.4,36.9-17.5,60.3c-18.1-20.8-33.3-46-53.5-63.3c11.4-35.2,23.9-68.5,36.2-102.5C233.5,587.8,244,618.3,259.7,641.7
	L259.7,641.7z M199.8,660.8c2,9.2,6.9,11.5,10.4,18.6c3.8,7.3,6.7,14.1,10.8,19.8c2.2-1.8,4.2,1.6,7.3,1.2
	c6.3-4.2,9.2-13.4,13.8-23.3c3.8-8.5,12.7-21.2,10.1-32.7c-3-7.8-10.1-8.5-14.8-15c-5-7.7-5.8-21-13.1-26.4
	c-4.8,3.5-8.4-1.6-12.6-4.4c0.9,5.6-2.9,4.9-4,8.2c1.5,3.3,2.8,6.6,4.3,10.4C209.5,633.9,204.3,646.6,199.8,660.8L199.8,660.8z
	 M172.4,750.4c0.1,2.8,3.3,8,4.3,3.9C175.2,753.1,175.1,750.3,172.4,750.4L172.4,750.4z M160,414.5c1.8-0.1,1.5-2.6,2.2-3.3
	C160,410.6,160.1,412.5,160,414.5z M150,444.4c1.8,0.6,1-1.9,1.7-2.6C150.1,441.5,149.6,442.4,150,444.4z M146,457.4
	c-0.5,0.2-1.6,3,0.1,3.4C145.4,459.2,147.6,457.8,146,457.4L146,457.4z M142.7,444c0,0.7-1.4,3.4,0.1,3.4
	C143.1,446.7,144.1,444.1,142.7,444L142.7,444z M141.1,420.6c-0.4,1.2-1.7,1.7-1.6,3.5C140.7,424.4,142.8,421.4,141.1,420.6
	L141.1,420.6z M133.2,437.2c0.2-1.4,0.9-2.3,1-3.5C132.8,433,131.9,436.7,133.2,437.2L133.2,437.2z M132.6,431.3
	c-1.8-0.6-3.2,3.4-1.6,4C131.1,433.9,131.9,432.9,132.6,431.3L132.6,431.3z M128.7,455.9c-1-0.4-0.8-1.6-1.5-2
	c-0.1,3.2-1.6,5.1-1.8,8c1.4-1.9,2.5-3.9,3.3-6.1L128.7,455.9z M126.7,449.2c-0.6-2,0.7-2.8,0.9-4.4
	C125.5,444.4,124.1,448.6,126.7,449.2L126.7,449.2z M121.7,526.4c-0.2-1.1,2.4-2.4,0.6-3.2C122.3,524.3,119.7,525.8,121.7,526.4
	L121.7,526.4z M910.7,634.5c-2.3-1.5-5.2-2-8-3c-0.4-3.3-3.7-2.5-3-7.5c-1.4-1.5-3.2-2.4-4.2-4.8c-2-5.4-4.4-9.6-6.9-14.7
	c-4.8-28.9-20.7-40.6-28.3-65.4c-4.8-13.2-11.3-24.7-16.6-35c-2-4.5-3.7-8.3-5.6-12.7c-7.1-15.8-16.7-28.5-26-42.3
	c-9.7-13.4-15.5-30.3-26.3-42.1c-4.9-5.6-10.2-11-15.3-17.5c-2.4-3.3-4.3-6.6-7.2-9.9c-5-5.9-10.9-9.2-13.3-18.5
	c-2-0.1-4.9,1.2-4.9-1.2c1.1-6.4,3.7-11.4,4.2-18.7c-5.8-0.6-5.5,7.1-9.5,8.9c-4.4-2.9-6.1-13.5-10.9-13c1.5,2.9-3.7,5.4-0.6,10.2
	c-0.9,1.2-2.9,0.9-3.8,1.9c-0.5,8.2,1.9,12.2,5.1,18.1c-6.6,14.7-13.3,29.7-22.4,41.5c0.1,3-1.9,3.1-1.6,6c-1.2,1.7-2.6,3.1-4.2,4.3
	c-2.8,8.8-6.8,15.2-9.8,23.3c-3,8.6-5,17.8-8,26.5c-3.2,7.9-7.6,15.2-11.5,22.5s-7.5,15.1-11.3,22.7c-9.5,17.8-20,35-31.7,51.6
	c-6.8,10-12.6,21-20.8,29c-8.8-19.8-21.5-35.7-32.5-52.8c-5.8-8.7-10.4-18.8-15.8-27.9s-12.1-16.4-17.8-25
	c-5.2-8.4-10-18.9-15.1-28.4c-4.9-9.7-10.9-18.3-16-27.8c-5-9.7-8.7-20.5-13.8-30.3c-5-9.5-11.4-17.6-15.7-27.8
	c0.5-5.3-1.1-7.7-2.4-10.6c-1.8-0.4-2-2.4-4.8-1.5c-3.7-8.7-10.2-18.4-18-16.8c-2.6,0.8-3.6,4.5-6.5,3.7c1.9,4.5-3.1,4.5-4,8
	c6.1-0.5,2.4,9.5,6,13.8c-1.5,5.3-4.5,11.4-3.3,18.8c-0.5-2.5,0.6-3.2,1.7-1.9c-0.4,6.2-1.8,9.2-5.1,12.8c1.1,0.4,1.7-1.2,2.1-0.1
	c-1,5-4,2.5-5.5,6.3c1,0.1,1.5-1.5,1.9-0.1c-4.6,5.4-3.2,9.7-8.7,14.8c-0.1-1.9,1.5-2,1.7-3.5c-4.5,1.6-4.7,8.2-6.3,12.1
	c-3.6,9.5-6.5,17.1-10.6,26.5c-5.5,14.5-13.8,26.3-17.2,40.8c0.1-0.1,0.2-0.2,0.3-0.3c0.1-0.1,0.3-0.1,0.4-0.1
	c0.1,0,0.3,0.1,0.4,0.2c0.1,0.1,0.2,0.2,0.2,0.3c-4,3.4-6.1,9-8.4,13.8c1.8,0.6,2.5-4.7,3.4-2.5c-1.3,3.7-3.5,6.8-3.9,12.1
	c-2.8,0.6-2.6,5.2-5.6,5.9c-0.7,1.9-1,3.9-1.9,5.2c-2.5,2.6-4,6.3-6.4,9.4c-1.8,3.2-4.5,6.3-5.4,10.6c-1,0.7-5.1,6.4-2.5,4.2
	c0.8,0.2,0.7-1.5,1.1-0.1c-11.2,16.9-22.7,33.5-32.6,52.3c-10.2-20.4-22.8-38.6-35.8-56.9c-18.9-26.5-37.2-55.6-54.9-83.5
	c-6-9.3-12.8-17.8-18.7-27.5c-5.3-8.1-11.7-18-18.4-27.7c-8-11.2-15.5-24.2-25.9-26.4c-6.2,2.8-8.1,10.9-12.8,15.3
	c2.5,0.8,4.2,3.4,4.7,8.2c1.5,1.9,4,2.7,5,6.3c-1.6,2.6-3.3,4.5-4.9,6.9c1.2-2.6-0.5-1.1-0.9-0.7c-4.1,4.5-6.6,25.8-11.9,33.5
	c-0.8,2.3,1.5,0.4,1.2,3.4c-1.5,0.3-2.1,2.1-3.6,3.1l0.2,5.2c-3.8,3.9-4.8,10.8-6,18.1c-0.2,1.2-3-0.2-2.4,2.4
	c0.8,4.3-3.8,9.3-3.3,12.9c0.7-0.9,1.4-5.1,2.2-2.6c-1.6,6-7,9.9-5,17.8c-1.3-1.7-2.1,1-3.7,1.8c0,3.7-0.7,7.3-2.2,10.7
	c32.9-44.5,60.8-81.3,62.8-80.2c3.7,8,7.9,14.6,13.1,19.5c2,6.7,6.3,10.8,9.9,16.1c22.7,34.7,42.9,76,70.4,105.6
	c10.3,17.4,19.7,37.9,35.2,44.9c-9,5.9-10.4,20.7-18.1,27.8c-5.8,16.3-10.8,33.8-15.9,51.3c-3.8,6.5-7.8,12.9-9.4,22.3
	c-6.5,11.8-11.4,25.1-16.9,38c-5.5,11.9-12.4,22.9-16.9,36.8c-5.1,11.9-11.6,22.5-16.7,35.1c-9.5-11.8-16.8-26.4-25.3-38.9
	c-1-1-2.9-0.1-4-1.4c0.7-1.7,1.6-0.5,0.7-2.4c-3.1-4.4-6.6-8.6-9.8-13.1c-3.1-3.7-6-9.3-10.3-11.1c-0.9-2.2-1.9-4.2-3.2-6.2
	c-0.7,0.4-0.9,1.2-1.2,2.5c-1.2,0-0.5-8.6-1.3-3.6c-1.3,0.1-1.4-2.2-0.5-3.1c-3.3-4.6-6.5-8.7-9.4-13.1c-1.5,5.2,7.1,7,5.4,12.3
	c-10.1-10.4-17.4-25.5-27.6-35.3c5.9,1,9.5,12.9,15.9,16c0.8-1.9-2.7-5.6-4.9-5.7c0.2-2.8-2.1-1.7-1.3-4.9c-2.4-2.8-5.7-4.3-6.7-8.9
	c-0.7-1-2.3-0.9-3.2-1.7c-5.3-9.7-10.9-20-16.9-29.2c-7.7-9.9-15.8-18-24.4-26.4c-0.3-3.4,1.6-4.3,0.4-7.6
	c10.2-23.9,1.9-21.7-13-11.2c-0.5,2-0.7,4-0.7,6l-0.2,0.5l1,25c8.6,17.1,20.8,29,30.7,45c5.2,9.1,10.2,18.8,16.4,26.9
	c18.3,24.8,36,47.6,55.6,72.4c5.3,6.8,11.2,16,17.5,25.3c5.2,7.9,12.5,19.1,19.3,23.3c8.2,5.1,13.3-7.7,17-14.6
	c4.9-8.6,9.5-16.4,14.4-24.8c11.4-21.3,23.3-43.1,32.8-65.2c8-19.2,14.7-38.8,22-57.9c7.9-19.6,13.7-39.7,22.2-57.2
	c14.9,25.8,28.4,53.9,43.6,78.3c5.2,8.6,9.1,18,13.9,27.9c8.6,18,19,32.8,29.6,51.9c4.2,7.5,9.8,14.5,15.6,24.3
	c5.1,8.8,11.2,22.7,16.9,23.4c7.6,1.4,17.5-13.4,22.1-20.3c7.2-9.9,13-18.1,18.8-26.2c24.6-35.5,48.1-71.3,70.8-107.9
	c11.2-18.6,19.2-40.6,31-59.5c11.9,17.6,21.2,39.4,33.8,58.5c11.4,17.9,25.3,34.6,36.6,54.4c10.4,19.2,20.8,38.3,35,56.1
	c6.8,8.6,13.1,17.5,19,26.7c4,6,14.6,23.4,20.4,23.8c6.8,1.1,7-4.8,9.5-11.2c17.5-15.9,31.9-37.9,47-58.1
	c23.4-31.5,44.8-65.9,66.8-98.3c9.8-13.9,16.3-32,25-46.6c3.2-5.2,6.4-10.2,7.2-16.9C910.9,637.1,910.7,636.1,910.7,634.5
	L910.7,634.5z M177.2,437.1c1.9,1-0.3,2.2-0.3,3.4C175.1,439.6,177.2,438.2,177.2,437.1z M174.3,448.1c1.2,0.2,0.2,3.9-1.4,3.3
	C173.1,450.3,173.6,449.1,174.3,448.1L174.3,448.1z M169.7,461.1c-1.2-0.6,0.9-3.4,0.9-5c0.7,0,0.6,1.6,1.4,1.5
	C172.1,459.6,170.2,459.5,169.7,461.1L169.7,461.1z M153.8,511.2c-0.6-2.3,2.2-7,3.5-9.1c-1.4-4.9,3-9,3.6-13.9
	C160.3,494.9,156.9,505.2,153.8,511.2L153.8,511.2z M407.8,488.6c1.6-2.9,3.8-4.8,6-7.2C413.3,482.2,411.3,489.1,407.8,488.6
	L407.8,488.6z M415.8,472.2c1.6-9.8,9.6-18.3,9.8-24.2c0.5-0.8,1.6-0.1,2.6-1.9c-0.1-1.6-0.6-1.7-0.9-0.4c-1-2.5,2.5-6.1,3.5-8.1
	c1.9-5.1,1.8-10.8,5.1-12.8c0.1,2.5-1.6,3-1.5,5.4c1.8,0.9,0.1-2.7,2.1-2c-3.4,8.9-8.3,15.2-9.9,26.7c-1.7,1.4-1.5,5.5-3.8,6.1
	c-0.7,4.6-2.1,8.1-5.2,9.2c1.4,4.7-4.6,6.4-5.6,10.5C410.3,477.6,414.6,474.4,415.8,472.2L415.8,472.2z M405.5,493.8
	c0.3-1.9,0.2-4,2.3-3.5C407.2,491.4,407.7,493.9,405.5,493.8L405.5,493.8z M387.6,534.2c0.1-1.7,1-2.4,2.6-2
	C389.9,533.9,389,534.1,387.6,534.2L387.6,534.2z M406.3,499.4c-1.8-1.7,1.4-3.5,1.6-4.9C410,495.8,406.6,497.5,406.3,499.4
	L406.3,499.4z M104.3,652.4c1.3,0.8-0.8,3-0.7,4.3C102,656,104.4,653.7,104.3,652.4L104.3,652.4z M131.2,693.8
	c3.5-1.1,5.8,7.2,8.6,9.8C136.9,703.7,134.1,696.3,131.2,693.8L131.2,693.8z M142.7,710.8c2.5-0.4,5.3,7.5,7,11.5
	C146.7,719.1,145.2,714,142.7,710.8L142.7,710.8z M153.6,729.6c0.2-2,2.4-0.5,1.9,1.3C154.8,730.9,154.6,729.6,153.6,729.6z
	 M591.3,622.8c-12.2,14.1-22.1,29.9-29.6,47c-7.3,17.7-17.2,33.9-27.2,49.3S515.3,751,505.4,766c-12.7,18.4-27.8,34.2-38.9,55.8
	c-11.3-13.2-18.5-31.5-28.1-47.2c-5.1-7.8-9.6-15.9-13.7-24.3c-4-8.5-7.7-18.1-12.1-26.2s-9.9-15.4-14.3-23.6
	c-4.6-8.2-8.2-17.6-12.7-25.2c-9-16.2-19.9-30.2-28.1-46.3c18.9-36.3,42.6-66.8,62-102.1c15-27.6,28.1-56.2,39.1-85.7
	c3.6-9.8,6.8-20.4,12.3-28.9c8,9.2,12.2,23.9,17.9,36.7c6.7,9.2,12.2,19.6,18.5,29.3c7.1,21.7,21.4,35.5,32,52.9
	c10.7,17.7,20.9,35.8,33.2,51.1c8.1,11.6,14.3,26.6,24.8,34.6c0.1,1.6-0.4,1.7-0.8,2.9C594.9,620.9,593.2,622,591.3,622.8z
	 M456.8,441.2c1.1,1.1-0.1,5-1.9,4.6C455.5,443.7,456.4,442.7,456.8,441.2z M878.3,640.9c-1.7,1.1-1-1.7-1.3-3
	c-0.7,2.1-0.9,4.2-3.8,3.3c-2,1.1-1.4,5.2-2.5,7.1c-2.8,2.2-3.6,2.8-5.2,7.8c-6.2,6.5-11,15.6-16.1,24.5c-1.3,2.1-3.2,4.5-4.6,6.6
	c-5.9,8.7-10.2,19.4-15.9,28.6c-0.7,1.5-2.1,1.5-3,2.7c-0.3,0.9-0.1,3.2-0.9,4.3c-1.3,2.4-3,3.8-4.7,6.2c-2.8,4.3-5.2,9.4-9.2,12.3
	c-1.6,9.2-8.9,12.1-10.9,21.5c-7.1,9.4-14.8,18.8-22,28.7c-7.3,10.2-13.5,21-20,31.7c-3.7-1.2-4.1-6.7-6-10c-1.9-3.7-4.7-5.7-5.5-10
	c-13.3-22.7-27.5-44-41-66.5c-6.7-11-12.9-22.8-20.1-33.3c-3.8-4.8-7.4-10.3-11.1-15.3c-3.4-5.3-7.1-10.4-11-15.3
	c-6.6-8.3-15.1-14.1-21.7-23c-6.4-9.2-11.6-19.3-18.8-26.8c3.6-11,10.7-18.7,16.3-27.6c15.4-26.6,33.4-51.5,48.5-79.8
	c5.2-9.9,10.3-19,14.8-28.7c4.8-9.8,8.2-20.4,12.9-30.7c8.9-20,17.9-39.6,30.7-55.4c3.8,2.5,6.1,7.8,8.4,12.8s3.5,12.6,7.9,14.2
	c-0.3,2.3,0.3,3.4,1.5,6.2c7,12.4,13.6,25,21.2,36c26.5,26.6,40.6,72.1,65.4,102.4c3.3,10,9.5,18.8,14,29.9
	c3.1,8.2,7.1,14.7,10.5,22.3c2.8,5.1,2.4,9.2,4.2,13.2c0.2,0.5,0.2,1.1,0.1,1.7C879,639.9,878.7,640.4,878.3,640.9z M104.1,647.5
	c-0.6-7.8,4.4-9.3,4.5-16.9c2,0.6,0.6-3.6,3.2-2.8c1.5-8.7,4.6-17.1,9-24.7c-0.5-1.7-0.5-3.5-0.2-5.2c1.3-1.9,2.4-4.2,3.6-6.1
	c0.4-9.2,8.2-18.4,8.1-28.2c4.2-3.9,4.1-13.7,7.8-18.7c-0.1-2.5-1.7,1.9-1.4-1.8c1.5-4.9,6.9-16.9,14-23.2
	c10.6,22.4,0.6,66.9-2.1,64.6c-19.4,41.8-25.4,49.9-32.4,59.1C118.7,641.6,102.9,649.3,104.1,647.5z M118.1,617.5
	c0.3-1.8,1-3.5,1.5-5.4C117.9,611.8,116.5,616.3,118.1,617.5L118.1,617.5z M850.7,635.3c-0.5-3.4-4.5-6.7-5.7-9.1
	c-3-5-5-11.8-7.5-17.2c-13.7-27.9-27.8-55.2-44.3-78.2c-9.9-14-18.7-29.9-28.6-42.1c0-3.4-1.5-4.3-1.4-7.5
	c-10.3-1.5-9.3-20.4-19.9-21.4c-2.4,5.3-3.9,13.2-6.5,20.1c-0.2,3.2,1.7,3.3,1.2,6c-8.9,32.8-23.9,58.9-40.2,83.4
	c0.5,2.7-0.7,3-0.6,5.1c-7.1,5.3-10.8,15.1-18.8,19.4c-2.7,4.2-4.5,9.2-9.3,10.7c-1,0.8-0.5,3.9-1.2,4.9c-0.5-0.4-1.2-0.7-1.9-0.8
	c-0.7-0.1-1.4,0-2,0.2c0.8,3.2,0.5,6.8-1.5,6.9c-0.3,6.6,3.5,9.3,6.7,14.5c4,7.4,8.1,16.6,12.2,20.2c8.6,17.5,18.1,34.7,27.8,50.5
	c9.6,16.4,18.1,33.8,29.5,48.4c5,7.5,9.5,15.3,13.7,23.2c1.3,2.6,1.5,7.9,5,8.3c1.5-0.9,0.6-4.3,1.8-5.2c0.7,0.6,1.6,0.8,2.5,0.7
	c1.1-0.8-0.2-5,1.4-5.1c7-8.3,13.9-16,20.5-23.9c7.2-7.5,12.8-16.4,19.2-25.3c12.5-17.8,20.4-39.7,32.6-57.9c2.9-4.8,7-7.6,8.4-13.8
	C847.6,646.9,852.2,642.8,850.7,635.3L850.7,635.3z M804.3,645.9c-2.7,4.6-6.1,6.5-8.4,12.3c-1,3-2.3,5.8-3.8,8.6
	c-1.7,2.4-3.8,3.9-5.4,6c-0.8,1.9-0.7,4.5-1.6,6c-0.6,1.7-2,1.9-3,3.6c-2.5,4.8-4.1,11.1-9.2,14c-6.4,11.3-10.3,26.3-19.4,34.5
	c-3.3-3.5-6.1-9.1-8.4-13.8c-5.1-9-9.7-18.8-15.3-28.6c-12.6-22.5-24.5-48.3-38.3-71.1c25.1-27.9,43.6-63.8,64-97.1
	c5,8.6,9,19.1,13.2,29.3c16,23,30,49.2,44.5,73.9c0,0.6,0.3,1.3,0.7,1.8c0.3,0.6-0.2,0.6-0.6,0.7c0.2,5.1-4.9,8-7.3,13.2
	C805.2,641.3,805.1,644,804.3,645.9L804.3,645.9z M551,293.6c2.1,2.6,3.3,5.8,3.2,9.2c6,8.3,10.7,17.9,17.3,25
	c9.8,16.8,17.9,36.6,30,50.6c4,4.7,6.7,11.9,10.3,17c-1.2,2.4,0.2,5,0.3,7.8c2.7,0.1,5.4,0.8,8.6,0.3
	c25.3-30.6,41.5-71.5,52.5-119.3l-8.2,0.4c-1.1,1.5-2.1,3.2-2.9,4.9c-1.8-1.9-0.8,0.8-0.6,0.8c-7,8.5-13.7,28.5-26,33.5
	c-3.5,7.2-9.2,12.8-12.1,21.8c-2.2,6.6-1.8,15.4-5.8,21.7c-14.6-26.8-29.1-53.3-47-74.7c-1.8-0.6-3.4-1.5-4.8-2.7l-15.2,0.8
	C550.9,291.5,551.1,292.5,551,293.6z M370.7,554.2c1.4,0.7,3.2-2.5,1.8-2.6C372.5,553.1,370.5,552.3,370.7,554.2z M98.6,549.7
	c3.5-0.4,3.4,2,6,0.3c2.2-5.1,9.9-6.8,9.7-12.3c0,0.7-0.8,1-0.8,0c1.3-1.9,1.6-4.4,3.4-6.1c0.7-10,7.6-17,6.7-26.1
	c0,0.9-0.7,2.1-0.9,0.9c0.6-5,3.2-7.9,5-13.1c4.4-13.9,6.5-27.6,11.9-40.2c1.6-9.7,5.1-17.9,8.2-26.2c0.8,0,0.8,0.9,1.6,0.8
	c2.3-7.3,5-14.4,8.2-21.4c-0.2-0.4-1.1,0.1-1.1-0.9c1.9-2.4,4-4.3,2.8-8.5c5.9-5.6,3.9-21.2,10.3-25.9c-1.2,13.1-5.6,24.9-9.3,37.6
	c5.1-1.2,4.8-10.1,6.6-15.6c3.1-4.8,3-13.2,5.5-18.8c0,0.3,0.2,0.9,0.4,0c-0.2,0-0.9,0-0.4-0.9c-0.6-3.6,1.6-4.4,1.5-7.3
	c-0.8-6.8-3.9-9.4-7.9-10.8c1.8-1.2,2.4-8,0.1-9.3c0.1,2.1-2.1,1.6-2.1,3.5c1.6,1.3,1.9-1,3,0.8c-1.3,2.8-3.6-1.4-6,1.9
	c-1.6-1,1.1-2.6-0.7-3.1c-2.6,7.6-10,14.1-9.9,22.1c0-0.2,0.1-0.9,0.4,0c-2.9,2.7-4.3,14.4-8.4,19.9c1.4-0.3,0.4,3.1,1.2,4.3
	c-3.6,5.2-5.8,11.3-6.3,17.6c-2.8,3.8-6.1,10.6-4.7,16.4c4.8-15.5,10.1-31,16.1-45.6c0.1,3-0.9,4.9,0.9,6.1c0.7-3.9,0.2-1.1-0.8-2.7
	c0.8-1.4,3.4,1.4,3.2-2.5c-0.1-3-2.3,2.4-2.6,0.1c0.8-2.5,3-2.6,4.8-3.7c-0.5,1.1-0.9,2.4-0.9,3.6c0,1.3,0.2,2.5,0.7,3.7
	c-2.3,4.6-5.1,7-4.7,9.6c1.8,0.1-1.1,7.1-2.3,8.8c-0.1-2.7,1.1-3.3,1.3-5.4c-4,2.3-3.9,9.8-6.2,14.5c3.3-0.2,1.5-6.5,4.9-6.6
	c-3.4,5.8-3.9,15.9-9.1,19.6c0.1,2-1,2.5-0.7,5c-1.6-0.4-1.3,2.3-2.8,2.9c0,4.1-0.9,8-3,9.3c-0.1,0.4-0.1,0.9,0.1,1.3
	c0.1,0.4,0.3,0.8,0.6,1.1c-2.6-0.1-1.6,4.2-3.1,5c1,0.4,0.8,1.3,0.9,2.7c-1.8,2.8-2.5,6.5-4.4,8.4c-0.5,7.5-5.1,8.9-5,16.5
	c-2,0.3-0.7,4.6-3,4.4c2.7-10.1,7-22.3,7.9-31.8c-2.5,3.3-1.7,13.5-5.5,12.1c2.9,4.1-2.3,8.5-4.3,14.3c-0.2,1.2,0.3,2.9,0.1,3.4
	c-0.9,2.5-2.6,4.7-3.2,7c-2.1,5.1-3.5,10.9-6.3,13.1c-0.6,10.8-5.3,16.6-6.7,26.3c-2,0.6-2.6,2.4-3.7,4.3
	C97,539.5,96.5,544.5,98.6,549.7z M121.6,511.3c-2-0.6,0.3-2.1,0.2-3.2C123.5,508.3,121.4,510.2,121.6,511.3L121.6,511.3z
	 M156.7,385.5c1.5,1.8-2.3,3.8-2.2,6.5C153.1,390.3,156.6,387.4,156.7,385.5L156.7,385.5z M151.6,403.4c-0.7,0.4-1.4,0.7-2.2,0.8
	c0.6-3,3-3.1,3.6-5.2c1.6,1.1-1.2,3.7-0.9,6C151.7,404.9,151.7,404,151.6,403.4L151.6,403.4z M139.6,440.7c-0.1-2.1-1.7,2.4-1.4-1.5
	c2.4-6.6,4.7-13.5,6.5-20.4c2.7-0.1,3.9-9.8,4.9-6.9c-6.2,17.9-10.5,38.1-17.5,55.3c-1.8,11.5-5.6,20.8-9,30.5
	c-0.6-4.3,2.5-11.1,4.6-15.1c-0.2-6.4,0.8-11,3.4-13.8C133.5,458.5,136.7,450.2,139.6,440.7L139.6,440.7z M135.8,471.2
	c0.8-2.8,2-5.6,2.6-8.4c-2.1-0.5-2,1.3-1.1,2.4C136.1,465.9,134.1,469.6,135.8,471.2L135.8,471.2z M93.9,446.1c0-3.4,2.6-4,2.8-7
	c-1.8,0.8-1.2-2-2.1-2.6c6.6-7.2,8.6-20.1,13.6-29.3c-0.4-0.4-1.3,0.1-1.3-0.8c0.7-0.7,4-0.2,2.5-2.7c-0.3,1-1.3,2.1-1.3,1
	c2.9-6.1,4.2-13.2,8.5-17.1c2.3-11.1,7.1-18.3,11.9-25.9c0,0.7,0.3,0.6,1.2,0.6c1.2-8.1,4.8-14.8,9.2-21.4c0,4-0.3,4,1,6.5
	c-1.4,4.7-4.2,11.9-4.1,15.3c4.2-11.6,9-25.8,6.7-43c-0.9-1.8-1.2,0.9-1.8-0.9c1.2-0.3-0.2-4.3,0.4-5.7c-1.6,0.1-2.6,0.1-3.6-0.5
	h-0.3c-1.4,2.8-2.2,5.6-4.8,6.6c0.3-1.6-0.3-1.8-1.2-0.9c0.7-2.1,4.4-2.7,2.6-4.9c-1-1.6-2.9,2.1-4.4,2.5c-1.2,5.2-4.1,8.4-4.3,15.5
	c-2.9,4-4.5,8.8-4.6,13.7c-1.9-0.4-1.5,1.7-2.7,1.7c-5.3,19.6-15,34.3-22.9,50.9c-0.8,0.7-2.1,0.7-3.1,1.8c0.1,2.2-0.8,1.6,0.1,3.4
	c-0.9,0.4-1.6,1.1-1.9,2l1.9,46.1c2.8-3.3,6.6-6.4,8.8-10.9C97.5,440.2,96,446.7,93.9,446.1z M117.8,363.1c-1.4-2.9,2.7-5.8,3.2-9.2
	C121.7,353,119.4,361.3,117.8,363.1L117.8,363.1z M125.5,523c-0.1,1.8-3.2,4.7-1.9,6C123.7,526.7,127.1,524.6,125.5,523z M782.3,606
	c-3.4-6.1-5.6-15.4-9.5-23.2c-3.8-7.4-9.5-17.5-14.3-20.8c-3.1,0.3-5.3-0.6-6,1.8l0.1,0.1c0.7,0,1.3,0.2,0.6,0.8
	c-0.2-0.3-0.4-0.5-0.6-0.8h-0.1l0-0.1c-3.3-3.6-6.3,0.4-10-2.8c-1.4,6.4,0.6,10.8,2.6,15c-3.4,11.7-6.4,23.6-10.3,34.2
	c-3.9,4.9-7,10.5-9.2,16.4c-0.2,0.7,0.1,1.6-0.3,1.7c0.4,4.7,2,6.4,0.8,10.9c1,1.9,4.6,0.9,4.9,4c-0.1,1.6-1.7,0.6-0.4,2.6
	c7.2,10.2,12.8,22.8,20.5,32.4c0.5,2.6-0.4,2.3,0.6,4.3c11.9,11.9,15.4-11.3,23.8-21.4c4.8-6.4,9.2-9.1,12-14.1
	c2.3-7.3,7-13.5,5.8-22.2C792.4,616.9,786,612,782.3,606z"/>
</svg>
