<svg width="431" height="607" viewBox="0 0 431 607" fill="none" xmlns="http://www.w3.org/2000/svg">
<path d="M66.3089 597.193C20.3848 586.127 0.337113 559.695 2.06961 514.959C3.47566 479.397 2.21553 443.64 2.28849 407.98C3.29474 367.309 -3.44875 104.246 5.76361 62.93C13.7328 27.665 30.0742 10.8618 67.4225 2.80366C101.693 -4.69326 326.581 7.59019 356.433 4.43526C365.313 3.3836 374.335 4.10226 382.889 6.54237C391.443 8.98249 399.33 13.0874 406.018 18.5797C412.705 24.072 418.037 30.8238 421.653 38.3789C425.269 45.9339 427.085 54.1164 426.978 62.3731C426.859 120.639 423.925 401.56 425.037 459.639C424.988 483.381 431.196 506.946 430.224 530.78C429.546 545.5 424.165 559.705 414.757 571.61C388.849 602.393 349.258 603.92 311.1 606.585C301.457 607.511 74.5096 599.196 66.3089 597.193Z" fill="white"/>
</svg>
