<svg width="945" height="448" viewBox="0 0 945 448" fill="none" xmlns="http://www.w3.org/2000/svg">
<path d="M943.7 360.93C929.635 407.317 889.892 428.56 820.178 428.887C764.759 429.118 709.22 432.022 653.741 433.589C590.402 434.455 181.628 453.292 116.723 445.989C61.3159 439.65 34.0552 424.098 18.9579 387.159C4.94478 353.268 8.62945 128.043 1.67408 98.3669C-0.570992 89.5443 -0.0718579 80.4985 3.13747 71.8407C6.3468 63.1829 12.1917 55.1148 20.2771 48.1814C28.3627 41.2481 38.5004 35.6111 50.0055 31.6513C61.5106 27.6915 74.1151 25.5012 86.9671 25.2283C177.617 22.6673 614.835 12.676 705.11 8.89366C742.047 7.85011 778.28 0.564526 815.425 0.439003C838.371 0.439204 860.839 5.16165 880.004 14.0127C929.668 38.4784 934.759 77.9592 941.522 115.956C943.624 125.546 946.254 352.646 943.7 360.93Z" fill="white"/>
</svg>
