<svg viewBox="0 0 40 41" xmlns="http://www.w3.org/2000/svg" style="fill:#22612b;">
    <path d="M39.8787 14.8392C39.8903 14.7387 39.8903 14.6372 39.8787 14.5367L39.79 13.9316C39.79 13.8585 39.79 13.7803 39.7535 13.6968C39.7274 13.4682 39.6856 13.2416 39.6283 13.0187L39.3414 11.9284C39.2475 11.6311 39.1275 11.3285 39.0075 11.0156L38.898 10.7339C38.7793 10.4299 38.6381 10.1352 38.4755 9.85229L38.2981 9.51843C38.1355 9.20095 37.9471 8.89738 37.7347 8.61077L37.4582 8.21431C37.3624 8.07872 37.2597 7.94813 37.1505 7.82308L36.7697 7.40577C36.4309 7.01983 36.0434 6.67964 35.6168 6.39377C35.7075 6.16429 35.7203 5.91138 35.6533 5.6739C35.3936 5.01234 34.9992 4.41194 34.4953 3.91073C34.2829 3.68306 34.0582 3.46713 33.8224 3.26389L33.5302 3.01872C31.9433 1.68217 29.9952 0.847002 27.933 0.619138C26.9374 0.50158 25.9325 0.484101 24.9335 0.56697C22.7459 0.812427 20.5912 1.29339 18.5068 2.0015C17.7386 2.28313 16.9923 2.62139 16.2742 3.01349C14.5895 3.95038 13.1575 5.28219 12.101 6.89455C11.3546 7.89026 10.7555 8.9883 10.3222 10.1548C10.1343 10.6275 9.97749 11.1119 9.8527 11.605L9.75879 11.9441C9.70662 12.1475 9.67011 12.351 9.62838 12.5596L9.57623 12.8309C9.51167 13.1322 9.46463 13.437 9.43537 13.7438C9.42758 13.7921 9.42758 13.8415 9.43537 13.8898C9.48077 14.1726 9.49128 14.46 9.46667 14.7453C9.46667 15.0687 9.46668 15.4183 9.42494 15.8356C9.3862 16.5703 9.46544 17.3064 9.65968 18.0161C9.62316 18.1413 9.58665 18.2665 9.55536 18.3917C9.52674 18.5089 9.53965 18.6324 9.59188 18.7411C9.72987 19.0209 9.82483 19.3199 9.87355 19.628C9.83514 19.7021 9.8151 19.7844 9.8151 19.8679C9.8151 19.9514 9.83514 20.0337 9.87355 20.1079C10.0114 20.3668 10.1216 20.6396 10.2022 20.9216C10.2544 21.0729 10.3222 21.2607 10.4004 21.4433C10.4017 21.5131 10.4159 21.582 10.4421 21.6467L10.5465 21.8867L10.5882 21.9806C10.5656 22.1112 10.5936 22.2454 10.6665 22.3562L10.9899 22.8778H10.9168C10.4141 22.8791 9.92082 23.0141 9.48754 23.269C9.37228 23.3415 9.26084 23.4198 9.15368 23.5038L9.10673 23.5403C9.02417 23.5518 8.94558 23.5829 8.87751 23.631C8.80944 23.6791 8.75388 23.7428 8.7155 23.8168C8.28423 24.5855 7.67183 25.2373 6.93147 25.7156C6.18432 26.2212 5.54144 26.8658 5.03789 27.6144C4.90277 27.6258 4.7774 27.6894 4.68838 27.7917L4.54754 27.9534C3.98938 28.6003 3.41035 29.2628 3.38949 29.8418C3.28039 29.8114 3.16438 29.8174 3.05899 29.8588C2.95359 29.9002 2.86452 29.9748 2.80525 30.0713C2.73647 30.1856 2.71407 30.3219 2.74265 30.4521C2.68856 30.5407 2.62934 30.626 2.56529 30.7077C2.4841 30.7346 2.41188 30.7833 2.35662 30.8486L1.14119 32.1527L1.09947 32.1944C1.00557 32.304 0.911669 32.4083 0.833422 32.5178C0.78659 32.5884 0.756272 32.6687 0.744735 32.7526C0.697729 32.7847 0.654042 32.8214 0.614323 32.8621C0.424358 33.0644 0.294325 33.3154 0.238737 33.5872C0.220243 33.66 0.217671 33.7358 0.231175 33.8096C0.244679 33.8835 0.273953 33.9535 0.316997 34.015C0.351935 34.063 0.394174 34.1052 0.442187 34.1402C0.399567 34.3881 0.385556 34.6402 0.400446 34.8913C0.434654 35.262 0.522512 35.6257 0.66127 35.9711C0.81667 36.3537 1.01439 36.7176 1.25073 37.0562L1.58459 37.5778C1.66284 37.7082 1.74109 37.8491 1.82977 37.9847L1.89236 38.0629L3.37384 39.5653C3.74326 39.9282 4.17888 40.2168 4.65709 40.4156C5.02724 40.563 5.42194 40.6391 5.82036 40.6399C5.95638 40.639 6.09223 40.6303 6.22725 40.6138C6.73885 40.5464 7.22512 40.3508 7.64091 40.0452C8.01382 39.7828 8.35208 39.4743 8.64768 39.1271L11.2246 36.2946C12.6026 34.7342 14.1046 33.288 15.716 31.9701H15.7629C15.8756 32.0012 15.9946 32.0012 16.1072 31.9701C16.205 31.9432 16.2965 31.8971 16.3762 31.8344C16.4559 31.7717 16.5223 31.6937 16.5715 31.605C16.622 31.5191 16.6673 31.4302 16.7071 31.3389V31.2868L16.7384 31.2085L16.8688 31.0259C17.1248 30.6385 17.2824 30.1944 17.3279 29.7322C17.3408 29.5743 17.3408 29.4155 17.3279 29.2575L17.4583 29.3201C18.1573 29.6488 18.8981 29.9513 19.6179 30.2435C21.3552 31.1254 23.3065 31.4979 25.2465 31.3181C27.2139 31.1723 29.1259 30.5991 30.849 29.6384L31.2037 29.4193C33.0553 28.3865 34.7767 27.1361 36.3315 25.6947C38.1068 24.0507 39.2479 21.835 39.5553 19.4349C39.6284 19.207 39.6374 18.9634 39.5813 18.7307C39.84 17.4507 39.9399 16.1437 39.8787 14.8392ZM11.7567 29.4923C11.2378 30.217 10.5843 30.8351 9.83183 31.3128C9.75666 31.356 9.69345 31.4173 9.64791 31.4911C9.60237 31.5649 9.57594 31.6488 9.571 31.7354C9.571 31.8553 9.34147 32.1162 9.20585 32.257C9.06025 32.4165 8.93257 32.5914 8.82505 32.7787C8.79128 32.7519 8.75451 32.7291 8.7155 32.7108C8.64683 32.6791 8.57208 32.6626 8.49641 32.6626C8.42075 32.6626 8.34598 32.6791 8.27732 32.7108C7.63766 33.0345 7.11581 33.5509 6.78541 34.1871C6.60678 34.5071 6.38178 34.7989 6.11771 35.0531C6.07707 35.0915 6.04195 35.1354 6.01337 35.1835C5.97701 35.1786 5.94019 35.1786 5.90383 35.1835H5.85166C5.79633 35.1752 5.74006 35.1752 5.68473 35.1835L5.30394 34.6618C5.3431 34.6148 5.37477 34.562 5.39783 34.5053C5.42806 34.4315 5.44095 34.3517 5.43553 34.2722C5.4301 34.1926 5.4065 34.1153 5.36653 34.0463C5.58337 33.7998 5.74519 33.5099 5.84123 33.196C5.87046 33.1196 5.87944 33.0369 5.86731 32.956L5.90903 32.9039C5.96781 32.9551 6.03733 32.9926 6.11248 33.0134C6.23432 33.0459 6.36381 33.0331 6.47697 32.9775C6.59014 32.9219 6.67932 32.8272 6.72802 32.7108L7.07231 31.9023C7.39674 31.6701 7.69573 31.4044 7.96432 31.1094C8.12213 30.9344 8.29686 30.7753 8.48597 30.6347C8.58975 30.6238 8.68788 30.582 8.76766 30.5147C9.24167 30.1375 9.65969 29.6949 10.0092 29.2002H10.0561C10.1083 29.2324 10.1672 29.252 10.2283 29.2575C10.3533 29.2765 10.4809 29.2493 10.5874 29.1812C10.6939 29.1131 10.7721 29.0086 10.8073 28.8872C10.844 28.7835 10.8912 28.6839 10.9481 28.5898L11.3446 28.9654C11.4347 29.0515 11.5525 29.1024 11.6769 29.1091C11.8013 29.1158 11.924 29.0778 12.0227 29.0019L12.0749 29.0385L12.1218 29.0698L11.7567 29.4923ZM35.7159 16.1694V16.4563C35.7159 16.5607 35.7159 16.6963 35.7159 16.7954C35.6733 16.861 35.6447 16.9348 35.6322 17.012C35.6196 17.0893 35.6232 17.1683 35.6429 17.244C35.6851 17.4312 35.6851 17.6254 35.6429 17.8126C35.6241 17.9164 35.5997 18.0192 35.5699 18.1204L35.4342 18.4542C35.3403 18.6681 35.2569 18.882 35.1786 19.0907L35.1317 19.2106C35.1056 19.2784 35.0847 19.341 35.0639 19.4036C34.9741 19.4707 34.9068 19.5635 34.8709 19.6697C34.8709 19.701 34.8709 19.7271 34.8709 19.7531L34.8396 19.894C34.8396 20.0035 34.7874 20.1131 34.7613 20.1965C34.6935 20.3687 34.6257 20.5356 34.5579 20.6869C34.5311 20.75 34.4997 20.811 34.464 20.8695C34.3946 20.8854 34.3291 20.9153 34.2717 20.9575C34.2143 20.9997 34.1661 21.0532 34.1301 21.1146C34.0675 21.219 34.0154 21.3233 33.9528 21.4328C33.8044 21.7197 33.6298 21.9921 33.4311 22.2466L33.0347 22.7996L32.56 23.3577C32.32 23.6446 32.0801 23.9054 31.8558 24.1506C31.6314 24.3958 31.3341 24.714 31.1463 24.9748C31.0608 25.0222 30.9903 25.0927 30.9429 25.1783L30.8907 25.267C30.8907 25.267 30.8907 25.2304 30.8542 25.22C30.7651 25.1346 30.6486 25.0835 30.5254 25.0758C30.4022 25.0682 30.2802 25.1045 30.1813 25.1783C30.108 25.2257 30.0468 25.2895 30.0025 25.3647C29.9581 25.4398 29.9318 25.5242 29.9257 25.6112C29.92 25.7052 29.9398 25.7989 29.983 25.8825C29.8584 25.9028 29.7453 25.9677 29.6648 26.0651C29.3921 26.3172 29.0602 26.4966 28.6998 26.5867C28.512 26.6545 28.3242 26.7067 28.1521 26.7589L27.8443 26.8528C27.7849 26.816 27.7188 26.7915 27.6498 26.7807C27.5808 26.77 27.5104 26.7732 27.4426 26.7902C27.0087 26.9102 26.568 27.0042 26.1228 27.0718C26.0325 27.0869 25.9468 27.1226 25.8725 27.1762C25.4434 27.0775 24.9975 27.0775 24.5683 27.1762C24.1251 27.1892 23.6889 27.2903 23.2851 27.4735L22.9356 27.5987C22.6533 27.7156 22.3488 27.769 22.0436 27.7552C22.089 27.5973 22.0741 27.4281 22.0018 27.2805C21.9647 27.1966 21.9061 27.1239 21.8319 27.0699C21.7577 27.0158 21.6706 26.9823 21.5793 26.9727C21.3326 26.9266 21.1003 26.8229 20.9012 26.6702C20.6872 26.5243 20.4602 26.3986 20.223 26.2946C20.2075 26.2488 20.1865 26.205 20.1604 26.1642C20.1194 26.1005 20.0651 26.0465 20.0011 26.006C19.9371 25.9655 19.8651 25.9393 19.7901 25.9294C19.6244 25.9094 19.4637 25.8599 19.3154 25.7834C19.2088 25.7295 19.106 25.6685 19.0076 25.6008L18.6164 25.3035C18.392 25.1209 18.1677 24.9279 17.9487 24.7349C17.6461 24.4741 17.3592 24.2132 17.0775 24.015C17.0158 23.9703 16.9451 23.9397 16.8703 23.9253C16.7955 23.9108 16.7184 23.913 16.6445 23.9315L16.6758 23.895L16.7384 23.7855C16.8081 23.6693 16.8323 23.5314 16.8063 23.3985C16.7803 23.2655 16.7059 23.1469 16.5976 23.0656C16.5156 22.9919 16.4199 22.9352 16.3159 22.8987C16.0012 22.4425 15.7188 21.9649 15.4708 21.4694L15.3978 21.3285C15.357 21.2523 15.3205 21.174 15.2882 21.0938L15.2465 20.9894C15.2152 20.9112 15.1839 20.8277 15.1683 20.7756L15.1161 20.6087C15.09 20.5304 15.0692 20.4522 15.0483 20.3791C15.0189 20.0936 14.9185 19.8199 14.7564 19.583C14.5942 19.3461 14.3754 19.1536 14.1198 19.0228C14.0977 18.9373 14.0977 18.8476 14.1198 18.762C14.1905 18.6973 14.242 18.6144 14.2686 18.5224C14.2953 18.4304 14.2962 18.3328 14.271 18.2404C14.0307 17.4538 13.9335 16.6304 13.9841 15.8095C13.9841 15.7834 13.9841 15.7626 13.9841 15.7365C13.9474 15.5071 13.8581 15.2893 13.7233 15.1001C13.6641 15.0246 13.6214 14.9375 13.5981 14.8444C13.6934 14.7487 13.7587 14.6272 13.7859 14.4949C13.8944 14.38 13.9858 14.25 14.0572 14.1089C14.0972 14.0458 14.1215 13.974 14.1278 13.8995C14.1342 13.8251 14.1225 13.7502 14.0937 13.6812C14.0912 13.6709 14.0912 13.6602 14.0937 13.6499C14.1273 13.4548 14.1273 13.2555 14.0937 13.0604C14.1354 12.9509 14.1719 12.8361 14.2084 12.7318L14.2345 12.6535C14.2345 12.5805 14.2867 12.497 14.3076 12.4397C14.3775 12.4124 14.4408 12.3703 14.493 12.3162C14.5453 12.2622 14.5852 12.1975 14.6101 12.1267L14.7301 11.7824C14.9948 10.9341 15.3244 10.1074 15.716 9.30978C15.7696 9.31755 15.8241 9.31755 15.8777 9.30978C15.985 9.32165 16.0931 9.29782 16.1855 9.24196C16.6408 8.95242 17.03 8.57029 17.3279 8.12042L17.5522 7.83351C17.8651 7.38464 18.3019 7.03663 18.8094 6.83195C18.8797 6.80938 18.9444 6.77213 18.9993 6.72267C19.0541 6.67321 19.0979 6.61266 19.1276 6.54504L19.1797 6.43028C19.2463 6.38566 19.3003 6.32456 19.3362 6.25292C19.4689 6.29081 19.6077 6.30202 19.7447 6.2859C19.8817 6.26979 20.0141 6.22666 20.1344 6.15903C20.5975 6.0477 21.0373 5.8552 21.4332 5.59043C21.6691 5.44948 21.913 5.32233 22.1635 5.20962C22.228 5.18573 22.2867 5.14839 22.3357 5.10008C22.413 5.18037 22.5139 5.23382 22.6237 5.25259C22.7335 5.27136 22.8465 5.25449 22.946 5.20442C22.9852 5.18436 23.022 5.15985 23.0556 5.13138H23.1703C23.692 5.04792 23.8902 5.03227 24.0311 5.01662H24.1719C24.4771 4.98834 24.7835 4.97615 25.09 4.9801C25.1333 4.98519 25.1771 4.98519 25.2204 4.9801C25.4082 4.92793 25.7994 4.8236 25.8933 4.45845C26.321 4.4046 26.7554 4.46024 27.1557 4.62016C27.2584 4.66652 27.3734 4.67837 27.4834 4.65393C27.5935 4.62948 27.6926 4.57005 27.766 4.48454C27.7827 4.46957 27.7968 4.45194 27.8078 4.43238C28.4665 4.50631 29.087 4.77927 29.5866 5.21485C29.6523 5.27162 29.7312 5.31106 29.8161 5.32961C30.7494 5.53374 31.6651 5.81107 32.5548 6.15903L33.2277 6.41985L33.7493 6.6285C33.7068 7.20659 33.8166 7.78572 34.0675 8.30821C34.1301 8.53773 34.2084 8.78813 34.2918 9.0646C34.3753 9.34107 34.4327 9.49757 34.4953 9.71666L34.7196 10.6295C34.7665 10.8069 34.7926 11.0051 34.8239 11.2034V11.2816C34.7626 11.4008 34.7495 11.539 34.7874 11.6676C34.97 12.2571 35.0952 12.7839 35.2047 13.2326C35.2465 13.4047 35.283 13.5716 35.3351 13.7542C35.3873 13.9368 35.4186 14.0359 35.4551 14.1715C35.4906 14.3267 35.5342 14.4799 35.5855 14.6306C35.6377 14.8027 35.7055 14.9696 35.7733 15.1522L35.7994 15.2148C35.6807 15.5184 35.6517 15.8498 35.7159 16.1694ZM31.5428 14.8497C31.4815 14.7127 31.3795 14.598 31.2506 14.521C31.2181 14.4522 31.1709 14.3913 31.1123 14.3426C31.0537 14.2939 30.9852 14.2587 30.9116 14.2393C30.8867 14.1529 30.8535 14.069 30.8125 13.9889C30.8084 13.9137 30.7882 13.8403 30.753 13.7736C30.7179 13.707 30.6688 13.6488 30.609 13.6029L30.5151 13.5403C30.5176 13.5248 30.5176 13.5089 30.5151 13.4934C30.5076 13.4214 30.4851 13.3517 30.4492 13.2888C30.4133 13.226 30.3647 13.1713 30.3065 13.1282C30.2126 13.0552 30.1135 12.9665 30.0143 12.8726C29.6967 12.5213 29.2707 12.2863 28.8041 12.2049H28.6894C28.6545 12.143 28.6074 12.0889 28.5509 12.0458C28.4944 12.0027 28.4297 11.9717 28.3607 11.9545C28.3244 11.9493 28.2875 11.9493 28.2512 11.9545H28.199V11.8919C28.1947 11.8219 28.1763 11.7535 28.1449 11.6907C28.1136 11.628 28.0698 11.5722 28.0164 11.5268L27.5574 11.1355L27.4583 11.0677C27.4098 10.9556 27.3383 10.855 27.2485 10.7723C27.1586 10.6896 27.0524 10.6268 26.9366 10.5878C26.8285 10.5184 26.7055 10.4757 26.5776 10.463C26.4498 10.4503 26.3208 10.468 26.2011 10.5148V10.4157C26.2006 10.3246 26.1762 10.2353 26.1304 10.1566C26.0847 10.0779 26.0191 10.0126 25.9403 9.96704L25.8985 9.88359C25.8282 9.72644 25.7351 9.58053 25.6221 9.45061C25.621 9.35907 25.5958 9.26941 25.5491 9.19067C25.5024 9.11192 25.4359 9.04686 25.356 9.00201C25.2878 8.96161 25.2109 8.93833 25.1317 8.93419L25.0326 8.78813C24.9498 8.64586 24.8518 8.51294 24.7405 8.39167C24.655 8.30703 24.5428 8.25457 24.423 8.24316C24.3032 8.23175 24.1832 8.2621 24.0832 8.32908C24.0031 8.38377 23.9355 8.4549 23.885 8.53773C23.8178 8.52438 23.7487 8.52438 23.6815 8.53773C23.5755 8.56124 23.478 8.6136 23.3999 8.68902C23.2882 8.68599 23.1785 8.7189 23.0869 8.78291C22.997 8.84412 22.9235 8.92653 22.873 9.02286H22.826C22.3409 9.12719 22.1166 9.59147 21.934 9.96183L21.861 10.1079C21.7045 10.4105 21.6315 10.52 21.4489 10.5826C21.3805 10.6064 21.3178 10.6442 21.2648 10.6936C21.2118 10.743 21.1697 10.8029 21.1411 10.8695C21.0863 11.005 21.0863 11.1565 21.1411 11.292C21.0476 11.2634 20.9477 11.2634 20.8542 11.292C20.5901 11.3652 20.3641 11.537 20.223 11.772C20.1372 11.9465 20.108 12.1434 20.1396 12.3353C20.1396 12.3823 20.1396 12.4292 20.1396 12.4762V12.5544C20.0405 12.6744 19.9413 12.7996 19.8527 12.93C19.8266 12.9605 19.807 12.996 19.7953 13.0343C19.7078 13.1027 19.6394 13.1925 19.5971 13.2951C19.5573 13.4051 19.5441 13.523 19.5586 13.639C19.5731 13.7551 19.6149 13.8661 19.6805 13.9629C19.4893 14.1732 19.339 14.4173 19.2371 14.6827C19.2138 14.7628 19.2138 14.8478 19.2371 14.9279C19.1383 14.9772 19.0553 15.0531 18.9972 15.147C18.9171 15.2017 18.8539 15.2775 18.8146 15.3661C18.7868 15.4288 18.7716 15.4963 18.77 15.5648C18.7683 15.6334 18.7802 15.7016 18.8049 15.7655C18.8296 15.8295 18.8667 15.8879 18.914 15.9375C18.9613 15.9872 19.0179 16.027 19.0806 16.0547L19.1432 16.0807C19.1432 16.0807 19.1432 16.1121 19.1432 16.1277C19.1309 16.254 19.1563 16.381 19.2162 16.4928L19.1693 16.5554C19.102 16.6603 19.0744 16.7859 19.0917 16.9093C19.1089 17.0327 19.1697 17.1459 19.2632 17.2284L19.4718 17.4005C19.4749 17.529 19.4924 17.6567 19.524 17.7813C19.4715 17.8694 19.4461 17.971 19.451 18.0734C19.4562 18.2297 19.4843 18.3844 19.5345 18.5325C19.5472 18.581 19.5647 18.6282 19.5866 18.6733C19.506 18.7518 19.4529 18.8543 19.4353 18.9655C19.4162 19.0898 19.4426 19.2168 19.5097 19.3232C19.5768 19.4296 19.68 19.5082 19.8005 19.5445C19.8664 19.5687 19.9267 19.606 19.9778 19.654C19.9595 19.7259 19.9595 19.8012 19.9778 19.8731C20.0365 20.103 20.1406 20.3188 20.284 20.5078C20.4273 20.6968 20.607 20.8553 20.8125 20.9738C21.005 21.0731 21.1618 21.2299 21.2611 21.4224C21.299 21.5054 21.3579 21.577 21.432 21.6301C21.5062 21.6831 21.5929 21.7159 21.6836 21.725C21.7823 21.7352 21.8818 21.7171 21.9705 21.6728C22.0514 21.6892 22.1348 21.6892 22.2157 21.6728C22.2522 21.7145 22.2835 21.7615 22.3148 21.8032C22.3484 21.854 22.385 21.9028 22.4244 21.9493C22.5137 22.0937 22.6472 22.2056 22.8049 22.2686C22.9627 22.3315 23.1365 22.3421 23.3008 22.2988C23.3682 22.4017 23.4698 22.4774 23.5877 22.5127C23.7916 22.5747 23.9988 22.6252 24.2084 22.6639C24.3532 22.6998 24.496 22.7433 24.6362 22.7944C24.7348 22.8242 24.8401 22.8242 24.9387 22.7944C25.03 22.768 25.1151 22.7236 25.1891 22.6639L25.2308 22.7057C25.3284 22.797 25.4572 22.8474 25.5908 22.8465C25.6253 22.8519 25.6605 22.8519 25.6951 22.8465C25.7837 22.8296 25.8663 22.7901 25.9351 22.7317L25.9977 22.7004L26.0446 22.7422C26.1011 22.7812 26.1648 22.8086 26.2319 22.8229C26.299 22.8372 26.3683 22.8382 26.4358 22.8256C26.7284 22.7512 27.0021 22.6162 27.2392 22.4292C27.2657 22.4591 27.2975 22.4839 27.3331 22.5022C27.5331 22.6226 27.7711 22.6637 27.9999 22.6173C28.2288 22.571 28.4319 22.4406 28.5694 22.2518L28.6581 22.1684C28.7307 22.1846 28.806 22.1851 28.8789 22.1698C28.9518 22.1545 29.0206 22.1238 29.0806 22.0797H29.1171H29.2371C29.5396 22.1318 29.8057 21.9701 30.0352 21.605C30.1469 21.6028 30.2556 21.5684 30.3482 21.5059C30.4132 21.4595 30.4668 21.3988 30.5047 21.3285L30.6247 21.2503C30.733 21.1813 30.8375 21.1064 30.9377 21.026C31.042 20.9468 31.1127 20.8314 31.1359 20.7025C31.173 20.5255 31.1472 20.341 31.0628 20.1809C31.1593 20.1227 31.2343 20.0349 31.2767 19.9305C31.3065 19.8542 31.319 19.7722 31.3132 19.6905C31.4241 19.6779 31.5281 19.6301 31.6098 19.554C31.6914 19.478 31.7466 19.3777 31.7671 19.268C31.8026 19.0869 31.8287 18.9041 31.8453 18.7203C32.2313 18.2665 32.4139 17.484 32.3931 16.3416C32.433 16.2715 32.4562 16.1931 32.4607 16.1125C32.4652 16.0319 32.451 15.9514 32.4191 15.8773C32.3586 15.6573 32.2506 15.4531 32.1028 15.2792C31.955 15.1053 31.771 14.9658 31.5636 14.8705L31.5428 14.8497ZM27.8912 17.6248C27.6894 17.6612 27.4827 17.6612 27.2809 17.6248C26.9259 17.567 26.5616 17.6198 26.2376 17.7761C26.1045 17.7895 25.9733 17.8175 25.8464 17.8596L25.669 17.9117C25.5648 17.9058 25.4613 17.9312 25.3717 17.9848H25.3299C25.2743 17.9491 25.2123 17.9243 25.1474 17.9117C25.0577 17.8421 24.9479 17.8037 24.8344 17.8022C24.7606 17.7313 24.6684 17.6825 24.5683 17.6613H24.4901V17.63C24.4552 17.5404 24.3977 17.4614 24.3232 17.4005C24.3417 17.2786 24.3197 17.154 24.2606 17.0458C24.2633 17.0338 24.2633 17.0213 24.2606 17.0093C24.2512 16.9378 24.2243 16.8697 24.1823 16.8111C24.1156 16.7004 24.0289 16.6031 23.9267 16.5241C23.8798 16.3957 23.7842 16.2907 23.6607 16.232C23.6631 16.2217 23.6631 16.211 23.6607 16.2007C23.7633 16.1774 23.8643 16.1478 23.9632 16.1121C24.0888 16.0616 24.1898 15.9643 24.2449 15.8408C24.3812 15.5059 24.4758 15.1555 24.5266 14.7975C24.5266 14.7088 24.5579 14.6253 24.5736 14.5315C24.6944 14.5781 24.8283 14.5781 24.9491 14.5315C24.9943 14.5159 25.0366 14.493 25.0743 14.4636C25.144 14.4859 25.2156 14.5016 25.2882 14.5106H25.3978C25.596 14.6149 25.789 14.7036 25.9507 14.7766L26.0342 14.8079C26.3106 14.881 26.4567 15.1992 26.6706 15.7156C26.8845 16.232 27.1922 16.9988 27.9486 17.244H27.9799C28.0403 17.2766 28.1054 17.2994 28.1729 17.3118C28.0995 17.4345 28.0101 17.5468 27.9069 17.6457L27.8912 17.6248Z"></path>
</svg>