<svg width="217" height="137" viewBox="0 0 217 137" fill="none" xmlns="http://www.w3.org/2000/svg">
<g clip-path="url(#clip0_4280_394351)">
<rect width="217" height="137" rx="6" fill="#EDFAFF"/>
<path d="M177.61 23.0852C154.258 17.209 136.11 6.99552 134 0H217V78C217 78 206.801 30.4305 177.61 23.0852Z" fill="#59B5F8"/>
<path d="M39.3898 113.915C62.7424 119.791 80.8898 130.004 83 137L0 137L-6.81898e-06 59C-6.81898e-06 59 10.1991 106.57 39.3898 113.915Z" fill="#59B5F8"/>
<path d="M185.245 18.5337C162.074 12.6589 152.094 6.99387 150 0H217V57C217 57 214.208 25.8773 185.245 18.5337Z" fill="#6DBEF8"/>
<path d="M31.7552 118.466C54.926 124.341 64.9062 130.006 67 137L0 137L-4.9831e-06 80C-4.9831e-06 80 2.79166 111.123 31.7552 118.466Z" fill="#6DBEF8"/>
</g>
<defs>
<clipPath id="clip0_4280_394351">
<rect width="217" height="137" rx="6" fill="white"/>
</clipPath>
</defs>
</svg>
