<svg width="217" height="137" viewBox="0 0 217 137" fill="none" xmlns="http://www.w3.org/2000/svg">
<g clip-path="url(#clip0_4283_395332)">
<rect width="217" height="137" rx="6" fill="url(#paint0_linear_4283_395332)"/>
<path d="M8.7942 120.122C5.60015 125.356 -17.9433 185.872 -30.5465 218.669C-31.4507 221.022 -32.1248 223.445 -32.5696 225.926L-46.2261 302.107C-51.2892 330.352 -25.898 354.546 2.0088 347.87C61.461 333.646 144.86 312.942 147.273 308.177C149.802 303.181 183.542 214.509 208.004 149.924C215.199 130.927 206.991 109.568 188.939 100.253L149.787 80.0492C140.161 75.0816 128.941 74.2167 118.694 77.7313C75.7407 92.4646 11.7128 115.338 8.7942 120.122Z" fill="#7E54EB"/>
</g>
<defs>
<linearGradient id="paint0_linear_4283_395332" x1="0" y1="68.5" x2="246.465" y2="102.086" gradientUnits="userSpaceOnUse">
<stop stop-color="#8C58F6"/>
<stop offset="1" stop-color="#6D36DE" stop-opacity="0.6"/>
</linearGradient>
<clipPath id="clip0_4283_395332">
<rect width="217" height="137" rx="6" fill="white"/>
</clipPath>
</defs>
</svg>
