<svg width="217" height="137" viewBox="0 0 217 137" fill="none" xmlns="http://www.w3.org/2000/svg">
<g clip-path="url(#clip0_4283_395327)">
<rect width="217" height="137" rx="6" fill="#ECFFF9"/>
<path fill-rule="evenodd" clip-rule="evenodd" d="M87.3644 91.665C122.582 99.5125 157.493 77.3247 165.34 42.1072C173.188 6.88967 151 -28.0214 115.783 -35.8688C96.8816 -40.0805 78.0689 -35.6409 63.4808 -25.1787C50.7185 -16.026 30.332 -12.8893 15.0029 -16.3051C-14.8644 -22.9604 -44.4718 -4.1433 -51.1271 25.724C-57.7824 55.5914 -38.9654 85.1988 -9.09804 91.8541C-0.212363 93.8341 8.65031 93.5595 16.8924 91.4102C36.3873 86.3264 63.9711 85.0199 83.3211 90.6298C84.6486 91.0146 85.9967 91.3602 87.3644 91.665Z" fill="white"/>
<path fill-rule="evenodd" clip-rule="evenodd" d="M173.127 27.004C174.229 27.0737 175.066 28.0238 174.996 29.1261C172.542 67.9948 146.71 90.3814 133.895 96.7889C132.907 97.2829 131.706 96.8825 131.212 95.8945C130.718 94.9065 131.118 93.7052 132.106 93.2112C143.958 87.2854 168.659 66.0053 171.004 28.874C171.074 27.7716 172.024 26.9344 173.127 27.004Z" fill="white"/>
</g>
<defs>
<clipPath id="clip0_4283_395327">
<rect width="217" height="137" rx="6" fill="white"/>
</clipPath>
</defs>
</svg>
