<svg width="217" height="137" viewBox="0 0 217 137" fill="none" xmlns="http://www.w3.org/2000/svg">
<g clip-path="url(#clip0_4283_395326)">
<rect width="217" height="137" rx="6" fill="#51A5F8"/>
<path fill-rule="evenodd" clip-rule="evenodd" d="M112.512 151.356C102.055 173.49 77.7787 189 49.5 189C11.6685 189 -19 161.242 -19 127C-19 93.2781 10.7445 65.8442 47.7822 65.0191C51.7905 53.115 63.0437 44.5418 76.2993 44.5418C81.1226 44.5418 85.6808 45.6769 89.7213 47.6946C99.1106 31.1566 116.881 20 137.257 20C164.936 20 187.806 40.5854 191.393 67.2812C213.967 76.4676 229.882 98.6253 229.882 124.5C229.882 158.604 202.235 186.25 168.132 186.25C143.654 186.25 122.502 172.007 112.512 151.356Z" fill="url(#paint0_linear_4283_395326)"/>
</g>
<defs>
<linearGradient id="paint0_linear_4283_395326" x1="112.5" y1="26" x2="119.5" y2="138" gradientUnits="userSpaceOnUse">
<stop stop-color="#99CEFF"/>
<stop offset="1" stop-color="#398DDA"/>
</linearGradient>
<clipPath id="clip0_4283_395326">
<rect width="217" height="137" rx="6" fill="white"/>
</clipPath>
</defs>
</svg>
