<svg width="217" height="137" viewBox="0 0 217 137" fill="none" xmlns="http://www.w3.org/2000/svg">
<g clip-path="url(#clip0_4283_395325)">
<rect width="217" height="137" rx="6" fill="url(#paint0_linear_4283_395325)" fill-opacity="0.62"/>
<rect width="217" height="137" rx="6" fill="white" fill-opacity="0.2"/>
<path opacity="0.3" d="M34.7006 108.277C38.3565 109.48 39.3381 114.191 36.4676 116.755L15.7998 135.217C12.9292 137.781 8.35937 136.276 7.57403 132.508L1.91952 105.378C1.13417 101.61 4.72234 98.4048 8.37822 99.6087L34.7006 108.277Z" fill="#D3D4F7"/>
<path opacity="0.3" d="M60.4211 126.076C63.3418 127.051 64.1117 130.823 61.8069 132.865L46.6803 146.265C44.3755 148.307 40.7246 147.088 40.1087 144.071L36.0666 124.271C35.4508 121.254 38.3318 118.702 41.2525 119.677L60.4211 126.076Z" fill="#D3D4F7"/>
<path opacity="0.3" d="M34.7679 52.3126C37.5457 53.6412 37.8436 57.4787 35.3041 59.22L14.7984 73.2812C12.2589 75.0226 8.78665 73.3618 8.54831 70.2919L6.62386 45.5029C6.38553 42.4329 9.55991 40.2562 12.3377 41.5847L34.7679 52.3126Z" fill="#D3D4F7"/>
<path opacity="0.3" d="M83.662 95.8176C86.4399 97.1462 86.7378 100.984 84.1983 102.725L68.2792 113.641C65.7397 115.382 62.2675 113.722 62.0291 110.652L60.5351 91.4074C60.2968 88.3374 63.4712 86.1607 66.249 87.4893L83.662 95.8176Z" fill="#D3D4F7"/>
<path opacity="0.3" d="M43.3167 84.9798C45.3832 86.0108 45.5586 88.8922 43.6325 90.1663L32.4278 97.5783C30.5017 98.8524 27.9185 97.5637 27.7782 95.2585L26.9616 81.8489C26.8213 79.5438 29.2289 77.9511 31.2954 78.9822L43.3167 84.9798Z" fill="#D3D4F7"/>
</g>
<defs>
<linearGradient id="paint0_linear_4283_395325" x1="217" y1="65.5" x2="2.00656e-06" y2="65.5" gradientUnits="userSpaceOnUse">
<stop stop-color="#B5B8FF"/>
<stop offset="0.881037" stop-color="#B5B8FF" stop-opacity="0"/>
</linearGradient>
<clipPath id="clip0_4283_395325">
<rect width="217" height="137" rx="6" fill="white"/>
</clipPath>
</defs>
</svg>
