<svg width="217" height="137" viewBox="0 0 217 137" fill="none" xmlns="http://www.w3.org/2000/svg">
<g clip-path="url(#clip0_4283_395324)">
<rect width="217" height="137" rx="6" fill="#C0EDC4"/>
<path fill-rule="evenodd" clip-rule="evenodd" d="M78.4299 75H-76C-87.598 75 -97 84.402 -97 96V297C-97 308.598 -87.598 318 -76 318H78.4299C75.6039 316.17 73.1708 313.785 71.2847 311H-65C-78.8071 311 -90 299.807 -90 286V107C-90 93.1929 -78.8071 82 -65 82H71.2847C73.1708 79.2146 75.6039 76.8299 78.4299 75ZM92 71H125H293C306.807 71 318 82.1929 318 96V297C318 310.807 306.807 322 293 322H125H92H-76C-89.8071 322 -101 310.807 -101 297V96C-101 82.1929 -89.8071 71 -76 71H92ZM138.57 318H293C304.598 318 314 308.598 314 297V96C314 84.402 304.598 75 293 75H138.57C141.396 76.8299 143.829 79.2146 145.715 82H282C295.807 82 307 93.1929 307 107V286C307 299.807 295.807 311 282 311H145.715C143.829 313.785 141.396 316.17 138.57 318ZM125 75H92C85.7805 75 80.1925 77.7038 76.3473 82H103H114H140.653C136.808 77.7038 131.22 75 125 75ZM69.0802 86H-65C-76.598 86 -86 95.402 -86 107V286C-86 297.598 -76.598 307 -65 307H69.0802C68.2546 305.11 67.6558 303.099 67.3183 301H-55C-68.8071 301 -80 289.807 -80 276V117C-80 103.193 -68.8071 92 -55 92H67.3183C67.6558 89.9012 68.2546 87.8897 69.0802 86ZM71.3805 92C71.7917 89.8675 72.5256 87.8499 73.5292 86H89.4299C86.9483 87.6069 84.7695 89.6417 82.9982 92H71.3805ZM67 96L-55 96C-66.598 96 -76 105.402 -76 117V276C-76 287.598 -66.598 297 -55 297H67V292H-46C-59.8071 292 -71 280.807 -71 267V126C-71 112.193 -59.8071 101 -46 101H67V96ZM71 101V96L80.5438 96C79.7684 97.5801 79.1548 99.2539 78.7246 101H71ZM67 105H-46C-57.598 105 -67 114.402 -67 126V267C-67 278.598 -57.598 288 -46 288H67V282H-36C-49.8071 282 -61 270.807 -61 257V136C-61 122.193 -49.8071 111 -36 111H67V105ZM71 111V105H78.0788C78.0266 105.66 78 106.327 78 107V111H71ZM67 115H-36C-47.598 115 -57 124.402 -57 136V257C-57 268.598 -47.598 278 -36 278H67V273H-27C-40.8071 273 -52 261.807 -52 248V145C-52 131.193 -40.8071 120 -27 120H67V115ZM71 120V115H78V120.079C77.3402 120.027 76.6732 120 76 120H71ZM67 124H-27C-38.598 124 -48 133.402 -48 145V248C-48 259.598 -38.598 269 -27 269H67V264H-18C-31.8071 264 -43 252.807 -43 239V154C-43 140.193 -31.8071 129 -18 129H67V124ZM71 129.318V124H76C76.6746 124 77.3417 124.032 78 124.094V131.544C75.8256 130.477 73.4735 129.716 71 129.318ZM67 133H-18C-29.598 133 -39 142.402 -39 154V239C-39 250.598 -29.598 260 -18 260H67V133ZM71 259.62V133.38C73.5234 133.867 75.8858 134.805 78 136.108V256.892C75.8858 258.195 73.5234 259.133 71 259.62ZM71 263.682V269H76C76.6746 269 77.3417 268.968 78 268.906V261.456C75.8256 262.523 73.4735 263.284 71 263.682ZM71 273V278H78V272.921C77.3402 272.973 76.6732 273 76 273H71ZM71 282V288H78.0788C78.0266 287.34 78 286.673 78 286V282H71ZM71 292V297H80.5438C79.7684 295.42 79.1548 293.746 78.7246 292H71ZM71.3805 301C71.7917 303.132 72.5256 305.15 73.5292 307H89.4299C86.9483 305.393 84.7695 303.358 82.9982 301H71.3805ZM76.3472 311C80.1925 315.296 85.7805 318 92 318H125C131.219 318 136.808 315.296 140.653 311H114H103H76.3472ZM282 86H147.92C148.745 87.8897 149.344 89.9012 149.682 92H272C285.807 92 297 103.193 297 117V276C297 289.807 285.807 301 272 301H149.682C149.344 303.099 148.745 305.11 147.92 307H282C293.598 307 303 297.598 303 286V107C303 95.402 293.598 86 282 86ZM127.57 86H143.471C144.474 87.8499 145.208 89.8675 145.62 92H134.002C132.23 89.6417 130.052 87.6069 127.57 86ZM103 86H114C119.722 86 124.909 88.2884 128.697 92H113C111.464 92 109.96 92.1386 108.5 92.4039C107.04 92.1386 105.536 92 104 92H88.3031C92.0907 88.2884 97.2781 86 103 86ZM103 307C97.2781 307 92.0907 304.712 88.3031 301H104C105.536 301 107.04 300.861 108.5 300.596C109.96 300.861 111.464 301 113 301H128.697C124.909 304.712 119.722 307 114 307H103ZM134.002 301C132.23 303.358 130.052 305.393 127.57 307H143.471C144.474 305.15 145.208 303.132 145.62 301H134.002ZM82.8696 292C83.3984 293.777 84.1559 295.455 85.108 297H99.4299C97.3062 295.625 95.4044 293.936 93.7898 292H82.8696ZM91.0629 288H82.094C82.0318 287.342 82 286.675 82 286V282H85C86.2435 282 87.4658 281.909 88.6607 281.734C89.1809 283.951 89.9962 286.054 91.0629 288ZM85 278H82V272.275C84.1192 271.753 86.1321 270.961 88 269.937V276C88 276.598 88.021 277.191 88.0623 277.778C87.0626 277.924 86.0401 278 85 278ZM88 265.236C86.188 266.5 84.1673 267.485 82 268.13V259.002C84.3583 257.23 86.3931 255.052 88 252.57V265.236ZM88 239C88 244.722 85.7116 249.909 82 253.697V139.303C85.7116 143.091 88 148.278 88 154V239ZM88 140.43C86.3931 137.948 84.3583 135.77 82 133.998V124.87C84.1673 125.515 86.188 126.5 88 127.764V140.43ZM88 123.063C86.1321 122.039 84.1192 121.247 82 120.725V115H85C86.0401 115 87.0626 115.076 88.0623 115.222C88.021 115.809 88 116.402 88 117V123.063ZM85 111H82V107C82 106.325 82.0318 105.658 82.094 105H91.0629C89.9962 106.946 89.1809 109.049 88.6607 111.266C87.4658 111.091 86.2435 111 85 111ZM93.7898 101H82.8696C83.3984 99.2234 84.1559 97.5454 85.108 96H99.4299C97.3062 97.3751 95.4044 99.0636 93.7898 101ZM146 96H136.456C137.232 97.5801 137.845 99.2539 138.275 101H146V96ZM117.57 96H131.892C132.844 97.5454 133.602 99.2234 134.13 101H123.21C121.596 99.0636 119.694 97.3751 117.57 96ZM99.0275 101.323C101.671 98.9652 104.914 97.2661 108.5 96.4833C112.086 97.2661 115.329 98.9652 117.973 101.323C114.528 101.881 111.32 103.142 108.5 104.955C105.68 103.142 102.472 101.881 99.0275 101.323ZM92.5597 112.163C93.1735 109.559 94.272 107.143 95.7548 105.013C99.1322 105.133 102.307 106.05 105.096 107.581C102.681 109.799 100.703 112.485 99.3071 115.496C97.261 114.066 94.9908 112.934 92.5597 112.163ZM92 125.79V117C92 116.732 92.005 116.466 92.015 116.2C94.1488 116.956 96.1241 118.047 97.8775 119.411C97.3054 121.51 97 123.719 97 126V131.43C95.6249 129.306 93.9364 127.404 92 125.79ZM92 154V131.398C95.1183 135.062 97 139.811 97 145V248C97 253.189 95.1183 257.938 92 261.602V239V154ZM92 267.21V276C92 276.268 92.005 276.534 92.015 276.8C94.1488 276.044 96.1241 274.953 97.8775 273.589C97.3054 271.49 97 269.281 97 267V261.57C95.6249 263.694 93.9364 265.596 92 267.21ZM92.5597 280.837C93.1735 283.441 94.272 285.857 95.7548 287.987C99.1322 287.867 102.307 286.95 105.096 285.419C102.681 283.201 100.703 280.515 99.3071 277.504C97.261 278.934 94.9908 280.066 92.5597 280.837ZM99.0275 291.677C101.671 294.035 104.914 295.734 108.5 296.517C112.086 295.734 115.329 294.035 117.973 291.677C114.528 291.12 111.32 289.858 108.5 288.045C105.68 289.858 102.472 291.12 99.0275 291.677ZM117.57 297H131.892C132.844 295.455 133.602 293.777 134.13 292H123.21C121.596 293.936 119.694 295.625 117.57 297ZM136.456 297H146V292H138.275C137.845 293.746 137.232 295.42 136.456 297ZM150 297V292H263C276.807 292 288 280.807 288 267V126C288 112.193 276.807 101 263 101H150V96H272C283.598 96 293 105.402 293 117V276C293 287.598 283.598 297 272 297H150ZM263 105H150V111H253C266.807 111 278 122.193 278 136V257C278 270.807 266.807 282 253 282H150V288H263C274.598 288 284 278.598 284 267V126C284 114.402 274.598 105 263 105ZM138.921 105H146V111H139V107C139 106.327 138.973 105.66 138.921 105ZM134.906 105H125.937C127.004 106.946 127.819 109.049 128.339 111.266C129.534 111.091 130.756 111 132 111H135V107C135 106.325 134.968 105.658 134.906 105ZM121.245 105.013C117.868 105.133 114.693 106.05 111.904 107.581C114.319 109.799 116.297 112.485 117.693 115.496C119.739 114.066 122.009 112.934 124.44 112.163C123.826 109.559 122.728 107.143 121.245 105.013ZM108.5 109.914C105.883 112.112 103.81 114.938 102.513 118.159C105.148 120.746 107.212 123.912 108.5 127.451C109.788 123.912 111.852 120.746 114.487 118.159C113.19 114.938 111.117 112.112 108.5 109.914ZM101 267V248V145V126C101 124.879 101.088 123.779 101.257 122.706C104.221 126.326 106 130.955 106 136V257C106 262.045 104.221 266.674 101.257 270.294C101.088 269.221 101 268.121 101 267ZM108.5 283.086C105.883 280.888 103.81 278.062 102.513 274.841C105.148 272.254 107.212 269.088 108.5 265.549C109.788 269.088 111.852 272.254 114.487 274.841C113.19 278.062 111.117 280.888 108.5 283.086ZM121.245 287.987C117.868 287.867 114.693 286.95 111.904 285.419C114.319 283.201 116.297 280.515 117.693 277.504C119.739 278.934 122.009 280.066 124.44 280.837C123.827 283.441 122.728 285.857 121.245 287.987ZM134.906 288H125.937C127.004 286.054 127.819 283.951 128.339 281.734C129.534 281.909 130.756 282 132 282H135V286C135 286.675 134.968 287.342 134.906 288ZM139 286C139 286.673 138.973 287.34 138.921 288H146V282H139V286ZM146 115H139V120.079C139.66 120.027 140.327 120 141 120H146V115ZM128.938 115.222C129.937 115.076 130.96 115 132 115H135V120.725C132.881 121.247 130.868 122.039 129 123.063V117C129 116.402 128.979 115.809 128.938 115.222ZM119.122 119.411C120.876 118.047 122.851 116.956 124.985 116.2C124.995 116.466 125 116.732 125 117V125.79C123.064 127.404 121.375 129.306 120 131.43V126C120 123.719 119.695 121.51 119.122 119.411ZM115.743 270.294C112.779 266.674 111 262.045 111 257V136C111 130.955 112.779 126.326 115.743 122.706C115.912 123.779 116 124.879 116 126V145V248V267C116 268.121 115.912 269.221 115.743 270.294ZM119.122 273.589C120.876 274.953 122.851 276.044 124.985 276.8C124.995 276.534 125 276.268 125 276V267.21C123.064 265.596 121.375 263.694 120 261.57V267C120 269.281 119.695 271.49 119.122 273.589ZM128.938 277.778C129.937 277.924 130.96 278 132 278H135V272.275C132.881 271.753 130.868 270.961 129 269.937V276C129 276.598 128.979 277.191 128.938 277.778ZM139 278H146V273H141C140.327 273 139.66 272.973 139 272.921V278ZM150 278V273H244C257.807 273 269 261.807 269 248V145C269 131.193 257.807 120 244 120H150V115H253C264.598 115 274 124.402 274 136V257C274 268.598 264.598 278 253 278H150ZM244 124H150V129H235C248.807 129 260 140.193 260 154V239C260 252.807 248.807 264 235 264H150V269H244C255.598 269 265 259.598 265 248V145C265 133.402 255.598 124 244 124ZM141 124H146V129.318C143.527 129.716 141.174 130.477 139 131.544V124.094C139.658 124.032 140.325 124 141 124ZM135 124.87C132.833 125.515 130.812 126.5 129 127.764V140.43C130.607 137.948 132.642 135.77 135 133.998V124.87ZM125 131.398C121.882 135.062 120 139.811 120 145V248C120 253.189 121.882 257.938 125 261.602V239V154V131.398ZM135 268.13C132.833 267.485 130.812 266.5 129 265.236V252.57C130.607 255.052 132.642 257.23 135 259.002V268.13ZM139 261.456V268.906C139.658 268.968 140.325 269 141 269H146V263.682C143.527 263.284 141.174 262.523 139 261.456ZM146 133.38C143.477 133.867 141.114 134.805 139 136.108V256.892C141.114 258.195 143.477 259.133 146 259.62V133.38ZM150 260H235C246.598 260 256 250.598 256 239V154C256 142.402 246.598 133 235 133H150V260ZM135 253.697V139.303C131.288 143.091 129 148.278 129 154V239C129 244.722 131.288 249.909 135 253.697Z" fill="url(#paint0_linear_4283_395324)" fill-opacity="0.3"/>
</g>
<defs>
<linearGradient id="paint0_linear_4283_395324" x1="108.5" y1="71" x2="108.5" y2="322" gradientUnits="userSpaceOnUse">
<stop stop-color="#00C165"/>
<stop offset="0.245989" stop-color="#00C165" stop-opacity="0"/>
</linearGradient>
<clipPath id="clip0_4283_395324">
<rect width="217" height="137" rx="6" fill="white"/>
</clipPath>
</defs>
</svg>
