<svg width="217" height="137" viewBox="0 0 217 137" fill="none" xmlns="http://www.w3.org/2000/svg">
<g clip-path="url(#clip0_4283_395323)">
<rect width="217" height="137" rx="6" fill="#80CEE7"/>
<path opacity="0.5" fill-rule="evenodd" clip-rule="evenodd" d="M87.8371 73.6108L122.409 108.611C124.53 110.759 124.53 114.241 122.409 116.389L87.8371 151.389C85.7156 153.537 82.276 153.537 80.1545 151.389C78.033 149.241 78.033 145.759 80.1545 143.611L105.453 118H15.4998C12.4623 118 10 115.537 10 112.5C10 109.463 12.4623 107 15.4998 107H105.453L80.1545 81.3887C78.033 79.2409 78.033 75.7586 80.1545 73.6108C82.276 71.4631 85.7156 71.4631 87.8371 73.6108Z" fill="#92DBF2"/>
<path opacity="0.5" fill-rule="evenodd" clip-rule="evenodd" d="M182.163 -21.3892L147.591 13.6111C145.47 15.7589 145.47 19.2411 147.591 21.3889L182.163 56.3892C184.284 58.5369 187.724 58.5369 189.846 56.3892C191.967 54.2414 191.967 50.7591 189.846 48.6113L164.547 22.9998H254.5C257.538 22.9998 260 20.5374 260 17.5C260 14.4626 257.538 12.0002 254.5 12.0002H164.547L189.846 -13.6113C191.967 -15.7591 191.967 -19.2414 189.846 -21.3892C187.724 -23.5369 184.284 -23.5369 182.163 -21.3892Z" fill="#94D9EF"/>
</g>
<defs>
<clipPath id="clip0_4283_395323">
<rect width="217" height="137" rx="6" fill="white"/>
</clipPath>
</defs>
</svg>
