<svg width="217" height="137" viewBox="0 0 217 137" fill="none" xmlns="http://www.w3.org/2000/svg">
<g clip-path="url(#clip0_4283_395320)">
<rect width="217" height="137" rx="6" fill="url(#paint0_linear_4283_395320)"/>
<rect opacity="0.8" x="-48" y="157.044" width="132" height="43" rx="21.5" transform="rotate(-42.4213 -48 157.044)" fill="#8A82E1"/>
<rect opacity="0.8" x="7" y="166.044" width="85.8329" height="43" rx="21.5" transform="rotate(-42.4213 7 166.044)" fill="#8A82E1"/>
<rect opacity="0.8" x="68" y="170.044" width="83.0487" height="43" rx="21.5" transform="rotate(-42.4213 68 170.044)" fill="#8A82E1"/>
<g opacity="0.3">
<ellipse cx="182.726" cy="0.610894" rx="0.725806" ry="0.722222" fill="#8A82E1"/>
<ellipse cx="182.726" cy="3.50005" rx="0.725806" ry="0.722222" fill="#8A82E1"/>
<ellipse cx="182.726" cy="6.38873" rx="0.725806" ry="0.722222" fill="#8A82E1"/>
<ellipse cx="182.726" cy="9.27789" rx="0.725806" ry="0.722222" fill="#8A82E1"/>
<ellipse cx="182.726" cy="12.1666" rx="0.725806" ry="0.722222" fill="#8A82E1"/>
<ellipse cx="182.726" cy="15.0557" rx="0.725806" ry="0.722222" fill="#8A82E1"/>
<ellipse cx="182.726" cy="17.9444" rx="0.725806" ry="0.722222" fill="#8A82E1"/>
<ellipse cx="182.726" cy="20.8335" rx="0.725806" ry="0.722222" fill="#8A82E1"/>
<ellipse cx="182.726" cy="23.7222" rx="0.725806" ry="0.722222" fill="#8A82E1"/>
<ellipse cx="182.726" cy="26.6109" rx="0.725806" ry="0.722222" fill="#8A82E1"/>
<ellipse cx="182.726" cy="29.5001" rx="0.725806" ry="0.722222" fill="#8A82E1"/>
<ellipse cx="182.726" cy="32.3887" rx="0.725806" ry="0.722222" fill="#8A82E1"/>
<ellipse cx="182.726" cy="35.2779" rx="0.725806" ry="0.722222" fill="#8A82E1"/>
<ellipse cx="185.628" cy="0.610894" rx="0.725806" ry="0.722222" fill="#8A82E1"/>
<ellipse cx="185.628" cy="3.50005" rx="0.725806" ry="0.722222" fill="#8A82E1"/>
<ellipse cx="185.628" cy="6.38873" rx="0.725806" ry="0.722222" fill="#8A82E1"/>
<ellipse cx="185.628" cy="9.27789" rx="0.725806" ry="0.722222" fill="#8A82E1"/>
<ellipse cx="185.628" cy="12.1666" rx="0.725806" ry="0.722222" fill="#8A82E1"/>
<ellipse cx="185.628" cy="15.0557" rx="0.725806" ry="0.722222" fill="#8A82E1"/>
<ellipse cx="185.628" cy="17.9444" rx="0.725806" ry="0.722222" fill="#8A82E1"/>
<ellipse cx="185.628" cy="20.8335" rx="0.725806" ry="0.722222" fill="#8A82E1"/>
<ellipse cx="185.628" cy="23.7222" rx="0.725806" ry="0.722222" fill="#8A82E1"/>
<ellipse cx="185.628" cy="26.6109" rx="0.725806" ry="0.722222" fill="#8A82E1"/>
<ellipse cx="185.628" cy="29.5001" rx="0.725806" ry="0.722222" fill="#8A82E1"/>
<ellipse cx="185.628" cy="32.3887" rx="0.725806" ry="0.722222" fill="#8A82E1"/>
<ellipse cx="185.628" cy="35.2779" rx="0.725806" ry="0.722222" fill="#8A82E1"/>
<ellipse cx="188.53" cy="0.610894" rx="0.725806" ry="0.722222" fill="#8A82E1"/>
<ellipse cx="188.53" cy="3.50005" rx="0.725806" ry="0.722222" fill="#8A82E1"/>
<ellipse cx="188.53" cy="6.38873" rx="0.725806" ry="0.722222" fill="#8A82E1"/>
<ellipse cx="188.53" cy="9.27789" rx="0.725806" ry="0.722222" fill="#8A82E1"/>
<ellipse cx="188.53" cy="12.1666" rx="0.725806" ry="0.722222" fill="#8A82E1"/>
<ellipse cx="188.53" cy="15.0557" rx="0.725806" ry="0.722222" fill="#8A82E1"/>
<ellipse cx="188.53" cy="17.9444" rx="0.725806" ry="0.722222" fill="#8A82E1"/>
<ellipse cx="188.53" cy="20.8335" rx="0.725806" ry="0.722222" fill="#8A82E1"/>
<ellipse cx="188.53" cy="23.7222" rx="0.725806" ry="0.722222" fill="#8A82E1"/>
<ellipse cx="188.53" cy="26.6109" rx="0.725806" ry="0.722222" fill="#8A82E1"/>
<ellipse cx="188.53" cy="29.5001" rx="0.725806" ry="0.722222" fill="#8A82E1"/>
<ellipse cx="188.53" cy="32.3887" rx="0.725806" ry="0.722222" fill="#8A82E1"/>
<ellipse cx="188.53" cy="35.2779" rx="0.725806" ry="0.722222" fill="#8A82E1"/>
<ellipse cx="191.437" cy="0.610894" rx="0.725806" ry="0.722222" fill="#8A82E1"/>
<ellipse cx="191.437" cy="3.50005" rx="0.725806" ry="0.722222" fill="#8A82E1"/>
<ellipse cx="191.437" cy="6.38873" rx="0.725806" ry="0.722222" fill="#8A82E1"/>
<ellipse cx="191.437" cy="9.27789" rx="0.725806" ry="0.722222" fill="#8A82E1"/>
<ellipse cx="191.437" cy="12.1666" rx="0.725806" ry="0.722222" fill="#8A82E1"/>
<ellipse cx="191.437" cy="15.0557" rx="0.725806" ry="0.722222" fill="#8A82E1"/>
<ellipse cx="191.437" cy="17.9444" rx="0.725806" ry="0.722222" fill="#8A82E1"/>
<ellipse cx="191.437" cy="20.8335" rx="0.725806" ry="0.722222" fill="#8A82E1"/>
<ellipse cx="191.437" cy="23.7222" rx="0.725806" ry="0.722222" fill="#8A82E1"/>
<ellipse cx="191.437" cy="26.6109" rx="0.725806" ry="0.722222" fill="#8A82E1"/>
<ellipse cx="191.437" cy="29.5001" rx="0.725806" ry="0.722222" fill="#8A82E1"/>
<ellipse cx="191.437" cy="32.3887" rx="0.725806" ry="0.722222" fill="#8A82E1"/>
<ellipse cx="191.437" cy="35.2779" rx="0.725806" ry="0.722222" fill="#8A82E1"/>
<ellipse cx="194.339" cy="0.610894" rx="0.725806" ry="0.722222" fill="#8A82E1"/>
<ellipse cx="194.339" cy="3.50005" rx="0.725806" ry="0.722222" fill="#8A82E1"/>
<ellipse cx="194.339" cy="6.38873" rx="0.725806" ry="0.722222" fill="#8A82E1"/>
<ellipse cx="194.339" cy="9.27789" rx="0.725806" ry="0.722222" fill="#8A82E1"/>
<ellipse cx="194.339" cy="12.1666" rx="0.725806" ry="0.722222" fill="#8A82E1"/>
<ellipse cx="194.339" cy="15.0557" rx="0.725806" ry="0.722222" fill="#8A82E1"/>
<ellipse cx="194.339" cy="17.9444" rx="0.725806" ry="0.722222" fill="#8A82E1"/>
<ellipse cx="194.339" cy="20.8335" rx="0.725806" ry="0.722222" fill="#8A82E1"/>
<ellipse cx="194.339" cy="23.7222" rx="0.725806" ry="0.722222" fill="#8A82E1"/>
<ellipse cx="194.339" cy="26.6109" rx="0.725806" ry="0.722222" fill="#8A82E1"/>
<ellipse cx="194.339" cy="29.5001" rx="0.725806" ry="0.722222" fill="#8A82E1"/>
<ellipse cx="194.339" cy="32.3887" rx="0.725806" ry="0.722222" fill="#8A82E1"/>
<ellipse cx="194.339" cy="35.2779" rx="0.725806" ry="0.722222" fill="#8A82E1"/>
<ellipse cx="197.241" cy="0.610894" rx="0.725806" ry="0.722222" fill="#8A82E1"/>
<ellipse cx="197.241" cy="3.50005" rx="0.725806" ry="0.722222" fill="#8A82E1"/>
<ellipse cx="197.241" cy="6.38873" rx="0.725806" ry="0.722222" fill="#8A82E1"/>
<ellipse cx="197.241" cy="9.27789" rx="0.725806" ry="0.722222" fill="#8A82E1"/>
<ellipse cx="197.241" cy="12.1666" rx="0.725806" ry="0.722222" fill="#8A82E1"/>
<ellipse cx="197.241" cy="15.0557" rx="0.725806" ry="0.722222" fill="#8A82E1"/>
<ellipse cx="197.241" cy="17.9444" rx="0.725806" ry="0.722222" fill="#8A82E1"/>
<ellipse cx="197.241" cy="20.8335" rx="0.725806" ry="0.722222" fill="#8A82E1"/>
<ellipse cx="197.241" cy="23.7222" rx="0.725806" ry="0.722222" fill="#8A82E1"/>
<ellipse cx="197.241" cy="26.6109" rx="0.725806" ry="0.722222" fill="#8A82E1"/>
<ellipse cx="197.241" cy="29.5001" rx="0.725806" ry="0.722222" fill="#8A82E1"/>
<ellipse cx="197.241" cy="32.3887" rx="0.725806" ry="0.722222" fill="#8A82E1"/>
<ellipse cx="197.241" cy="35.2779" rx="0.725806" ry="0.722222" fill="#8A82E1"/>
<ellipse cx="200.144" cy="0.610894" rx="0.725806" ry="0.722222" fill="#8A82E1"/>
<ellipse cx="200.144" cy="3.50005" rx="0.725806" ry="0.722222" fill="#8A82E1"/>
<ellipse cx="200.144" cy="6.38873" rx="0.725806" ry="0.722222" fill="#8A82E1"/>
<ellipse cx="200.144" cy="9.27789" rx="0.725806" ry="0.722222" fill="#8A82E1"/>
<ellipse cx="200.144" cy="12.1666" rx="0.725806" ry="0.722222" fill="#8A82E1"/>
<ellipse cx="200.144" cy="15.0557" rx="0.725806" ry="0.722222" fill="#8A82E1"/>
<ellipse cx="200.144" cy="17.9444" rx="0.725806" ry="0.722222" fill="#8A82E1"/>
<ellipse cx="200.144" cy="20.8335" rx="0.725806" ry="0.722222" fill="#8A82E1"/>
<ellipse cx="200.144" cy="23.7222" rx="0.725806" ry="0.722222" fill="#8A82E1"/>
<ellipse cx="200.144" cy="26.6109" rx="0.725806" ry="0.722222" fill="#8A82E1"/>
<ellipse cx="200.144" cy="29.5001" rx="0.725806" ry="0.722222" fill="#8A82E1"/>
<ellipse cx="200.144" cy="32.3887" rx="0.725806" ry="0.722222" fill="#8A82E1"/>
<ellipse cx="200.144" cy="35.2779" rx="0.725806" ry="0.722222" fill="#8A82E1"/>
<ellipse cx="203.05" cy="0.610894" rx="0.725806" ry="0.722222" fill="#8A82E1"/>
<ellipse cx="203.05" cy="3.50005" rx="0.725806" ry="0.722222" fill="#8A82E1"/>
<ellipse cx="203.05" cy="6.38873" rx="0.725806" ry="0.722222" fill="#8A82E1"/>
<ellipse cx="203.05" cy="9.27789" rx="0.725806" ry="0.722222" fill="#8A82E1"/>
<ellipse cx="203.05" cy="12.1666" rx="0.725806" ry="0.722222" fill="#8A82E1"/>
<ellipse cx="203.05" cy="15.0557" rx="0.725806" ry="0.722222" fill="#8A82E1"/>
<ellipse cx="203.05" cy="17.9444" rx="0.725806" ry="0.722222" fill="#8A82E1"/>
<ellipse cx="203.05" cy="20.8335" rx="0.725806" ry="0.722222" fill="#8A82E1"/>
<ellipse cx="203.05" cy="23.7222" rx="0.725806" ry="0.722222" fill="#8A82E1"/>
<ellipse cx="203.05" cy="26.6109" rx="0.725806" ry="0.722222" fill="#8A82E1"/>
<ellipse cx="203.05" cy="29.5001" rx="0.725806" ry="0.722222" fill="#8A82E1"/>
<ellipse cx="203.05" cy="32.3887" rx="0.725806" ry="0.722222" fill="#8A82E1"/>
<ellipse cx="203.05" cy="35.2779" rx="0.725806" ry="0.722222" fill="#8A82E1"/>
<ellipse cx="205.952" cy="0.610894" rx="0.725806" ry="0.722222" fill="#8A82E1"/>
<ellipse cx="205.952" cy="3.50005" rx="0.725806" ry="0.722222" fill="#8A82E1"/>
<ellipse cx="205.952" cy="6.38873" rx="0.725806" ry="0.722222" fill="#8A82E1"/>
<ellipse cx="205.952" cy="9.27789" rx="0.725806" ry="0.722222" fill="#8A82E1"/>
<ellipse cx="205.952" cy="12.1666" rx="0.725806" ry="0.722222" fill="#8A82E1"/>
<ellipse cx="205.952" cy="15.0557" rx="0.725806" ry="0.722222" fill="#8A82E1"/>
<ellipse cx="205.952" cy="17.9444" rx="0.725806" ry="0.722222" fill="#8A82E1"/>
<ellipse cx="205.952" cy="20.8335" rx="0.725806" ry="0.722222" fill="#8A82E1"/>
<ellipse cx="205.952" cy="23.7222" rx="0.725806" ry="0.722222" fill="#8A82E1"/>
<ellipse cx="205.952" cy="26.6109" rx="0.725806" ry="0.722222" fill="#8A82E1"/>
<ellipse cx="205.952" cy="29.5001" rx="0.725806" ry="0.722222" fill="#8A82E1"/>
<ellipse cx="205.952" cy="32.3887" rx="0.725806" ry="0.722222" fill="#8A82E1"/>
<ellipse cx="205.952" cy="35.2779" rx="0.725806" ry="0.722222" fill="#8A82E1"/>
<ellipse cx="208.855" cy="0.610894" rx="0.725806" ry="0.722222" fill="#8A82E1"/>
<ellipse cx="208.855" cy="3.50005" rx="0.725806" ry="0.722222" fill="#8A82E1"/>
<ellipse cx="208.855" cy="6.38873" rx="0.725806" ry="0.722222" fill="#8A82E1"/>
<ellipse cx="208.855" cy="9.27789" rx="0.725806" ry="0.722222" fill="#8A82E1"/>
<ellipse cx="208.855" cy="12.1666" rx="0.725806" ry="0.722222" fill="#8A82E1"/>
<ellipse cx="208.855" cy="15.0557" rx="0.725806" ry="0.722222" fill="#8A82E1"/>
<ellipse cx="208.855" cy="17.9444" rx="0.725806" ry="0.722222" fill="#8A82E1"/>
<ellipse cx="208.855" cy="20.8335" rx="0.725806" ry="0.722222" fill="#8A82E1"/>
<ellipse cx="208.855" cy="23.7222" rx="0.725806" ry="0.722222" fill="#8A82E1"/>
<ellipse cx="208.855" cy="26.6109" rx="0.725806" ry="0.722222" fill="#8A82E1"/>
<ellipse cx="208.855" cy="29.5001" rx="0.725806" ry="0.722222" fill="#8A82E1"/>
<ellipse cx="208.855" cy="32.3887" rx="0.725806" ry="0.722222" fill="#8A82E1"/>
<ellipse cx="208.855" cy="35.2779" rx="0.725806" ry="0.722222" fill="#8A82E1"/>
<ellipse cx="211.757" cy="0.610894" rx="0.725806" ry="0.722222" fill="#8A82E1"/>
<ellipse cx="211.757" cy="3.50005" rx="0.725806" ry="0.722222" fill="#8A82E1"/>
<ellipse cx="211.757" cy="6.38873" rx="0.725806" ry="0.722222" fill="#8A82E1"/>
<ellipse cx="211.757" cy="9.27789" rx="0.725806" ry="0.722222" fill="#8A82E1"/>
<ellipse cx="211.757" cy="12.1666" rx="0.725806" ry="0.722222" fill="#8A82E1"/>
<ellipse cx="211.757" cy="15.0557" rx="0.725806" ry="0.722222" fill="#8A82E1"/>
<ellipse cx="211.757" cy="17.9444" rx="0.725806" ry="0.722222" fill="#8A82E1"/>
<ellipse cx="211.757" cy="20.8335" rx="0.725806" ry="0.722222" fill="#8A82E1"/>
<ellipse cx="211.757" cy="23.7222" rx="0.725806" ry="0.722222" fill="#8A82E1"/>
<ellipse cx="211.757" cy="26.6109" rx="0.725806" ry="0.722222" fill="#8A82E1"/>
<ellipse cx="211.757" cy="29.5001" rx="0.725806" ry="0.722222" fill="#8A82E1"/>
<ellipse cx="211.757" cy="32.3887" rx="0.725806" ry="0.722222" fill="#8A82E1"/>
<ellipse cx="211.757" cy="35.2779" rx="0.725806" ry="0.722222" fill="#8A82E1"/>
<ellipse cx="214.659" cy="0.610894" rx="0.725806" ry="0.722222" fill="#8A82E1"/>
<ellipse cx="214.659" cy="3.50005" rx="0.725806" ry="0.722222" fill="#8A82E1"/>
<ellipse cx="214.659" cy="6.38873" rx="0.725806" ry="0.722222" fill="#8A82E1"/>
<ellipse cx="214.659" cy="9.27789" rx="0.725806" ry="0.722222" fill="#8A82E1"/>
<ellipse cx="214.659" cy="12.1666" rx="0.725806" ry="0.722222" fill="#8A82E1"/>
<ellipse cx="214.659" cy="15.0557" rx="0.725806" ry="0.722222" fill="#8A82E1"/>
<ellipse cx="214.659" cy="17.9444" rx="0.725806" ry="0.722222" fill="#8A82E1"/>
<ellipse cx="214.659" cy="20.8335" rx="0.725806" ry="0.722222" fill="#8A82E1"/>
<ellipse cx="214.659" cy="23.7222" rx="0.725806" ry="0.722222" fill="#8A82E1"/>
<ellipse cx="214.659" cy="26.6109" rx="0.725806" ry="0.722222" fill="#8A82E1"/>
<ellipse cx="214.659" cy="29.5001" rx="0.725806" ry="0.722222" fill="#8A82E1"/>
<ellipse cx="214.659" cy="32.3887" rx="0.725806" ry="0.722222" fill="#8A82E1"/>
<ellipse cx="214.659" cy="35.2779" rx="0.725806" ry="0.722222" fill="#8A82E1"/>
<ellipse cx="217.566" cy="0.610894" rx="0.725806" ry="0.722222" fill="#8A82E1"/>
<ellipse cx="217.566" cy="3.50005" rx="0.725806" ry="0.722222" fill="#8A82E1"/>
<ellipse cx="217.566" cy="6.38873" rx="0.725806" ry="0.722222" fill="#8A82E1"/>
<ellipse cx="217.566" cy="9.27789" rx="0.725806" ry="0.722222" fill="#8A82E1"/>
<ellipse cx="217.566" cy="12.1666" rx="0.725806" ry="0.722222" fill="#8A82E1"/>
<ellipse cx="217.566" cy="15.0557" rx="0.725806" ry="0.722222" fill="#8A82E1"/>
<ellipse cx="217.566" cy="17.9444" rx="0.725806" ry="0.722222" fill="#8A82E1"/>
<ellipse cx="217.566" cy="20.8335" rx="0.725806" ry="0.722222" fill="#8A82E1"/>
<ellipse cx="217.566" cy="23.7222" rx="0.725806" ry="0.722222" fill="#8A82E1"/>
<ellipse cx="217.566" cy="26.6109" rx="0.725806" ry="0.722222" fill="#8A82E1"/>
<ellipse cx="217.566" cy="29.5001" rx="0.725806" ry="0.722222" fill="#8A82E1"/>
<ellipse cx="217.566" cy="32.3887" rx="0.725806" ry="0.722222" fill="#8A82E1"/>
<ellipse cx="217.566" cy="35.2779" rx="0.725806" ry="0.722222" fill="#8A82E1"/>
</g>
<g opacity="0.3">
<ellipse cx="-0.788558" cy="67.0185" rx="1.01613" ry="1.01852" fill="#8A82E1"/>
<ellipse cx="-0.788558" cy="71.0927" rx="1.01613" ry="1.01852" fill="#8A82E1"/>
<ellipse cx="-0.788558" cy="75.1665" rx="1.01613" ry="1.01852" fill="#8A82E1"/>
<ellipse cx="-0.788558" cy="79.2407" rx="1.01613" ry="1.01852" fill="#8A82E1"/>
<ellipse cx="-0.788558" cy="83.3149" rx="1.01613" ry="1.01852" fill="#8A82E1"/>
<ellipse cx="-0.788558" cy="87.3891" rx="1.01613" ry="1.01852" fill="#8A82E1"/>
<ellipse cx="-0.788558" cy="91.4629" rx="1.01613" ry="1.01852" fill="#8A82E1"/>
<ellipse cx="-0.788558" cy="95.5371" rx="1.01613" ry="1.01852" fill="#8A82E1"/>
<ellipse cx="-0.788558" cy="99.6113" rx="1.01613" ry="1.01852" fill="#8A82E1"/>
<ellipse cx="-0.788558" cy="103.685" rx="1.01613" ry="1.01852" fill="#8A82E1"/>
<ellipse cx="-0.788558" cy="107.759" rx="1.01613" ry="1.01852" fill="#8A82E1"/>
<ellipse cx="-0.788558" cy="111.833" rx="1.01613" ry="1.01852" fill="#8A82E1"/>
<ellipse cx="-0.788558" cy="115.907" rx="1.01613" ry="1.01852" fill="#8A82E1"/>
<ellipse cx="-0.788558" cy="119.981" rx="1.01613" ry="1.01852" fill="#8A82E1"/>
<ellipse cx="3.27394" cy="67.0185" rx="1.01613" ry="1.01852" fill="#8A82E1"/>
<ellipse cx="3.27394" cy="71.0927" rx="1.01613" ry="1.01852" fill="#8A82E1"/>
<ellipse cx="3.27394" cy="75.1665" rx="1.01613" ry="1.01852" fill="#8A82E1"/>
<ellipse cx="3.27394" cy="79.2407" rx="1.01613" ry="1.01852" fill="#8A82E1"/>
<ellipse cx="3.27394" cy="83.3149" rx="1.01613" ry="1.01852" fill="#8A82E1"/>
<ellipse cx="3.27394" cy="87.3891" rx="1.01613" ry="1.01852" fill="#8A82E1"/>
<ellipse cx="3.27394" cy="91.4629" rx="1.01613" ry="1.01852" fill="#8A82E1"/>
<ellipse cx="3.27394" cy="95.5371" rx="1.01613" ry="1.01852" fill="#8A82E1"/>
<ellipse cx="3.27394" cy="99.6113" rx="1.01613" ry="1.01852" fill="#8A82E1"/>
<ellipse cx="3.27394" cy="103.685" rx="1.01613" ry="1.01852" fill="#8A82E1"/>
<ellipse cx="3.27394" cy="107.759" rx="1.01613" ry="1.01852" fill="#8A82E1"/>
<ellipse cx="3.27394" cy="111.833" rx="1.01613" ry="1.01852" fill="#8A82E1"/>
<ellipse cx="3.27394" cy="115.907" rx="1.01613" ry="1.01852" fill="#8A82E1"/>
<ellipse cx="3.27394" cy="119.981" rx="1.01613" ry="1.01852" fill="#8A82E1"/>
<ellipse cx="7.34035" cy="67.0185" rx="1.01613" ry="1.01852" fill="#8A82E1"/>
<ellipse cx="7.34035" cy="71.0927" rx="1.01613" ry="1.01852" fill="#8A82E1"/>
<ellipse cx="7.34035" cy="75.1665" rx="1.01613" ry="1.01852" fill="#8A82E1"/>
<ellipse cx="7.34035" cy="79.2407" rx="1.01613" ry="1.01852" fill="#8A82E1"/>
<ellipse cx="7.34035" cy="83.3149" rx="1.01613" ry="1.01852" fill="#8A82E1"/>
<ellipse cx="7.34035" cy="87.3891" rx="1.01613" ry="1.01852" fill="#8A82E1"/>
<ellipse cx="7.34035" cy="91.4629" rx="1.01613" ry="1.01852" fill="#8A82E1"/>
<ellipse cx="7.34035" cy="95.5371" rx="1.01613" ry="1.01852" fill="#8A82E1"/>
<ellipse cx="7.34035" cy="99.6113" rx="1.01613" ry="1.01852" fill="#8A82E1"/>
<ellipse cx="7.34035" cy="103.685" rx="1.01613" ry="1.01852" fill="#8A82E1"/>
<ellipse cx="7.34035" cy="107.759" rx="1.01613" ry="1.01852" fill="#8A82E1"/>
<ellipse cx="7.34035" cy="111.833" rx="1.01613" ry="1.01852" fill="#8A82E1"/>
<ellipse cx="7.34035" cy="115.907" rx="1.01613" ry="1.01852" fill="#8A82E1"/>
<ellipse cx="7.34035" cy="119.981" rx="1.01613" ry="1.01852" fill="#8A82E1"/>
<ellipse cx="11.4028" cy="67.0185" rx="1.01613" ry="1.01852" fill="#8A82E1"/>
<ellipse cx="11.4028" cy="71.0927" rx="1.01613" ry="1.01852" fill="#8A82E1"/>
<ellipse cx="11.4028" cy="75.1665" rx="1.01613" ry="1.01852" fill="#8A82E1"/>
<ellipse cx="11.4028" cy="79.2407" rx="1.01613" ry="1.01852" fill="#8A82E1"/>
<ellipse cx="11.4028" cy="83.3149" rx="1.01613" ry="1.01852" fill="#8A82E1"/>
<ellipse cx="11.4028" cy="87.3891" rx="1.01613" ry="1.01852" fill="#8A82E1"/>
<ellipse cx="11.4028" cy="91.4629" rx="1.01613" ry="1.01852" fill="#8A82E1"/>
<ellipse cx="11.4028" cy="95.5371" rx="1.01613" ry="1.01852" fill="#8A82E1"/>
<ellipse cx="11.4028" cy="99.6113" rx="1.01613" ry="1.01852" fill="#8A82E1"/>
<ellipse cx="11.4028" cy="103.685" rx="1.01613" ry="1.01852" fill="#8A82E1"/>
<ellipse cx="11.4028" cy="107.759" rx="1.01613" ry="1.01852" fill="#8A82E1"/>
<ellipse cx="11.4028" cy="111.833" rx="1.01613" ry="1.01852" fill="#8A82E1"/>
<ellipse cx="11.4028" cy="115.907" rx="1.01613" ry="1.01852" fill="#8A82E1"/>
<ellipse cx="11.4028" cy="119.981" rx="1.01613" ry="1.01852" fill="#8A82E1"/>
<ellipse cx="15.4693" cy="67.0185" rx="1.01613" ry="1.01852" fill="#8A82E1"/>
<ellipse cx="15.4693" cy="71.0927" rx="1.01613" ry="1.01852" fill="#8A82E1"/>
<ellipse cx="15.4693" cy="75.1665" rx="1.01613" ry="1.01852" fill="#8A82E1"/>
<ellipse cx="15.4693" cy="79.2407" rx="1.01613" ry="1.01852" fill="#8A82E1"/>
<ellipse cx="15.4693" cy="83.3149" rx="1.01613" ry="1.01852" fill="#8A82E1"/>
<ellipse cx="15.4693" cy="87.3891" rx="1.01613" ry="1.01852" fill="#8A82E1"/>
<ellipse cx="15.4693" cy="91.4629" rx="1.01613" ry="1.01852" fill="#8A82E1"/>
<ellipse cx="15.4693" cy="95.5371" rx="1.01613" ry="1.01852" fill="#8A82E1"/>
<ellipse cx="15.4693" cy="99.6113" rx="1.01613" ry="1.01852" fill="#8A82E1"/>
<ellipse cx="15.4693" cy="103.685" rx="1.01613" ry="1.01852" fill="#8A82E1"/>
<ellipse cx="15.4693" cy="107.759" rx="1.01613" ry="1.01852" fill="#8A82E1"/>
<ellipse cx="15.4693" cy="111.833" rx="1.01613" ry="1.01852" fill="#8A82E1"/>
<ellipse cx="15.4693" cy="115.907" rx="1.01613" ry="1.01852" fill="#8A82E1"/>
<ellipse cx="15.4693" cy="119.981" rx="1.01613" ry="1.01852" fill="#8A82E1"/>
<ellipse cx="19.5318" cy="67.0185" rx="1.01613" ry="1.01852" fill="#8A82E1"/>
<ellipse cx="19.5318" cy="71.0927" rx="1.01613" ry="1.01852" fill="#8A82E1"/>
<ellipse cx="19.5318" cy="75.1665" rx="1.01613" ry="1.01852" fill="#8A82E1"/>
<ellipse cx="19.5318" cy="79.2407" rx="1.01613" ry="1.01852" fill="#8A82E1"/>
<ellipse cx="19.5318" cy="83.3149" rx="1.01613" ry="1.01852" fill="#8A82E1"/>
<ellipse cx="19.5318" cy="87.3891" rx="1.01613" ry="1.01852" fill="#8A82E1"/>
<ellipse cx="19.5318" cy="91.4629" rx="1.01613" ry="1.01852" fill="#8A82E1"/>
<ellipse cx="19.5318" cy="95.5371" rx="1.01613" ry="1.01852" fill="#8A82E1"/>
<ellipse cx="19.5318" cy="99.6113" rx="1.01613" ry="1.01852" fill="#8A82E1"/>
<ellipse cx="19.5318" cy="103.685" rx="1.01613" ry="1.01852" fill="#8A82E1"/>
<ellipse cx="19.5318" cy="107.759" rx="1.01613" ry="1.01852" fill="#8A82E1"/>
<ellipse cx="19.5318" cy="111.833" rx="1.01613" ry="1.01852" fill="#8A82E1"/>
<ellipse cx="19.5318" cy="115.907" rx="1.01613" ry="1.01852" fill="#8A82E1"/>
<ellipse cx="19.5318" cy="119.981" rx="1.01613" ry="1.01852" fill="#8A82E1"/>
<ellipse cx="23.5982" cy="67.0185" rx="1.01613" ry="1.01852" fill="#8A82E1"/>
<ellipse cx="23.5982" cy="71.0927" rx="1.01613" ry="1.01852" fill="#8A82E1"/>
<ellipse cx="23.5982" cy="75.1665" rx="1.01613" ry="1.01852" fill="#8A82E1"/>
<ellipse cx="23.5982" cy="79.2407" rx="1.01613" ry="1.01852" fill="#8A82E1"/>
<ellipse cx="23.5982" cy="83.3149" rx="1.01613" ry="1.01852" fill="#8A82E1"/>
<ellipse cx="23.5982" cy="87.3891" rx="1.01613" ry="1.01852" fill="#8A82E1"/>
<ellipse cx="23.5982" cy="91.4629" rx="1.01613" ry="1.01852" fill="#8A82E1"/>
<ellipse cx="23.5982" cy="95.5371" rx="1.01613" ry="1.01852" fill="#8A82E1"/>
<ellipse cx="23.5982" cy="99.6113" rx="1.01613" ry="1.01852" fill="#8A82E1"/>
<ellipse cx="23.5982" cy="103.685" rx="1.01613" ry="1.01852" fill="#8A82E1"/>
<ellipse cx="23.5982" cy="107.759" rx="1.01613" ry="1.01852" fill="#8A82E1"/>
<ellipse cx="23.5982" cy="111.833" rx="1.01613" ry="1.01852" fill="#8A82E1"/>
<ellipse cx="23.5982" cy="115.907" rx="1.01613" ry="1.01852" fill="#8A82E1"/>
<ellipse cx="23.5982" cy="119.981" rx="1.01613" ry="1.01852" fill="#8A82E1"/>
<ellipse cx="27.6607" cy="67.0185" rx="1.01613" ry="1.01852" fill="#8A82E1"/>
<ellipse cx="27.6607" cy="71.0927" rx="1.01613" ry="1.01852" fill="#8A82E1"/>
<ellipse cx="27.6607" cy="75.1665" rx="1.01613" ry="1.01852" fill="#8A82E1"/>
<ellipse cx="27.6607" cy="79.2407" rx="1.01613" ry="1.01852" fill="#8A82E1"/>
<ellipse cx="27.6607" cy="83.3149" rx="1.01613" ry="1.01852" fill="#8A82E1"/>
<ellipse cx="27.6607" cy="87.3891" rx="1.01613" ry="1.01852" fill="#8A82E1"/>
<ellipse cx="27.6607" cy="91.4629" rx="1.01613" ry="1.01852" fill="#8A82E1"/>
<ellipse cx="27.6607" cy="95.5371" rx="1.01613" ry="1.01852" fill="#8A82E1"/>
<ellipse cx="27.6607" cy="99.6113" rx="1.01613" ry="1.01852" fill="#8A82E1"/>
<ellipse cx="27.6607" cy="103.685" rx="1.01613" ry="1.01852" fill="#8A82E1"/>
<ellipse cx="27.6607" cy="107.759" rx="1.01613" ry="1.01852" fill="#8A82E1"/>
<ellipse cx="27.6607" cy="111.833" rx="1.01613" ry="1.01852" fill="#8A82E1"/>
<ellipse cx="27.6607" cy="115.907" rx="1.01613" ry="1.01852" fill="#8A82E1"/>
<ellipse cx="27.6607" cy="119.981" rx="1.01613" ry="1.01852" fill="#8A82E1"/>
<ellipse cx="31.7271" cy="67.0185" rx="1.01613" ry="1.01852" fill="#8A82E1"/>
<ellipse cx="31.7271" cy="71.0927" rx="1.01613" ry="1.01852" fill="#8A82E1"/>
<ellipse cx="31.7271" cy="75.1665" rx="1.01613" ry="1.01852" fill="#8A82E1"/>
<ellipse cx="31.7271" cy="79.2407" rx="1.01613" ry="1.01852" fill="#8A82E1"/>
<ellipse cx="31.7271" cy="83.3149" rx="1.01613" ry="1.01852" fill="#8A82E1"/>
<ellipse cx="31.7271" cy="87.3891" rx="1.01613" ry="1.01852" fill="#8A82E1"/>
<ellipse cx="31.7271" cy="91.4629" rx="1.01613" ry="1.01852" fill="#8A82E1"/>
<ellipse cx="31.7271" cy="95.5371" rx="1.01613" ry="1.01852" fill="#8A82E1"/>
<ellipse cx="31.7271" cy="99.6113" rx="1.01613" ry="1.01852" fill="#8A82E1"/>
<ellipse cx="31.7271" cy="103.685" rx="1.01613" ry="1.01852" fill="#8A82E1"/>
<ellipse cx="31.7271" cy="107.759" rx="1.01613" ry="1.01852" fill="#8A82E1"/>
<ellipse cx="31.7271" cy="111.833" rx="1.01613" ry="1.01852" fill="#8A82E1"/>
<ellipse cx="31.7271" cy="115.907" rx="1.01613" ry="1.01852" fill="#8A82E1"/>
<ellipse cx="31.7271" cy="119.981" rx="1.01613" ry="1.01852" fill="#8A82E1"/>
<ellipse cx="35.7896" cy="67.0185" rx="1.01613" ry="1.01852" fill="#8A82E1"/>
<ellipse cx="35.7896" cy="71.0927" rx="1.01613" ry="1.01852" fill="#8A82E1"/>
<ellipse cx="35.7896" cy="75.1665" rx="1.01613" ry="1.01852" fill="#8A82E1"/>
<ellipse cx="35.7896" cy="79.2407" rx="1.01613" ry="1.01852" fill="#8A82E1"/>
<ellipse cx="35.7896" cy="83.3149" rx="1.01613" ry="1.01852" fill="#8A82E1"/>
<ellipse cx="35.7896" cy="87.3891" rx="1.01613" ry="1.01852" fill="#8A82E1"/>
<ellipse cx="35.7896" cy="91.4629" rx="1.01613" ry="1.01852" fill="#8A82E1"/>
<ellipse cx="35.7896" cy="95.5371" rx="1.01613" ry="1.01852" fill="#8A82E1"/>
<ellipse cx="35.7896" cy="99.6113" rx="1.01613" ry="1.01852" fill="#8A82E1"/>
<ellipse cx="35.7896" cy="103.685" rx="1.01613" ry="1.01852" fill="#8A82E1"/>
<ellipse cx="35.7896" cy="107.759" rx="1.01613" ry="1.01852" fill="#8A82E1"/>
<ellipse cx="35.7896" cy="111.833" rx="1.01613" ry="1.01852" fill="#8A82E1"/>
<ellipse cx="35.7896" cy="115.907" rx="1.01613" ry="1.01852" fill="#8A82E1"/>
<ellipse cx="35.7896" cy="119.981" rx="1.01613" ry="1.01852" fill="#8A82E1"/>
<ellipse cx="39.856" cy="67.0185" rx="1.01613" ry="1.01852" fill="#8A82E1"/>
<ellipse cx="39.856" cy="71.0927" rx="1.01613" ry="1.01852" fill="#8A82E1"/>
<ellipse cx="39.856" cy="75.1665" rx="1.01613" ry="1.01852" fill="#8A82E1"/>
<ellipse cx="39.856" cy="79.2407" rx="1.01613" ry="1.01852" fill="#8A82E1"/>
<ellipse cx="39.856" cy="83.3149" rx="1.01613" ry="1.01852" fill="#8A82E1"/>
<ellipse cx="39.856" cy="87.3891" rx="1.01613" ry="1.01852" fill="#8A82E1"/>
<ellipse cx="39.856" cy="91.4629" rx="1.01613" ry="1.01852" fill="#8A82E1"/>
<ellipse cx="39.856" cy="95.5371" rx="1.01613" ry="1.01852" fill="#8A82E1"/>
<ellipse cx="39.856" cy="99.6113" rx="1.01613" ry="1.01852" fill="#8A82E1"/>
<ellipse cx="39.856" cy="103.685" rx="1.01613" ry="1.01852" fill="#8A82E1"/>
<ellipse cx="39.856" cy="107.759" rx="1.01613" ry="1.01852" fill="#8A82E1"/>
<ellipse cx="39.856" cy="111.833" rx="1.01613" ry="1.01852" fill="#8A82E1"/>
<ellipse cx="39.856" cy="115.907" rx="1.01613" ry="1.01852" fill="#8A82E1"/>
<ellipse cx="39.856" cy="119.981" rx="1.01613" ry="1.01852" fill="#8A82E1"/>
<ellipse cx="43.9185" cy="67.0185" rx="1.01613" ry="1.01852" fill="#8A82E1"/>
<ellipse cx="43.9185" cy="71.0927" rx="1.01613" ry="1.01852" fill="#8A82E1"/>
<ellipse cx="43.9185" cy="75.1665" rx="1.01613" ry="1.01852" fill="#8A82E1"/>
<ellipse cx="43.9185" cy="79.2407" rx="1.01613" ry="1.01852" fill="#8A82E1"/>
<ellipse cx="43.9185" cy="83.3149" rx="1.01613" ry="1.01852" fill="#8A82E1"/>
<ellipse cx="43.9185" cy="87.3891" rx="1.01613" ry="1.01852" fill="#8A82E1"/>
<ellipse cx="43.9185" cy="91.4629" rx="1.01613" ry="1.01852" fill="#8A82E1"/>
<ellipse cx="43.9185" cy="95.5371" rx="1.01613" ry="1.01852" fill="#8A82E1"/>
<ellipse cx="43.9185" cy="99.6113" rx="1.01613" ry="1.01852" fill="#8A82E1"/>
<ellipse cx="43.9185" cy="103.685" rx="1.01613" ry="1.01852" fill="#8A82E1"/>
<ellipse cx="43.9185" cy="107.759" rx="1.01613" ry="1.01852" fill="#8A82E1"/>
<ellipse cx="43.9185" cy="111.833" rx="1.01613" ry="1.01852" fill="#8A82E1"/>
<ellipse cx="43.9185" cy="115.907" rx="1.01613" ry="1.01852" fill="#8A82E1"/>
<ellipse cx="43.9185" cy="119.981" rx="1.01613" ry="1.01852" fill="#8A82E1"/>
<ellipse cx="47.9849" cy="67.0185" rx="1.01613" ry="1.01852" fill="#8A82E1"/>
<ellipse cx="47.9849" cy="71.0927" rx="1.01613" ry="1.01852" fill="#8A82E1"/>
<ellipse cx="47.9849" cy="75.1665" rx="1.01613" ry="1.01852" fill="#8A82E1"/>
<ellipse cx="47.9849" cy="79.2407" rx="1.01613" ry="1.01852" fill="#8A82E1"/>
<ellipse cx="47.9849" cy="83.3149" rx="1.01613" ry="1.01852" fill="#8A82E1"/>
<ellipse cx="47.9849" cy="87.3891" rx="1.01613" ry="1.01852" fill="#8A82E1"/>
<ellipse cx="47.9849" cy="91.4629" rx="1.01613" ry="1.01852" fill="#8A82E1"/>
<ellipse cx="47.9849" cy="95.5371" rx="1.01613" ry="1.01852" fill="#8A82E1"/>
<ellipse cx="47.9849" cy="99.6113" rx="1.01613" ry="1.01852" fill="#8A82E1"/>
<ellipse cx="47.9849" cy="103.685" rx="1.01613" ry="1.01852" fill="#8A82E1"/>
<ellipse cx="47.9849" cy="107.759" rx="1.01613" ry="1.01852" fill="#8A82E1"/>
<ellipse cx="47.9849" cy="111.833" rx="1.01613" ry="1.01852" fill="#8A82E1"/>
<ellipse cx="47.9849" cy="115.907" rx="1.01613" ry="1.01852" fill="#8A82E1"/>
<ellipse cx="47.9849" cy="119.981" rx="1.01613" ry="1.01852" fill="#8A82E1"/>
</g>
<g opacity="0.3">
<ellipse cx="196.016" cy="117.019" rx="1.01613" ry="1.01852" fill="#8A82E1"/>
<ellipse cx="196.016" cy="121.093" rx="1.01613" ry="1.01852" fill="#8A82E1"/>
<ellipse cx="196.016" cy="125.166" rx="1.01613" ry="1.01852" fill="#8A82E1"/>
<ellipse cx="196.016" cy="129.241" rx="1.01613" ry="1.01852" fill="#8A82E1"/>
<ellipse cx="196.016" cy="133.315" rx="1.01613" ry="1.01852" fill="#8A82E1"/>
<ellipse cx="196.016" cy="137.389" rx="1.01613" ry="1.01852" fill="#8A82E1"/>
<ellipse cx="200.083" cy="117.019" rx="1.01613" ry="1.01852" fill="#8A82E1"/>
<ellipse cx="200.083" cy="121.093" rx="1.01613" ry="1.01852" fill="#8A82E1"/>
<ellipse cx="200.083" cy="125.166" rx="1.01613" ry="1.01852" fill="#8A82E1"/>
<ellipse cx="200.083" cy="129.241" rx="1.01613" ry="1.01852" fill="#8A82E1"/>
<ellipse cx="200.083" cy="133.315" rx="1.01613" ry="1.01852" fill="#8A82E1"/>
<ellipse cx="200.083" cy="137.389" rx="1.01613" ry="1.01852" fill="#8A82E1"/>
<ellipse cx="204.145" cy="117.019" rx="1.01613" ry="1.01852" fill="#8A82E1"/>
<ellipse cx="204.145" cy="121.093" rx="1.01613" ry="1.01852" fill="#8A82E1"/>
<ellipse cx="204.145" cy="125.166" rx="1.01613" ry="1.01852" fill="#8A82E1"/>
<ellipse cx="204.145" cy="129.241" rx="1.01613" ry="1.01852" fill="#8A82E1"/>
<ellipse cx="204.145" cy="133.315" rx="1.01613" ry="1.01852" fill="#8A82E1"/>
<ellipse cx="204.145" cy="137.389" rx="1.01613" ry="1.01852" fill="#8A82E1"/>
<ellipse cx="208.211" cy="117.019" rx="1.01613" ry="1.01852" fill="#8A82E1"/>
<ellipse cx="208.211" cy="121.093" rx="1.01613" ry="1.01852" fill="#8A82E1"/>
<ellipse cx="208.211" cy="125.166" rx="1.01613" ry="1.01852" fill="#8A82E1"/>
<ellipse cx="208.211" cy="129.241" rx="1.01613" ry="1.01852" fill="#8A82E1"/>
<ellipse cx="208.211" cy="133.315" rx="1.01613" ry="1.01852" fill="#8A82E1"/>
<ellipse cx="208.211" cy="137.389" rx="1.01613" ry="1.01852" fill="#8A82E1"/>
<ellipse cx="212.274" cy="117.019" rx="1.01613" ry="1.01852" fill="#8A82E1"/>
<ellipse cx="212.274" cy="121.093" rx="1.01613" ry="1.01852" fill="#8A82E1"/>
<ellipse cx="212.274" cy="125.166" rx="1.01613" ry="1.01852" fill="#8A82E1"/>
<ellipse cx="212.274" cy="129.241" rx="1.01613" ry="1.01852" fill="#8A82E1"/>
<ellipse cx="212.274" cy="133.315" rx="1.01613" ry="1.01852" fill="#8A82E1"/>
<ellipse cx="212.274" cy="137.389" rx="1.01613" ry="1.01852" fill="#8A82E1"/>
<ellipse cx="216.34" cy="117.019" rx="1.01613" ry="1.01852" fill="#8A82E1"/>
<ellipse cx="216.34" cy="121.093" rx="1.01613" ry="1.01852" fill="#8A82E1"/>
<ellipse cx="216.34" cy="125.166" rx="1.01613" ry="1.01852" fill="#8A82E1"/>
<ellipse cx="216.34" cy="129.241" rx="1.01613" ry="1.01852" fill="#8A82E1"/>
<ellipse cx="216.34" cy="133.315" rx="1.01613" ry="1.01852" fill="#8A82E1"/>
<ellipse cx="216.34" cy="137.389" rx="1.01613" ry="1.01852" fill="#8A82E1"/>
</g>
<path opacity="0.6" d="M13.7207 4.30038L13.8119 5.08443L14.4818 4.66691L41.8004 -12.3599L19.1215 10.4848L18.5653 11.045L19.3094 11.3084L49.6544 22.0509L17.6536 18.5633L16.8689 18.4777L17.1269 19.2237L27.6478 49.6461L10.4224 22.4524L10 21.7856L9.57761 22.4524L-7.64786 49.6462L2.87314 19.2237L3.13113 18.4777L2.34642 18.5633L-29.6544 22.0509L0.690559 11.3084L1.43465 11.045L0.87854 10.4848L-21.8003 -12.3599L5.51818 4.66691L6.18806 5.08443L6.2793 4.30038L10 -27.6741L13.7207 4.30038Z" stroke="#857EDC"/>
</g>
<defs>
<linearGradient id="paint0_linear_4283_395320" x1="207.5" y1="6.50001" x2="-16" y2="145" gradientUnits="userSpaceOnUse">
<stop stop-color="#7C76CD"/>
<stop offset="1" stop-color="#6861BE"/>
</linearGradient>
<clipPath id="clip0_4283_395320">
<rect width="217" height="137" rx="6" fill="white"/>
</clipPath>
</defs>
</svg>
