<svg width="217" height="137" viewBox="0 0 217 137" fill="none" xmlns="http://www.w3.org/2000/svg">
<g clip-path="url(#clip0_4283_395315)">
<rect width="217" height="137" rx="6" fill="#D5AFFF"/>
<rect x="72" y="105" width="72" height="72" rx="16" fill="url(#paint0_linear_4283_395315)"/>
<rect x="-1" y="32" width="72" height="72" rx="16" fill="url(#paint1_linear_4283_395315)"/>
<rect x="72.5" y="32.5" width="71" height="71" rx="15.5" stroke="#CFA7FC"/>
<rect x="-1" y="105" width="72" height="72" rx="16" fill="url(#paint2_linear_4283_395315)"/>
<rect x="-1" y="-41" width="72" height="72" rx="16" fill="url(#paint3_linear_4283_395315)"/>
<rect x="72" y="-41" width="72" height="72" rx="16" fill="url(#paint4_linear_4283_395315)"/>
<rect x="145" y="-41" width="72" height="72" rx="16" fill="url(#paint5_linear_4283_395315)"/>
<rect x="145" y="32" width="72" height="72" rx="16" fill="url(#paint6_linear_4283_395315)"/>
<rect x="145" y="105" width="72" height="72" rx="16" fill="url(#paint7_linear_4283_395315)"/>
</g>
<defs>
<linearGradient id="paint0_linear_4283_395315" x1="137" y1="108" x2="67.5" y2="186" gradientUnits="userSpaceOnUse">
<stop stop-color="#CFA7FC"/>
<stop offset="0.83794" stop-color="#C795FF"/>
</linearGradient>
<linearGradient id="paint1_linear_4283_395315" x1="-6" y1="109.5" x2="65" y2="36" gradientUnits="userSpaceOnUse">
<stop stop-color="#CFA7FC"/>
<stop offset="1" stop-color="#C795FF"/>
</linearGradient>
<linearGradient id="paint2_linear_4283_395315" x1="64" y1="108" x2="-5.5" y2="186" gradientUnits="userSpaceOnUse">
<stop stop-color="#CFA7FC"/>
<stop offset="0.83794" stop-color="#C795FF"/>
</linearGradient>
<linearGradient id="paint3_linear_4283_395315" x1="64" y1="-38" x2="-5.5" y2="40" gradientUnits="userSpaceOnUse">
<stop stop-color="#CFA7FC"/>
<stop offset="0.83794" stop-color="#C795FF"/>
</linearGradient>
<linearGradient id="paint4_linear_4283_395315" x1="137" y1="-38" x2="67.5" y2="40" gradientUnits="userSpaceOnUse">
<stop stop-color="#CFA7FC"/>
<stop offset="0.83794" stop-color="#C795FF"/>
</linearGradient>
<linearGradient id="paint5_linear_4283_395315" x1="210" y1="-38" x2="140.5" y2="40" gradientUnits="userSpaceOnUse">
<stop stop-color="#CFA7FC"/>
<stop offset="0.83794" stop-color="#C795FF"/>
</linearGradient>
<linearGradient id="paint6_linear_4283_395315" x1="210" y1="35" x2="140.5" y2="113" gradientUnits="userSpaceOnUse">
<stop stop-color="#CFA7FC"/>
<stop offset="0.83794" stop-color="#C795FF"/>
</linearGradient>
<linearGradient id="paint7_linear_4283_395315" x1="210" y1="108" x2="140.5" y2="186" gradientUnits="userSpaceOnUse">
<stop stop-color="#CFA7FC"/>
<stop offset="0.83794" stop-color="#C795FF"/>
</linearGradient>
<clipPath id="clip0_4283_395315">
<rect width="217" height="137" rx="6" fill="white"/>
</clipPath>
</defs>
</svg>
