<svg width="217" height="137" viewBox="0 0 217 137" fill="none" xmlns="http://www.w3.org/2000/svg">
<rect width="217" height="137" rx="6" fill="#FFCFB5"/>
<path fill-rule="evenodd" clip-rule="evenodd" d="M33.5 68H28.5L24 84H29H37V80H30.125L33.5 68Z" fill="#FFCAAC"/>
<path fill-rule="evenodd" clip-rule="evenodd" d="M191.625 113H195.375L198.75 125H195H189V122H194.156L191.625 113Z" fill="#FFCAAC"/>
<path fill-rule="evenodd" clip-rule="evenodd" d="M18.5 47C19.8807 47 21 45.8807 21 44.5C21 43.1193 19.8807 42 18.5 42C17.1193 42 16 43.1193 16 44.5C16 45.8807 17.1193 47 18.5 47ZM18.5 50C21.5376 50 24 47.5376 24 44.5C24 41.4624 21.5376 39 18.5 39C15.4624 39 13 41.4624 13 44.5C13 47.5376 15.4624 50 18.5 50Z" fill="#FFCAAC"/>
<path fill-rule="evenodd" clip-rule="evenodd" d="M193.5 70C194.881 70 196 68.8807 196 67.5C196 66.1193 194.881 65 193.5 65C192.119 65 191 66.1193 191 67.5C191 68.8807 192.119 70 193.5 70ZM193.5 73C196.538 73 199 70.5376 199 67.5C199 64.4624 196.538 62 193.5 62C190.462 62 188 64.4624 188 67.5C188 70.5376 190.462 73 193.5 73Z" fill="#FFCAAC"/>
<path fill-rule="evenodd" clip-rule="evenodd" d="M66.5 110C67.8807 110 69 108.881 69 107.5C69 106.119 67.8807 105 66.5 105C65.1193 105 64 106.119 64 107.5C64 108.881 65.1193 110 66.5 110ZM66.5 113C69.5376 113 72 110.538 72 107.5C72 104.462 69.5376 102 66.5 102C63.4624 102 61 104.462 61 107.5C61 110.538 63.4624 113 66.5 113Z" fill="#FFCAAC"/>
<path fill-rule="evenodd" clip-rule="evenodd" d="M73.7782 58.2428L70.2426 61.7783L73.7782 65.3139L77.3137 61.7783L73.7782 58.2428ZM66 61.7783L73.7782 69.5565L81.5563 61.7783L73.7782 54.0001L66 61.7783Z" fill="#FFCAAC"/>
<path fill-rule="evenodd" clip-rule="evenodd" d="M127.778 97.2428L124.243 100.778L127.778 104.314L131.314 100.778L127.778 97.2428ZM120 100.778L127.778 108.556L135.556 100.778L127.778 93.0001L120 100.778Z" fill="#FFCAAC"/>
<path fill-rule="evenodd" clip-rule="evenodd" d="M190.778 18.2428L187.243 21.7783L190.778 25.3139L194.314 21.7783L190.778 18.2428ZM183 21.7783L190.778 29.5565L198.556 21.7783L190.778 14.0001L183 21.7783Z" fill="#FFCAAC"/>
<path fill-rule="evenodd" clip-rule="evenodd" d="M150.535 67L147 70.5356L150.18 73.7175L147 76.8994L150.535 80.4351L153.719 77.2532L156.898 80.4351L160.434 76.8997L157.25 73.7175L160.434 70.5356L156.898 67L153.715 70.1819L150.535 67Z" fill="#FFCAAC"/>
<path fill-rule="evenodd" clip-rule="evenodd" d="M74.5352 15L71 18.5356L74.1797 21.7175L71 24.8994L74.5352 28.4351L77.7188 25.2532L80.8984 28.4351L84.4336 24.8997L81.25 21.7175L84.4336 18.5356L80.8984 15L77.7148 18.1819L74.5352 15Z" fill="#FFCAAC"/>
</svg>
