<svg width="217" height="137" viewBox="0 0 217 137" fill="none" xmlns="http://www.w3.org/2000/svg">
<g clip-path="url(#clip0_4283_395313)">
<rect width="217" height="137" rx="6" fill="#DDFFCD"/>
<path d="M26.793 115.601H84.5931V173.401C52.7067 173.401 26.793 147.487 26.793 115.601Z" fill="#D1FABE"/>
<path d="M-31 173.401H26.8001V115.601C-5.08627 115.601 -31 141.418 -31 173.401Z" fill="#D1FABE"/>
<path d="M26.8001 57.7998V115.6H-31C-31 83.6172 -5.08627 57.7998 26.8001 57.7998Z" fill="#D1FABE"/>
<path d="M-31 0V57.8001H26.8001C26.8001 25.8174 0.886406 0 -31 0Z" fill="#D1FABE"/>
<path d="M84.5931 57.8001H26.793V0C58.6794 0 84.5931 25.8174 84.5931 57.8001Z" fill="#D1FABE"/>
<path d="M142.406 0H84.6055V57.8001C116.492 57.8001 142.406 31.8864 142.406 0Z" fill="#D1FABE"/>
<path d="M84.6055 115.6V57.7998H142.406C142.406 89.6862 116.492 115.6 84.6055 115.6Z" fill="#D1FABE"/>
<path d="M142.406 173.401V115.601H84.6055C84.6055 147.487 110.519 173.401 142.406 173.401Z" fill="#D1FABE"/>
</g>
<defs>
<clipPath id="clip0_4283_395313">
<rect width="217" height="137" rx="6" fill="white"/>
</clipPath>
</defs>
</svg>
