<svg width="217" height="137" viewBox="0 0 217 137" fill="none" xmlns="http://www.w3.org/2000/svg">
<g clip-path="url(#clip0_4283_395310)">
<rect width="217" height="137" rx="6" fill="white"/>
<g opacity="0.1">
<path d="M107.995 46.9434L126.185 57.4377L107.995 67.9321L89.8047 57.4377L107.995 46.9434Z" stroke="black" stroke-opacity="0.2" stroke-miterlimit="10"/>
<path d="M107.995 67.9324L89.8047 57.438V78.4267L107.995 88.9211V67.9324Z" stroke="black" stroke-opacity="0.2" stroke-miterlimit="10"/>
<path d="M89.8113 57.4377L71.6211 46.9434V67.9321L89.8113 78.4265V57.4377Z" stroke="black" stroke-opacity="0.2" stroke-miterlimit="10"/>
<path d="M107.995 88.9211L89.8047 78.4268V99.4155L107.995 109.91V88.9211Z" stroke="black" stroke-opacity="0.2" stroke-miterlimit="10"/>
<path d="M89.8113 78.427L71.6211 67.9326V88.9214L89.8113 99.4157V78.427Z" stroke="black" stroke-opacity="0.2" stroke-miterlimit="10"/>
<path d="M89.8113 36.4497L108.002 46.9441L89.8113 57.4385L71.6211 46.9441L89.8113 36.4497Z" stroke="black" stroke-opacity="0.2" stroke-miterlimit="10"/>
<path d="M126.19 36.4497L144.381 46.9441L126.19 57.4385L108 46.9441L126.19 36.4497Z" stroke="black" stroke-opacity="0.2" stroke-miterlimit="10"/>
<path d="M107.995 25.9551L126.185 36.4495L107.995 46.9438L89.8047 36.4495L107.995 25.9551Z" stroke="black" stroke-opacity="0.2" stroke-miterlimit="10"/>
<path d="M108 67.9324L126.19 57.438V78.4267L108 88.9211V67.9324Z" stroke="black" stroke-opacity="0.2" stroke-miterlimit="10"/>
<path d="M126.188 57.4377L144.378 46.9434V67.9321L126.188 78.4265V57.4377Z" stroke="black" stroke-opacity="0.2" stroke-miterlimit="10"/>
<path d="M108 88.9211L126.19 78.4268V99.4155L108 109.91V88.9211Z" stroke="black" stroke-opacity="0.2" stroke-miterlimit="10"/>
<path d="M126.188 78.427L144.378 67.9326V88.9214L126.188 99.4157V78.427Z" stroke="black" stroke-opacity="0.2" stroke-miterlimit="10"/>
<path d="M107.995 109.91L89.8047 99.416V120.405L107.995 130.899V109.91Z" stroke="black" stroke-opacity="0.2" stroke-miterlimit="10"/>
<path d="M89.8113 99.4158L71.6211 88.9214V109.91L89.8113 120.405V99.4158Z" stroke="black" stroke-opacity="0.2" stroke-miterlimit="10"/>
<path d="M108 109.91L126.19 99.416V120.405L108 130.899V109.91Z" stroke="black" stroke-opacity="0.2" stroke-miterlimit="10"/>
<path d="M126.188 99.4158L144.378 88.9214V109.91L126.188 120.405V99.4158Z" stroke="black" stroke-opacity="0.2" stroke-miterlimit="10"/>
<path d="M144.378 25.9551L162.568 36.4495L144.378 46.9438L126.188 36.4495L144.378 25.9551Z" stroke="black" stroke-opacity="0.2" stroke-miterlimit="10"/>
<path d="M126.19 15.4604L144.381 25.9548L126.19 36.4492L108 25.9548L126.19 15.4604Z" stroke="black" stroke-opacity="0.2" stroke-miterlimit="10"/>
<path d="M71.616 46.9441L53.4258 36.4497V57.4385L71.616 67.9328V46.9441Z" stroke="black" stroke-opacity="0.2" stroke-miterlimit="10"/>
<path d="M71.616 67.9324L53.4258 57.438V78.4267L71.616 88.9211V67.9324Z" stroke="black" stroke-opacity="0.2" stroke-miterlimit="10"/>
<path d="M71.616 25.9551L89.8063 36.4495L71.616 46.9438L53.4258 36.4495L71.616 25.9551Z" stroke="black" stroke-opacity="0.2" stroke-miterlimit="10"/>
<path d="M89.8113 15.4604L108.002 25.9548L89.8113 36.4492L71.6211 25.9548L89.8113 15.4604Z" stroke="black" stroke-opacity="0.2" stroke-miterlimit="10"/>
<path d="M71.616 88.9211L53.4258 78.4268V99.4155L71.616 109.91V88.9211Z" stroke="black" stroke-opacity="0.2" stroke-miterlimit="10"/>
<path d="M107.995 4.96631L126.185 15.4607L107.995 25.9551L89.8047 15.4607L107.995 4.96631Z" stroke="black" stroke-opacity="0.2" stroke-miterlimit="10"/>
<path d="M144.383 46.9441L162.573 36.4497V57.4385L144.383 67.9328V46.9441Z" stroke="black" stroke-opacity="0.2" stroke-miterlimit="10"/>
<path d="M144.383 67.9324L162.573 57.438V78.4267L144.383 88.9211V67.9324Z" stroke="black" stroke-opacity="0.2" stroke-miterlimit="10"/>
<path d="M144.383 88.9211L162.573 78.4268V99.4155L144.383 109.91V88.9211Z" stroke="black" stroke-opacity="0.2" stroke-miterlimit="10"/>
<path d="M107.995 130.899L89.8047 120.404V141.393L107.995 151.887V130.899Z" stroke="black" stroke-opacity="0.2" stroke-miterlimit="10"/>
<path d="M89.8113 120.405L71.6211 109.91V130.899L89.8113 141.393V120.405Z" stroke="black" stroke-opacity="0.2" stroke-miterlimit="10"/>
<path d="M108 130.899L126.19 120.404V141.393L108 151.887V130.899Z" stroke="black" stroke-opacity="0.2" stroke-miterlimit="10"/>
<path d="M126.188 120.405L144.378 109.91V130.899L126.188 141.393V120.405Z" stroke="black" stroke-opacity="0.2" stroke-miterlimit="10"/>
<path d="M71.616 109.91L53.4258 99.416V120.405L71.616 130.899V109.91Z" stroke="black" stroke-opacity="0.2" stroke-miterlimit="10"/>
<path d="M144.383 109.91L162.573 99.416V120.405L144.383 130.899V109.91Z" stroke="black" stroke-opacity="0.2" stroke-miterlimit="10"/>
<path d="M162.573 15.4604L180.763 25.9548L162.573 36.4492L144.383 25.9548L162.573 15.4604Z" stroke="black" stroke-opacity="0.2" stroke-miterlimit="10"/>
<path d="M144.378 4.96631L162.568 15.4607L144.378 25.9551L126.188 15.4607L144.378 4.96631Z" stroke="black" stroke-opacity="0.2" stroke-miterlimit="10"/>
<path d="M126.19 -5.52832L144.381 4.96605L126.19 15.4604L108 4.96605L126.19 -5.52832Z" stroke="black" stroke-opacity="0.2" stroke-miterlimit="10"/>
<path d="M53.4285 36.4495L35.2383 25.9551V46.9438L53.4285 57.4382V36.4495Z" stroke="black" stroke-opacity="0.2" stroke-miterlimit="10"/>
<path d="M53.4285 57.4377L35.2383 46.9434V67.9321L53.4285 78.4265V57.4377Z" stroke="black" stroke-opacity="0.2" stroke-miterlimit="10"/>
<path d="M53.4285 15.4604L71.6188 25.9548L53.4285 36.4492L35.2383 25.9548L53.4285 15.4604Z" stroke="black" stroke-opacity="0.2" stroke-miterlimit="10"/>
<path d="M71.616 4.96631L89.8063 15.4607L71.616 25.9551L53.4258 15.4607L71.616 4.96631Z" stroke="black" stroke-opacity="0.2" stroke-miterlimit="10"/>
<path d="M53.4285 78.427L35.2383 67.9326V88.9214L53.4285 99.4157V78.427Z" stroke="black" stroke-opacity="0.2" stroke-miterlimit="10"/>
<path d="M89.8113 -5.52832L108.002 4.96605L89.8113 15.4604L71.6211 4.96605L89.8113 -5.52832Z" stroke="black" stroke-opacity="0.2" stroke-miterlimit="10"/>
<path d="M53.4285 99.4158L35.2383 88.9214V109.91L53.4285 120.405V99.4158Z" stroke="black" stroke-opacity="0.2" stroke-miterlimit="10"/>
<path d="M107.995 -16.0229L126.185 -5.52857L107.995 4.9658L89.8047 -5.52857L107.995 -16.0229Z" stroke="black" stroke-opacity="0.2" stroke-miterlimit="10"/>
<path d="M162.57 36.4495L180.761 25.9551V46.9438L162.57 57.4382V36.4495Z" stroke="black" stroke-opacity="0.2" stroke-miterlimit="10"/>
<path d="M162.57 57.4377L180.761 46.9434V67.9321L162.57 78.4265V57.4377Z" stroke="black" stroke-opacity="0.2" stroke-miterlimit="10"/>
<path d="M162.57 78.427L180.761 67.9326V88.9214L162.57 99.4157V78.427Z" stroke="black" stroke-opacity="0.2" stroke-miterlimit="10"/>
<path d="M162.57 99.4158L180.761 88.9214V109.91L162.57 120.405V99.4158Z" stroke="black" stroke-opacity="0.2" stroke-miterlimit="10"/>
<path d="M180.761 4.96631L198.951 15.4607L180.761 25.9551L162.57 15.4607L180.761 4.96631Z" stroke="black" stroke-opacity="0.2" stroke-miterlimit="10"/>
<path d="M162.573 -5.52832L180.763 4.96605L162.573 15.4604L144.383 4.96605L162.573 -5.52832Z" stroke="black" stroke-opacity="0.2" stroke-miterlimit="10"/>
<path d="M144.378 -16.0229L162.568 -5.52857L144.378 4.9658L126.188 -5.52857L144.378 -16.0229Z" stroke="black" stroke-opacity="0.2" stroke-miterlimit="10"/>
<path d="M35.2332 25.9548L17.043 15.4604V36.4492L35.2332 46.9436V25.9548Z" stroke="black" stroke-opacity="0.2" stroke-miterlimit="10"/>
<path d="M35.2332 46.9441L17.043 36.4497V57.4385L35.2332 67.9328V46.9441Z" stroke="black" stroke-opacity="0.2" stroke-miterlimit="10"/>
<path d="M35.2332 4.96631L53.4235 15.4607L35.2332 25.9551L17.043 15.4607L35.2332 4.96631Z" stroke="black" stroke-opacity="0.2" stroke-miterlimit="10"/>
<path d="M53.4285 -5.52832L71.6188 4.96605L53.4285 15.4604L35.2383 4.96605L53.4285 -5.52832Z" stroke="black" stroke-opacity="0.2" stroke-miterlimit="10"/>
<path d="M35.2332 67.9324L17.043 57.438V78.4267L35.2332 88.9211V67.9324Z" stroke="black" stroke-opacity="0.2" stroke-miterlimit="10"/>
<path d="M71.616 -16.0229L89.8063 -5.52857L71.616 4.9658L53.4258 -5.52857L71.616 -16.0229Z" stroke="black" stroke-opacity="0.2" stroke-miterlimit="10"/>
<path d="M35.2332 88.9211L17.043 78.4268V99.4155L35.2332 109.91V88.9211Z" stroke="black" stroke-opacity="0.2" stroke-miterlimit="10"/>
<path d="M180.766 25.9548L198.956 15.4604V36.4492L180.766 46.9436V25.9548Z" stroke="black" stroke-opacity="0.2" stroke-miterlimit="10"/>
<path d="M180.766 46.9441L198.956 36.4497V57.4385L180.766 67.9328V46.9441Z" stroke="black" stroke-opacity="0.2" stroke-miterlimit="10"/>
<path d="M180.766 67.9324L198.956 57.438V78.4267L180.766 88.9211V67.9324Z" stroke="black" stroke-opacity="0.2" stroke-miterlimit="10"/>
<path d="M180.766 88.9211L198.956 78.4268V99.4155L180.766 109.91V88.9211Z" stroke="black" stroke-opacity="0.2" stroke-miterlimit="10"/>
<path d="M89.8113 141.393L71.6211 130.898V151.887L89.8113 162.382V141.393Z" stroke="black" stroke-opacity="0.2" stroke-miterlimit="10"/>
<path d="M126.188 141.393L144.378 130.898V151.887L126.188 162.382V141.393Z" stroke="black" stroke-opacity="0.2" stroke-miterlimit="10"/>
<path d="M71.616 130.899L53.4258 120.404V141.393L71.616 151.887V130.899Z" stroke="black" stroke-opacity="0.2" stroke-miterlimit="10"/>
<path d="M144.383 130.899L162.573 120.404V141.393L144.383 151.887V130.899Z" stroke="black" stroke-opacity="0.2" stroke-miterlimit="10"/>
<path d="M53.4285 120.405L35.2383 109.91V130.899L53.4285 141.393V120.405Z" stroke="black" stroke-opacity="0.2" stroke-miterlimit="10"/>
<path d="M162.57 120.405L180.761 109.91V130.899L162.57 141.393V120.405Z" stroke="black" stroke-opacity="0.2" stroke-miterlimit="10"/>
<path d="M35.2332 109.91L17.043 99.416V120.405L35.2332 130.899V109.91Z" stroke="black" stroke-opacity="0.2" stroke-miterlimit="10"/>
<path d="M180.766 109.91L198.956 99.416V120.405L180.766 130.899V109.91Z" stroke="black" stroke-opacity="0.2" stroke-miterlimit="10"/>
<path d="M53.4285 141.393L35.2383 130.898V151.887L53.4285 162.382V141.393Z" stroke="black" stroke-opacity="0.2" stroke-miterlimit="10"/>
<path d="M162.57 141.393L180.761 130.898V151.887L162.57 162.382V141.393Z" stroke="black" stroke-opacity="0.2" stroke-miterlimit="10"/>
<path d="M35.2332 130.899L17.043 120.404V141.393L35.2332 151.887V130.899Z" stroke="black" stroke-opacity="0.2" stroke-miterlimit="10"/>
<path d="M180.766 130.899L198.956 120.404V141.393L180.766 151.887V130.899Z" stroke="black" stroke-opacity="0.2" stroke-miterlimit="10"/>
<path d="M198.956 -5.52832L217.006 4.96605L198.956 15.4604L180.766 4.96605L198.956 -5.52832Z" stroke="black" stroke-opacity="0.2" stroke-miterlimit="10"/>
<path d="M180.761 -16.0229L198.951 -5.52857L180.761 4.9658L162.57 -5.52857L180.761 -16.0229Z" stroke="black" stroke-opacity="0.2" stroke-miterlimit="10"/>
<path d="M17.0502 15.4607L-1 4.96631V25.9551L17.0502 36.4494V15.4607Z" stroke="black" stroke-opacity="0.2" stroke-miterlimit="10"/>
<path d="M17.0502 36.4495L-1 25.9551V46.9438L17.0502 57.4382V36.4495Z" stroke="black" stroke-opacity="0.2" stroke-miterlimit="10"/>
<path d="M17.0502 -5.52832L35.2404 4.96605L17.0502 15.4604L-1 4.96605L17.0502 -5.52832Z" stroke="black" stroke-opacity="0.2" stroke-miterlimit="10"/>
<path d="M35.2332 -16.0229L53.4235 -5.52857L35.2332 4.9658L17.043 -5.52857L35.2332 -16.0229Z" stroke="black" stroke-opacity="0.2" stroke-miterlimit="10"/>
<path d="M17.0502 57.4377L-1 46.9434V67.9321L17.0502 78.4265V57.4377Z" stroke="black" stroke-opacity="0.2" stroke-miterlimit="10"/>
<path d="M17.0502 78.427L-1 67.9326V88.9214L17.0502 99.4157V78.427Z" stroke="black" stroke-opacity="0.2" stroke-miterlimit="10"/>
<path d="M17.0502 99.4158L-1 88.9214V109.91L17.0502 120.405V99.4158Z" stroke="black" stroke-opacity="0.2" stroke-miterlimit="10"/>
<path d="M17.0502 120.405L-1 109.91V130.899L17.0502 141.393V120.405Z" stroke="black" stroke-opacity="0.2" stroke-miterlimit="10"/>
<path d="M198.949 15.4607L216.999 4.96631V25.9551L198.949 36.4494V15.4607Z" stroke="black" stroke-opacity="0.2" stroke-miterlimit="10"/>
<path d="M198.949 36.4495L216.999 25.9551V46.9438L198.949 57.4382V36.4495Z" stroke="black" stroke-opacity="0.2" stroke-miterlimit="10"/>
<path d="M198.949 57.4377L216.999 46.9434V67.9321L198.949 78.4265V57.4377Z" stroke="black" stroke-opacity="0.2" stroke-miterlimit="10"/>
<path d="M198.949 78.427L216.999 67.9326V88.9214L198.949 99.4157V78.427Z" stroke="black" stroke-opacity="0.2" stroke-miterlimit="10"/>
<path d="M198.949 99.4158L216.999 88.9214V109.91L198.949 120.405V99.4158Z" stroke="black" stroke-opacity="0.2" stroke-miterlimit="10"/>
<path d="M198.949 120.405L216.999 109.91V130.899L198.949 141.393V120.405Z" stroke="black" stroke-opacity="0.2" stroke-miterlimit="10"/>
</g>
</g>
<defs>
<clipPath id="clip0_4283_395310">
<rect width="217" height="137" rx="6" fill="white"/>
</clipPath>
</defs>
</svg>
