<svg width="217" height="137" viewBox="0 0 217 137" fill="none" xmlns="http://www.w3.org/2000/svg">
<g clip-path="url(#clip0_4285_398147)">
<rect width="217" height="137" rx="6" fill="white"/>
<path d="M-3.98513 5.32747C15.4279 -16.9452 31.295 -14.1093 31.7428 -6.21622C33.0909 17.5503 49.2684 23.6618 47.9203 43.354C46.5826 62.8944 32.6345 67.0568 14.6377 72.4274L14.2171 72.5529C-3.98257 77.9853 -3.98513 67.7996 -25.5551 47.4283C-47.1252 27.057 -28.2514 33.1683 -3.98513 5.32747Z" fill="#C268F7" fill-opacity="0.4"/>
<path d="M-4.75489 42.6712C12.092 21.2742 40.5807 35.15 46.6086 38.7369C63.1374 48.5724 57.1579 62.5053 55.988 81.4233C54.8271 100.195 42.7228 104.194 27.105 109.354L26.74 109.474C10.9461 114.693 -2.56383 125.189 -21.2826 105.619C-40.0013 86.0486 -25.8135 69.4174 -4.75489 42.6712Z" fill="#300849" fill-opacity="0.58"/>
<path d="M183.261 84.214C202.788 61.8218 235.809 76.343 242.796 80.0967C261.955 90.3897 255.024 104.971 253.668 124.769C252.322 144.414 238.292 148.599 220.19 153.998L219.767 154.124C201.46 159.586 185.801 170.57 164.104 150.09C142.408 129.609 158.853 112.204 183.261 84.214Z" fill="#12888F" fill-opacity="0.52"/>
<path d="M207.704 109.657C187.47 100.053 191.272 73.126 192.571 67.2896C196.133 51.2859 208.129 53.3415 222.774 50.2872C237.306 47.2563 243.205 56.5848 250.816 68.6211L250.994 68.9024C258.692 81.0741 269.858 90.198 259.42 110.122C248.982 130.046 232.997 121.661 207.704 109.657Z" fill="#8F1230" fill-opacity="0.61"/>
</g>
<defs>
<clipPath id="clip0_4285_398147">
<rect width="217" height="137" rx="6" fill="white"/>
</clipPath>
</defs>
</svg>
