<svg width="217" height="137" viewBox="0 0 217 137" fill="none" xmlns="http://www.w3.org/2000/svg">
<rect width="217" height="137" rx="6" fill="url(#paint0_linear_4285_398195)"/>
<path d="M34.2168 13.061C35.3363 10.1372 33.8684 6.93732 30.9742 5.82916C28.6372 4.93433 26.0552 5.75732 24.5607 7.63282C24.7002 5.2388 23.3072 2.9566 20.9702 2.06178C18.0754 0.9534 14.8732 2.28996 13.7533 5.21486C13.1882 6.6907 13.3882 7.96285 13.9255 9.44794L19.2396 21.5444L31.2637 16.0865C32.6563 15.3403 33.6521 14.5357 34.2168 13.061Z" fill="#522092" fill-opacity="0.2"/>
<path fill-rule="evenodd" clip-rule="evenodd" d="M178.807 123.282L180.413 120.525L176.896 118.403L175.287 121.158L173.703 118.341L170.168 120.326L171.75 123.145L168.56 123.085L168.542 127.193L171.732 127.256L170.126 130.013L173.643 132.135L175.251 129.38L176.836 132.197L180.37 130.212L178.789 127.393L181.979 127.453L181.997 123.346L178.807 123.282Z" fill="#8F4FA0"/>
<path opacity="0.3" d="M12.5401 118.624C12.876 118.877 13.266 118.999 13.6531 118.999C14.2357 118.999 14.8106 118.723 15.1806 118.204C15.1817 118.203 15.1827 118.201 15.1837 118.2C15.1846 118.199 15.1854 118.198 15.1863 118.197L15.1876 118.195C15.1885 118.193 15.1893 118.192 15.1901 118.191L16.4995 116.326L17.8089 118.191C17.8102 118.193 17.8115 118.194 17.8128 118.196C17.8134 118.197 17.814 118.198 17.8146 118.199C18.4313 119.069 19.6164 119.26 20.4599 118.625C21.3043 117.99 21.4931 116.763 20.884 115.886L20.8826 115.884C20.8815 115.882 20.8806 115.881 20.8792 115.879L19.5727 114.014L21.6895 113.3C22.6839 112.965 23.2304 111.853 22.9068 110.823C22.5834 109.793 21.5112 109.227 20.5158 109.561L18.3991 110.272L18.3981 107.965C18.3971 106.882 17.546 106 16.5005 106C15.4549 106 14.6038 106.882 14.6028 107.966L14.6009 110.271L12.4841 109.56C12.4833 109.56 12.4823 109.56 12.4813 109.56C12.4799 109.559 12.4785 109.559 12.4775 109.558C11.4841 109.228 10.4157 109.794 10.0931 110.822C9.77051 111.85 10.3132 112.958 11.3029 113.296C11.3038 113.296 11.3046 113.297 11.3054 113.297L11.3089 113.298L11.3105 113.299L13.4263 114.013L12.1198 115.878C12.1193 115.879 12.1186 115.88 12.1179 115.881C12.1172 115.882 12.1165 115.883 12.116 115.884C11.5059 116.761 11.6957 117.989 12.5401 118.624Z" fill="#8F4FA0"/>
<path opacity="0.3" d="M177.54 80.6243C177.876 80.8769 178.266 80.9988 178.653 80.9988C179.236 80.9988 179.811 80.7227 180.181 80.2036C180.182 80.2025 180.183 80.2014 180.184 80.2002C180.185 80.199 180.185 80.1977 180.186 80.1965L180.188 80.1946C180.188 80.1934 180.189 80.1921 180.19 80.1909L181.5 78.3263L182.809 80.1909C182.81 80.1929 182.812 80.1945 182.813 80.1962C182.813 80.197 182.814 80.1978 182.815 80.1987C183.431 81.0686 184.616 81.2603 185.46 80.6253C186.304 79.9904 186.493 78.7627 185.884 77.886L185.883 77.8838C185.882 77.882 185.881 77.8806 185.879 77.8791L184.573 76.0135L186.69 75.3C187.684 74.9648 188.23 73.8532 187.907 72.8231C187.583 71.793 186.511 71.2268 185.516 71.561L183.399 72.2717L183.398 69.9648C183.397 68.8817 182.546 68 181.5 68C180.455 68 179.604 68.8817 179.603 69.9658L179.601 72.2707L177.484 71.5601C177.483 71.5601 177.482 71.5599 177.481 71.5596C177.48 71.5592 177.479 71.5586 177.477 71.5581C176.484 71.2278 175.416 71.794 175.093 72.8221C174.771 73.8502 175.313 74.9579 176.303 75.2961C176.304 75.2963 176.305 75.2967 176.305 75.297L176.309 75.2984L176.31 75.299L178.426 76.0126L177.12 77.8781C177.119 77.8791 177.119 77.8801 177.118 77.8811C177.117 77.8821 177.116 77.8831 177.116 77.884C176.506 78.7608 176.696 79.9894 177.54 80.6243Z" fill="#8F4FA0"/>
<path opacity="0.3" d="M48.5401 67.6243C48.876 67.8769 49.266 67.9988 49.6531 67.9988C50.2357 67.9988 50.8106 67.7227 51.1806 67.2036C51.1817 67.2025 51.1827 67.2014 51.1837 67.2002C51.1846 67.199 51.1854 67.1977 51.1863 67.1965L51.1876 67.1946C51.1885 67.1934 51.1893 67.1921 51.1901 67.1909L52.4995 65.3263L53.8089 67.1909C53.8102 67.1929 53.8115 67.1945 53.8128 67.1962C53.8134 67.197 53.814 67.1978 53.8146 67.1987C54.4313 68.0686 55.6164 68.2603 56.4599 67.6253C57.3043 66.9904 57.4931 65.7627 56.884 64.886L56.8826 64.8838C56.8815 64.882 56.8806 64.8806 56.8792 64.8791L55.5727 63.0135L57.6895 62.3C58.6839 61.9648 59.2304 60.8532 58.9068 59.8231C58.5834 58.793 57.5112 58.2268 56.5158 58.561L54.3991 59.2717L54.3981 56.9648C54.3971 55.8817 53.546 55 52.5005 55C51.4549 55 50.6038 55.8817 50.6028 56.9658L50.6009 59.2707L48.4841 58.5601C48.4833 58.5601 48.4823 58.5599 48.4813 58.5596C48.4799 58.5592 48.4785 58.5586 48.4775 58.5581C47.4841 58.2278 46.4157 58.794 46.0931 59.8221C45.7705 60.8502 46.3132 61.9579 47.3029 62.2961C47.3038 62.2963 47.3046 62.2967 47.3054 62.297L47.3089 62.2984L47.3105 62.299L49.4263 63.0126L48.1198 64.8781C48.1193 64.8791 48.1186 64.8801 48.1179 64.8811C48.1172 64.8821 48.1165 64.8831 48.116 64.884C47.5059 65.7608 47.6957 66.9894 48.5401 67.6243Z" fill="#8F4FA0"/>
<path opacity="0.3" d="M83.1364 95L73 107.909H77.6757L75.8636 118L86 105.091H81.3243L83.1364 95Z" fill="#8C4D9F"/>
<path opacity="0.3" d="M124.136 45L114 57.9091H118.676L116.864 68L127 55.0909H122.324L124.136 45Z" fill="#8C4D9F"/>
<path opacity="0.3" d="M200.754 11.1968C200.794 10.9816 200.815 10.7597 200.815 10.5327C200.815 8.58165 199.266 7 197.355 7C196.186 7 195.153 7.59212 194.527 8.49871C193.925 7.98331 193.15 7.6729 192.303 7.6729C190.411 7.6729 188.874 9.22431 188.844 11.1495H188.844C186.721 11.1495 185 12.9069 185 15.0747C185 17.2426 186.721 19 188.844 19H200.156C202.279 19 204 17.2426 204 15.0747C204 13.1146 202.593 11.4901 200.754 11.1968Z" fill="#642E96"/>
<path opacity="0.3" d="M135.754 87.1968C135.794 86.9816 135.815 86.7597 135.815 86.5327C135.815 84.5817 134.266 83 132.355 83C131.186 83 130.153 83.5921 129.527 84.4987C128.925 83.9833 128.15 83.6729 127.303 83.6729C125.411 83.6729 123.874 85.2243 123.844 87.1495H123.844C121.721 87.1495 120 88.9069 120 91.0747C120 93.2426 121.721 95 123.844 95H135.156C137.279 95 139 93.2426 139 91.0747C139 89.1146 137.593 87.4901 135.754 87.1968Z" fill="#642E96"/>
<path opacity="0.3" d="M55.754 23.1968C55.7941 22.9816 55.8151 22.7597 55.8151 22.5327C55.8151 20.5817 54.2662 19 52.3555 19C51.1864 19 50.1528 19.5921 49.5266 20.4987C48.9253 19.9833 48.1499 19.6729 47.3035 19.6729C45.4112 19.6729 43.8737 21.2243 43.8444 23.1495H43.8439C41.721 23.1495 40 24.9069 40 27.0747C40 29.2426 41.721 31 43.8439 31H55.1561C57.279 31 59 29.2426 59 27.0747C59 25.1146 57.593 23.4901 55.754 23.1968Z" fill="#642E96"/>
<defs>
<linearGradient id="paint0_linear_4285_398195" x1="38.5" y1="25" x2="227.5" y2="174.5" gradientUnits="userSpaceOnUse">
<stop stop-color="#522092"/>
<stop offset="1" stop-color="#B469A8" stop-opacity="0.97"/>
</linearGradient>
</defs>
</svg>
