<svg width="217" height="137" viewBox="0 0 217 137" fill="none" xmlns="http://www.w3.org/2000/svg">
<g clip-path="url(#clip0_4283_395331)">
<rect width="217" height="137" rx="6" fill="url(#paint0_linear_4283_395331)"/>
<path fill-rule="evenodd" clip-rule="evenodd" d="M216.364 46.9392C223.231 41.0897 229.71 32.3447 235.548 19.1467L253.838 27.2365C247.121 42.4235 239.045 53.8916 229.333 62.1645C219.549 70.4978 208.603 75.165 196.844 77.4553C176.591 81.4 153.002 78.3005 128.217 75.0439C125.279 74.6579 122.324 74.2697 119.357 73.8908C70.9348 67.7079 7.68349 71.1411 -8.5 92C-30.9068 96.0829 -20.9037 84.1166 -42.2927 101.019L-54.6928 85.3268C-31.9697 67.3704 -12.429 55.9177 14.4533 51.0192C40.7491 46.2277 73.3482 47.8537 121.89 54.0519C124.778 54.4206 127.599 54.7874 130.355 55.1458C156.072 58.4894 176.181 61.104 193.021 57.8242C201.911 56.0925 209.568 52.7282 216.364 46.9392Z" fill="url(#paint1_linear_4283_395331)"/>
<path fill-rule="evenodd" clip-rule="evenodd" d="M213.159 52.6402C218.511 45.3788 222.826 35.3866 225.499 21.2052L245.153 24.9104C242.076 41.2291 236.828 54.2369 229.258 64.5067C221.634 74.8515 212.04 81.8923 201.113 86.8037C182.294 95.2634 158.619 97.6253 133.744 100.107C130.796 100.401 127.831 100.697 124.855 101.005C76.299 106.028 46.5 118.5 35.5 142.5C14.6148 151.585 -9.37725 142.948 -26.348 164.283L-42 151.833C-23.9707 129.167 -7.55686 113.56 17.4999 102.66C42.01 91.9976 74.1209 86.1464 122.797 81.1109C125.693 80.8113 128.523 80.5251 131.289 80.2454C157.09 77.6361 177.266 75.5957 192.914 68.562C201.175 64.8484 207.862 59.8267 213.159 52.6402Z" fill="url(#paint2_linear_4283_395331)"/>
<path fill-rule="evenodd" clip-rule="evenodd" d="M220.425 60.9568C225.417 52.9751 229.24 42.1312 231.22 26.8986L251.034 29.9486C248.756 47.4768 244.147 61.5767 237.085 72.8651C229.973 84.236 220.732 92.1764 210.056 97.9088C191.669 107.783 168.134 111.381 143.406 115.162C140.475 115.61 137.527 116.06 134.57 116.524C86.3091 124.095 57.1491 138.746 47.3301 164.821C26.9095 175.455 2.5216 167.349 -13.3917 190.857L-29.6341 178.306C-12.7282 153.332 2.9079 135.952 27.4073 123.193C51.3722 110.712 83.1644 103.011 131.544 95.4212C134.423 94.9697 137.236 94.5354 139.985 94.1111C165.632 90.152 185.688 87.0561 200.976 78.8466C209.048 74.5123 215.483 68.856 220.425 60.9568Z" fill="url(#paint3_linear_4283_395331)"/>
</g>
<defs>
<linearGradient id="paint0_linear_4283_395331" x1="-8.5" y1="101" x2="226.5" y2="47" gradientUnits="userSpaceOnUse">
<stop stop-color="#C4E0FA"/>
<stop offset="1" stop-color="#E9F4FF"/>
</linearGradient>
<linearGradient id="paint1_linear_4283_395331" x1="225.17" y1="43.7226" x2="24" y2="74.5" gradientUnits="userSpaceOnUse">
<stop stop-color="#BDDDFF"/>
<stop offset="0.442708" stop-color="#DFEEFF" stop-opacity="0.53"/>
<stop offset="1" stop-color="#B9DAFF" stop-opacity="0.34"/>
</linearGradient>
<linearGradient id="paint2_linear_4283_395331" x1="241" y1="51.5" x2="1.5" y2="125.5" gradientUnits="userSpaceOnUse">
<stop stop-color="#E1F0FF"/>
<stop offset="1" stop-color="#ACD4FF"/>
</linearGradient>
<linearGradient id="paint3_linear_4283_395331" x1="181.227" y1="108.974" x2="11.7626" y2="144.573" gradientUnits="userSpaceOnUse">
<stop offset="0.0966622" stop-color="#E3F1FF"/>
<stop offset="1" stop-color="#ACD4FF"/>
</linearGradient>
<clipPath id="clip0_4283_395331">
<rect width="217" height="137" rx="6" fill="white"/>
</clipPath>
</defs>
</svg>
