<svg width="217" height="137" viewBox="0 0 217 137" fill="none" xmlns="http://www.w3.org/2000/svg">
<g clip-path="url(#clip0_4283_395322)">
<rect width="217" height="137" rx="6" fill="url(#paint0_linear_4283_395322)"/>
<path fill-rule="evenodd" clip-rule="evenodd" d="M-1.5 7C-11.7188 7 -20 15.2827 -20 25.5C-20 32.3447 -16.2852 38.3213 -10.7578 41.521C-9.31641 50.3027 -1.69141 57 7.5 57C10.8438 57 13.9766 56.1138 16.6836 54.563C20.0586 59.0742 25.4336 62 31.5 62L32.1641 61.9883C33.3789 71.0288 41.125 78 50.5 78C59.9453 78 67.75 70.9177 68.875 61.7781C69.6484 62.0742 70.4453 62.3201 71.2617 62.5117C72.6211 62.8311 74.0391 63 75.5 63C85.7188 63 94 54.7173 94 44.5C94 43.6619 93.9453 42.8291 93.8359 42.0205C99.8672 38.9722 104 32.719 104 25.5C104 15.2827 95.7188 7 85.5 7H-1.5Z" fill="url(#paint1_linear_4283_395322)" fill-opacity="0.54"/>
<path fill-rule="evenodd" clip-rule="evenodd" d="M201.258 131.226C207.191 131.226 212 126.416 212 120.484C212 116.509 209.841 113.038 206.632 111.18C205.794 106.082 201.367 102.193 196.032 102.193C194.094 102.193 192.275 102.707 190.705 103.605C188.746 100.986 185.619 99.2901 182.097 99.2901C181.967 99.2901 181.838 99.2924 181.71 99.2969C181.004 94.0475 176.507 89.9998 171.065 89.9998C165.579 89.9998 161.054 94.1118 160.403 99.4217C159.206 98.9616 157.907 98.7095 156.548 98.7095C150.616 98.7095 145.806 103.519 145.806 109.451C145.806 109.94 145.839 110.42 145.902 110.891C142.401 112.661 140 116.292 140 120.484C140 126.416 144.809 131.226 150.742 131.226L201.258 131.226Z" fill="url(#paint2_linear_4283_395322)" fill-opacity="0.54"/>
<path fill-rule="evenodd" clip-rule="evenodd" d="M161.742 -10C155.809 -10 151 -5.19067 151 0.741936C151 4.71694 153.159 8.18766 156.368 10.0453C157.206 15.1431 161.633 19.0323 166.968 19.0323C168.906 19.0323 170.725 18.5187 172.295 17.6203C174.254 20.2399 177.381 21.9355 180.903 21.9355C181.033 21.9355 181.162 21.9332 181.29 21.9287C181.996 27.178 186.493 31.2258 191.935 31.2258C197.421 31.2258 201.946 27.1138 202.597 21.8039C203.794 22.264 205.093 22.5161 206.452 22.5161C212.384 22.5161 217.194 17.7068 217.194 11.7742C217.194 11.286 217.161 10.8053 217.098 10.3344C220.599 8.56428 223 4.93346 223 0.741936C223 -5.19067 218.191 -10 212.258 -10L161.742 -10Z" fill="url(#paint3_linear_4283_395322)" fill-opacity="0.54"/>
</g>
<defs>
<linearGradient id="paint0_linear_4283_395322" x1="5.5" y1="3.5" x2="228" y2="140.5" gradientUnits="userSpaceOnUse">
<stop stop-color="#485260"/>
<stop offset="1" stop-color="#485260" stop-opacity="0.54"/>
</linearGradient>
<linearGradient id="paint1_linear_4283_395322" x1="-2.5" y1="11" x2="96.5" y2="78" gradientUnits="userSpaceOnUse">
<stop stop-color="#454B57"/>
<stop offset="1" stop-color="#454B57" stop-opacity="0"/>
</linearGradient>
<linearGradient id="paint2_linear_4283_395322" x1="212" y1="128" x2="149" y2="102" gradientUnits="userSpaceOnUse">
<stop stop-color="#454B57"/>
<stop offset="1" stop-color="#454B57" stop-opacity="0.58"/>
</linearGradient>
<linearGradient id="paint3_linear_4283_395322" x1="199.5" y1="-3" x2="187" y2="31.2258" gradientUnits="userSpaceOnUse">
<stop stop-color="#454B57"/>
<stop offset="1" stop-color="#454B57" stop-opacity="0"/>
</linearGradient>
<clipPath id="clip0_4283_395322">
<rect width="217" height="137" rx="6" fill="white"/>
</clipPath>
</defs>
</svg>
