<svg width="217" height="137" viewBox="0 0 217 137" fill="none" xmlns="http://www.w3.org/2000/svg">
<g clip-path="url(#clip0_4283_395328)">
<rect width="217" height="137" rx="6" fill="#F9FFE9"/>
<path d="M126.5 36.5C104.1 -1.10001 24.667 31.3333 0.50029 31.5C-20.6664 59 -63.4997 117 -65.4997 129C-67.9997 144 62.5003 167 84.0003 169.5C101.2 171.5 186.5 163 227 158.5C229.167 143.667 213.7 78 202.5 90C188.5 105 187 151.5 135 144.5C83 137.5 154.5 83.5 126.5 36.5Z" fill="#F0F9D7"/>
<path d="M200.001 16.3221C208.001 -23.6779 26.1672 23.9888 -5.49945 26.8221C-30.5 -56.4999 288.301 -48.6779 325.501 -6.67785C372.001 45.8221 287.501 30.3222 255.001 26.8222C222.501 23.3222 241.001 33.8221 229.001 51.8221C217.001 69.8221 190.001 66.3221 200.001 16.3221Z" fill="#F0F9D7"/>
</g>
<defs>
<clipPath id="clip0_4283_395328">
<rect width="217" height="137" rx="6" fill="white"/>
</clipPath>
</defs>
</svg>
