<svg width="217" height="137" viewBox="0 0 217 137" fill="none" xmlns="http://www.w3.org/2000/svg">
<g clip-path="url(#clip0_4283_395329)">
<rect width="217" height="137" rx="6" fill="#1E4660"/>
<path d="M-30.8711 38.5986L47.6056 18.2661L236.592 -7.26386C250.131 -9.0928 262.903 -0.521437 266.341 12.7008C269.235 23.8334 264.759 35.5776 255.19 41.96L156.509 107.774C121.723 130.975 75.7937 128.409 43.8085 101.478L-30.8711 38.5986Z" fill="#305970"/>
<path d="M-34.5241 30.1491L43.846 -4.45577C46.3397 -5.55689 48.9762 -6.3009 51.6777 -6.66584L235.297 -31.4708C249.64 -33.4083 263.215 -24.4746 267.11 -10.5356L272.099 7.31905C275.81 20.6026 269.652 34.6624 257.372 40.9423L148.094 96.8278C117.141 112.657 79.9787 110.11 51.4751 90.2051L-34.5241 30.1491Z" fill="#426A7F"/>
</g>
<defs>
<clipPath id="clip0_4283_395329">
<rect width="217" height="137" rx="6" fill="white"/>
</clipPath>
</defs>
</svg>
