<svg width="12" height="10" viewBox="0 0 12 10" fill="none" xmlns="http://www.w3.org/2000/svg">
<path d="M4.61591 6.60266L1.55591 3.29766C1.39406 3.12383 1.17005 3.02102 0.932711 3.01165C0.695376 3.00229 0.463961 3.08712 0.288911 3.24766C0.202564 3.32686 0.132705 3.42232 0.0833398 3.52858C0.0339749 3.63484 0.00607654 3.7498 0.00124527 3.86686C-0.003586 3.98393 0.0147449 4.10079 0.0551863 4.21076C0.0956277 4.32072 0.157384 4.42162 0.236911 4.50766L4.59191 9.21166L11.7529 1.71866C11.8338 1.63404 11.8972 1.53428 11.9395 1.4251C11.9818 1.31593 12.0022 1.19948 11.9994 1.08244C11.9966 0.965389 11.9707 0.850042 11.9233 0.743004C11.8758 0.635966 11.8078 0.539339 11.7229 0.458661C11.5505 0.294713 11.3201 0.20581 11.0822 0.211433C10.8443 0.217056 10.6184 0.316748 10.4539 0.488661L4.61591 6.60266Z" fill="#2F3747"/>
</svg>
