<svg width="16" height="16" viewBox="0 0 16 16" fill="none" xmlns="http://www.w3.org/2000/svg">
<path d="M4.66667 2.16667H6.33333H11.1626C12.0913 2.16667 12.428 2.26336 12.7675 2.44493C13.1071 2.6265 13.3735 2.89295 13.5551 3.23245C13.7366 3.57196 13.8333 3.90872 13.8333 4.83738V11.3333C13.8333 11.7936 14.2064 12.1667 14.6667 12.1667C15.1269 12.1667 15.5 11.7936 15.5 11.3333V4.77314C15.5 3.28728 15.3453 2.74847 15.0548 2.20526C14.7643 1.66205 14.338 1.23573 13.7947 0.945221C13.2515 0.654709 12.7127 0.5 11.2269 0.5H6.33333H4.66667C4.20643 0.5 3.83333 0.873096 3.83333 1.33333C3.83333 1.79357 4.20643 2.16667 4.66667 2.16667ZM3.17071 3.83333C2.43572 3.83333 2.01041 3.87381 1.56579 4.1116C1.22628 4.29317 0.959833 4.55961 0.778263 4.89912C0.540478 5.34374 0.5 5.76906 0.5 6.50405V12.8293C0.5 13.5643 0.540478 13.9896 0.778263 14.4342C0.959833 14.7737 1.22628 15.0402 1.56579 15.2217C2.01041 15.4595 2.43572 15.5 3.17071 15.5H9.49595C10.2309 15.5 10.6563 15.4595 11.1009 15.2217C11.4404 15.0402 11.7068 14.7737 11.8884 14.4342C12.1262 13.9896 12.1667 13.5643 12.1667 12.8293V6.50405C12.1667 5.76906 12.1262 5.34374 11.8884 4.89912C11.7068 4.55961 11.4404 4.29317 11.1009 4.1116C10.6563 3.87381 10.2309 3.83333 9.49595 3.83333H3.17071ZM2.35178 5.58128C2.3937 5.55887 2.427 5.54395 2.51593 5.53009C2.63089 5.51218 2.8182 5.5 3.17071 5.5H9.49595C9.84846 5.5 10.0358 5.51218 10.1507 5.53009C10.2397 5.54395 10.273 5.55887 10.3149 5.58128C10.3639 5.60752 10.3925 5.63606 10.4187 5.68512C10.4411 5.72704 10.456 5.76033 10.4699 5.84927C10.4878 5.96422 10.5 6.15154 10.5 6.50405V12.8293C10.5 13.1818 10.4878 13.3691 10.4699 13.4841C10.456 13.573 10.4411 13.6063 10.4187 13.6482C10.3925 13.6973 10.3639 13.7258 10.3149 13.752C10.273 13.7745 10.2397 13.7894 10.1507 13.8032C10.0358 13.8211 9.84846 13.8333 9.49595 13.8333H3.17071C2.8182 13.8333 2.63089 13.8211 2.51593 13.8032C2.427 13.7894 2.3937 13.7745 2.35178 13.752C2.30273 13.7258 2.27419 13.6973 2.24795 13.6482C2.22553 13.6063 2.21062 13.573 2.19676 13.4841C2.17885 13.3691 2.16667 13.1818 2.16667 12.8293V6.50405C2.16667 6.15154 2.17885 5.96422 2.19676 5.84927C2.21062 5.76034 2.22553 5.72704 2.24795 5.68512C2.27419 5.63606 2.30273 5.60752 2.35178 5.58128Z" fill="#475A80" fill-opacity="0.5"/>
</svg>
