<svg width="20" height="20" viewBox="0 0 20 20" fill="none" xmlns="http://www.w3.org/2000/svg">
<path d="M20 10C20 15.5228 15.5228 20 10 20C4.47715 20 0 15.5228 0 10C0 4.47715 4.47715 0 10 0C15.5228 0 20 4.47715 20 10ZM18 10C18 5.58172 14.4183 2 10 2C5.58172 2 2 5.58172 2 10C2 14.4183 5.58172 18 10 18C14.4183 18 18 14.4183 18 10ZM9.4618 15.5036C8.4367 15.5036 8.1001 14.8763 8.1001 14.2949C8.1001 14.0501 8.1766 13.6829 8.2378 13.4687L9.3088 8.8568H8.05518C7.89415 8.8568 7.77512 8.70679 7.81172 8.54997L7.88758 8.22499C7.91944 8.08852 8.02962 7.98421 8.16762 7.95987L11.0055 7.45931C11.3602 7.39675 11.6627 7.71836 11.5786 8.06853L10.1411 14.0502C10.1198 14.1388 10.1648 14.23 10.2481 14.267C10.3259 14.3015 10.4172 14.2798 10.471 14.2139L11.6358 12.789C11.7395 12.662 11.9221 12.6334 12.0598 12.7224C12.2122 12.8211 12.2529 13.0261 12.1498 13.1755L11.4508 14.1878C10.7164 15.2588 10.0432 15.5036 9.4618 15.5036ZM9.80005 5.6417C9.80005 6.1466 10.1978 6.575 10.9016 6.575C11.5901 6.575 12.095 6.1925 12.248 5.5805C12.2786 5.4581 12.2939 5.3204 12.2939 5.2133C12.2939 4.7084 11.8961 4.28 11.1923 4.28C10.5191 4.28 9.99895 4.6625 9.84595 5.2745C9.81535 5.3969 9.80005 5.5346 9.80005 5.6417Z" fill="#2F3747"/>
</svg>
