<svg width="16" height="16" viewBox="0 0 16 16" fill="none" xmlns="http://www.w3.org/2000/svg">
<path d="M15.2071 2.01009C15.5976 1.61956 15.5976 0.986396 15.2071 0.595872C14.8166 0.205347 14.1834 0.205347 13.7929 0.595872L8 6.38876L2.20711 0.595872C1.81658 0.205347 1.18342 0.205347 0.792893 0.595872C0.402369 0.986396 0.402369 1.61956 0.792893 2.01009L6.58579 7.80298L0.792893 13.5959C0.402369 13.9864 0.402369 14.6196 0.792893 15.0101C1.18342 15.4006 1.81658 15.4006 2.20711 15.0101L8 9.21719L13.7929 15.0101C14.1834 15.4006 14.8166 15.4006 15.2071 15.0101C15.5976 14.6196 15.5976 13.9864 15.2071 13.5959L9.41421 7.80298L15.2071 2.01009Z" fill="#475A80" fill-opacity="1"/>
</svg>
