<svg width="17" height="9" viewBox="0 0 17 9" fill="none" xmlns="http://www.w3.org/2000/svg">
<path d="M7.99992 6.60061L14.2929 0.307608C14.3852 0.212098 14.4955 0.135915 14.6175 0.0835057C14.7395 0.0310967 14.8707 0.00351091 15.0035 0.00235709C15.1363 0.00120328 15.268 0.0265052 15.3909 0.0767861C15.5138 0.127067 15.6254 0.20132 15.7193 0.295213C15.8132 0.389106 15.8875 0.500757 15.9377 0.623653C15.988 0.74655 16.0133 0.878229 16.0122 1.01101C16.011 1.14379 15.9834 1.27501 15.931 1.39701C15.8786 1.51902 15.8024 1.62936 15.7069 1.72161L9.06092 8.36861C8.92162 8.508 8.75622 8.61857 8.57417 8.69401C8.39212 8.76946 8.19698 8.80829 7.99992 8.80829C7.80286 8.80829 7.60772 8.76946 7.42567 8.69401C7.24362 8.61857 7.07822 8.508 6.93892 8.36861L0.292919 1.72161C0.110761 1.53301 0.00996641 1.2804 0.0122448 1.01821C0.0145233 0.75601 0.119692 0.505197 0.305101 0.319789C0.490509 0.134381 0.741321 0.0292122 1.00352 0.0269338C1.26571 0.0246553 1.51832 0.12545 1.70692 0.307608L7.99992 6.60061Z" fill="#000"/>
</svg>
