<svg id="Layer_1" data-name="Layer 1" xmlns="http://www.w3.org/2000/svg" viewBox="0 0 1472.47 346.83">
    <defs>
        <style>.cls-1{fill:#fff;fill-rule:evenodd;}</style>
    </defs>
    <path class="cls-1"
          d="M248.66,269c-.51.24.64,1.2.09,1.89l-1.4.31c-2.39,6.69-4.36,15-8.38,21.95A161.9,161.9,0,0,1,229.69,308c-.71.95-2.1,1.74-2.57,3.22l4.87-1.05c3.91-3.25,6.88-7.54,9.47-11.75,3.72-5.87,6.11-13,9.22-19.51,2.37,2.51,4.28,5.56,6.76,8,4.74,5.06,10.22,8.23,15,12.43.51.6,1.18,1.13,1.74,1.72l8.09-1.76c-.05-.25-.2-.58-.27-.92-3.05-2.89-5.22-7.4-8.36-10.5-2.72-2.79-6.71-4.59-10.29-8C258.91,275.27,255,266,248.66,269Zm-83.31,46.24a10.19,10.19,0,0,0,2.39-4.16c-.5-.52-.74-2.33-1.11-4.12-2.84-5.08-6.38-7.38-9.76-11.09-2.42-2.54-4.79-5.5-7.73-6.37-6.08,5.94-6.09,17.5-10.15,25.32-1.25,1.07-1.78,2.69-3.1,3.43-1.59,5.72-7,7.78-7.51,14.34l4.13-.9c2.48-2.22,4.45-4.83,6.33-6.61,2.33-2.11,3.19-3.81,4.71-6.5a134,134,0,0,0,6.53-16.22C155.5,306.12,159.6,312.7,165.35,315.28ZM136.8,252.73c-3.57,9.58-5.09,20.93-8,31-3.28,5.69-5.78,12.68-8.3,19-.87,2.28-2.07,4.23-2.7,6.46-.26,1,0,2.67-.21,3.78a14.37,14.37,0,0,0-.78,3.37c6.49-6.26,10.68-14.86,14.3-23.56,3.81-9,5-19.32,7.8-29.43,8.55,16.29,20.06,27.89,30.74,39,1.47,1.47,3,3.85,5,4.39.3-1,1.11-1.53,1.6-2.52,0-3.29-1-5.21-1.79-8.78-6.05-7.89-13-14.2-19-22.24-4.72-6.22-9.06-12.52-13.26-19.13-1.5-2.08-2.47-4.93-4.42-6.69.73,2.11,0,2.4-1.17,2.12C137,250.9,136.55,251.49,136.8,252.73Zm275.61,46.16a10.08,10.08,0,0,0,2.81-3.9c-.43-.56-.48-2.4-.66-4.21-2.3-5.34-21.08-35-24.05-39-2.14-2.77-4.19-5.95-7-7.12-6.68,5.3-7.9,16.8-12.75,24.16-1.36.94-2.06,2.5-3.45,3.1-2.18,5.53-7.77,7-9,13.51l4.2-.47c2.7-2,4.93-4.36,7-5.95,2.54-1.86,3.57-3.46,5.37-6a133.56,133.56,0,0,0,8.19-15.48C388.07,261.77,407,295.74,412.41,298.89ZM363.9,236.78c-3.86,5.33-7.08,12-10.23,18-1.11,2.18-2.51,4-3.37,6.15-.36,1-.29,2.65-.61,3.73a14.72,14.72,0,0,0-1.13,3.28c7.11-5.57,12.19-13.7,16.7-22,4.74-8.57,7-18.71,10.84-28.49,6.8,17.07,32.53,56.78,42,69,1.31,1.6,2.57,4.12,4.51,4.87.41-1,1.27-1.42,1.85-2.35.33-3.28-.42-5.29-.86-8.91-5.19-8.46-27-42.46-32.1-51.06-4-6.67-7.71-13.38-11.19-20.37-1.27-2.22-1.94-5.16-3.7-7.1.51,2.17-.24,2.39-1.38,2C375.49,205,367.81,227.08,363.9,236.78Zm-121.72-14c-3.57,9.58-5.09,20.93-8,31-3.28,5.69-5.78,12.68-8.29,19-.87,2.28-2.07,4.23-2.7,6.46-.26,1,0,2.67-.22,3.78a15,15,0,0,0-.78,3.37c6.49-6.25,10.69-14.86,14.31-23.56,3.81-9,5-19.32,7.8-29.43,8.54,16.29,20,27.89,30.74,39,1.47,1.47,3,3.85,5,4.39.3-1,1.11-1.53,1.59-2.52,0-3.29-1-5.21-1.79-8.77-6.05-7.9-13-14.21-19-22.25-4.72-6.22-9.07-12.52-13.26-19.13-1.5-2.08-2.48-4.93-4.43-6.69.73,2.11,0,2.4-1.16,2.12C242.41,221,241.92,221.59,242.18,222.82ZM88.61,140.66c7.78,8.12,14.57,16.87,23.61,20.56a5.59,5.59,0,0,0,3.06,3.6c4.23-4.67,6.57-12.43,8.91-19.78,2.32-7,4.68-14.3,7.14-21.69,4.09-12.29,8.58-25,11-38.89.38-2.18,1.09-4.4,1.34-6.14.13-5.7-2.42-8.92-4.12-13-.57,2.7-1.14,5.2-1.54,8.07-.5.31-.82.67-1.35,1-.15,3.52-2.16,5.51-3.23,8.33-.8,2.37-1.07,5.32-1.86,7.76-2.55,7.4-6.07,13.81-8.29,21.13-1.58,4.93-2.91,10.06-4.15,15.2-1.44,5-2.74,10.22-4.82,14.83a36.6,36.6,0,0,1-2.87,8.35c-6.63-3.72-11.83-10.22-17.3-16.28S83,121.82,77.47,116.06c-7.19-7.35-13.66-15.76-20-23.82-2.92-3.75-5.64-7.34-8.44-10.49L42.3,83.22A14.07,14.07,0,0,0,45.62,86c4.79,6.12,8.81,13.18,13,19.9A148.17,148.17,0,0,0,73,124.69C77.87,130.09,83.45,135.22,88.61,140.66ZM252.15,51.15c-3,13.54-8.49,25.25-12.65,37.85-3.08,9.4-6.69,19.21-8.85,28.9-.83,3.56-.53,7.57-1.73,11-5-4.29-8.49-10.77-13.15-15.81s-9.69-8.81-14.13-13.7c-8.91-9.81-16.87-23.24-29-26.27a19.32,19.32,0,0,0-2.81-2.37c-1.21,0-.18,1.64-1.37,1.52-.43-1-1.13-.67-.4.35-.72-.11-1.79-2-1.95-.24,1.35,3.66,4.89,7.08,7.2,10.13a118.78,118.78,0,0,1,14,15.62,120.7,120.7,0,0,0,14.38,15.91,125.13,125.13,0,0,1,14.55,15.52c2.19,2.7,4.4,5.9,6.71,8.37a28.87,28.87,0,0,1,3.68,3.65c1.17,1.26,2,3.48,3.55,4.3a8.35,8.35,0,0,0,3.4-1.54A8.7,8.7,0,0,0,234,138a352.9,352.9,0,0,0,14.58-44c2.08-7.61,3.91-15.12,6.05-23.43,1.84-6.84,4.81-16.62,3.7-25.21-.36-2.39-1.14-3.93-2.57-4.6-1.22,1.24-1.43,3.6-1.93,5.17C253.32,48,252.7,49.23,252.15,51.15ZM216,85c2,1.72,3.65,4.57,5.54,6.43-.34,1.08.43,2.11.66,3.24a15.81,15.81,0,0,0,3.66-.48c8.66-14.6,12.77-33,14.22-53.79l-3.48.75a14,14,0,0,0-.91,2.26c-.92-.68-.27.37-.19.36-2.36,4.07-3.87,13-8.79,15.91-1,3.26-3,6-3.69,10-.48,2.95.26,6.59-1,9.53C213.93,69,206,58.78,196.9,51a6.94,6.94,0,0,1-2.24-.8l-6.44,1.39a2.47,2.47,0,0,1,.45,1.19,5.89,5.89,0,0,1,2,3.64c3.13,3.08,5.79,6.79,9.06,9.33C205.05,72.16,209.87,80,216,85ZM402.07,60.53c-3,13.54-8.49,25.25-12.65,37.85-3.08,9.4-6.69,19.21-8.85,28.91-.83,3.55-.53,7.56-1.73,11-5-4.28-8.49-10.77-13.14-15.81s-9.7-8.81-14.14-13.69c-8.91-9.82-16.87-23.25-29.05-26.28a19.32,19.32,0,0,0-2.81-2.37c-1.21,0-.18,1.64-1.37,1.52-.43-1-1.13-.67-.4.35-.72-.11-1.79-2-1.95-.24,1.35,3.66,4.89,7.08,7.2,10.13a118.78,118.78,0,0,1,14,15.62,120.7,120.7,0,0,0,14.38,15.91A125.13,125.13,0,0,1,366.12,139c2.19,2.71,4.4,5.9,6.71,8.37a28.87,28.87,0,0,1,3.68,3.65c1.17,1.26,2,3.48,3.55,4.3a8.48,8.48,0,0,0,3.4-1.53,8.74,8.74,0,0,0,.44-6.32,352.9,352.9,0,0,0,14.58-44c2.08-7.6,3.91-15.12,6-23.43,1.84-6.84,4.81-16.62,3.7-25.21-.36-2.39-1.14-3.93-2.57-4.6-1.22,1.24-1.43,3.6-1.93,5.17C403.24,57.39,402.62,58.62,402.07,60.53Zm-36.2,33.84c2,1.71,3.65,4.56,5.54,6.42-.34,1.08.43,2.11.66,3.24a15.29,15.29,0,0,0,3.66-.48c8.66-14.6,12.77-33,14.22-53.79l-3.48.75a14.12,14.12,0,0,0-.91,2.27c-.92-.69-.27.36-.19.35C383,57.2,381.5,66.08,376.58,69c-1,3.26-3,6-3.69,10-.48,3,.26,6.59-1,9.53-8-10.26-16-20.43-25.08-28.2a6.94,6.94,0,0,1-2.24-.8L338.14,61a2.51,2.51,0,0,1,.45,1.19,5.89,5.89,0,0,1,2,3.64c3.13,3.08,5.79,6.79,9.06,9.33C355,81.54,359.79,89.33,365.87,94.37Zm-286.66,0c5.31,6.41,10.14,14.19,16.21,19.23,2,1.72,3.65,4.57,5.54,6.43-.34,1.07.43,2.1.66,3.23a14.8,14.8,0,0,0,3.66-.48c8.67-14.59,12.77-33,14.22-53.79l-3.47.75a14.11,14.11,0,0,0-.92,2.27c-.92-.69-.27.37-.19.35-2.36,4.07-3.87,13-8.79,15.91-1,3.26-3,6-3.69,10-.48,2.95.27,6.59-1,9.53-8-10.27-16-20.44-25.08-28.21a6.5,6.5,0,0,1-2.24-.8l-6.44,1.4a2.48,2.48,0,0,1,.46,1.19,5.88,5.88,0,0,1,2,3.63C73.27,88.11,75.93,91.83,79.21,94.36ZM85.39,221.1c-1.79-3.08-4.9-2.9-7.28-5.27-2.66-2.89-3.88-8.45-7.39-10.23-1.79,1.81-3.69-.09-5.65-1,.77,2.28-.92,2.25-1.13,3.72.86,1.28,1.64,2.57,2.55,4.07,0,7.2-1.33,12.91-2.3,19.17,1.46,3.77,3.73,4.35,5.68,7.13,2.12,2.79,3.79,5.49,5.95,7.6.85-.89,1.89.39,3.2,0,2.39-2.21,3-6.3,4.28-10.75C84.33,231.73,87.25,225.76,85.39,221.1Zm4.48,56.2c1.88-.31,2.13-2.68,2.57-4.33,1.78-5.86,2.46-12.05,3.63-18.35,1.53-9.85,5.74-18.41,4.65-29.46.88-2.86,3.23-4.48,3.88-7.42a28.41,28.41,0,0,0-1.26-4.89c-2.06-3.73-7.55-7-11.19-10.47-1.71-1.59-3.66-3.74-5.6-5.63-1.79-2-4.09-3.56-5.53-5.34-2.77-3.44-5-8.26-7.66-11.95-2.16-3.22-5.71-8.76-8.22-10.31-2.73-1.7-8.09-.93-10.32.84a16.25,16.25,0,0,0,.76,5c-1.76,5.74-.65,12.26-2,17.88-.65,2.72-1.82,5.06-2.44,7.91-1.26,5.87-1.46,12.09-3.11,17.52a40.57,40.57,0,0,0-2.49,8.14c-.36,3.91.52,8.25.54,12.34.83,1.77,2.05,3.29,2.64,5.56,4,1.72,7.13,5.12,11,6.43,7.2,7.37,15.57,12,22.21,20.44C84.77,272.81,86.12,277.76,89.87,277.3Zm-32.73-42c2.47-15.61,5.51-30.5,8.41-45.66,8,8.88,14.56,21,22.86,29.77,1.17,4.68-.25,8.5-.86,12.28-1.34,8.42-3.62,16.52-3.33,26.59C75.09,250.72,66.93,241.19,57.14,235.27Zm95.11-19.5c3.12,3.86,6.17,7,8.62,10.13,5.83,7.63,11.82,13.9,17.11,20.4,1,6.17,4.12,10,7.72,7.84,1.47-.85,3.14-3.88,4.63-6.07,4.27-6.17,7.77-15.65,10.68-21.26a317.41,317.41,0,0,0,13.81-28.95c.1-3.94,2.12-7.14.28-11.72-1.1-1.8-3.15-1.27-4.58-1.94-4.34-8.39-11-14.34-17-23.12-3.14-4.61-5.68-9.85-9.68-14.67-1.44-1.78-3.14-4.19-5.1-6.63-1.35-1.71-4.28-5.52-5.51-6.05-1.53-.76-3.27.28-4.67-.48-.71-.93,0-2.89-1.19-3.32-1.25-1-.33,1.76-1.65,1.65.29,1.42-1.4,1.19-1.86,1.89-.1,1.62-1,2.09-1.69,2.94-1.37,15.49-7.33,27.31-11.08,40-.9,3.18-1.48,6.28-2.32,9.36-1.42,6-5,10.86-5.25,17.59.37,2.89,2.49,4.17,4.59,6.65A64.88,64.88,0,0,1,152.25,215.77Zm2.12-13.71c6.84-13.84,11.8-29.1,16.94-44.49,4.74,4.8,7.91,12.34,12.92,16.15,4.9,5,9.46,10.44,14.91,13.92.54,3.71-2,7.55-3.85,11.15-3.31,6.59-5.79,13.27-9.15,19.86-2.43,5-4.88,8.44-5.95,14.36-2.45-1.87-4.47-5-6.49-7.7C167.5,217.8,161.29,208.92,154.37,202.06Zm24.52,14.87c2.11-2.32,2.46-4.89,3.71-8.45,2.42-7,7.77-13.07,6.23-23-4.62-5.75-8.76-12.51-14.48-15.8-.89.28-.46,2-1.28,1.74-1.25.67-1.71,2.24-3.19,2.78,1.53,6.43-1,11.34-1.7,16.83a50.16,50.16,0,0,0-4.91,13.55c3.85,4.1,8.1,7.8,11.57,13.19C176.37,217.25,177.74,218.07,178.89,216.93Zm-9.16-17.4c.9.16.67,1,.3,1.45C169.35,201,169.55,199.71,169.73,199.53ZM49,275.41c9.47,9.19,18.56,17.54,28.57,26.66,2.71,2.49,5.88,6,9.17,9.44,2.76,3,6.64,7.19,9.79,8.46,3.86,1.57,5.16-4.14,6.23-7.31,1.53-4,3-7.57,4.44-11.45,3.4-9.76,7-19.74,9.51-29.72,2.08-8.63,3.62-17.36,5.42-25.89,2-8.79,3.13-17.66,5.56-25.62,8.13,9.85,15.79,20.73,23.88,30a127.35,127.35,0,0,1,7.81,10.8c4.88,7,10.32,12.53,16.13,19.81,2.31,2.88,5.16,5.46,8.29,9.14,2.75,3.36,6.31,8.77,8.79,8.68,3.34.07,6.55-6.84,8.05-10.06,2.41-4.66,4.3-8.54,6.2-12.33Q218.87,251,229.6,225.69c3.51-8.59,5.38-18.42,9.12-27.19,6.26,6.6,11.71,15.11,18.35,22.3,6.07,6.73,13.14,12.8,19.26,20.37,5.73,7.38,11.45,14.68,18.69,21.2a136.93,136.93,0,0,1,9.92,9.95c2.1,2.26,7.8,8.85,10.3,8.61,3,0,2.67-2.53,3.26-5.37,2.24-2.79,41.82-93.78,43.72-97a6.46,6.46,0,0,0-.21-.91,2.28,2.28,0,0,0,.21-1c.06-2.55-33.22-48.5-32.57-50.79-.2-.81-.37-1.64-.49-2.47-.56-.73-1.11-1.45-1.63-2.16-1.14-1.75-2.13-3.23-3.26-5-4.1-6.16-9-10.85-14-16-5-4.95-8.68-11.7-14-15.92-2.49-2-5.08-3.94-7.72-6.33-1.24-1.22-2.28-2.48-3.72-3.66-2.51-2.15-5.26-3.13-6.92-6.86-.85.09-2,.85-2.2-.19,0-2.79.78-5.06.49-8.15-2.51.14-1.85,3.38-3.41,4.4-2.09-.92-3.54-5.28-5.54-4.73.83,1.11-1.21,2.53.46,4.34-.32.59-1.18.57-1.52,1,.33,3.48,1.63,5,3.39,7.28-1.8,6.64-3.66,13.4-6.69,19,.25,1.23-.62,1.42-.24,2.63a8.16,8.16,0,0,1-1.51,2.11c-.59,3.9-1.88,6.85-2.61,10.47-.68,3.84-.91,7.85-1.59,11.67-.83,3.55-2.21,6.92-3.34,10.25s-2.14,6.89-3.29,10.35a205.71,205.71,0,0,1-9.91,23.93c-2.2,4.66-3.94,9.7-6.89,13.63-5.11-7.74-11.56-13.54-17.45-20-3.08-3.24-5.7-7.21-8.61-10.67s-6.28-6.06-9.26-9.28c-2.81-3.18-5.54-7.26-8.36-10.91s-5.86-7-8.68-10.61-5.08-8-7.92-11.78-6-6.63-8.6-10.63a7.51,7.51,0,0,0-1.73-4.3c-.79,0-1.05-.86-2.14-.31-2.16-3.4-5.58-7-8.78-5.83-1.06.49-1.25,2.13-2.53,2,1.14,1.76-1,2.12-1.15,3.63,2.54-.64,1.68,3.82,3.47,5.4-.28,2.23-1.06,4.84-.22,7.73-.12-.67.23-.89.71-.49a7.44,7.44,0,0,1-1.3,5.72c.5.1.65-.63.87-.18-.07,2.21-1.54,1.33-1.89,3,.43,0,.55-.71.79-.17-1.58,2.61-.72,4.3-2.66,6.83-.16-.79.5-.93.49-1.6-1.79,1-1.43,3.78-1.84,5.56-.9,4.26-1.59,7.66-2.71,11.88-1.36,6.45-4.07,12-4.54,18.35a.27.27,0,0,1,.51,0c-1.46,1.7-2,4.19-2.65,6.43.8.14.76-2.15,1.29-1.28-.31,1.66-1,3.11-.85,5.36-1.16.43-.77,2.35-2,2.87a12.86,12.86,0,0,1-.43,2.32c-.91,1.26-1.26,2.94-2.08,4.41-.56,1.5-1.46,3-1.56,4.82-.4.36-1.75,3.05-.77,2,.35,0,.21-.67.46-.1-3.61,7.9-7.38,15.65-10.33,24.25-5.75-7.87-12.36-14.71-19.09-21.48C92.14,168.55,82.4,157.56,73,147c-3.17-3.49-6.66-6.61-9.82-10.28-2.78-3.07-6.22-6.79-9.72-10.41-4.17-4.16-8.24-9.11-12.81-9.32-2.43,1.62-2.71,5.15-4.42,7.32,1.11.16,2,1.14,2.54,3.12.78.69,1.9.87,2.54,2.32-.49,1.19-1.08,2.1-1.63,3.23.33-1.15-.3-.44-.43-.21-1.45,2.18-1.06,11.32-2.78,14.9-.18,1,.65.06.74,1.33-.64.22-.74,1-1.32,1.57l.45,2.17c-1.34,1.89-1.3,4.86-1.34,8,0,.52-1.28.09-.84,1.18.62,1.75-1,4.19-.53,5.67.22-.44.24-2.23.74-1.25-.24,2.63-2.32,4.67-.91,7.82-.68-.63-.82.58-1.43,1,.72,3.91-1.27,7.32-1.81,11,.15,1.57.52-.42.74.64-1.21,2.35-.5,6.47-2,8.41.71,4.11-2,8.52-1.52,12.42-.38.88-.69,1.92-1.11,2.81a4.92,4.92,0,0,0,.44,2.18,31.45,31.45,0,0,0-2.15,11c-1.15-.15-.29,1.53-1.18,1.41.48,3.19-1.57,4.16-.78,7.42a8,8,0,0,0-.62,5.2l0,.23,2.12,10.43c4.8,6.61,10.83,10.77,16.12,16.83C43,268.69,45.78,272.45,49,275.41ZM246.7,173.78c4.75-12.28,10.73-24,15.2-36.95,1.54-4.51,3.1-8.72,4.33-13.05s2.09-9.17,3.39-13.83c2.42-9,4.93-17.92,9.3-25.43,1.77.82,3.14,2.88,4.44,4.8s2.32,5.05,4.34,5.42a4.8,4.8,0,0,0,1,2.55c3.82,4.73,7.48,9.59,11.47,13.68,22.42,27.52,39.3,57.45,50.05,67.55-5.13,11.07-30.1,66.53-31,68.29-2.39,4.79-4.31,9.78-6.36,14.72-1.65-.27-2.21-2.55-3.24-3.79-1.07-1.46-2.4-2.06-3-3.84-7.2-8.62-14.7-16.64-22-25.16-3.61-4.16-7-8.7-10.82-12.64-1.95-1.76-3.84-3.84-5.77-5.69a74.88,74.88,0,0,0-5.74-5.69c-3.38-3.05-7.38-4.89-10.81-8.19s-6.24-7.32-9.85-10C242.44,181.64,245,177.89,246.7,173.78ZM143.32,137.31c0-4.24,2.83-8.34,2.53-10.86.19-.35.66-.14,1-1-.13-.68-.34-.64-.4-.12-.59-1,.65-2.72.93-3.67.43-2.29,0-4.67,1.28-5.74.22,1-.49,1.39-.29,2.35.82.22-.15-1.17.75-1-.83,4-2.5,7-2.4,11.92-.63.72-.28,2.44-1.19,2.84,0,2-.35,3.54-1.6,4.21.9,1.88-1.54,3-1.69,4.84C141.31,140,142.92,138.32,143.32,137.31Zm15.31-15.89c.55.37.3,2.11-.49,2.06C158.26,122.59,158.55,122.1,158.63,121.42Zm-15.56,19.93c-.15.32-.56,3.39-2.07,3.43A18.4,18.4,0,0,1,143.07,141.35Zm-1.93,4.09c-.19.53.18,1.54-.74,1.65C140.4,146.28,140.21,145.35,141.14,145.44Zm.37,1.81c.94.39-.41,1.37-.38,2.17C140.23,148.81,141.5,147.85,141.51,147.25Zm-5,17.07c0,.71-.42.89-1,1C135.48,164.62,135.79,164.25,136.49,164.32ZM148.56,160a290.74,290.74,0,0,0,10.82-38.75c.87-4.37,1.51-9.07,3.25-13,4,3.3,6.8,9.23,10.1,14.19,3.45,3.41,6.51,7.41,9.84,11,4.53,8.64,11.51,13.47,17.21,20.06s11.32,13.64,17.59,19.22c4.25,4.32,7.91,10.2,12.9,12.85.14.69-.07.73-.13,1.28a8.17,8.17,0,0,1-1.89,1.74,79.21,79.21,0,0,0-9.4,21.82,133.46,133.46,0,0,1-8.19,22.63c-3.19,7.22-6.06,14.74-9.24,21.74-4.15,8.64-9.48,16.33-12.75,26.15-5.72-4.81-10-12-15.18-18a100.44,100.44,0,0,1-7.5-9.27c-2.26-3.29-4.5-7.07-7-10.19s-5.28-5.79-7.69-9-4.68-6.85-7.12-9.75c-4.93-6.18-10.51-11.32-15.11-17.57C134.71,190.67,142.72,176.22,148.56,160ZM39.34,138.93c.88.3,0,1,.13,1.46C38.64,140.15,39.43,139.4,39.34,138.93Zm-.48,4.86c.52,0,.33,1.62-.38,1.48A4.9,4.9,0,0,1,38.86,143.79Zm-1,3.6c.29-.06.34.62.72.54.17.85-.63.93-.75,1.62C37.25,149.41,38,148.05,37.83,147.39Zm-2.55,20.3c-.92-2,.65-4,.62-6.1a32.11,32.11,0,0,1-1.47,10.15C34,170.83,34.88,168.66,35.28,167.69Zm-8.49,48.86c-.09.82-.28,1.57-.29,2.37C25.73,218.55,26,216.54,26.79,216.55ZM23,234.61c.62.27-.12,1.32,0,1.87C22.27,236.29,23.11,235.12,23,234.61ZM37.28,250.2c1.4-.71,2.95,2.65,4.33,3.5C40.37,254,38.66,251.05,37.28,250.2Zm6,6.34c1-.36,2.77,2.77,3.78,4.34C45.57,259.78,44.59,257.72,43.31,256.54Zm5.91,7.17c0-.89,1-.36.9.42C49.83,264.15,49.63,263.62,49.22,263.71Zm1.07,1.23c2.55,0,4.9,4.76,7.84,5.64.21-.85-1.52-2.16-2.49-2-.11-1.18-1-.58-.88-2-1.2-1-2.7-1.41-3.43-3.3-.38-.37-1-.22-1.48-.48-2.92-3.73-6-7.68-9.17-11.13a109.91,109.91,0,0,0-12.2-9.45c-.37-1.39.39-1.91-.35-3.22C36.4,206.55,42,171.88,47.22,136.53c2.16,1.29,3.49,4.4,5.82,5.28A25.88,25.88,0,0,0,60,149.13c1.33,2.69,3.43,4.11,5.3,6.1,12,13.06,23.44,29,37.15,39.59,5.58,6.62,11,14.61,18,16.5-3.43,3.1-3,9.41-5.82,13-1.36,7.28-2.29,15-3.26,22.68-1.16,3-2.46,6-2.49,10.05-2,5.4-3.11,11.35-4.6,17.18-1.53,5.4-3.73,10.5-4.67,16.66-1.37,5.37-3.43,10.26-4.73,15.92-4.85-4.33-8.94-10-13.43-14.65-.5-.34-1.26.19-1.79-.32.19-.75.67-.33.12-1.1-1.63-1.64-3.41-3.17-5.05-4.86-1.57-1.35-3.17-3.49-5.12-4a15.27,15.27,0,0,0-1.78-2.37c-.25.23-.31.56-.37,1.14-.49.11-.81-3.55-.81-1.42-.53.12-.73-.82-.43-1.28-1.73-1.72-3.33-3.24-4.91-4.85-.27,2.28,3.47,2.44,3.14,4.83C59.48,274.24,55.31,268.39,50.29,264.94Zm218.17-70.8c4.83,6.78,10.06,13.39,15.29,19.36,5.21,6.26,10,12.95,15.87,18.35a109.88,109.88,0,0,1,7.4,8.8c.73,1,1.18,3.22,2.71,3.15.6-.48,0-1.86.44-2.31a1.39,1.39,0,0,0,1.1.11c.43-.45-.42-2.09.24-2.23,2.42-4,4.82-7.67,7.11-11.45,1.41-2,16.42-38,17.56-40.32.71-20.72-.28-17.25-9-28.51A203,203,0,0,0,307.93,136c-5.16-5.19-10-11.31-15-15.77-.21-1.44-.91-1.69-1.09-3-4.52.09-5.38-8-9.94-7.65-.67,2.41-.75,5.81-1.41,8.93.14,1.35.95,1.28.93,2.46-1.54,14.41-6.16,26.44-11.42,37.9.4,1.11-.08,1.3.1,2.19-2.68,2.72-3.56,7.09-6.7,9.46-.89,2-1.3,4.19-3.22,5.14-.39.4,0,1.68-.2,2.18a1.77,1.77,0,0,0-1.71.06c.55,1.26.66,2.84-.17,3,.31,2.77,2.14,3.67,3.83,5.61C264.11,189.31,266.48,192.89,268.46,194.14Zm2.14-14.69c8.77-13.46,14.22-29.85,20.65-45.29a110.53,110.53,0,0,1,7.63,11.42c8.36,8.59,16.11,18.65,24,28.06a1.41,1.41,0,0,0,.4.72c.18.22,0,.27-.19.3.43,2.13-1.53,3.71-2.22,6-.31,1-.17,2.13-.39,3-.81,2.13-2.16,3.13-2.75,5.75a25,25,0,0,1-1,3.87c-.54,1.14-1.34,1.89-1.87,2.89-.22.85,0,2-.24,2.63s-.71,1-1,1.74c-.71,2.2-1,5-2.94,6.51-2,5.22-2.6,11.76-5.91,15.86a26.11,26.11,0,0,1-4.51-5.21c-2.77-3.44-5.4-7.23-8.45-11C284.85,198.15,278,188.12,270.6,179.45Zm36.29,13.48c1.62-3,3.32-4.46,4.14-6.77.5-3.22,2.07-6.14,1-9.72-1-3.17-4-4.82-6-7.06s-3.45-6.11-5.61-9.11c-2.13-2.82-5.21-6.69-7.5-7.8-1.29.37-2.32.13-2.42,1.2l0,0c.28,0,.53,0,.31.29a2.81,2.81,0,0,0-.31-.29h0s0,0,0,0c-1.64-1.31-2.63.6-4.43-.51-.17,2.79,1,4.49,2.11,6.12-.63,5.16-1.12,10.38-2.05,15.12a24.46,24.46,0,0,0-2.78,7.54c0,.31.14.68,0,.71.49,1.94,1.31,2.57,1.1,4.52.54.73,2,.06,2.35,1.36.06.7-.7.38,0,1.11,3.75,3.81,7,8.71,10.91,12.22.39,1.07,0,1,.53,1.75C304.05,207.81,304,197.78,306.89,192.93Zm313.4,49.82c-.53.2.54,1.24-.06,1.9l-1.42.19c-2.9,6.49-5.5,14.66-10,21.25a158.73,158.73,0,0,1-10.38,14.06c-.78.9-2.23,1.58-2.81,3l4.94-.68c4.15-2.94,7.43-7,10.34-11,4.15-5.58,7.08-12.47,10.68-18.76,2.17,2.69,3.85,5.88,6.13,8.46,4.34,5.41,9.56,9,14.05,13.55.47.64,1.09,1.21,1.6,1.84l8.21-1.13c0-.26-.17-.59-.21-.94-2.82-3.12-4.63-7.78-7.52-11.11-2.51-3-6.35-5.09-9.66-8.71C630,249.74,626.87,240.18,620.29,242.75Zm-86.61,39.73a10.08,10.08,0,0,0,2.7-4c-.45-.55-.56-2.38-.78-4.19-2.45-5.28-5.8-7.85-8.89-11.81-2.22-2.72-4.36-5.85-7.22-6.94-6.52,5.46-7.42,17-12.06,24.46-1.33,1-2,2.56-3.35,3.19-2,5.58-7.57,7.22-8.59,13.72l4.19-.57c2.64-2,4.8-4.48,6.81-6.11,2.49-1.93,3.48-3.55,5.2-6.12a133.39,133.39,0,0,0,7.75-15.67C524.56,272.59,528.14,279.47,533.68,282.48ZM510,217.92c-4.29,9.28-6.68,20.49-10.31,30.28-3.7,5.43-6.73,12.2-9.72,18.27-1,2.21-2.39,4.06-3.18,6.23-.34,1-.22,2.66-.51,3.75a14.65,14.65,0,0,0-1,3.3c6.95-5.73,11.8-14,16.07-22.38,4.49-8.69,6.5-18.88,10-28.75C518.61,245.51,529.2,258,539,269.9c1.35,1.57,2.68,4.06,4.65,4.76.38-1,1.22-1.44,1.78-2.4.23-3.28-.57-5.27-1.11-8.88-5.43-8.33-11.91-15.16-17.27-23.64-4.23-6.56-8.08-13.18-11.76-20.09-1.34-2.18-2.09-5.11-3.9-7,.56,2.15-.17,2.39-1.33,2C510.37,216.12,509.85,216.67,510,217.92Zm271.27,67.13a10,10,0,0,0,3.1-3.68c-.39-.59-.3-2.42-.33-4.24-1.89-5.5-18.34-36.51-21-40.76-1.92-2.93-3.72-6.25-6.45-7.63-7.06,4.77-9.16,16.14-14.57,23.11-1.42.83-2.24,2.34-3.66,2.83-2.61,5.35-8.29,6.42-10,12.78l4.23-.15c2.84-1.75,5.25-4,7.42-5.39,2.68-1.66,3.83-3.18,5.81-5.56a134.39,134.39,0,0,0,9.36-14.8C759.85,246.18,776.08,281.49,781.27,285.05Zm-43.61-65.64c-4.25,5-8,11.46-11.59,17.19-1.27,2.09-2.8,3.79-3.82,5.87-.44,1-.5,2.63-.9,3.68a15.18,15.18,0,0,0-1.37,3.18c7.52-5,13.2-12.72,18.33-20.64,5.38-8.19,8.44-18.12,13-27.58,5.47,17.54,28.09,59.1,36.59,72,1.18,1.7,2.24,4.31,4.12,5.2.49-1,1.37-1.31,2-2.2.57-3.24,0-5.3-.18-8.95-4.53-8.83-23.65-44.4-28.1-53.36-3.52-7-6.65-13.93-9.59-21.17-1.1-2.31-1.54-5.29-3.15-7.36.34,2.2-.42,2.36-1.53,1.88C751.65,188.59,742.3,210,737.66,219.41Zm-120.3-23.24c-4.29,9.28-6.68,20.48-10.31,30.28-3.71,5.42-6.73,12.2-9.72,18.27-1.05,2.21-2.39,4.06-3.19,6.23-.34,1-.22,2.66-.5,3.75a14.65,14.65,0,0,0-1,3.3c6.95-5.73,11.79-14,16.07-22.39,4.49-8.68,6.49-18.87,10-28.75,7.27,16.9,17.86,29.35,27.66,41.29,1.35,1.57,2.68,4.06,4.65,4.76.38-1,1.22-1.45,1.78-2.4.23-3.28-.57-5.27-1.11-8.88-5.43-8.33-11.91-15.16-17.27-23.64-4.23-6.57-8.09-13.18-11.76-20.09-1.34-2.18-2.09-5.11-3.9-7,.56,2.16-.18,2.39-1.33,2C617.73,194.37,617.2,194.92,617.36,196.17ZM470.54,102.49c7.14,8.69,13.24,17.94,22,22.31a5.58,5.58,0,0,0,2.78,3.82c4.57-4.33,7.5-11.88,10.4-19,2.85-6.84,5.76-13.9,8.77-21.07,5-11.94,10.47-24.25,14-37.94.54-2.14,1.42-4.3,1.8-6,.57-5.67-1.73-9.08-3.11-13.28-.78,2.66-1.53,5.11-2.16,7.93-.52.27-.86.61-1.42.88-.42,3.5-2.57,5.33-3.85,8.05-1,2.31-1.48,5.23-2.46,7.6-3.1,7.18-7.11,13.3-9.88,20.44C505.42,81,503.7,86,502.07,91c-1.82,4.86-3.52,10-5.94,14.42a37,37,0,0,1-3.5,8.11c-6.33-4.22-11-11.1-16-17.56s-10.23-12.69-15.31-18.86c-6.61-7.88-12.41-16.76-18.07-25.28-2.63-3.95-5.06-7.74-7.61-11.1l-6.87,1a14.25,14.25,0,0,0,3.1,3c4.3,6.47,7.78,13.82,11.47,20.84a149.53,149.53,0,0,0,12.88,19.87C460.64,91.13,465.8,96.67,470.54,102.49ZM640.45,25.77c-4,13.27-10.39,24.53-15.51,36.76-3.79,9.15-8.14,18.65-11,28.15-1.1,3.48-1.11,7.5-2.56,10.84-4.63-4.65-7.65-11.39-11.9-16.77s-9-9.53-13.05-14.74c-8.13-10.46-15-24.47-26.95-28.42A19.25,19.25,0,0,0,556.82,39c-1.2-.1-.31,1.63-1.49,1.41-.34-1.05-1.07-.75-.42.32-.71-.16-1.63-2.12-1.93-.39,1.07,3.76,4.34,7.43,6.41,10.66a118,118,0,0,1,12.77,16.64,122.26,122.26,0,0,0,13.12,17,124.27,124.27,0,0,1,13.32,16.59c2,2.86,3.94,6.21,6.06,8.86A29,29,0,0,1,608,114c1.07,1.34,1.73,3.62,3.21,4.56a8.44,8.44,0,0,0,3.51-1.28,8.69,8.69,0,0,0,.92-6.26A353.93,353.93,0,0,0,633.59,68.3c2.65-7.43,5-14.78,7.82-22.9,2.36-6.68,6.06-16.21,5.62-24.86-.17-2.41-.84-4-2.21-4.78-1.31,1.14-1.7,3.48-2.32,5C641.85,22.72,641.15,23.9,640.45,25.77Zm-38.68,31c1.89,1.87,3.28,4.84,5,6.83-.43,1,.26,2.13.41,3.28a15.14,15.14,0,0,0,3.68-.2c9.76-13.89,15.26-31.88,18.3-52.54l-3.52.48a13.54,13.54,0,0,0-1.09,2.19c-.86-.76-.3.35-.22.34-2.66,3.87-4.85,12.62-10,15.19-1.26,3.17-3.49,5.76-4.45,9.71-.7,2.9-.24,6.59-1.71,9.43-7.24-10.85-14.38-21.6-22.85-30a6.62,6.62,0,0,1-2.17-1l-6.53.9a2.5,2.5,0,0,1,.37,1.22,5.93,5.93,0,0,1,1.71,3.78c2.88,3.31,5.25,7.22,8.32,10C591.88,43.11,596.09,51.24,601.77,56.73ZM789.21,46.6c-4,13.28-10.39,24.53-15.51,36.77-3.79,9.14-8.14,18.64-11,28.14-1.1,3.49-1.1,7.5-2.56,10.84-4.63-4.65-7.65-11.39-11.9-16.77s-9-9.53-13.05-14.73c-8.13-10.47-15-24.48-26.95-28.43a19.25,19.25,0,0,0-2.62-2.58c-1.2-.09-.31,1.63-1.48,1.42-.35-1.06-1.08-.76-.43.32-.71-.17-1.63-2.12-1.93-.39,1.07,3.75,4.34,7.43,6.41,10.65a117.24,117.24,0,0,1,12.77,16.64,121.08,121.08,0,0,0,13.12,17A124.12,124.12,0,0,1,747.36,122c2,2.86,3.94,6.21,6.06,8.86a30.23,30.23,0,0,1,3.38,3.92c1.07,1.35,1.74,3.62,3.21,4.56a8.58,8.58,0,0,0,3.51-1.27,8.73,8.73,0,0,0,.92-6.27,353.25,353.25,0,0,0,17.91-42.71c2.65-7.42,5-14.78,7.82-22.9,2.36-6.68,6.07-16.2,5.62-24.85-.17-2.41-.84-4-2.21-4.78-1.31,1.14-1.7,3.47-2.32,5C790.62,43.56,789.91,44.73,789.21,46.6Zm-38.68,31c1.89,1.87,3.29,4.84,5,6.84-.42,1,.27,2.13.41,3.27a14.65,14.65,0,0,0,3.68-.2c9.76-13.88,15.26-31.88,18.3-52.54l-3.52.48a13.54,13.54,0,0,0-1.09,2.19c-.86-.75-.3.35-.21.34-2.67,3.88-4.85,12.62-10,15.19-1.27,3.18-3.5,5.77-4.45,9.71-.71,2.91-.24,6.59-1.72,9.43-7.24-10.85-14.38-21.6-22.85-30a6.86,6.86,0,0,1-2.16-1l-6.54.9a2.47,2.47,0,0,1,.37,1.22,5.88,5.88,0,0,1,1.71,3.78c2.88,3.31,5.25,7.21,8.32,10C740.64,64,744.85,72.07,750.53,77.56Zm-285.82-22c4.81,6.79,9,14.92,14.69,20.41,1.9,1.87,3.29,4.84,5,6.83-.42,1.05.27,2.14.41,3.28a15.19,15.19,0,0,0,3.69-.2c9.76-13.88,15.26-31.88,18.29-52.54l-3.52.48a14.42,14.42,0,0,0-1.08,2.19c-.87-.76-.3.35-.22.34-2.66,3.88-4.85,12.62-10,15.19-1.26,3.17-3.5,5.76-4.45,9.71-.7,2.91-.24,6.59-1.72,9.43-7.23-10.85-14.37-21.6-22.84-30a6.81,6.81,0,0,1-2.17-1l-6.53.89a2.51,2.51,0,0,1,.36,1.23,5.83,5.83,0,0,1,1.71,3.78C459.27,48.92,461.63,52.83,464.71,55.61Zm-3.54,126.84c-1.55-3.21-4.67-3.26-6.86-5.81-2.43-3.09-3.22-8.73-6.59-10.77-1.92,1.67-3.66-.37-5.55-1.43.6,2.34-1.09,2.17-1.41,3.62.76,1.34,1.44,2.7,2.23,4.25-.55,7.19-2.32,12.78-3.76,18.95,1.16,3.87,3.39,4.62,5.12,7.54,1.9,2.94,3.36,5.77,5.35,8,.92-.82,1.85.54,3.19.27,2.55-2,3.49-6.06,5.08-10.4C459.29,193,462.66,187.24,461.17,182.45Zm.16,56.38c1.9-.17,2.33-2.51,2.89-4.13,2.23-5.7,3.38-11.82,5-18,2.28-9.7,7.13-17.92,6.89-29,1.1-2.79,3.56-4.22,4.43-7.1a26.63,26.63,0,0,0-.88-5c-1.76-3.88-7-7.55-10.35-11.3-1.58-1.71-3.36-4-5.15-6-1.63-2.14-3.81-3.87-5.11-5.75-2.5-3.64-4.31-8.61-6.72-12.5-1.91-3.37-5-9.17-7.41-10.91-2.59-1.9-8-1.55-10.35.05a16.19,16.19,0,0,0,.38,5c-2.2,5.59-1.59,12.17-3.33,17.68-.86,2.66-2.19,4.9-3,7.7-1.7,5.76-2.38,11.95-4.44,17.23a40,40,0,0,0-3.1,7.93c-.66,3.86-.11,8.26-.41,12.34.69,1.83,1.79,3.43,2.21,5.74,3.83,2,6.71,5.66,10.45,7.25,6.61,7.91,14.6,13.17,20.57,22.09C456.59,234,457.56,239,461.33,238.83Zm-29.42-44.42c3.66-15.37,7.84-30,11.89-44.88,7.32,9.48,12.9,22.08,20.51,31.43.81,4.76-.9,8.46-1.8,12.18-2,8.3-4.87,16.2-5.36,26.26C448.63,211.19,441.22,201.07,431.91,194.41Zm96.33-12.16c2.81,4.09,5.62,7.43,7.82,10.77,5.23,8,10.71,14.76,15.49,21.64.57,6.24,3.34,10.33,7.11,8.41,1.52-.74,3.42-3.63,5.08-5.7,4.72-5.82,8.94-15,12.27-20.37a315.4,315.4,0,0,0,16-27.82c.41-3.91,2.67-6.94,1.19-11.65-1-1.89-3-1.52-4.43-2.29-3.68-8.7-9.81-15.14-15.19-24.36-2.77-4.83-4.9-10.25-8.52-15.36-1.3-1.88-2.81-4.42-4.58-7-1.21-1.81-3.84-5.83-5-6.46-1.47-.87-3.28,0-4.62-.83-.63-1,.19-2.88-.94-3.41-1.16-1.11-.46,1.73-1.77,1.52.18,1.44-1.48,1.08-2,1.74-.23,1.61-1.2,2-1.91,2.81-2.55,15.33-9.4,26.67-14.11,39-1.15,3.1-2,6.15-3,9.15-1.87,5.83-5.81,10.45-6.59,17.14.15,2.91,2.17,4.35,4.07,7A63.52,63.52,0,0,1,528.24,182.25Zm3.16-13.51c7.89-13.27,14-28.11,20.3-43.05,4.35,5.14,6.94,12.9,11.64,17.08,4.5,5.35,8.64,11.14,13.81,15,.25,3.74-2.57,7.38-4.7,10.82-3.8,6.32-6.79,12.78-10.64,19.1-2.81,4.77-5.51,8-7,13.87-2.3-2.06-4.07-5.32-5.88-8.19C543.29,185.44,537.78,176.11,531.4,168.74Zm23.31,16.71c2.29-2.15,2.82-4.68,4.35-8.14,2.94-6.77,8.75-12.43,8-22.42-4.17-6.09-7.78-13.14-13.23-16.86-.91.22-.61,1.93-1.41,1.64-1.3.57-1.87,2.1-3.39,2.53,1,6.53-1.88,11.23-3,16.64A50.54,50.54,0,0,0,540.08,172c3.52,4.39,7.48,8.4,10.53,14C552.17,185.58,553.48,186.5,554.71,185.45Zm-7.8-18c.88.23.6,1,.19,1.47C546.42,168.87,546.72,167.56,546.91,167.4ZM420.7,233.81c8.74,9.89,17.15,18.91,26.44,28.77,2.51,2.69,5.4,6.41,8.42,10.12,2.53,3.16,6.07,7.67,9.12,9.18,3.72,1.86,5.45-3.73,6.77-6.81,1.82-3.84,3.51-7.32,5.3-11.08,4.14-9.47,8.47-19.14,11.76-28.9,2.73-8.44,4.94-17,7.38-25.4,2.67-8.61,4.47-17.37,7.51-25.12,7.35,10.44,14.15,21.87,21.52,31.69a128.37,128.37,0,0,1,7,11.37c4.32,7.35,9.33,13.28,14.56,21,2.08,3,4.73,5.83,7.56,9.74,2.49,3.56,5.63,9.23,8.11,9.33,3.32.33,7-6.32,8.79-9.42,2.77-4.45,4.94-8.18,7.13-11.81,9.29-16,18.13-32.06,26.57-48.4,4.16-8.29,6.78-17.95,11.18-26.4,5.73,7.06,10.51,16,16.59,23.63,5.54,7.18,12.12,13.78,17.64,21.79,5.15,7.8,10.29,15.52,17,22.57a134.84,134.84,0,0,1,9.13,10.68c1.92,2.41,7.1,9.42,9.61,9.38,3,.21,2.86-2.33,3.66-5.11,2.45-2.61,48.88-90.31,51-93.38a7.34,7.34,0,0,0-.14-.93,2.46,2.46,0,0,0,.28-1c.25-2.53-29.41-50.9-28.59-53.13-.13-.82-.24-1.66-.3-2.5l-1.46-2.27c-1-1.84-1.87-3.39-2.87-5.2-3.61-6.46-8.17-11.51-12.7-17-4.63-5.33-7.76-12.33-12.77-17-2.32-2.22-4.76-4.32-7.21-6.9a51.38,51.38,0,0,0-3.43-3.94c-2.34-2.33-5-3.52-6.38-7.37-.85,0-2,.7-2.17-.36.24-2.77,1.16-5,1.11-8.09-2.52-.05-2.1,3.23-3.74,4.13-2-1.08-3.12-5.53-5.16-5.14.74,1.17-1.4,2.43.12,4.37-.35.55-1.21.47-1.59.92.06,3.5,1.24,5.11,2.82,7.53-2.3,6.48-4.67,13.08-8.13,18.44.16,1.25-.72,1.37-.44,2.61a8,8,0,0,1-1.66,2c-.89,3.85-2.4,6.69-3.41,10.25-1,3.78-1.5,7.75-2.48,11.51-1.09,3.48-2.73,6.73-4.11,10s-2.66,6.7-4.07,10.06a202.64,202.64,0,0,1-11.72,23.1c-2.55,4.48-4.66,9.37-7.9,13.06-4.51-8.1-10.49-14.39-15.87-21.28-2.82-3.47-5.14-7.63-7.77-11.3s-5.8-6.53-8.53-10c-2.55-3.37-5-7.65-7.49-11.51S567.38,86.9,564.85,83s-4.46-8.38-7-12.35-5.53-7.07-7.76-11.25a7.48,7.48,0,0,0-1.4-4.42c-.78-.09-1-.94-2.11-.47-1.89-3.56-5-7.45-8.31-6.5-1.09.42-1.41,2-2.67,1.82,1,1.84-1.19,2-1.43,3.53,2.59-.44,1.39,3.93,3.05,5.65-.45,2.2-1.42,4.75-.81,7.69-.07-.68.29-.87.74-.43a7.46,7.46,0,0,1-1.73,5.61c.49.13.7-.59.88-.13-.23,2.21-1.64,1.22-2.11,2.86.43,0,.6-.68.8-.11-1.78,2.48-1,4.22-3.18,6.6-.1-.8.57-.89.61-1.55-1.85.82-1.71,3.65-2.26,5.4-1.22,4.18-2.17,7.51-3.61,11.63-1.85,6.33-5,11.66-5.94,17.95a.28.28,0,0,1,.52,0c-1.59,1.58-2.31,4-3.14,6.2.79.2.93-2.08,1.39-1.18-.44,1.64-1.25,3-1.26,5.28-1.19.34-1,2.28-2.17,2.72a13.86,13.86,0,0,1-.61,2.27c-1,1.19-1.48,2.84-2.41,4.24-.67,1.45-1.69,2.86-1.93,4.69-.43.33-2,2.91-.91,1.88.34,0,.26-.65.46-.06-4.2,7.59-8.56,15-12.15,23.38-5.13-8.28-11.2-15.6-17.39-22.87-9.08-10.59-18-22.29-26.56-33.52-2.9-3.72-6.14-7.09-9-11-2.54-3.27-5.68-7.24-8.89-11.12-3.84-4.47-7.52-9.71-12.06-10.27-2.55,1.42-3.1,4.92-5,7,1.1.25,1.91,1.3,2.29,3.31.73.75,1.83,1,2.36,2.5-.58,1.16-1.24,2-1.87,3.11.41-1.13-.27-.47-.42-.25-1.61,2.07-1.92,11.21-3.91,14.64-.26,1,.65.11.64,1.38-.66.18-.82,1-1.44,1.47l.28,2.2c-1.48,1.79-1.66,4.75-1.95,7.9-.06.52-1.28,0-.93,1.12.49,1.79-1.27,4.1-.95,5.61.24-.43.4-2.2.83-1.19-.44,2.61-2.68,4.47-1.51,7.73-.63-.68-.87.52-1.5.91.41,4-1.83,7.2-2.65,10.83,0,1.57.55-.39.68.69-1.38,2.25-1,6.41-2.67,8.22.39,4.16-2.66,8.35-2.47,12.27-.45.85-.83,1.87-1.32,2.73a4.79,4.79,0,0,0,.28,2.2,31.5,31.5,0,0,0-3,10.81c-1.14-.24-.41,1.5-1.29,1.31.23,3.21-1.88,4-1.34,7.33a8.08,8.08,0,0,0-1,5.15l0,.22L397.92,205c4.28,6.95,10,11.56,14.78,18C415.29,226.66,417.74,230.62,420.7,233.81Zm204.93-86.19c5.67-11.88,12.53-23.08,18-35.68,1.88-4.38,3.76-8.45,5.32-12.68,1.71-4.34,2.79-9,4.43-13.53,3.12-8.83,6.29-17.49,11.23-24.64,1.7.95,2.9,3.11,4,5.12s1.93,5.22,3.92,5.74a4.84,4.84,0,0,0,.83,2.62c3.45,5,6.73,10.13,10.39,14.52,20.25,29.15,34.78,60.3,44.73,71.19-6,10.64-35.11,64-36.15,65.71-2.75,4.59-5,9.42-7.47,14.19-1.62-.39-2-2.71-2.93-4-1-1.53-2.24-2.24-2.72-4.06-6.52-9.14-13.39-17.72-20-26.77-3.28-4.42-6.35-9.21-9.82-13.43-1.82-1.9-3.54-4.11-5.32-6.11a73.73,73.73,0,0,0-5.28-6.11c-3.14-3.3-7-5.45-10.16-9s-5.66-7.78-9.06-10.73C620.78,155.13,623.57,151.59,625.63,147.62ZM525.35,103.35c.32-4.23,3.45-8.11,3.35-10.64.21-.34.67-.09,1-.91-.08-.69-.29-.66-.39-.14-.51-1,.85-2.67,1.2-3.59.62-2.26.4-4.66,1.73-5.63.13,1-.6,1.35-.48,2.32.81.29-.06-1.18.83-.9-1.14,3.88-3,6.77-3.31,11.7-.68.67-.46,2.41-1.4,2.74-.14,2-.63,3.51-1.92,4.08.75,1.94-1.77,2.9-2,4.69C523.14,105.82,524.87,104.31,525.35,103.35Zm16.48-14.68c.51.41.13,2.13-.65,2C541.37,89.8,541.7,89.34,541.83,88.67Zm-17.05,18.68c-.17.31-.82,3.34-2.32,3.26A18.72,18.72,0,0,1,524.78,107.35Zm-2.24,3.93c-.23.51.07,1.55-.86,1.58C521.75,112.06,521.63,111.12,522.54,111.28Zm.23,1.83c.92.47-.51,1.34-.54,2.14C521.38,114.57,522.72,113.71,522.77,113.11Zm-6.3,16.64c-.09.71-.49.85-1,.93C515.43,130,515.77,129.62,516.47,129.75Zm12.35-3.37a289.33,289.33,0,0,0,13.76-37.82c1.21-4.29,2.2-8.92,4.24-12.73,3.77,3.6,6.08,9.73,9,14.93,3.19,3.66,5.93,7.89,9,11.77,3.85,9,10.44,14.31,15.62,21.31s10.25,14.48,16.07,20.51c3.91,4.64,7.11,10.78,11.88,13.81.08.69-.13.72-.23,1.26a7.82,7.82,0,0,1-2,1.59,79.59,79.59,0,0,0-11,21,133.6,133.6,0,0,1-9.9,21.94c-3.73,7-7.17,14.23-10.88,21-4.8,8.29-10.7,15.55-14.71,25.09-5.34-5.23-9.09-12.74-13.76-19.07a100.76,100.76,0,0,1-6.77-9.81c-2-3.46-3.95-7.4-6.15-10.7s-4.82-6.17-7-9.52-4.14-7.19-6.36-10.26c-4.44-6.54-9.61-12.1-13.71-18.69C512.67,155.89,521.76,142.09,528.82,126.38ZM421.54,97c.86.36-.05,1,0,1.46C420.75,98.16,421.6,97.47,421.54,97Zm-.84,4.81c.51,0,.2,1.63-.5,1.44A4.85,4.85,0,0,1,420.7,101.81Zm-1.31,3.51c.29,0,.3.64.67.58.11.86-.7.89-.87,1.57C418.66,107.28,419.48,106,419.39,105.32Zm-4.09,20c-.77-2,.95-4,1.07-6a31.42,31.42,0,0,1-2.24,10C413.8,128.39,414.82,126.3,415.3,125.36Zm-12.22,48.06c-.15.81-.4,1.55-.47,2.35C401.88,175.34,402.31,173.35,403.08,173.42Zm-5.14,17.73c.59.31-.23,1.3-.16,1.86C397.07,192.76,398,191.66,397.94,191.15Zm13,16.62c1.45-.59,2.74,2.87,4,3.84C413.77,211.78,412.28,208.74,411,207.77Zm5.53,6.79c1.07-.28,2.55,3,3.43,4.62C418.5,218,417.68,215.84,416.5,214.56Zm5.34,7.6c0-.88,1-.28.87.49C422.41,222.65,422.26,222.1,421.84,222.16Zm1,1.31c2.55.22,4.52,5.13,7.39,6.22.28-.83-1.35-2.27-2.33-2.22,0-1.18-1-.66-.72-2.05-1.12-1.12-2.59-1.62-3.17-3.55-.35-.4-1-.3-1.44-.6-2.62-3.93-5.4-8.11-8.29-11.79a109.67,109.67,0,0,0-11.44-10.36c-.26-1.42.53-1.87-.11-3.23,10.73-31.7,19-65.84,26.89-100.68,2.05,1.45,3.13,4.65,5.4,5.7a25.53,25.53,0,0,0,6.34,7.83c1.12,2.79,3.1,4.36,4.82,6.49,11,14,21.15,30.76,34,42.32,5,7,9.81,15.4,16.72,17.83-3.65,2.83-3.71,9.15-6.79,12.47-1.92,7.15-3.43,14.77-5,22.36-1.39,2.91-2.9,5.75-3.25,9.83-2.36,5.24-4,11.08-5.9,16.78C474,242.09,471.43,247,470,253.08c-1.78,5.24-4.21,10-5.94,15.51-4.51-4.69-8.15-10.64-12.27-15.64-.47-.38-1.27.09-1.76-.46.25-.73.69-.27.21-1.08-1.5-1.77-3.16-3.43-4.66-5.24-1.47-1.46-2.9-3.72-4.81-4.33a15.15,15.15,0,0,0-1.59-2.51c-.27.22-.36.54-.46,1.12-.5.07-.53-3.61-.7-1.48-.54.07-.66-.88-.33-1.32-1.59-1.84-3.07-3.48-4.53-5.21-.44,2.26,3.28,2.71,2.77,5.06C431.26,233.45,427.55,227.29,422.81,223.47Zm223-53.88c4.3,7.13,9,14.11,13.77,20.47,4.71,6.64,9,13.68,14.41,19.51a107.89,107.89,0,0,1,6.71,9.35c.65,1.05.93,3.29,2.46,3.34.63-.43.12-1.85.61-2.27a1.4,1.4,0,0,0,1.1.2c.46-.42-.27-2.12.4-2.21,2.72-3.79,5.39-7.28,8-10.88,1.57-1.93,19.28-36.68,20.59-38.85,2.3-20.61,1.05-17.22-6.77-29.11a202.27,202.27,0,0,0-17.44-24.53c-4.75-5.57-9.09-12-13.79-16.87-.09-1.46-.77-1.76-.85-3.13-4.51-.26-4.76-8.34-9.32-8.39-.86,2.35-1.2,5.73-2.09,8.79,0,1.36.85,1.36.74,2.53-2.65,14.25-8.18,25.89-14.29,36.91.31,1.14-.18,1.3-.07,2.2-2.88,2.5-4.09,6.79-7.4,8.92-1,1.89-1.62,4.08-3.61,4.88-.42.36-.09,1.67-.37,2.15a1.78,1.78,0,0,0-1.71-.07c.46,1.3.45,2.88-.39,3,.09,2.8,1.84,3.83,3.38,5.9C641.79,164.43,643.88,168.18,645.76,169.59ZM649,155.11c9.77-12.75,16.47-28.68,24.06-43.58a110.39,110.39,0,0,1,6.74,12c7.67,9.2,14.63,19.83,21.75,29.81a1.48,1.48,0,0,0,.35.75c.16.24,0,.26-.22.29.27,2.15-1.81,3.58-2.67,5.85-.39,1-.34,2.11-.62,2.94-1,2.06-2.39,3-3.18,5.52a24.18,24.18,0,0,1-1.31,3.78c-.63,1.09-1.49,1.78-2.09,2.74-.28.83-.14,1.95-.44,2.61s-.78.89-1.16,1.65c-.88,2.14-1.34,4.87-3.43,6.26-2.35,5.06-3.5,11.54-7.1,15.37a26.32,26.32,0,0,1-4.11-5.54c-2.5-3.64-4.83-7.62-7.58-11.59C661.8,174.84,655.75,164.31,649,155.11Zm35.15,16.21c1.85-2.89,3.65-4.19,4.65-6.43.75-3.17,2.53-6,1.69-9.62-.71-3.23-3.62-5.11-5.41-7.5s-3-6.35-4.9-9.5c-1.91-3-4.68-7.08-6.88-8.36-1.31.27-2.32,0-2.5,1l0,0c.28,0,.53,0,.29.3l-.29-.3h-.05s0,0,0,0c-1.53-1.43-2.67.39-4.38-.85-.38,2.77.65,4.56,1.63,6.27-1,5.1-1.9,10.26-3.2,14.91a24.8,24.8,0,0,0-3.34,7.31c0,.31.08.69-.09.71.34,2,1.11,2.66.75,4.59.48.77,2,.21,2.24,1.54,0,.7-.73.32-.08,1.1,3.45,4.09,6.31,9.22,9.94,13,.31,1.1-.09,1,.4,1.79C680.21,185.94,680.91,175.93,684.17,171.32Zm304.67,65.13c-.55.16.43,1.28-.22,1.88l-1.44.08c-3.42,6.23-6.69,14.15-11.76,20.34a163.05,163.05,0,0,1-11.51,13.15c-.86.83-2.35,1.39-3.06,2.78l5-.27c4.38-2.58,8-6.35,11.22-10.09,4.6-5.21,8.09-11.84,12.2-17.8,1.94,2.85,3.35,6.17,5.41,8.94,3.88,5.75,8.78,9.75,12.88,14.67.41.67,1,1.29,1.43,2l8.28-.44c0-.26-.11-.6-.13-.95-2.55-3.34-4-8.14-6.58-11.7-2.24-3.19-5.89-5.6-8.89-9.49C998,244.23,995.61,234.43,988.84,236.45Zm-89.62,32.4a9.92,9.92,0,0,0,3-3.73c-.4-.59-.35-2.42-.43-4.24-2-5.47-5.12-8.3-7.88-12.5-2-2.9-3.85-6.19-6.61-7.53-7,4.9-8.8,16.32-14.05,23.39-1.4.86-2.19,2.38-3.61,2.89-2.48,5.4-8.14,6.57-9.69,13l4.22-.23c2.8-1.8,5.16-4.06,7.3-5.52,2.64-1.72,3.75-3.25,5.69-5.67a135.05,135.05,0,0,0,9-15C891,258.24,894,265.39,899.22,268.85ZM881,202.55c-5,8.89-8.36,19.86-12.79,29.32-4.14,5.1-7.72,11.6-11.2,17.4-1.23,2.12-2.72,3.85-3.69,5.95-.43,1-.45,2.63-.82,3.69a15,15,0,0,0-1.31,3.21c7.41-5.14,12.92-13,17.87-21,5.2-8.29,8-18.27,12.39-27.82,5.84,17.44,15.36,30.72,24.14,43.44,1.21,1.67,2.33,4.27,4.23,5.13.46-1,1.34-1.34,2-2.24.5-3.25-.14-5.3-.37-8.95-4.72-8.75-10.62-16.1-15.26-25-3.67-6.89-6.95-13.81-10-21-1.15-2.28-1.65-5.26-3.3-7.3.38,2.2-.37,2.37-1.49,1.91C881.51,200.79,880.94,201.29,881,202.55ZM1145.75,292a10.14,10.14,0,0,0,3.4-3.4c-.34-.63-.1-2.44,0-4.26-1.42-5.64-15.24-37.91-17.54-42.36-1.67-3.08-3.18-6.54-5.8-8.15-7.42,4.17-10.46,15.33-16.43,21.83-1.48.71-2.42,2.14-3.89,2.51-3,5.12-8.79,5.71-11,11.91l4.23.2c3-1.51,5.56-3.52,7.84-4.75,2.81-1.44,4.08-2.85,6.26-5.06a135.58,135.58,0,0,0,10.55-14C1127.62,251.45,1140.87,288,1145.75,292Zm-38-69c-4.66,4.65-8.9,10.75-13,16.17-1.44,2-3.11,3.55-4.29,5.53-.53.94-.72,2.58-1.2,3.6a14.77,14.77,0,0,0-1.64,3.05c7.91-4.36,14.21-11.59,20-19.05,6-7.71,9.91-17.35,15.23-26.4,4,17.93,23.08,61.23,30.49,74.75,1,1.79,1.88,4.48,3.68,5.53.56-.93,1.47-1.2,2.2-2,.84-3.18.42-5.28.56-8.93-3.77-9.18-19.88-46.21-23.57-55.51-2.93-7.23-5.48-14.43-7.8-21.9-.91-2.39-1.1-5.39-2.53-7.59.16,2.22-.61,2.32-1.68,1.74C1124.24,193.37,1113.14,214,1107.74,222.93Zm-118-33.15c-5,8.89-8.35,19.86-12.79,29.33-4.14,5.09-7.72,11.59-11.2,17.4-1.23,2.11-2.72,3.84-3.69,5.94-.42,1-.44,2.63-.82,3.7a14.55,14.55,0,0,0-1.3,3.2c7.4-5.14,12.91-13,17.87-21,5.19-8.28,8-18.27,12.38-27.82,5.84,17.45,15.36,30.73,24.14,43.44,1.21,1.68,2.33,4.27,4.23,5.13.47-1,1.34-1.34,2-2.24.5-3.25-.13-5.3-.37-8.95-4.72-8.75-10.61-16.09-15.25-25-3.67-6.9-7-13.81-10.06-21-1.15-2.29-1.65-5.27-3.3-7.31.39,2.2-.37,2.37-1.49,1.91C990.3,188,989.73,188.53,989.78,189.78ZM851.24,84.24c6.39,9.26,11.7,19,20,24.06a5.56,5.56,0,0,0,2.45,4c4.91-3.94,8.46-11.22,11.94-18.11,3.41-6.58,6.89-13.38,10.5-20.28,6-11.48,12.44-23.29,17.09-36.64.72-2.09,1.77-4.17,2.29-5.85,1-5.6-1-9.19-2-13.49-1,2.58-2,5-2.82,7.72-.54.23-.9.53-1.48.76-.71,3.45-3,5.1-4.51,7.71-1.17,2.21-1.9,5.08-3.08,7.36-3.69,6.9-8.18,12.67-11.54,19.55-2.34,4.61-4.47,9.47-6.51,14.34-2.22,4.69-4.34,9.66-7.12,13.87a36.87,36.87,0,0,1-4.16,7.8c-6-4.73-10.06-12-14.5-18.83s-9.14-13.5-13.69-20.06c-5.93-8.41-11-17.73-15.91-26.69-2.29-4.17-4.4-8.14-6.66-11.7l-6.93.37a14.39,14.39,0,0,0,2.84,3.25c3.76,6.8,6.61,14.41,9.71,21.71A149.19,149.19,0,0,0,838.38,66C842.32,72.1,847,78.05,851.24,84.24Zm175.69-62.35c-5.09,12.89-12.39,23.58-18.5,35.35-4.54,8.79-9.67,17.91-13.34,27.13-1.39,3.38-1.73,7.38-3.46,10.59-4.23-5-6.67-12-10.46-17.7S973,67,969.39,61.49c-7.23-11.1-12.95-25.63-24.5-30.56a19,19,0,0,0-2.4-2.78c-1.19-.2-.44,1.59-1.59,1.28-.26-1.08-1-.84-.46.28-.69-.22-1.45-2.25-1.88-.55.75,3.83,3.7,7.77,5.49,11.15A118.06,118.06,0,0,1,955.41,58a121,121,0,0,0,11.66,18A125.29,125.29,0,0,1,979,93.59c1.73,3,3.4,6.52,5.3,9.33a30.8,30.8,0,0,1,3.05,4.19c.94,1.43,1.42,3.76,2.82,4.81a8.35,8.35,0,0,0,3.6-1,8.75,8.75,0,0,0,1.43-6.16,352.14,352.14,0,0,0,21.4-41.08c3.25-7.18,6.26-14.31,9.69-22.17,2.91-6.46,7.39-15.65,7.67-24.3,0-2.42-.51-4.07-1.82-5-1.39,1-2,3.32-2.72,4.8C1028.58,19,1027.79,20.08,1026.93,21.89ZM985.81,49.53c1.74,2,2.88,5.09,4.45,7.23-.51,1,.09,2.15.14,3.3a15.3,15.3,0,0,0,3.68.11c10.88-13,17.86-30.51,22.6-50.85l-3.55.19a14.1,14.1,0,0,0-1.27,2.09c-.79-.82-.32.32-.24.32-3,3.64-5.88,12.18-11.2,14.31-1.53,3.06-4,5.46-5.25,9.31-.93,2.84-.78,6.55-2.49,9.25C986.37,33.38,980.15,22.08,972.41,13a6.65,6.65,0,0,1-2.08-1.15l-6.58.36a2.46,2.46,0,0,1,.25,1.24,5.88,5.88,0,0,1,1.4,3.91C968,20.86,970,25,972.86,28,977.09,35.14,980.62,43.59,985.81,49.53ZM1173.45,55c-5.09,12.89-12.39,23.58-18.5,35.35-4.54,8.79-9.67,17.9-13.34,27.13-1.39,3.38-1.73,7.38-3.46,10.58-4.23-5-6.67-12-10.46-17.69s-8.17-10.24-11.78-15.77c-7.23-11.1-13-25.63-24.5-30.56a19.1,19.1,0,0,0-2.4-2.79c-1.19-.2-.44,1.59-1.6,1.29-.25-1.08-1-.84-.45.28-.69-.22-1.45-2.25-1.88-.55.75,3.83,3.7,7.76,5.49,11.15a118.47,118.47,0,0,1,11.36,17.64,120.54,120.54,0,0,0,11.66,18,124.14,124.14,0,0,1,11.9,17.64c1.73,3,3.4,6.52,5.3,9.33a30.2,30.2,0,0,1,3,4.19c.94,1.43,1.42,3.75,2.82,4.81a8.26,8.26,0,0,0,3.59-1,8.71,8.71,0,0,0,1.44-6.17,351.14,351.14,0,0,0,21.4-41.07c3.25-7.18,6.25-14.31,9.69-22.17,2.91-6.47,7.39-15.65,7.67-24.31,0-2.41-.51-4.06-1.82-4.94-1.39,1-2,3.32-2.72,4.8C1175.1,52.08,1174.31,53.19,1173.45,55Zm-41.12,27.64c1.74,2,2.88,5.09,4.45,7.23-.51,1,.09,2.14.14,3.29a14.81,14.81,0,0,0,3.68.11c10.88-13,17.86-30.5,22.6-50.84l-3.55.19a14.1,14.1,0,0,0-1.27,2.09c-.79-.83-.32.32-.24.32-3,3.64-5.88,12.17-11.2,14.31-1.53,3.06-4,5.45-5.25,9.31-.94,2.83-.78,6.55-2.49,9.25-6.31-11.41-12.53-22.72-20.27-31.83a6.85,6.85,0,0,1-2.08-1.15l-6.59.35a2.4,2.4,0,0,1,.26,1.25,5.89,5.89,0,0,1,1.4,3.91c2.6,3.54,4.63,7.62,7.46,10.65C1123.61,68.25,1127.13,76.7,1132.33,82.64ZM849.32,37c4.23,7.17,7.75,15.62,12.95,21.56,1.74,2,2.88,5.09,4.45,7.23-.51,1,.09,2.15.13,3.3a15.39,15.39,0,0,0,3.69.11c10.88-13,17.86-30.51,22.6-50.85l-3.55.19a14.1,14.1,0,0,0-1.27,2.09c-.79-.82-.32.32-.24.32-3,3.64-5.88,12.18-11.21,14.31-1.52,3.06-4,5.46-5.24,9.31-.94,2.84-.78,6.55-2.49,9.25C862.83,42.45,856.6,31.15,848.87,22a6.65,6.65,0,0,1-2.08-1.15l-6.59.35a2.4,2.4,0,0,1,.26,1.25,5.88,5.88,0,0,1,1.39,3.91C844.45,29.93,846.49,34,849.32,37ZM835.27,163.15c-1.28-3.33-4.38-3.64-6.36-6.36-2.16-3.28-2.48-9-5.67-11.28-2,1.51-3.62-.67-5.41-1.88.4,2.37-1.26,2.07-1.71,3.49.65,1.4,1.21,2.8,1.87,4.42-1.14,7.11-3.37,12.54-5.32,18.56.84,4,3,4.89,4.48,8,1.65,3.08,2.87,6,4.66,8.45,1-.75,1.81.68,3.16.52,2.71-1.8,4-5.74,5.93-9.93C832.53,173.48,836.36,168.05,835.27,163.15Zm-4.52,56.2c1.9,0,2.53-2.31,3.22-3.87,2.69-5.5,4.35-11.51,6.51-17.54,3.07-9.48,8.59-17.26,9.27-28.35,1.33-2.68,3.9-3.91,5-6.71a27.89,27.89,0,0,0-.46-5c-1.44-4-6.34-8.1-9.39-12.11-1.43-1.84-3-4.28-4.62-6.46-1.45-2.27-3.48-4.17-4.62-6.15-2.19-3.84-3.58-8.94-5.66-13-1.62-3.52-4.24-9.56-6.48-11.49-2.42-2.11-7.84-2.21-10.31-.82a16.37,16.37,0,0,0-.05,5.06c-2.65,5.38-2.59,12-4.78,17.33-1.08,2.58-2.59,4.71-3.67,7.42-2.17,5.6-3.36,11.72-5.86,16.81a40.5,40.5,0,0,0-3.74,7.64c-1,3.8-.8,8.23-1.44,12.27.54,1.88,1.51,3.57,1.73,5.91,3.65,2.33,6.22,6.19,9.81,8.09,5.93,8.43,13.46,14.33,18.67,23.71C826.43,214.1,827,219.2,830.75,219.35Zm-25.63-46.71c4.92-15,10.29-29.23,15.57-43.74,6.51,10,11,23.08,17.83,33,.41,4.81-1.6,8.35-2.8,12-2.67,8.1-6.2,15.73-7.52,25.72C820.38,190.75,813.85,180.05,805.12,172.64Zm97-4.12c2.47,4.31,5,7.87,6.91,11.38,4.54,8.46,9.45,15.59,13.64,22.85.05,6.27,2.47,10.58,6.38,9,1.58-.61,3.71-3.33,5.53-5.26,5.19-5.41,10.16-14.21,13.92-19.28a315.79,315.79,0,0,0,18.24-26.39c.73-3.87,3.24-6.7,2.15-11.52-.8-2-2.91-1.76-4.22-2.65-2.95-9-8.53-15.9-13.12-25.53-2.36-5-4-10.62-7.21-16-1.15-2-2.44-4.63-4-7.36-1.06-1.9-3.35-6.13-4.48-6.85-1.39-1-3.26-.24-4.53-1.22-.55-1,.43-2.85-.65-3.46-1.07-1.21-.61,1.68-1.89,1.36.06,1.45-1.57.95-2.14,1.57-.35,1.59-1.35,1.9-2.13,2.64-3.81,15.07-11.58,25.8-17.3,37.72-1.4,3-2.46,6-3.78,8.87-2.34,5.65-6.65,9.93-8,16.53-.09,2.91,1.79,4.51,3.47,7.29A65.6,65.6,0,0,1,902.12,168.52Zm4.28-13.2c9-12.57,16.27-26.85,23.8-41.22,3.91,5.49,5.85,13.44,10.18,18,4,5.7,7.68,11.81,12.51,16.12,0,3.75-3.17,7.14-5.57,10.4-4.32,6-7.83,12.17-12.19,18.15-3.2,4.52-6.16,7.55-8.17,13.23-2.12-2.24-3.62-5.64-5.18-8.64C916.86,173,912.14,163.19,906.4,155.32Zm21.84,18.59c2.45-2,3.2-4.44,5-7.76,3.49-6.5,9.75-11.66,9.8-21.67-3.65-6.42-6.66-13.75-11.78-17.91-.93.14-.77,1.87-1.55,1.52-1.34.46-2,1.94-3.59,2.24.49,6.59-2.8,11-4.35,16.34a50.44,50.44,0,0,0-7,12.6c3.15,4.66,6.76,9,9.33,14.86C925.7,173.82,926.92,174.85,928.24,173.91ZM922,155.27c.86.3.51,1.06.07,1.48C921.35,156.7,921.76,155.41,922,155.27ZM790.68,211c7.88,10.59,15.52,20.28,24,30.87,2.27,2.88,4.85,6.84,7.55,10.78,2.25,3.36,5.41,8.15,8.32,9.91,3.56,2.16,5.75-3.27,7.31-6.22,2.14-3.68,4.12-7,6.21-10.6,4.91-9.1,10-18.38,14.12-27.83,3.42-8.19,6.33-16.57,9.46-24.7,3.38-8.37,5.9-17,9.56-24.41,6.47,11,12.29,23,18.82,33.37a124.54,124.54,0,0,1,6,11.9c3.7,7.68,8.2,14,12.77,22.12,1.82,3.21,4.23,6.22,6.73,10.35,2.19,3.75,4.84,9.66,7.31,10,3.28.61,7.55-5.71,9.54-8.65,3.12-4.21,5.6-7.74,8.08-11.18,10.58-15.15,20.73-30.45,30.5-46,4.83-7.92,8.25-17.32,13.33-25.39,5.13,7.52,9.15,16.79,14.57,24.94,4.92,7.61,10.93,14.73,15.77,23.17,4.49,8.21,9,16.32,15.08,23.91a133.51,133.51,0,0,1,8.21,11.39c1.72,2.57,6.3,10,8.8,10.15,2.94.45,3-2.08,4.08-4.79,2.65-2.39,56.2-85.93,58.59-88.82a6.65,6.65,0,0,0-.06-.94,2.44,2.44,0,0,0,.37-.94c.45-2.5-25.09-53.16-24.09-55.32-.06-.83-.1-1.67-.09-2.51l-1.27-2.39c-.84-1.92-1.58-3.53-2.42-5.42-3.07-6.73-7.19-12.15-11.24-18.05-4.17-5.69-6.72-12.93-11.32-17.95-2.13-2.4-4.39-4.7-6.62-7.48a51.78,51.78,0,0,0-3.09-4.2c-2.14-2.52-4.69-3.93-5.74-7.87-.85-.05-2.1.52-2.14-.54.48-2.75,1.57-4.87,1.78-8-2.5-.26-2.37,3-4.07,3.8-1.91-1.24-2.65-5.77-4.72-5.55.65,1.23-1.59,2.3-.23,4.36-.41.53-1.26.38-1.67.79-.23,3.49.81,5.2,2.19,7.73-2.83,6.27-5.74,12.65-9.63,17.71,0,1.26-.84,1.31-.66,2.56a7.75,7.75,0,0,1-1.82,1.84c-1.2,3.76-3,6.47-4.24,9.93-1.29,3.68-2.15,7.6-3.43,11.26a106.85,106.85,0,0,1-4.93,9.6c-1.69,3.09-3.2,6.46-4.89,9.68a203.42,203.42,0,0,1-13.6,22.06c-2.91,4.24-5.42,8.95-9,12.36-3.82-8.45-9.26-15.21-14-22.53-2.52-3.69-4.48-8-6.8-11.91s-5.23-7-7.67-10.64c-2.27-3.57-4.31-8-6.51-12.09s-4.68-7.8-6.88-11.86-3.75-8.72-6-12.89-4.92-7.5-6.8-11.86a7.48,7.48,0,0,0-1-4.52c-.77-.15-.89-1-2.06-.64-1.59-3.71-4.38-7.84-7.74-7.16-1.13.32-1.57,1.91-2.81,1.59.84,1.91-1.36,1.92-1.72,3.4,2.61-.23,1,4,2.57,5.88-.64,2.15-1.82,4.61-1.45,7.59,0-.68.37-.84.77-.37a7.41,7.41,0,0,1-2.18,5.45c.47.17.74-.52.88,0-.41,2.18-1.73,1.07-2.34,2.67.43,0,.65-.62.81,0-2,2.32-1.4,4.12-3.72,6.31,0-.8.64-.84.74-1.5-1.92.67-2,3.51-2.7,5.2-1.57,4.06-2.79,7.3-4.57,11.29-2.36,6.16-5.92,11.2-7.4,17.4a.27.27,0,0,1,.51.08c-1.71,1.44-2.63,3.81-3.64,5.91.77.27,1.1-2,1.48-1.05-.57,1.59-1.49,2.91-1.69,5.16-1.22.24-1.14,2.19-2.39,2.52a13.68,13.68,0,0,1-.8,2.22c-1.1,1.1-1.71,2.7-2.75,4-.79,1.39-1.92,2.71-2.31,4.52-.46.28-2.21,2.73-1.07,1.8.34.06.31-.63.47,0-4.82,7.22-9.78,14.28-14.05,22.3-4.43-8.69-9.87-16.49-15.44-24.24-8.17-11.31-16-23.7-23.68-35.61-2.58-4-5.53-7.58-8.06-11.71-2.27-3.47-5.06-7.69-7.94-11.82-3.46-4.77-6.69-10.3-11.17-11.23-2.66,1.2-3.49,4.64-5.53,6.51,1.07.34,1.8,1.45,2,3.49.67.81,1.74,1.17,2.14,2.69-.67,1.1-1.4,1.9-2.12,2.94.51-1.09-.23-.49-.39-.28-1.78,1.92-2.85,11-5.12,14.26-.34,1,.64.17.52,1.43-.67.12-.89.92-1.55,1.35l.09,2.21c-1.62,1.66-2,4.59-2.59,7.71-.11.51-1.28-.1-1,1,.33,1.83-1.61,4-1.42,5.51.28-.4.59-2.16.93-1.11-.66,2.56-3,4.23-2.14,7.57-.58-.73-.91.44-1.58.79.08,4-2.41,7-3.54,10.57-.1,1.57.58-.34.63.74-1.56,2.13-1.52,6.31-3.35,8,0,4.17-3.34,8.09-3.48,12-.51.81-1,1.79-1.54,2.6a5.06,5.06,0,0,0,.09,2.22A31.39,31.39,0,0,0,774.78,156c-1.12-.33-.54,1.46-1.39,1.21,0,3.22-2.21,3.85-1.95,7.19a8,8,0,0,0-1.44,5l-.07.22.44,10.64c3.69,7.29,9,12.36,13.23,19.18C785.88,203.4,788,207.55,790.68,211Zm211.37-68.88c6.64-11.37,14.4-22,20.88-34.06,2.24-4.21,4.45-8.12,6.35-12.2,2.07-4.18,3.53-8.72,5.55-13.12,3.83-8.53,7.71-16.9,13.23-23.62,1.61,1.09,2.63,3.34,3.61,5.44s1.49,5.36,3.43,6a4.87,4.87,0,0,0,.61,2.69c3,5.28,5.86,10.65,9.14,15.33,17.77,30.73,29.67,63,38.67,74.65-6.81,10.11-40.3,60.9-41.48,62.49-3.12,4.34-5.8,9-8.61,13.52-1.59-.53-1.77-2.87-2.59-4.26-.83-1.61-2-2.42-2.38-4.27-5.73-9.66-11.86-18.77-17.67-28.34-2.91-4.67-5.57-9.71-8.67-14.2-1.66-2-3.19-4.39-4.8-6.52a70.64,70.64,0,0,0-4.76-6.54c-2.85-3.54-6.51-6-9.38-9.81s-5-8.22-8.13-11.44C996.59,149.17,999.67,145.87,1002.05,142.09ZM905.79,89.64c.67-4.18,4.12-7.79,4.22-10.32.24-.32.68,0,1.11-.82,0-.69-.24-.68-.39-.17-.42-1,1.08-2.59,1.51-3.48.79-2.19.78-4.61,2.18-5.47.05,1.07-.71,1.3-.67,2.28.78.35,0-1.18.9-.83-1.45,3.77-3.58,6.5-4.27,11.39-.73.6-.66,2.36-1.62,2.61-.3,2-.91,3.44-2.25,3.91.59,2-2,2.74-2.43,4.5C903.38,91.93,905.23,90.57,905.79,89.64Zm17.64-13.25c.48.45,0,2.13-.81,2C922.88,77.48,923.24,77.05,923.43,76.39Zm-18.54,17.2c-.19.29-1.09,3.26-2.58,3A18.77,18.77,0,0,1,904.89,93.59Zm-2.55,3.73c-.28.49-.06,1.55-1,1.51C901.48,98,901.44,97.08,902.34,97.32Zm.08,1.84c.87.54-.63,1.3-.72,2.09C900.91,100.5,902.31,99.75,902.42,99.16Zm-7.67,16.06c-.14.7-.56.81-1.11.84C893.7,115.36,894.06,115,894.75,115.22Zm12.59-2.33a290.42,290.42,0,0,0,16.85-36.55c1.56-4.17,2.93-8.7,5.28-12.33,3.46,3.9,5.25,10.2,7.71,15.62,2.87,3.91,5.26,8.35,8,12.47,3.09,9.26,9.21,15.13,13.8,22.54s9,15.27,14.31,21.77c3.5,5,6.18,11.33,10.68,14.75,0,.69-.18.71-.33,1.23a8,8,0,0,1-2.14,1.43,79.43,79.43,0,0,0-12.75,20.05,133.06,133.06,0,0,1-11.69,21c-4.29,6.63-8.32,13.59-12.58,20-5.47,7.86-12,14.61-16.74,23.78-4.89-5.65-8-13.45-12.13-20.14a100.53,100.53,0,0,1-5.93-10.34c-1.71-3.61-3.32-7.7-5.24-11.17s-4.29-6.56-6.17-10.07-3.53-7.51-5.48-10.76c-3.88-6.88-8.58-12.85-12.12-19.75C888.79,141,899,128,907.34,112.89ZM802.87,74.7c.82.43-.13,1-.11,1.46C802,75.79,802.89,75.18,802.87,74.7Zm-1.24,4.72c.51.08.07,1.65-.62,1.41A4.86,4.86,0,0,1,801.63,79.42ZM800,82.82c.29,0,.24.66.62.64,0,.86-.78.82-1,1.48C799.14,84.71,800.06,83.49,800,82.82Zm-5.75,19.63c-.59-2.11,1.28-3.86,1.58-5.92a31.66,31.66,0,0,1-3.07,9.78C792.55,105.35,793.74,103.35,794.29,102.45Zm-16.16,46.88a22.8,22.8,0,0,0-.66,2.3C776.77,151.14,777.37,149.2,778.13,149.33Zm-6.6,17.24c.57.36-.33,1.28-.3,1.84C770.54,168.1,771.55,167.09,771.53,166.57Zm11.61,17.65c1.5-.47,2.49,3.09,3.72,4.15C785.6,188.44,784.36,185.29,783.14,184.22Zm5,7.22c1.09-.19,2.29,3.18,3,4.89C789.8,195,789.16,192.82,788.09,191.44Zm4.69,8c.09-.88,1.05-.19.83.56C793.31,200,793.2,199.44,792.78,199.46Zm.86,1.39c2.52.43,4.08,5.48,6.84,6.81.35-.8-1.15-2.38-2.13-2.41.08-1.18-.92-.73-.55-2.1-1-1.21-2.45-1.83-2.87-3.81-.31-.42-1-.38-1.38-.71-2.29-4.14-4.71-8.53-7.29-12.44a108.87,108.87,0,0,0-10.53-11.27c-.15-1.43.68-1.83.16-3.23,13.32-30.7,24.37-64,35.14-98.1,1.93,1.61,2.75,4.9,4.91,6.13a25.55,25.55,0,0,0,5.68,8.33c.88,2.87,2.72,4.6,4.26,6.87,9.8,14.81,18.52,32.4,30.38,45,4.45,7.42,8.5,16.17,15.18,19.16-3.87,2.52-4.46,8.81-7.8,11.87-2.5,7-4.64,14.43-6.83,21.86-1.62,2.78-3.37,5.49-4,9.53-2.79,5-4.88,10.71-7.28,16.23-2.37,5.09-5.35,9.77-7.26,15.71-2.2,5.08-5,9.58-7.2,15-4.1-5-7.24-11.27-10.93-16.6-.44-.41-1.27,0-1.71-.6.3-.71.71-.22.29-1.07-1.35-1.88-2.86-3.67-4.21-5.6-1.34-1.58-2.58-4-4.43-4.72a15.51,15.51,0,0,0-1.38-2.63c-.28.19-.4.51-.55,1.08-.5,0-.23-3.65-.57-1.54-.55,0-.59-.92-.22-1.34-1.44-2-2.78-3.72-4.08-5.57-.63,2.22,3,3,2.33,5.28C801.23,211.49,798.05,205.05,793.64,200.85Zm226.65-35.19c3.7,7.46,7.81,14.81,12,21.54,4.14,7,7.83,14.38,12.75,20.64a109.1,109.1,0,0,1,5.91,9.87c.55,1.1.64,3.35,2.17,3.53.67-.38.27-1.84.8-2.21a1.4,1.4,0,0,0,1.07.29c.49-.38-.09-2.13.59-2.17,3-3.55,6-6.8,8.84-10.17,1.72-1.8,22.26-35,23.75-37,4-20.34,2.47-17.07-4.33-29.57a201.8,201.8,0,0,0-15.35-25.89c-4.27-6-8.06-12.75-12.34-18,0-1.46-.62-1.82-.59-3.19-4.47-.63-4-8.7-8.59-9.13-1,2.27-1.67,5.61-2.82,8.59-.07,1.35.74,1.42.53,2.58-3.81,14-10.29,25.12-17.3,35.59.21,1.16-.29,1.28-.25,2.19-3.08,2.26-4.64,6.43-8.12,8.27-1.19,1.8-1.95,3.93-4,4.57-.45.33-.22,1.66-.54,2.11a1.8,1.8,0,0,0-1.71-.21c.35,1.33.21,2.91-.64,3-.13,2.79,1.53,4,2.89,6.16C1016.76,160.19,1018.53,164.1,1020.29,165.66Zm4.45-14.17c10.8-11.89,18.79-27.21,27.59-41.43a110.41,110.41,0,0,1,5.72,12.49c6.89,9.81,12.94,21,19.21,31.52a1.37,1.37,0,0,0,.29.77c.13.25-.08.26-.25.27.09,2.17-2.09,3.42-3.15,5.61-.47.94-.51,2.07-.85,2.87-1.15,2-2.64,2.76-3.63,5.24a24.79,24.79,0,0,1-1.63,3.66c-.72,1-1.62,1.65-2.3,2.56-.35.8-.3,1.93-.66,2.56s-.85.83-1.29,1.55c-1.06,2.06-1.74,4.75-3.94,6-2.76,4.84-4.44,11.2-8.35,14.72a26.61,26.61,0,0,1-3.64-5.86c-2.18-3.84-4.17-8-6.59-12.18C1035.84,172.22,1030.68,161.22,1024.74,151.49Zm33.68,19.08c2.09-2.73,4-3.88,5.17-6,1-3.1,3-5.73,2.48-9.44-.43-3.28-3.18-5.4-4.77-7.93s-2.43-6.57-4.09-9.87c-1.65-3.13-4.08-7.45-6.16-8.9-1.33.16-2.31-.24-2.58.79l0,.05c.28,0,.52.07.26.33-.09-.13-.18-.23-.26-.33h0s0,0,0-.05c-1.41-1.55-2.69.18-4.29-1.2-.61,2.73.27,4.59,1.11,6.38-1.45,5-2.76,10.07-4.43,14.6a24.39,24.39,0,0,0-3.94,7c-.07.31,0,.69-.14.7.17,2,.87,2.74.36,4.64.41.8,2,.37,2.1,1.71,0,.7-.75.26-.17,1.1,3.1,4.36,5.53,9.71,8.83,13.8.21,1.12-.17,1,.24,1.81C1053.26,184.81,1054.8,174.89,1058.42,170.57Zm294.45,98.95c-.56.07.24,1.33-.5,1.83l-1.43-.14c-4.32,5.64-8.74,13-14.68,18.33a164.15,164.15,0,0,1-13.37,11.28c-1,.69-2.53,1-3.44,2.28l5,.48c4.72-1.89,8.85-5.07,12.61-8.28,5.33-4.46,9.78-10.49,14.74-15.77,1.49,3.12,2.38,6.61,4,9.65,3,6.28,7.21,11,10.52,16.44.31.73.78,1.43,1.13,2.17l8.24.8c0-.26,0-.61,0-1-2-3.69-2.7-8.65-4.74-12.56-1.74-3.48-5-6.42-7.37-10.71C1360.72,278.58,1359.87,268.54,1352.87,269.52Zm-101.52-49.74c-6.32,8-11.24,18.37-17,27.06-4.86,4.42-9.38,10.31-13.7,15.52-1.52,1.9-3.26,3.39-4.54,5.32-.56.9-.83,2.54-1.36,3.53a14.58,14.58,0,0,0-1.78,3c8.1-4,14.72-10.88,20.83-18.05,6.38-7.41,10.7-16.86,16.42-25.64,3.16,18.12,10.57,32.69,17.33,46.58,1,1.84,1.67,4.57,3.42,5.7.61-.9,1.52-1.12,2.29-1.91,1-3.14.67-5.26,1-8.9-3.35-9.37-8.07-17.51-11.32-27-2.59-7.37-4.8-14.7-6.78-22.27-.79-2.44-.84-5.46-2.17-7.72.06,2.23-.72,2.28-1.75,1.66C1252.13,218.11,1251.49,218.53,1251.35,219.78ZM1499.65,348a10.14,10.14,0,0,0,3.87-2.86c-.25-.66.27-2.43.65-4.21-.55-5.78-9.36-39.76-11-44.51-1.19-3.3-2.17-6.95-4.51-8.93-8,3-12.65,13.58-19.53,19.11-1.57.48-2.72,1.75-4.22,1.9-3.77,4.6-9.55,4.32-12.68,10.11l4.15.84c3.17-1,6-2.64,8.47-3.52,3-1,4.46-2.21,6.94-4.06a135.15,135.15,0,0,0,12.54-12.23C1487.82,305.23,1495.42,343.35,1499.65,348Zm-27.2-74c-5.3,3.9-10.41,9.29-15.25,14-1.73,1.74-3.61,3-5.08,4.83-.66.84-1.1,2.44-1.73,3.37a15.28,15.28,0,0,0-2.08,2.77c8.48-3.12,15.79-9.31,22.62-15.82,7.14-6.72,12.42-15.66,19-23.81,1.25,18.33,13.61,64,18.89,78.49.75,1.92,1.18,4.71,2.8,6,.7-.83,1.64-1,2.49-1.67,1.31-3,1.21-5.16,1.9-8.74-2.35-9.64-12.7-48.67-15-58.43-1.81-7.59-3.25-15.09-4.42-22.82-.54-2.5-.27-5.5-1.36-7.89-.18,2.23-1,2.2-1.92,1.48C1493.21,247.3,1479.14,266,1472.45,274Zm-111.62-50.52c-6.33,8-11.25,18.38-17.06,27.07-4.86,4.41-9.38,10.3-13.69,15.52-1.53,1.9-3.27,3.39-4.54,5.31-.57.91-.84,2.54-1.37,3.54a14.5,14.5,0,0,0-1.77,3c8.09-4,14.72-10.88,20.82-18.05,6.39-7.41,10.7-16.86,16.43-25.64,3.15,18.12,10.57,32.68,17.33,46.57,1,1.84,1.66,4.58,3.41,5.71.61-.9,1.53-1.12,2.29-1.92,1-3.13.67-5.26,1-8.9-3.34-9.36-8.06-17.51-11.31-27-2.59-7.37-4.81-14.7-6.78-22.28-.8-2.43-.85-5.45-2.17-7.72,0,2.24-.72,2.29-1.76,1.67C1361.61,221.86,1361,222.27,1360.83,223.52ZM1239.74,98.34c4.93,10.11,8.72,20.52,16.2,26.8a5.55,5.55,0,0,0,1.81,4.36c5.45-3.15,10.06-9.82,14.53-16.11,4.36-6,8.83-12.19,13.43-18.46,7.65-10.45,15.81-21.16,22.41-33.66,1-2,2.38-3.85,3.15-5.43,1.87-5.39.42-9.24,0-13.64-1.37,2.4-2.67,4.61-3.94,7.21-.57.14-1,.39-1.58.52-1.22,3.31-3.74,4.59-5.62,6.94-1.49,2-2.64,4.74-4.15,6.82-4.69,6.27-10,11.29-14.35,17.59-3,4.21-5.84,8.69-8.6,13.2-2.89,4.3-5.74,8.89-9.12,12.64a36.9,36.9,0,0,1-5.29,7.08c-5.17-5.57-8.14-13.35-11.49-20.79s-7-14.72-10.52-21.89c-4.6-9.21-8.18-19.19-11.72-28.79-1.64-4.46-3.12-8.71-4.83-12.56l-6.9-.68a14.44,14.44,0,0,0,2.32,3.64c2.69,7.29,4.37,15.24,6.33,22.92a148.63,148.63,0,0,0,7.92,22.32C1232.75,85,1236.49,91.58,1239.74,98.34Zm183.08-35.21c-7,12-15.8,21.45-23.62,32.16-5.81,8-12.24,16.25-17.26,24.82-1.88,3.13-2.82,7-5,10-3.43-5.6-4.8-12.85-7.69-19.07s-6.53-11.36-9.27-17.36c-5.48-12.07-9-27.3-19.62-33.9a18.86,18.86,0,0,0-1.95-3.12c-1.15-.38-.68,1.51-1.77,1-.1-1.1-.87-1-.49.21-.65-.32-1.1-2.44-1.78-.83.16,3.91,2.49,8.24,3.75,11.85A116.89,116.89,0,0,1,1346.68,88a121.53,121.53,0,0,0,8.82,19.54,124.43,124.43,0,0,1,9.11,19.23c1.26,3.24,2.39,7,3.84,10a30,30,0,0,1,2.38,4.6c.72,1.56.84,3.93,2.07,5.18a8.38,8.38,0,0,0,3.7-.42,8.72,8.72,0,0,0,2.35-5.88,352.68,352.68,0,0,0,27.33-37.39c4.3-6.61,8.34-13.2,12.92-20.46,3.84-6,9.66-14.36,11.24-22.88.38-2.38.11-4.09-1-5.16-1.54.81-2.46,3-3.41,4.34C1424.89,60.5,1423.93,61.47,1422.82,63.13ZM1378,84.27c1.41,2.26,2.08,5.47,3.31,7.82-.66.92-.24,2.13-.36,3.28a15.14,15.14,0,0,0,3.62.66c12.72-11.24,22.25-27.47,30-46.87l-3.54-.34a14,14,0,0,0-1.56,1.88c-.66-.94-.37.26-.29.27-3.49,3.16-7.64,11.16-13.23,12.47-2,2.79-4.74,4.79-6.58,8.41-1.36,2.66-1.76,6.36-3.86,8.77-4.52-12.23-9-24.34-15.25-34.52a6.73,6.73,0,0,1-1.88-1.45l-6.57-.64a2.34,2.34,0,0,1,.07,1.27,5.88,5.88,0,0,1,.79,4.08c2,3.88,3.43,8.23,5.78,11.65C1371.55,68.73,1373.76,77.62,1378,84.27Zm184.68,33.64c-7,12-15.8,21.44-23.62,32.16-5.81,8-12.24,16.25-17.26,24.82-1.88,3.13-2.82,7-5,9.94-3.43-5.59-4.8-12.85-7.69-19.06s-6.53-11.36-9.27-17.37c-5.48-12.06-8.95-27.29-19.62-33.9a19.18,19.18,0,0,0-2-3.11c-1.15-.38-.68,1.5-1.77,1-.1-1.11-.87-1-.49.21-.65-.32-1.1-2.44-1.78-.83.16,3.9,2.49,8.23,3.75,11.85a117.16,117.16,0,0,1,8.57,19.15,121.24,121.24,0,0,0,8.82,19.55,124.43,124.43,0,0,1,9.11,19.23c1.26,3.24,2.39,6.95,3.84,10a30,30,0,0,1,2.38,4.6c.72,1.56.84,3.92,2.07,5.18a8.37,8.37,0,0,0,3.7-.43,8.7,8.7,0,0,0,2.35-5.88,350.63,350.63,0,0,0,27.33-37.39c4.3-6.6,8.34-13.2,12.92-20.45,3.84-6,9.66-14.36,11.24-22.88.38-2.38.11-4.09-1-5.16-1.54.8-2.46,3-3.41,4.33C1564.76,115.27,1563.8,116.25,1562.69,117.91Zm-44.81,21.14c1.41,2.26,2.08,5.47,3.31,7.81-.66.92-.24,2.14-.36,3.28a14.65,14.65,0,0,0,3.62.67c12.72-11.25,22.25-27.48,30-46.87l-3.54-.34a14.55,14.55,0,0,0-1.56,1.87c-.66-.93-.37.27-.29.28-3.49,3.15-7.64,11.15-13.23,12.46-2,2.8-4.74,4.8-6.58,8.42-1.36,2.66-1.76,6.35-3.86,8.77-4.52-12.23-9-24.35-15.25-34.52a6.73,6.73,0,0,1-1.88-1.45l-6.57-.64a2.34,2.34,0,0,1,.07,1.27,5.85,5.85,0,0,1,.79,4.07c2,3.89,3.43,8.24,5.78,11.65C1511.42,123.51,1513.63,132.39,1517.88,139.05ZM1245,51.39c3.1,7.72,5.31,16.6,9.56,23.26,1.41,2.26,2.07,5.47,3.31,7.81-.66.92-.24,2.14-.36,3.28a14.65,14.65,0,0,0,3.62.67c12.72-11.25,22.25-27.48,30-46.87l-3.54-.34a14.55,14.55,0,0,0-1.56,1.87c-.66-.93-.37.27-.29.28-3.49,3.15-7.64,11.15-13.23,12.46-2,2.8-4.74,4.8-6.58,8.42-1.36,2.66-1.76,6.35-3.86,8.77-4.52-12.23-9-24.35-15.25-34.52a6.93,6.93,0,0,1-1.89-1.45l-6.56-.64a2.34,2.34,0,0,1,.07,1.27,5.85,5.85,0,0,1,.79,4.07C1241.21,43.62,1242.6,48,1245,51.39Zm-32.87,122.55c-.76-3.48-3.78-4.25-5.32-7.24-1.65-3.57-1.11-9.24-3.91-12-2.26,1.18-3.48-1.21-5.07-2.68,0,2.41-1.56,1.86-2.22,3.19.43,1.49.78,3,1.19,4.66-2.2,6.86-5.22,11.89-8,17.55.23,4,2.22,5.28,3.23,8.52s1.93,6.39,3.34,9.06c1.08-.59,1.68.95,3,1,3-1.37,4.8-5.08,7.36-8.93C1207.82,183.74,1212.42,179,1212.08,173.94Zm-12.92,54.88c1.88.28,2.85-1.9,3.77-3.34,3.48-5,6-10.72,9.07-16.36,4.47-8.9,11.09-15.77,13.43-26.63,1.72-2.45,4.44-3.27,6-5.87a28,28,0,0,0,.3-5c-.82-4.19-5-9-7.45-13.39-1.14-2-2.34-4.68-3.61-7.08-1.09-2.46-2.8-4.64-3.63-6.77-1.59-4.13-2.2-9.38-3.64-13.72-1.08-3.72-2.76-10.09-4.68-12.33-2.07-2.45-7.42-3.36-10.07-2.36a16.15,16.15,0,0,0-.81,5c-3.43,4.92-4.36,11.47-7.33,16.42-1.46,2.39-3.28,4.26-4.75,6.78-3,5.21-5.08,11.08-8.32,15.74a40,40,0,0,0-4.85,7c-1.54,3.6-2,8-3.27,11.91.26,1.94,1,3.76.82,6.1,3.26,2.85,5.22,7.06,8.48,9.47,4.6,9.23,11.15,16.2,14.89,26.26C1195.68,223,1195.45,228.11,1199.16,228.82Zm-18.31-50c7.12-14.1,14.57-27.35,22-40.9,4.93,10.92,7.43,24.48,12.66,35.34-.32,4.81-2.84,8-4.57,11.43-3.86,7.61-8.5,14.62-11.31,24.3C1193.21,199,1188.36,187.43,1180.85,178.79Zm96.52,10.52c1.78,4.63,3.74,8.53,5.11,12.29,3.22,9,7,16.84,10,24.64-.9,6.21.85,10.83,5,9.83,1.65-.36,4.16-2.73,6.26-4.36,5.94-4.57,12.18-12.52,16.66-17a315.71,315.71,0,0,0,22-23.35c1.3-3.72,4.21-6.14,3.86-11.06-.5-2.06-2.61-2.18-3.77-3.26-1.57-9.31-6-17-9.13-27.21-1.58-5.35-2.39-11.11-4.72-16.92-.84-2.14-1.72-5-2.84-7.88-.75-2-2.38-6.56-3.39-7.45-1.23-1.18-3.2-.72-4.3-1.88-.39-1.1.86-2.75-.12-3.52-.88-1.35-.85,1.57-2.07,1.06-.16,1.45-1.7.7-2.35,1.23-.6,1.52-1.63,1.68-2.51,2.29-6,14.32-15.33,23.76-22.78,34.69-1.83,2.75-3.33,5.52-5.07,8.19-3.17,5.24-8.07,8.82-10.38,15.14-.53,2.87,1.1,4.74,2.34,7.74A65.75,65.75,0,0,1,1277.37,189.31Zm6.21-12.4c10.75-11.09,20.13-24.1,29.73-37.17,3,6,3.76,14.16,7.36,19.31,3.14,6.25,5.82,12.84,9.95,17.83-.62,3.69-4.22,6.57-7.08,9.43-5.17,5.26-9.57,10.86-14.78,16.11-3.84,4-7.23,6.54-10.07,11.86-1.76-2.54-2.73-6.12-3.82-9.33C1291.27,195.91,1288.07,185.55,1283.58,176.91Zm18.8,21.66c2.72-1.57,3.83-3.91,6.11-6.92,4.44-5.89,11.4-10.06,13-20-2.65-6.89-4.52-14.59-9-19.47-.94,0-1,1.73-1.75,1.27-1.4.25-2.31,1.61-3.89,1.67-.51,6.59-4.43,10.48-6.76,15.49a50.43,50.43,0,0,0-8.83,11.41c2.42,5.08,5.33,9.91,7,16.09C1299.88,198.1,1300.93,199.3,1302.38,198.57ZM1299,179.2c.8.43.34,1.12-.16,1.47C1298.15,180.52,1298.75,179.31,1299,179.2ZM1160.8,214.51c6.21,11.66,12.3,22.38,19,34.13,1.82,3.19,3.77,7.48,5.85,11.79,1.72,3.66,4.13,8.87,6.73,11.05,3.2,2.67,6.18-2.37,8.17-5.06,2.67-3.31,5.12-6.3,7.73-9.54,6.22-8.26,12.68-16.66,18.14-25.39,4.62-7.58,8.76-15.43,13.08-23,4.59-7.76,8.38-15.87,13.12-22.69,4.74,11.85,8.7,24.55,13.59,35.82a125.54,125.54,0,0,1,4.13,12.67c2.5,8.15,6,15.08,9.29,23.79,1.32,3.44,3.25,6.77,5.1,11.23,1.6,4,3.33,10.29,5.73,10.95,3.15,1.1,8.32-4.51,10.73-7.11,3.72-3.7,6.7-6.81,9.67-9.84Q1330,243.25,1348,222.41c6-7.11,10.76-15.89,17-23.1,4,8.2,6.53,18,10.66,26.84,3.72,8.27,8.59,16.21,12.1,25.29,3.2,8.78,6.41,17.48,11.31,25.9a135.09,135.09,0,0,1,6.41,12.5c1.31,2.8,4.72,10.82,7.17,11.36,2.84.89,3.32-1.6,4.75-4.12,3-2,68.49-76.5,71.3-79a6.49,6.49,0,0,0,.07-.93,2.49,2.49,0,0,0,.51-.88c.82-2.4-16.81-56.33-15.49-58.31.06-.84.16-1.67.29-2.5-.31-.87-.61-1.72-.89-2.55-.55-2-1-3.73-1.59-5.73-2-7.11-5.28-13.09-8.4-19.53-3.26-6.25-4.69-13.79-8.49-19.45-1.74-2.7-3.62-5.3-5.41-8.39a51.47,51.47,0,0,0-2.43-4.62c-1.73-2.81-4-4.59-4.49-8.65-.83-.17-2.14.21-2-.85.88-2.64,2.29-4.58,3-7.61-2.43-.63-2.8,2.65-4.6,3.15-1.7-1.52-1.75-6.11-3.82-6.2.45,1.31-1.92,2-.89,4.28-.48.45-1.3.18-1.77.53-.75,3.41,0,5.25,1,8-3.74,5.77-7.58,11.64-12.19,16.06-.13,1.25-1,1.16-1,2.43a7.76,7.76,0,0,1-2.08,1.54c-1.75,3.54-3.89,6-5.69,9.18-1.82,3.45-3.26,7.19-5.08,10.62a105.43,105.43,0,0,1-6.32,8.74c-2.13,2.81-4.14,5.91-6.29,8.84A204.08,204.08,0,0,1,1377.76,165c-3.52,3.76-6.71,8-10.72,10.87-2.5-8.93-6.86-16.43-10.49-24.38-1.94-4-3.23-8.61-4.94-12.8s-4.12-7.69-6-11.67c-1.7-3.88-3.05-8.6-4.62-12.94s-3.45-8.42-5-12.76-2.39-9.18-3.94-13.63-3.74-8.16-4.93-12.75a7.47,7.47,0,0,0-.35-4.62c-.73-.27-.72-1.14-1.93-1-1-3.9-3.16-8.41-6.58-8.25-1.16.15-1.84,1.66-3,1.15.54,2-1.63,1.7-2.21,3.1,2.62.17.44,4.15,1.66,6.21-1,2-2.49,4.28-2.58,7.29.09-.68.49-.78.82-.25a7.43,7.43,0,0,1-3,5.05c.45.24.81-.4.88.09-.73,2.09-1.87.8-2.71,2.29.41.1.73-.52.8.07-2.31,2-2,3.87-4.62,5.69.09-.8.76-.73,1-1.37-2,.37-2.51,3.16-3.45,4.73-2.16,3.78-3.85,6.8-6.21,10.48-3.27,5.73-7.54,10.18-9.94,16.08a.28.28,0,0,1,.5.15c-1.92,1.17-3.18,3.38-4.5,5.3.73.38,1.39-1.8,1.62-.82-.8,1.49-1.91,2.66-2.44,4.85-1.24.06-1.46,2-2.75,2.14a13,13,0,0,1-1.12,2.07c-1.25.92-2.09,2.41-3.32,3.56-1,1.26-2.31,2.39-3,4.12-.49.21-2.59,2.36-1.32,1.62.32.11.4-.58.46,0-5.85,6.41-11.81,12.64-17.24,19.93-3.07-9.25-7.28-17.78-11.61-26.28-6.38-12.42-12.3-25.85-18.06-38.77-2-4.29-4.32-8.33-6.21-12.79-1.71-3.77-3.84-8.36-6.07-12.88-2.7-5.24-5.06-11.2-9.35-12.79-2.81.79-4.15,4.07-6.44,5.61,1,.49,1.55,1.71,1.46,3.75.53.9,1.54,1.41,1.71,3-.83,1-1.67,1.67-2.54,2.59.66-1-.16-.52-.35-.34-2,1.63-4.46,10.46-7.2,13.33-.49.92.61.26.3,1.5-.68,0-1,.77-1.74,1.09l-.24,2.2c-1.85,1.4-2.71,4.24-3.73,7.24-.18.48-1.24-.3-1.16.87.06,1.86-2.19,3.69-2.23,5.24.34-.36.91-2.06,1.08-1-1,2.43-3.64,3.73-3.25,7.17-.46-.81-1,.3-1.68.54-.51,3.94-3.44,6.58-5.09,9.91-.33,1.54.63-.24.51.84-1.87,1.87-2.45,6-4.51,7.38-.58,4.13-4.53,7.5-5.25,11.36-.63.72-1.24,1.62-1.91,2.34a4.93,4.93,0,0,0-.25,2.2,31.77,31.77,0,0,0-5.41,9.82c-1-.49-.75,1.37-1.56,1-.52,3.17-2.76,3.48-3,6.82a8,8,0,0,0-2.19,4.76l-.1.21-1.16,10.58c2.54,7.76,7,13.57,10.19,21C1157.2,206.3,1158.67,210.72,1160.8,214.51Zm219.33-36.29c8.28-10.24,17.55-19.55,25.78-30.53,2.84-3.83,5.61-7.36,8.11-11.11,2.67-3.82,4.79-8.09,7.45-12.13,5.08-7.86,10.17-15.55,16.64-21.36,1.43,1.32,2.1,3.7,2.75,5.92s.67,5.53,2.48,6.49a4.81,4.81,0,0,0,.2,2.75c2.19,5.67,4.19,11.41,6.73,16.53,12.94,33.05,19.85,66.72,27,79.62-8.26,9-49,54.14-50.41,55.53-3.74,3.83-7.09,8-10.55,12.07-1.49-.76-1.32-3.1-1.92-4.6-.58-1.71-1.66-2.69-1.71-4.58-4.21-10.4-8.9-20.34-13.21-30.67-2.17-5.06-4-10.43-6.43-15.34-1.33-2.27-2.5-4.83-3.77-7.18a72.84,72.84,0,0,0-3.71-7.17c-2.29-3.94-5.54-6.92-7.8-11.11s-3.7-8.88-6.32-12.54C1373.67,184.4,1377.21,181.6,1380.13,178.22Zm-87.27-66.33c1.29-4,5.24-7.09,5.73-9.57.28-.28.67.07,1.21-.65.08-.69-.13-.71-.35-.23-.26-1.09,1.45-2.39,2-3.21,1.12-2,1.47-4.44,3-5.07-.11,1-.89,1.17-1,2.15.72.46.21-1.16,1-.69-2,3.51-4.52,5.89-5.93,10.62-.82.49-1,2.23-2,2.33-.59,1.89-1.42,3.27-2.81,3.53.28,2.06-2.39,2.41-3.09,4.08C1290.14,113.79,1292.17,112.72,1292.86,111.89Zm19.43-10.46c.41.52-.36,2.1-1.09,1.81C1311.59,102.43,1312,102.06,1312.29,101.43Zm-20.91,14.22c-.24.26-1.57,3.06-3,2.63A18.86,18.86,0,0,1,1291.38,115.65Zm-3.09,3.3c-.34.45-.29,1.52-1.21,1.35C1287.34,119.53,1287.44,118.59,1288.29,119Zm-.2,1.84c.78.66-.81,1.18-1,1.95C1286.4,121.89,1287.9,121.36,1288.09,120.79Zm-10,14.72c-.25.67-.68.72-1.22.67C1277,135.49,1277.45,135.23,1278.1,135.51Zm12.8-.41a290.48,290.48,0,0,0,22.15-33.59c2.17-3.9,4.21-8.17,7.08-11.41,2.83,4.39,3.65,10.88,5.27,16.61,2.25,4.3,3.94,9.05,6,13.53,1.67,9.61,6.83,16.34,10.25,24.36s6.61,16.45,10.87,23.68c2.73,5.41,4.41,12.13,8.35,16.18-.08.69-.29.67-.51,1.17a7.76,7.76,0,0,1-2.34,1.08,79.77,79.77,0,0,0-15.62,17.91,133.42,133.42,0,0,1-14.72,19c-5.24,5.9-10.27,12.18-15.45,17.87-6.59,7-14,12.65-20.12,21-4-6.33-5.89-14.5-9-21.75a98.72,98.72,0,0,1-4.31-11.11c-1.15-3.82-2.13-8.11-3.5-11.83s-3.26-7.13-4.59-10.88-2.35-8-3.8-11.46c-2.8-7.39-6.54-14-9-21.36C1268.34,160.05,1280.38,148.74,1290.9,135.1Zm-97.54-53.47c.75.55-.27.93-.33,1.43C1192.32,82.57,1193.31,82.1,1193.36,81.63Zm-1.94,4.48c.5.16-.18,1.64-.82,1.29A5.18,5.18,0,0,1,1191.42,86.11Zm-2.08,3.11c.29,0,.14.69.52.73-.1.86-.89.7-1.22,1.32C1188.17,91,1189.27,89.89,1189.34,89.22Zm-8.63,18.55c-.27-2.17,1.84-3.62,2.44-5.62a31.4,31.4,0,0,1-4.5,9.21C1178.55,110.37,1180,108.57,1180.71,107.77Zm-23,43.92c-.33.75-.74,1.41-1,2.17C1156.05,153.27,1156.94,151.44,1157.67,151.69Zm-9.12,16.05c.51.44-.51,1.21-.57,1.77C1147.34,169.1,1148.5,168.25,1148.55,167.74Zm8.82,19.19c1.56-.23,2,3.43,3.06,4.67C1159.17,191.48,1158.43,188.17,1157.37,186.93Zm3.81,7.89c1.11,0,1.79,3.49,2.27,5.28C1162.34,198.59,1162,196.34,1161.18,194.82Zm3.43,8.63c.22-.86,1.07,0,.74.68C1165.06,204.06,1165,203.49,1164.61,203.45Zm.64,1.5c2.43.81,3.21,6,5.74,7.76.47-.74-.78-2.52-1.74-2.7.26-1.15-.8-.86-.23-2.16-.83-1.35-2.14-2.17-2.26-4.19-.25-.46-.92-.53-1.26-.91-1.64-4.44-3.37-9.15-5.33-13.4a110.64,110.64,0,0,0-8.72-12.73c.07-1.44,1-1.7.64-3.17,17.79-28.34,33.73-59.64,49.51-91.7,1.66,1.89,2,5.26,3.93,6.81a25.89,25.89,0,0,0,4.35,9.09c.44,3,2,4.95,3.18,7.43,7.46,16.11,13.44,34.82,23.27,49.05,3.29,8,6,17.26,12.13,21.22-4.21,1.91-5.74,8.05-9.5,10.56-3.52,6.51-6.76,13.57-10,20.59-2,2.5-4.16,4.92-5.44,8.81-3.52,4.55-6.44,9.85-9.64,14.95-3.1,4.68-6.76,8.86-9.54,14.44-2.94,4.69-6.4,8.72-9.37,13.7-3.3-5.6-5.46-12.23-8.31-18-.37-.47-1.25-.21-1.6-.85.41-.66.73-.11.45-1-1-2.07-2.28-4.06-3.32-6.17-1.08-1.77-2-4.3-3.67-5.34a14.85,14.85,0,0,0-1-2.8c-.31.14-.47.44-.7,1-.5,0,.32-3.64-.33-1.61-.55-.05-.45-1,0-1.35-1.12-2.16-2.19-4.1-3.2-6.12-1,2.09,2.56,3.39,1.52,5.56C1171.16,216.62,1169,209.77,1165.25,205Zm229.37-.69c2.53,7.93,5.49,15.82,8.64,23.11,3,7.54,5.58,15.39,9.5,22.32a110.86,110.86,0,0,1,4.36,10.65c.38,1.17.13,3.41,1.61,3.82.72-.28.54-1.78,1.12-2.07a1.4,1.4,0,0,0,1,.45c.54-.3.24-2.12.91-2.06,3.52-3.05,6.93-5.82,10.27-8.73,2-1.51,27.27-31.2,29-33,7-19.51,5-16.51.17-29.89A203.34,203.34,0,0,0,1450,160.94c-3.32-6.52-6-13.82-9.5-19.61.25-1.44-.34-1.89-.1-3.24-4.33-1.3-2.69-9.21-7.12-10.32-1.38,2.09-2.5,5.3-4.08,8.07-.27,1.33.52,1.51.14,2.63-5.88,13.25-14,23.28-22.47,32.58,0,1.18-.47,1.22-.57,2.13-3.38,1.77-5.56,5.66-9.27,6.95-1.45,1.61-2.52,3.6-4.64,3.91-.5.26-.47,1.62-.86,2a1.76,1.76,0,0,0-1.65-.47c.15,1.37-.23,2.9-1.08,2.82-.55,2.74.91,4.15,1.93,6.52C1392,198.32,1393.12,202.46,1394.62,204.26Zm6.53-13.33c12.47-10.14,22.67-24.07,33.51-36.81a109.6,109.6,0,0,1,3.78,13.21c5.33,10.73,9.63,22.68,14.24,34a1.48,1.48,0,0,0,.17.8c.1.27-.11.25-.28.23-.24,2.16-2.59,3.07-4,5.07-.6.86-.81,2-1.28,2.72-1.42,1.78-3,2.32-4.37,4.63a24.4,24.4,0,0,1-2.16,3.37c-.87.92-1.85,1.39-2.66,2.19-.47.74-.59,1.86-1,2.43s-1,.69-1.5,1.34c-1.36,1.87-2.45,4.43-4.8,5.29-3.46,4.38-6.08,10.41-10.47,13.3a26.06,26.06,0,0,1-2.71-6.34c-1.59-4.12-2.93-8.53-4.69-13C1409,213.09,1405.56,201.44,1401.15,190.93Zm30.43,23.92c2.47-2.37,4.52-3.22,6-5.17,1.47-2.92,3.85-5.21,3.88-9,.06-3.31-2.34-5.81-3.53-8.55s-1.41-6.86-2.55-10.38c-1.17-3.34-2.91-8-4.76-9.72-1.34-.05-2.24-.59-2.66.4l0,0c.27,0,.51.16.2.37a2.56,2.56,0,0,0-.2-.37h-.06l0,0c-1.16-1.75-2.69-.24-4.07-1.84-1,2.61-.42,4.58.14,6.47-2.18,4.72-4.24,9.54-6.58,13.77a24.82,24.82,0,0,0-5,6.33c-.11.29-.07.69-.24.67-.13,2,.45,2.84-.34,4.64.29.85,1.89.66,1.82,2-.16.68-.78.14-.33,1.06,2.41,4.78,4,10.43,6.65,15,0,1.14-.32.93,0,1.83C1424.33,228.16,1427.34,218.58,1431.58,214.85Zm283.16,143.28c-.57,0,.13,1.35-.64,1.78l-1.42-.25c-4.74,5.3-9.71,12.28-16,17.17A160.13,160.13,0,0,1,1682.45,387c-1,.62-2.6.82-3.6,2l4.91.87c4.85-1.53,9.21-4.38,13.2-7.3,5.66-4,10.56-9.7,15.91-14.59,1.24,3.22,1.87,6.77,3.25,9.93,2.48,6.48,6.35,11.49,9.23,17.2.25.74.67,1.48,1,2.24l8.16,1.43c0-.25,0-.61.09-.95-1.73-3.83-2-8.83-3.77-12.88-1.46-3.62-4.48-6.79-6.52-11.25C1721.87,367.76,1721.79,357.69,1714.74,358.13Zm-94.62,11.33a9.94,9.94,0,0,0,3.79-2.95c-.26-.66.2-2.44.54-4.23-.72-5.77-3.13-9.24-4.86-13.95-1.28-3.27-2.35-6.91-4.75-8.83-7.87,3.21-12.25,13.91-19,19.61-1.56.52-2.67,1.83-4.17,2-3.63,4.7-9.41,4.56-12.37,10.44l4.17.73c3.13-1.12,5.94-2.79,8.35-3.73,3-1.07,4.4-2.32,6.82-4.23a133.92,133.92,0,0,0,12.18-12.56C1614.46,357.27,1615.78,364.91,1620.12,369.46Zm-2.8-68.7c-6.92,7.52-12.62,17.46-19.07,25.68-5.19,4-10.15,9.56-14.85,14.42-1.67,1.78-3.51,3.13-4.93,5-.64.86-1,2.47-1.63,3.42a14.56,14.56,0,0,0-2,2.82c8.37-3.33,15.51-9.71,22.15-16.4,6.93-6.9,12-16,18.34-24.31,1.76,18.32,8,33.4,13.71,47.77.8,1.91,1.31,4.69,3,5.95.67-.85,1.6-1,2.43-1.74,1.22-3.05,1.07-5.19,1.66-8.79-2.62-9.6-6.71-18.08-9.22-27.79-2-7.55-3.66-15-5.05-22.73-.61-2.48-.43-5.5-1.57-7.86-.12,2.23-.9,2.23-1.89,1.52C1618.23,299.16,1617.56,299.52,1617.32,300.76Zm108.87,12.12c-6.92,7.52-12.62,17.46-19.08,25.68-5.18,4-10.14,9.56-14.84,14.42-1.67,1.78-3.52,3.13-4.94,5-.63.86-1,2.46-1.63,3.42a14.49,14.49,0,0,0-2,2.82c8.37-3.33,15.51-9.72,22.14-16.4,6.94-6.9,12-16,18.35-24.31,1.75,18.31,8,33.4,13.71,47.77.8,1.91,1.31,4.69,3,5.95.68-.85,1.61-1,2.44-1.74,1.22-3.05,1.06-5.19,1.65-8.8-2.62-9.59-6.7-18.07-9.21-27.78-2-7.55-3.67-15-5.06-22.73-.6-2.48-.42-5.5-1.57-7.86-.12,2.23-.89,2.23-1.88,1.52C1727.1,311.28,1726.42,311.64,1726.19,312.88ZM1615.05,178.79c4.14,10.46,7.12,21.13,14.09,28a5.6,5.6,0,0,0,1.47,4.49c5.68-2.73,10.78-9,15.73-15,4.8-5.64,9.73-11.48,14.8-17.38,8.43-9.84,17.38-19.89,24.92-31.84,1.17-1.87,2.67-3.66,3.56-5.18,2.27-5.22,1.12-9.18,1.1-13.59-1.55,2.29-3,4.38-4.49,6.88-.57.1-1,.32-1.62.41-1.47,3.2-4.07,4.28-6.13,6.49-1.64,1.89-3,4.52-4.66,6.48-5.15,5.89-10.83,10.49-15.65,16.44-3.33,4-6.49,8.21-9.58,12.49-3.22,4.07-6.41,8.43-10.07,11.91a36.77,36.77,0,0,1-5.82,6.66c-4.73-5.95-7.09-13.94-9.87-21.61s-5.86-15.22-8.8-22.64c-3.89-9.53-6.7-19.75-9.48-29.6-1.3-4.57-2.45-8.92-3.86-12.89l-6.82-1.2a14.16,14.16,0,0,0,2,3.8c2.12,7.47,3.18,15.53,4.55,23.34a148.43,148.43,0,0,0,6.19,22.86C1609.1,165,1612.32,171.8,1615.05,178.79Zm185.23-21.09c-7.87,11.42-17.39,20.18-26,30.27-6.4,7.54-13.45,15.26-19.12,23.42-2.11,3-3.34,6.8-5.75,9.53-3-5.84-3.8-13.18-6.2-19.6s-5.65-11.82-7.92-18c-4.54-12.45-6.83-27.9-17-35.31a20.65,20.65,0,0,0-1.71-3.25c-1.12-.46-.79,1.45-1.85.89,0-1.11-.79-1-.5.17-.62-.37-.91-2.51-1.71-1-.14,3.91,1.85,8.4,2.83,12.1a117.76,117.76,0,0,1,7.08,19.76,120.56,120.56,0,0,0,7.3,20.16,125.6,125.6,0,0,1,7.61,19.87c1,3.33,1.84,7.12,3.05,10.29a28.23,28.23,0,0,1,2,4.77c.6,1.6.54,4,1.66,5.32a8.45,8.45,0,0,0,3.73-.14,8.78,8.78,0,0,0,2.79-5.69,351.13,351.13,0,0,0,30.11-35.18c4.79-6.26,9.33-12.53,14.46-19.41,4.28-5.64,10.72-13.58,13-21.95.57-2.35.42-4.07-.65-5.23-1.59.69-2.68,2.8-3.74,4.06C1802.55,155.24,1801.52,156.14,1800.28,157.7ZM1754,175.35c1.24,2.36,1.66,5.61,2.7,8.05-.72.86-.39,2.11-.61,3.24a14.79,14.79,0,0,0,3.57.94c13.54-10.24,24.28-25.69,33.49-44.43l-3.5-.62a14.28,14.28,0,0,0-1.71,1.75c-.59-1-.39.24-.3.26-3.73,2.88-8.48,10.53-14.15,11.41-2.18,2.64-5.09,4.42-7.21,7.89-1.55,2.55-2.24,6.2-4.52,8.45-3.57-12.55-7.08-25-12.56-35.59a6.65,6.65,0,0,1-1.77-1.59l-6.49-1.14a2.5,2.5,0,0,1,0,1.27,5.86,5.86,0,0,1,.47,4.12c1.74,4,2.8,8.48,4.87,12.06C1748.74,159.36,1750.26,168.39,1754,175.35Zm-130.15-43c2.51,7.94,4,17,7.75,23.93,1.24,2.36,1.65,5.61,2.7,8-.72.86-.4,2.11-.61,3.24a15.26,15.26,0,0,0,3.57.94c13.54-10.24,24.28-25.69,33.49-44.43l-3.5-.62a14.28,14.28,0,0,0-1.71,1.75c-.59-1-.39.24-.31.26-3.72,2.87-8.47,10.53-14.14,11.41-2.18,2.64-5.09,4.42-7.21,7.89-1.56,2.55-2.24,6.2-4.52,8.45-3.57-12.55-7.08-25-12.56-35.59a6.65,6.65,0,0,1-1.77-1.59l-6.49-1.14a2.5,2.5,0,0,1,0,1.27,5.86,5.86,0,0,1,.47,4.12C1620.7,124.35,1621.75,128.79,1623.83,132.37Zm-42.15,119.68c-.5-3.53-3.45-4.53-4.76-7.63-1.37-3.68-.4-9.29-3-12.26-2.34,1-3.37-1.47-4.84-3-.15,2.4-1.7,1.72-2.46,3,.31,1.51.55,3,.83,4.73-2.72,6.67-6.12,11.45-9.38,16.88-.07,4,1.82,5.44,2.57,8.75.91,3.38,1.44,6.52,2.64,9.28,1.13-.5,1.6,1.08,3,1.23,3-1.14,5.19-4.69,8-8.34C1576.68,261.5,1581.64,257.07,1581.68,252.05Zm-17.09,53.73c1.86.42,3-1.67,4-3,3.87-4.75,6.84-10.22,10.3-15.61,5.14-8.54,12.27-14.88,15.43-25.53,1.9-2.31,4.68-2.92,6.4-5.4a28.16,28.16,0,0,0,.68-5c-.49-4.23-4.35-9.33-6.41-13.92-1-2.12-2-4.85-3-7.33-.9-2.54-2.44-4.85-3.1-7-1.27-4.23-1.48-9.52-2.58-13.95-.79-3.8-2-10.27-3.72-12.65-1.88-2.61-7.14-3.93-9.87-3.13a16.38,16.38,0,0,0-1.18,4.91c-3.8,4.65-5.23,11.1-8.57,15.81-1.63,2.27-3.59,4-5.25,6.4-3.39,5-5.92,10.65-9.5,15a40.72,40.72,0,0,0-5.38,6.6c-1.81,3.48-2.63,7.84-4.16,11.63.1,1.95.66,3.82.35,6.14,3,3.1,4.66,7.44,7.73,10.1,3.88,9.55,9.87,17,12.83,27.32C1561.57,299.7,1561,304.79,1564.59,305.78Zm-14.43-51.28c8.19-13.52,16.63-26.15,25-39.1,4.07,11.26,5.53,25,9.91,36.2-.68,4.78-3.44,7.78-5.44,11-4.42,7.29-9.59,13.93-13.13,23.36C1560.94,275.59,1557,263.69,1550.16,254.5Zm95.44,17.88c1.42,4.75,3.07,8.79,4.15,12.64,2.51,9.27,5.69,17.33,8.13,25.34-1.37,6.12,0,10.86,4.19,10.18,1.68-.23,4.37-2.41,6.58-3.87,6.28-4.1,13.1-11.55,17.92-15.64a316.84,316.84,0,0,0,23.72-21.6c1.58-3.61,4.66-5.8,4.69-10.74-.34-2.08-2.44-2.37-3.51-3.53-.85-9.41-4.72-17.41-7-27.83-1.17-5.46-1.54-11.26-3.42-17.24-.67-2.19-1.33-5.06-2.22-8.06-.6-2.1-1.88-6.73-2.82-7.69-1.13-1.28-3.13-1-4.14-2.21-.3-1.13,1.07-2.68.15-3.52-.77-1.41-1,1.5-2.15.9-.27,1.43-1.74.57-2.43,1.05-.71,1.47-1.76,1.54-2.68,2.09-7.12,13.82-17.1,22.52-25.37,32.84-2,2.6-3.74,5.26-5.68,7.78-3.56,5-8.72,8.18-11.51,14.3-.75,2.83.73,4.81,1.74,7.9A65.77,65.77,0,0,1,1645.6,272.38Zm7.14-11.89c11.56-10.23,21.91-22.49,32.49-34.79,2.57,6.23,2.66,14.41,5.86,19.82,2.65,6.47,4.81,13.25,8.55,18.53-.9,3.64-4.7,6.24-7.78,8.87-5.56,4.85-10.38,10.09-16,14.93-4.14,3.69-7.71,6-11,11-1.56-2.66-2.25-6.31-3.09-9.59C1659,280,1656.55,269.45,1652.74,260.49Zm17.08,23c2.83-1.35,4.12-3.6,6.63-6.42,4.87-5.54,12.13-9.17,14.44-18.91-2.11-7.07-3.39-14.89-7.44-20.1-.93-.07-1.17,1.65-1.84,1.13-1.41.15-2.43,1.43-4,1.37-1,6.53-5.21,10.12-7.93,14.93a51.07,51.07,0,0,0-9.67,10.7c2,5.25,4.56,10.29,5.74,16.58C1667.36,282.87,1668.33,284.14,1669.82,283.52Zm-1.9-19.57c.76.49.25,1.15-.28,1.45C1667,265.2,1667.68,264,1667.92,264Zm-140.48,24.63c5.29,12.09,10.55,23.25,16.38,35.48,1.56,3.32,3.18,7.75,4.92,12.21,1.44,3.78,3.44,9.16,5.87,11.53,3,2.9,6.34-1.89,8.53-4.41,2.91-3.11,5.59-5.9,8.44-8.93,6.83-7.76,13.91-15.64,20-23.92,5.18-7.21,9.91-14.72,14.8-21.93,5.17-7.39,9.56-15.17,14.82-21.62,3.82,12.19,6.79,25.15,10.8,36.76a125.91,125.91,0,0,1,3.15,12.95c1.88,8.31,4.83,15.5,7.45,24.43,1,3.53,2.72,7,4.22,11.59,1.28,4.15,2.54,10.51,4.87,11.36,3.06,1.33,8.64-3.86,11.25-6.27,4-3.41,7.2-6.28,10.39-9.07q20.6-18.56,40.1-38c6.5-6.62,12-15,18.72-21.72,3.3,8.48,5.13,18.42,8.57,27.58,3.08,8.53,7.32,16.82,10.13,26.13,2.52,9,5,17.92,9.29,26.7a132.65,132.65,0,0,1,5.43,12.95c1.09,2.89,3.88,11.14,6.29,11.87,2.75,1.11,3.43-1.34,5-3.74,3.13-1.73,74.15-71,77.14-73.31a7.28,7.28,0,0,0,.15-.92,2.58,2.58,0,0,0,.57-.84c1-2.33-12.44-57.45-11-59.32.13-.83.28-1.66.48-2.48-.24-.88-.47-1.76-.69-2.61-.39-2.06-.75-3.8-1.14-5.83-1.47-7.25-4.27-13.45-6.88-20.11-2.78-6.49-3.62-14.12-7-20-1.53-2.82-3.21-5.57-4.75-8.77a51.48,51.48,0,0,0-2.07-4.8c-1.51-2.93-3.68-4.88-3.82-9-.81-.24-2.15,0-2-1,1.09-2.57,2.64-4.39,3.54-7.36-2.38-.82-3,2.42-4.83,2.78-1.58-1.64-1.27-6.22-3.34-6.47.35,1.34-2.07,1.88-1.21,4.19-.51.43-1.31.09-1.8.4-1,3.35-.38,5.24.38,8-4.17,5.46-8.44,11-13.38,15.07-.23,1.24-1.11,1.09-1.22,2.35a8.12,8.12,0,0,1-2.19,1.38c-2,3.39-4.33,5.63-6.37,8.71-2.08,3.3-3.8,6.92-5.88,10.2-2.11,3-4.66,5.58-7,8.24s-4.58,5.57-7,8.33a202.24,202.24,0,0,1-18.22,18.41c-3.8,3.48-7.31,7.5-11.52,10-1.82-9.09-5.59-16.9-8.6-25.11-1.63-4.17-2.56-8.83-3.94-13.14s-3.53-8-5.07-12.1-2.39-8.8-3.62-13.25-2.8-8.66-4-13.1-1.68-9.34-2.89-13.9-3.1-8.42-3.94-13.09a7.54,7.54,0,0,0,0-4.64c-.71-.32-.64-1.19-1.86-1.09-.72-4-2.5-8.63-5.93-8.72-1.17.06-2,1.5-3.1.91.39,2-1.75,1.57-2.44,2.92,2.6.37.12,4.17,1.18,6.32-1.1,1.95-2.81,4.08-3.13,7.07.15-.67.55-.74.84-.19a7.37,7.37,0,0,1-3.36,4.81c.43.28.84-.34.88.16-.9,2-1.93.65-2.89,2.07.41.14.78-.46.8.14-2.46,1.82-2.29,3.7-5,5.31.15-.79.82-.67,1.06-1.29-2,.22-2.75,3-3.81,4.45-2.44,3.6-4.36,6.49-7,10-3.7,5.47-8.3,9.58-11.14,15.28a.27.27,0,0,1,.48.19c-2,1-3.42,3.12-4.89,4.94.7.43,1.53-1.69,1.69-.69-.92,1.42-2.11,2.5-2.82,4.64-1.24,0-1.6,1.88-2.9,1.92a12.61,12.61,0,0,1-1.27,2c-1.32.83-2.27,2.25-3.59,3.3-1.08,1.17-2.48,2.21-3.27,3.88-.51.17-2.77,2.16-1.45,1.51.32.14.45-.54.46.08-6.32,5.94-12.74,11.7-18.72,18.55-2.35-9.46-5.89-18.29-9.56-27.1-5.41-12.86-10.28-26.71-15-40-1.62-4.43-3.67-8.63-5.21-13.23-1.42-3.89-3.19-8.63-5.06-13.31-2.29-5.43-4.19-11.55-8.35-13.46-2.86.57-4.45,3.74-6.85,5.1,1,.56,1.42,1.82,1.17,3.84.46.94,1.43,1.53,1.48,3.11-.91.92-1.8,1.54-2.73,2.38.74-1-.12-.52-.32-.36-2.17,1.47-5.26,10.09-8.21,12.75-.55.87.59.3.19,1.51-.68,0-1.08.69-1.82.95l-.41,2.18c-2,1.25-3,4-4.27,6.93-.22.47-1.22-.39-1.22.78-.09,1.86-2.47,3.51-2.63,5.05.37-.33,1.06-2,1.16-.88-1.22,2.35-3.92,3.44-3.8,6.9-.4-.84-1,.22-1.71.41-.82,3.89-3.94,6.29-5.83,9.49-.46,1.51.64-.19.44.87-2,1.72-2.9,5.8-5.06,7-.9,4.08-5.09,7.14-6.11,10.93-.68.68-1.36,1.52-2.09,2.19a5,5,0,0,0-.41,2.18,31.54,31.54,0,0,0-6.15,9.38c-1-.58-.85,1.3-1.62.86-.77,3.13-3,3.26-3.52,6.57a8,8,0,0,0-2.55,4.58l-.12.2-2,10.46c2,7.94,6,14.07,8.57,21.67C1524.48,280.12,1525.6,284.64,1527.44,288.58Zm221.47-19.39c9-9.58,19-18.15,28-28.47,3.13-3.6,6.16-6.9,8.94-10.46,2.95-3.6,5.4-7.69,8.36-11.52,5.66-7.45,11.33-14.73,18.22-20,1.33,1.42,1.82,3.85,2.3,6.11s.24,5.56,2,6.66a4.82,4.82,0,0,0,0,2.76c1.75,5.82,3.31,11.69,5.45,17,10.37,33.95,14.68,68.05,20.82,81.46-8.93,8.31-53,50.22-54.51,51.51-4,3.53-7.69,7.43-11.45,11.22-1.43-.87-1.08-3.19-1.56-4.73-.44-1.75-1.45-2.81-1.35-4.69-3.41-10.7-7.33-21-10.83-31.6-1.77-5.21-3.23-10.71-5.24-15.79-1.15-2.36-2.11-5-3.2-7.44a71.7,71.7,0,0,0-3.16-7.44c-2-4.1-5-7.32-6.92-11.67s-3-9.14-5.34-13C1742,274.85,1745.74,272.33,1748.91,269.19ZM1667,196.37c1.6-3.93,5.77-6.66,6.44-9.1.31-.26.67.11,1.27-.55.12-.69-.08-.72-.34-.26-.18-1.11,1.63-2.28,2.25-3.05,1.27-2,1.8-4.31,3.36-4.83-.19,1-1,1.1-1.16,2.06.68.52.3-1.14,1.06-.6-2.27,3.35-5,5.52-6.73,10.13-.85.42-1.17,2.15-2.17,2.18-.73,1.83-1.67,3.14-3.07,3.3.12,2.07-2.57,2.21-3.39,3.83C1664.11,198.05,1666.22,197.14,1667,196.37Zm20.18-8.94c.37.55-.52,2.07-1.23,1.72C1686.37,188.37,1686.82,188,1687.15,187.43ZM1665.21,200c-.26.24-1.8,2.92-3.21,2.39A18.72,18.72,0,0,1,1665.21,200Zm-3.33,3.05c-.38.42-.41,1.5-1.31,1.25C1660.88,203.57,1661.05,202.63,1661.88,203.06Zm-.35,1.82c.73.72-.89,1.12-1.16,1.86C1659.76,205.84,1661.3,205.43,1661.53,204.88Zm-11.09,13.91c-.29.65-.72.67-1.27.57C1649.38,218.69,1649.82,218.46,1650.44,218.79Zm12.8.57a290.77,290.77,0,0,0,24.66-31.8c2.46-3.71,4.82-7.82,7.93-10.82,2.49,4.58,2.81,11.12,4,16.95,1.91,4.46,3.23,9.33,4.94,14,.92,9.71,5.56,16.81,8.35,25.07s5.33,16.91,9,24.44c2.3,5.61,3.47,12.43,7.08,16.77-.13.69-.34.65-.6,1.13a7.84,7.84,0,0,1-2.41.9,79.47,79.47,0,0,0-16.94,16.66,133.87,133.87,0,0,1-16.14,17.85c-5.68,5.49-11.17,11.36-16.77,16.65-7.1,6.42-14.94,11.53-21.68,19.39-3.48-6.61-4.75-14.91-7.26-22.37a99.14,99.14,0,0,1-3.45-11.41c-.85-3.9-1.5-8.25-2.58-12.06s-2.71-7.36-3.74-11.2-1.74-8.12-2.91-11.72c-2.23-7.58-5.46-14.46-7.35-22C1638.83,242.51,1651.71,232.16,1663.24,219.36Zm-93.16-60.78c.71.61-.34.9-.44,1.4C1569,159.44,1570,159.05,1570.08,158.58Zm-2.28,4.32c.48.19-.3,1.62-.91,1.22A4.91,4.91,0,0,1,1567.8,162.9Zm-2.31,2.94c.29,0,.08.7.46.77-.16.85-.94.63-1.31,1.22C1564.19,167.49,1565.36,166.5,1565.49,165.84Zm-10,17.83c-.1-2.18,2.12-3.47,2.87-5.41a31.77,31.77,0,0,1-5.19,8.84C1553.11,186.1,1554.72,184.42,1555.46,183.67Zm-26.33,42c-.39.72-.85,1.35-1.16,2.09C1527.4,227.15,1528.42,225.4,1529.13,225.7ZM1518.81,241c.47.48-.61,1.17-.71,1.73C1517.5,242.27,1518.72,241.51,1518.81,241Zm7.32,19.82c1.57-.12,1.74,3.57,2.7,4.88C1527.58,265.48,1527.09,262.13,1526.13,260.82Zm3.2,8.15c1.11.06,1.51,3.62,1.85,5.44C1530.19,272.83,1530.06,270.55,1529.33,269Zm2.76,8.87c.28-.84,1.06.05.68.73C1532.48,278.48,1532.5,277.91,1532.09,277.84Zm.52,1.55c2.36,1,2.74,6.26,5.13,8.18.52-.71-.59-2.58-1.53-2.83.34-1.13-.73-.92-.06-2.18-.73-1.4-2-2.33-1.94-4.35-.21-.48-.88-.59-1.19-1-1.29-4.55-2.66-9.38-4.28-13.77a111.06,111.06,0,0,0-7.72-13.36c.18-1.43,1.07-1.62.88-3.11,19.91-26.9,38.2-56.88,56.38-87.64,1.52,2,1.57,5.4,3.4,7.09a25.88,25.88,0,0,0,3.65,9.4c.21,3,1.62,5.09,2.6,7.64,6.2,16.65,10.73,35.75,19.44,50.7,2.67,8.23,4.63,17.66,10.47,22.09-4.34,1.57-6.34,7.58-10.28,9.8-4,6.22-7.78,13-11.59,19.75-2.21,2.35-4.52,4.59-6.1,8.37-3.85,4.27-7.17,9.33-10.75,14.17-3.46,4.43-7.42,8.31-10.62,13.67-3.29,4.45-7,8.2-10.4,12.95-2.85-5.84-4.5-12.62-6.89-18.64-.34-.5-1.24-.31-1.54-1,.46-.62.74,0,.53-1-.89-2.14-2-4.22-2.84-6.4-.94-1.85-1.62-4.44-3.25-5.6a14.34,14.34,0,0,0-.75-2.87c-.32.12-.5.4-.77.92-.5-.09.59-3.6-.21-1.63-.54-.09-.37-1,.08-1.35-1-2.24-1.86-4.25-2.71-6.35-1.12,2,2.29,3.58,1.08,5.67C1537.61,291.47,1536,284.47,1532.61,279.39Zm228.75,16.87c1.91,8.1,4.26,16.19,6.85,23.7,2.45,7.76,4.38,15.78,7.75,23a108.38,108.38,0,0,1,3.54,10.94c.28,1.2-.13,3.42,1.31,3.94.74-.22.68-1.73,1.28-2a1.39,1.39,0,0,0,1,.53c.56-.26.4-2.1,1.06-2,3.75-2.78,7.36-5.28,10.91-7.92,2.09-1.36,29.58-29,31.49-30.7,8.49-18.91,6.27-16.07,2.46-29.78a202.08,202.08,0,0,0-9.11-28.69c-2.81-6.76-5-14.24-8-20.28.35-1.42-.2-1.91.14-3.24-4.22-1.62-2-9.39-6.31-10.84-1.54,2-2.89,5.1-4.68,7.74-.38,1.3.4,1.54-.07,2.63-6.87,12.76-15.7,22.15-24.89,30.77,0,1.18-.57,1.18-.74,2.07-3.5,1.51-6,5.22-9.77,6.23-1.57,1.48-2.79,3.39-4.93,3.54-.51.22-.59,1.57-1,1.94a1.76,1.76,0,0,0-1.61-.59c0,1.37-.45,2.88-1.29,2.73-.76,2.69.59,4.21,1.42,6.65C1759.16,290.14,1760,294.35,1761.36,296.26Zm7.53-12.79c13.21-9.15,24.45-22.27,36.23-34.14a111.39,111.39,0,0,1,2.76,13.46c4.49,11.11,7.86,23.35,11.59,35a1.36,1.36,0,0,0,.11.81c.08.28-.13.24-.3.21-.4,2.14-2.81,2.86-4.33,4.76-.67.81-1,1.9-1.49,2.61-1.56,1.66-3.18,2.08-4.72,4.28a23.93,23.93,0,0,1-2.4,3.2c-.94.85-2,1.24-2.83,2-.52.71-.73,1.82-1.22,2.35s-1,.61-1.6,1.22c-1.5,1.76-2.77,4.23-5.18,4.91-3.79,4.1-6.86,9.91-11.47,12.45a26.34,26.34,0,0,1-2.21-6.52c-1.27-4.23-2.27-8.73-3.68-13.35C1775,306.16,1772.48,294.29,1768.89,283.47Zm28.51,26.18c2.64-2.18,4.76-2.87,6.39-4.7,1.69-2.79,4.24-4.9,4.55-8.64.32-3.3-1.88-6-2.86-8.8-.83-2.88-.88-6.95-1.75-10.54-.91-3.42-2.29-8.17-4-10.06-1.33-.15-2.19-.76-2.69.19l0,0c.27.06.49.19.18.38-.06-.14-.12-.26-.18-.38h0s0,0,0,0c-1-1.83-2.66-.44-3.91-2.14-1.21,2.52-.77,4.54-.36,6.46-2.53,4.54-5,9.19-7.61,13.23a24.73,24.73,0,0,0-5.42,5.93c-.14.28-.13.68-.29.65-.29,2,.23,2.87-.7,4.6.22.87,1.83.81,1.66,2.14-.21.67-.79.09-.41,1,2,4.95,3.19,10.71,5.49,15.44,0,1.14-.39.9-.17,1.82C1789.15,322.36,1792.89,313.05,1797.4,309.65Z"/>
</svg>