<svg width="24" height="24" viewBox="0 0 24 24" fill="none" xmlns="http://www.w3.org/2000/svg">
<path fill-rule="evenodd" clip-rule="evenodd" d="M17 15.311C17 15.5294 16.8232 15.7063 16.6052 15.7063L8.46757 15.7063C8.01569 15.7063 7.64556 16.0769 7.64478 16.5294C7.64478 16.9826 8.01492 17.3532 8.46757 17.3532H16.6052C16.8232 17.3532 17 17.5302 17 17.7485V18.6047C17 18.823 16.8232 19 16.6052 19H8.46757C7.11041 19 6 17.8882 6 16.5294V7.47063C6 6.11179 7.11041 5 8.46757 5H16.6052C16.8232 5 17 5.17698 17 5.3953L17 15.311ZM9.23023 8.05373C9.19656 7.96275 9.06788 7.96275 9.03422 8.05373L8.66243 9.05846C8.55659 9.3445 8.33107 9.57002 8.04503 9.67586L7.0403 10.0476C6.94932 10.0813 6.94932 10.21 7.0403 10.2437L8.04503 10.6154C8.33107 10.7213 8.55659 10.9468 8.66243 11.2328L9.03422 12.2376C9.06788 12.3286 9.19656 12.3286 9.23023 12.2376L9.60201 11.2328C9.70785 10.9468 9.93338 10.7213 10.2194 10.6154L11.2241 10.2437C11.3151 10.21 11.3151 10.0813 11.2241 10.0476L10.2194 9.67586C9.93338 9.57002 9.70785 9.3445 9.60201 9.05846L9.23023 8.05373ZM16.2595 13.4408C16.2969 13.6315 16.1956 13.8236 16.0128 13.89C15.2525 14.1663 14.3952 14.33 13.486 14.3495H13.1182C12.2046 14.3299 11.3434 14.1647 10.5803 13.8859C10.4055 13.8221 10.3033 13.6421 10.3331 13.4583C10.3615 13.283 10.3929 13.1148 10.425 12.9897C10.5348 12.5617 11.1522 12.2439 11.7203 11.9995C11.8691 11.9355 11.9589 11.8844 12.0496 11.8328L12.0497 11.8328C12.1383 11.7824 12.2278 11.7315 12.374 11.6676C12.3906 11.5888 12.3973 11.5083 12.3939 11.4279L12.6455 11.398C12.6455 11.398 12.6787 11.4582 12.6255 11.1047C12.6255 11.1047 12.3427 11.0314 12.3296 10.4684C12.3296 10.4684 12.117 10.5391 12.1042 10.198C12.1015 10.1301 12.084 10.0647 12.0671 10.0021C12.0268 9.85197 11.9907 9.71754 12.1746 9.60041L12.0419 9.24647C12.0419 9.24647 11.9023 7.8797 12.5142 7.99035C12.2659 7.597 14.3598 7.27004 14.4989 8.47443C14.5536 8.8375 14.5536 9.20649 14.4989 9.56956C14.4989 9.56956 14.8117 9.5336 14.6029 10.1283C14.6029 10.1283 14.4879 10.5564 14.3113 10.4603C14.3113 10.4603 14.3399 11.0012 14.0619 11.0929C14.0619 11.0929 14.0818 11.381 14.0818 11.4005L14.3142 11.4352C14.3142 11.4352 14.3071 11.6755 14.3535 11.7015C14.5654 11.8384 14.7978 11.9421 15.0422 12.0091C15.7637 12.1922 16.13 12.5064 16.13 12.7815L16.2595 13.4408Z" fill="#95C500"/>
<path fill-rule="evenodd" clip-rule="evenodd" d="M17 15.311C17 15.5294 16.8232 15.7063 16.6052 15.7063L8.46757 15.7063C8.01569 15.7063 7.64556 16.0769 7.64478 16.5294C7.64478 16.9826 8.01492 17.3532 8.46757 17.3532H16.6052C16.8232 17.3532 17 17.5302 17 17.7485V18.6047C17 18.823 16.8232 19 16.6052 19H8.46757C7.11041 19 6 17.8882 6 16.5294V7.47063C6 6.11179 7.11041 5 8.46757 5H16.6052C16.8232 5 17 5.17698 17 5.3953L17 15.311ZM9.23023 8.05373C9.19656 7.96275 9.06788 7.96275 9.03422 8.05373L8.66243 9.05846C8.55659 9.3445 8.33107 9.57002 8.04503 9.67586L7.0403 10.0476C6.94932 10.0813 6.94932 10.21 7.0403 10.2437L8.04503 10.6154C8.33107 10.7213 8.55659 10.9468 8.66243 11.2328L9.03422 12.2376C9.06788 12.3286 9.19656 12.3286 9.23023 12.2376L9.60201 11.2328C9.70785 10.9468 9.93338 10.7213 10.2194 10.6154L11.2241 10.2437C11.3151 10.21 11.3151 10.0813 11.2241 10.0476L10.2194 9.67586C9.93338 9.57002 9.70785 9.3445 9.60201 9.05846L9.23023 8.05373ZM16.2595 13.4408C16.2969 13.6315 16.1956 13.8236 16.0128 13.89C15.2525 14.1663 14.3952 14.33 13.486 14.3495H13.1182C12.2046 14.3299 11.3434 14.1647 10.5803 13.8859C10.4055 13.8221 10.3033 13.6421 10.3331 13.4583C10.3615 13.283 10.3929 13.1148 10.425 12.9897C10.5348 12.5617 11.1522 12.2439 11.7203 11.9995C11.8691 11.9355 11.9589 11.8844 12.0496 11.8328C12.1383 11.7824 12.2278 11.7315 12.374 11.6676C12.3906 11.5888 12.3973 11.5083 12.3939 11.4279L12.6455 11.398C12.6455 11.398 12.6787 11.4582 12.6255 11.1047C12.6255 11.1047 12.3427 11.0314 12.3296 10.4684C12.3296 10.4684 12.117 10.5391 12.1042 10.198C12.1015 10.1301 12.084 10.0647 12.0671 10.0021C12.0268 9.85197 11.9907 9.71754 12.1746 9.60041L12.0419 9.24647C12.0419 9.24647 11.9023 7.8797 12.5142 7.99035C12.2659 7.597 14.3598 7.27004 14.4989 8.47443C14.5536 8.8375 14.5536 9.20649 14.4989 9.56956C14.4989 9.56956 14.8117 9.5336 14.6029 10.1283C14.6029 10.1283 14.4879 10.5564 14.3113 10.4603C14.3113 10.4603 14.3399 11.0012 14.0619 11.0929C14.0619 11.0929 14.0818 11.381 14.0818 11.4005L14.3142 11.4352C14.3142 11.4352 14.3071 11.6755 14.3535 11.7015C14.5654 11.8384 14.7978 11.9421 15.0422 12.0091C15.7637 12.1922 16.13 12.5064 16.13 12.7815L16.2595 13.4408Z" fill="#95C500"/>
</svg>
