<svg viewBox="0 0 220 124" fill="none" xmlns="http://www.w3.org/2000/svg">
    <path fill-rule="evenodd"
          clip-rule="evenodd"
          d="M67.6546 8.55821C67.6546 10.8581 68.6939 13.8251 67.9541 15.0014C67.4307 15.9223 67.1557 16.9626 67.1557 18.021C67.1557 19.0794 67.4307 20.1198 67.9541 21.0407C69.0638 23.7093 69.7155 23.6039 71.0366 25.6229C71.3786 26.0777 71.6626 26.5731 71.8821 27.0976C72.0759 27.6419 72.1463 28.3617 72.3753 28.941C72.7805 29.9593 73.2032 30.328 73.1856 31.276C73.1856 31.8378 72.0406 32.821 72.0406 33.4881C72.0406 34.7171 73.1856 35.0331 73.1856 36.1216C73.1856 37.5436 71.1247 38.3337 71.1247 39.6328C71.1247 40.932 71.8821 41.3884 71.8821 42.0556C71.8671 42.6511 71.6208 43.2175 71.1952 43.6357C70.1383 44.6539 70.4553 44.8646 70.2968 46.0409C69.8274 47.6564 69.0565 49.1693 68.0245 50.5002C67.6288 51.412 67.0875 52.2539 66.4216 52.9932L65.5057 53.9236C64.713 54.7312 64.484 54.8014 64.3783 55.8197C64.2198 57.47 63.3391 56.5395 61.6833 57.5753C60.7497 58.1722 59.3582 60.121 58.6184 60.121C57.5439 60.121 57.9843 58.102 58.2309 57.5051C58.4775 56.9082 59.7457 55.8899 59.7457 55.2755C59.7457 54.0816 59.3758 53.8534 59.3758 52.6596V51.9222C59.3758 49.1483 63.3038 49.359 63.8147 45.9355C63.9732 44.847 63.8147 44.3555 64.0084 43.899C64.3098 43.2531 64.7143 42.6601 65.2062 42.1434C66.6682 40.3877 65.9813 40.1068 66.6682 38.0703C67.9893 34.5591 68.8348 34.8048 66.0517 30.9425C65.0829 29.5731 65.8756 28.0983 65.5057 26.29C65.3119 25.342 63.48 24.4115 63.48 22.9017C63.48 17.1081 63.8499 17.389 60.9435 13.5091C60.1861 12.5259 59.0411 10.5947 58.3894 9.89248C57.8493 9.43098 57.3804 8.89266 56.9978 8.29486C56.6808 7.73306 56.487 6.13544 55.9938 6.13544C55.2012 6.13544 54.8841 8.45287 54.8841 9.31313V9.85737C54.8841 13.2633 57.8786 15.6158 57.8786 16.8799V17.073C57.8786 18.8286 55.941 18.8286 57.3149 21.7254C57.8477 22.8088 58.2839 23.9367 58.6184 25.0962C58.8135 25.5448 58.8838 26.0375 58.8218 26.5226C58.7598 27.0076 58.5679 27.467 58.2661 27.8526C57.827 28.2412 57.5504 28.7801 57.4911 29.3624C57.4911 31.118 59.2525 31.118 59.3758 34.5239C59.4991 37.9299 56.8041 37.0345 56.5575 39.5977V39.7908C56.5575 41.6869 57.8081 43.3021 56.4166 44.689C54.6551 46.4447 54.6551 46.0584 54.6551 48.9201V49.4819C54.6551 50.7459 52.8937 52.8703 52.6294 55.6441C52.1362 59.0501 51.0618 59.5592 50.5157 61.9117C49.864 64.633 50.5157 66.3184 49.2298 68.9342C48.0391 70.8048 47.3312 72.9398 47.1689 75.1492C47.1689 76.1499 47.9792 77.1155 48.2258 78.1337C48.402 78.8711 48.6309 81.2412 49.2298 81.2412C50.3219 81.2412 50.8151 79.3978 51.1498 77.7299C51.349 77.0057 51.6266 76.3052 51.9777 75.6407C52.4221 74.8009 53.0194 74.0508 53.7392 73.4287C54.4586 72.5944 55.052 71.6599 55.5006 70.6548C55.9174 69.9213 56.5262 69.3145 57.2621 68.8991C58.2867 68.3859 59.2208 67.71 60.0275 66.8977C60.2451 66.4895 60.531 66.1214 60.873 65.8092C61.4051 65.5275 61.9662 65.3038 62.5464 65.1421C63.4452 64.5987 64.4362 64.2238 65.4704 64.036C67.1086 64.036 67.637 65.5283 69.1871 65.5283C69.8741 65.5283 71.3185 64.2994 72.3577 64.2994C76.2857 64.2994 78.7166 64.2994 81.2883 66.8626C81.787 67.3815 82.2028 67.9736 82.5213 68.6182C82.9264 69.2151 83.3668 69.18 83.8952 69.7945C84.3246 70.312 84.6478 70.9085 84.8464 71.5501C84.9873 72.0593 84.8464 72.586 85.0226 73.06C85.1987 73.534 85.4981 74.2187 86.009 74.2889C86.4999 74.271 86.9834 74.1639 87.4357 73.9729C88.3018 73.8032 89.1981 73.8761 90.0251 74.1836C90.5165 74.518 90.8822 75.006 91.0643 75.5705C91.5752 76.7643 91.0643 76.8521 92.0155 78.1688C92.403 78.7306 93.0548 80.0649 93.777 80.0649C94.9395 80.0649 94.2526 78.3093 94.6929 77.2384C95.1333 76.1674 95.8379 75.9041 95.8379 74.0958V73.534C95.8379 72.3577 94.9924 71.3043 95.1685 70.0227C95.3447 68.7411 96.014 67.4244 96.014 66.3886C96.014 64.633 95.3799 63.8429 95.3799 61.7713C95.3799 60.0157 95.6441 58.4883 95.6441 56.5044V56.364C95.6441 55.5915 94.9043 53.555 94.3582 53.555C93.8122 53.555 93.5127 54.0992 93.4423 54.819C93.4542 55.2012 93.3945 55.5823 93.2662 55.9426C93.1243 56.1453 92.9949 56.3563 92.8786 56.5746C92.772 57.1523 92.5032 57.6879 92.1036 58.1196C91.6161 58.5466 91.2565 59.0994 91.0643 59.7172C90.6416 60.9461 91.0643 61.7888 90.3421 62.1751C89.8842 62.4209 89.4086 62.0346 89.2148 61.6484L88.5102 60.4019C88.2284 59.963 88.017 59.7172 87.788 59.3485C87.5312 59.0052 87.4091 58.5801 87.4448 58.1532C87.4804 57.7264 87.6714 57.3273 87.9818 57.0311C88.3165 56.5746 88.8625 56.2059 89.25 55.6968C89.5221 55.2396 89.7351 54.75 89.8842 54.2396C90.712 51.9924 90.853 52.8176 90.9586 51.4833C90.9586 51.062 90.7297 50.4124 90.7297 49.0957C90.7297 46.3218 92.1036 44.7066 91.3814 42.5472C90.7724 41.0763 90.2949 39.5547 89.9546 38.0001C89.9155 37.4741 89.9155 36.946 89.9546 36.42V36.2445C89.9546 34.7171 87.1363 32.5928 87.1715 28.5373C87.1715 28.3617 87.1715 28.0281 86.8016 28.0106C86.4317 27.993 86.5198 28.1861 86.4493 28.5197L86.2203 30.6616V31.9607C86.2203 33.8392 87.3829 35.1033 87.3829 36.8063C87.3131 37.3759 87.1587 37.9321 86.9249 38.4565C86.6578 38.9251 86.4731 39.4357 86.3789 39.9664C86.2379 41.564 85.5158 42.4067 85.5158 43.3196C85.5158 44.2326 86.0794 44.6539 86.0794 45.0753C86.0072 45.8896 85.6521 46.6533 85.0754 47.2347C84.3708 48.2178 84.5822 48.569 84.3532 49.8857C84.1827 50.8888 83.6951 51.8115 82.9616 52.5191C82.3451 53.0809 81.8343 53.2038 81.482 53.6954C80.8127 54.6961 81.6406 55.0999 80.5132 56.1182C79.991 56.7508 79.3015 57.2252 78.5228 57.4876C78.1881 57.5929 77.2193 57.7685 76.2505 58.0669C75.3028 58.3874 74.3385 58.657 73.3617 58.8745C72.939 58.8745 72.3401 58.6112 72.3929 58.1722C72.4986 57.2769 73.4146 57.628 73.9959 57.0662C74.33 56.5125 74.6017 55.9237 74.8061 55.3106C75.378 54.1429 76.2855 53.1712 77.4131 52.5191C78.9808 51.4833 79.0512 51.3077 79.3683 49.1659C79.6677 47.4103 81.024 46.6027 81.024 45.4966C81.024 44.3906 80.4604 43.741 80.8655 42.9158C81.0917 42.4869 81.3762 42.091 81.711 41.7396C82.0081 41.1693 82.1806 40.5427 82.217 39.9012C82.2534 39.2597 82.153 38.6177 81.9224 38.0176C81.8149 37.0317 81.6502 36.0527 81.4292 35.0857C80.8055 33.4288 80.3338 31.7188 80.02 29.9769C79.8615 28.3792 78.7694 27.0625 78.3995 24.868C78.049 23.2862 77.1892 21.862 75.9511 20.8125C74.939 19.5414 74.0596 18.1708 73.3265 16.7219C72.5138 15.1512 72.0059 13.4417 71.8293 11.6832C71.6179 10.6123 71.248 9.3658 70.9485 8.4002C70.5411 7.08781 70.3507 5.71806 70.3849 4.3447C70.3849 3.29132 70.3849 2.23795 70.473 1.30746C70.473 -0.114596 69.8036 -0.571059 69.2928 1.04412C69.0286 1.88682 69.0814 3.08065 68.87 3.97602C68.2669 5.44429 67.8583 6.98467 67.6546 8.55821Z"
          fill="#8B2628"></path>
    <path fill-rule="evenodd"
          clip-rule="evenodd"
          d="M69.1525 69.6366C68.2189 69.6366 67.391 69.6366 66.8098 69.6366C66.2183 69.4574 65.5937 69.4148 64.9832 69.5122C64.3728 69.6095 63.7927 69.8442 63.2869 70.1984C62.7232 70.5495 61.9834 71.1816 61.2612 71.7258C60.539 72.2701 59.9049 72.5861 59.3588 72.9899C58.6932 73.4912 58.1004 74.082 57.5974 74.7455C57.1501 75.5134 56.7444 76.3045 56.382 77.1156C55.5265 78.5894 55.0316 80.2435 54.9376 81.9436V82.5054C55.138 84.1829 55.4618 85.8435 55.9064 87.4738C56.1706 89.2294 56.0473 90.8797 56.928 91.8804C57.8087 92.8811 58.4076 92.3018 59.3412 93.8292C59.6444 94.2634 59.9801 94.6742 60.3452 95.0581C60.593 95.4551 60.9022 95.8106 61.2612 96.1115C61.6893 96.4382 62.1913 96.6553 62.7232 96.7435C64.379 97.0244 64.8369 96.3748 65.929 97.7267C66.4927 98.4113 66.6688 98.6747 67.5143 98.7098C68.3354 98.6331 69.1354 98.407 69.8747 98.0427C70.8611 97.6038 71.3543 97.9022 72.0589 97.6389C72.9586 97.3076 73.816 96.8716 74.613 96.3397C75.4625 95.7449 76.1966 95.0013 76.7796 94.1452C77.1056 93.5524 77.3374 92.9128 77.4665 92.2491C77.7172 91.5716 77.8714 90.8625 77.9245 90.1423V89.2119C77.9245 87.6142 77.1847 84.7701 75.9869 84.5419C74.7891 84.3137 74.5249 84.8755 73.1158 83.8045C72.8762 83.5741 72.6526 83.3277 72.4464 83.0672C72.1998 82.8214 72.0941 82.3649 71.6361 82.3122C70.4207 82.1542 69.7514 82.8916 69.0292 82.8389C68.4638 82.7429 67.883 82.8687 67.4087 83.1901C66.7881 83.6509 66.2868 84.2528 65.9467 84.9457C65.4358 86.1395 65.3125 87.7547 66.0523 87.702C67.2677 87.702 67.9195 86.1395 68.9411 86.1922C69.9628 86.2449 71.7594 87.4211 71.7594 88.5798V89.563C71.7594 91.1079 70.1565 91.6171 69.082 92.2667C68.7826 92.4598 67.849 93.0391 67.0035 93.5307C65.612 94.3207 65.2421 94.6894 64.0795 93.3903C63.4982 92.7758 62.9346 91.9682 62.3181 91.2835C61.7015 90.5988 61.085 90.3179 60.6447 89.8439C60.2139 89.4293 59.9454 88.8754 59.8873 88.2814V86.438C59.8382 85.7801 60.0119 85.1249 60.3805 84.577L61.5078 82.5756C62.0715 81.5047 62.6351 80.1002 62.7936 79.7139C63.3126 78.9063 64.0275 78.2421 64.8722 77.7827C65.7408 77.1582 66.764 76.7818 67.8314 76.6942C68.5008 76.6942 69.082 77.098 69.5929 77.098C70.8083 77.098 71.6538 76.4836 72.9572 76.4836H74.9829C76.4977 76.4836 76.85 78.0461 77.6779 78.9239C78.5058 79.8017 78.8229 80.065 79.4394 80.2231C80.0436 80.2056 80.6351 80.398 81.1128 80.7673C81.5648 81.8618 81.9128 82.9963 82.152 84.1557C82.6981 85.7006 83.5964 84.577 83.5964 86.8769C83.5964 88.2112 83.7373 89.3699 83.5964 90.3881C83.4551 93.6015 82.2115 96.6692 80.0735 99.0785C78.8981 100.538 77.3538 101.659 75.5994 102.326C73.838 102.73 74.0669 101.993 72.235 102.906C70.4031 103.819 70.8611 103.327 69.0997 103.327H68.3598C67.0916 103.327 66.4927 104.064 64.6256 104.064H64.4846C63.1459 104.064 62.4766 103.239 61.5959 102.642C60.7151 102.046 59.306 102.186 58.3724 101.589C56.9104 100.623 55.9416 97.9725 54.6205 96.7611C53.5989 95.8306 52.8591 96.5328 52.084 95.0054C51.6932 94.0236 51.1655 93.1016 50.5163 92.2667C49.6789 91.6484 48.9775 90.8657 48.4554 89.9668C48.2088 89.405 47.9622 87.1227 47.0287 87.1227C46.0951 87.1227 45.9189 88.6501 45.9189 89.5805V91.4766C45.9189 93.2323 46.7644 93.3551 47.6804 94.2154C48.4575 95.0551 48.9664 96.1063 49.1424 97.2351C49.3494 97.9568 49.7166 98.6228 50.2169 99.1838C51.08 100.062 52.1369 100.185 53.0176 102.239C55.6774 107.681 56.0121 104.732 57.5093 106.715C58.2843 107.681 58.4781 108.471 59.9225 108.822C62.3004 109.454 62.5647 108.717 64.379 108.717C65.5431 108.95 66.7191 109.12 67.9019 109.226C68.9675 109.223 70.032 109.159 71.0901 109.033C72.3583 109.033 72.8515 109.472 73.6442 109.472C75.159 109.472 76.5858 107.523 77.8188 107.593C78.7769 107.629 79.7212 107.358 80.5139 106.821C81.1095 106.326 81.7526 105.891 82.4338 105.522C83.6699 105.117 84.7599 104.36 85.5692 103.345C87.5597 101.747 87.7358 99.9563 88.7046 98.5342C89.233 97.5686 90.2371 97.0595 90.8712 96.1993C91.1878 95.7731 91.3868 95.2717 91.4486 94.745C91.5104 94.2183 91.4328 93.6847 91.2235 93.1971C91.0077 92.4579 90.8313 91.7078 90.6951 90.9499C90.6177 90.4033 90.5823 89.8516 90.5894 89.2996C90.5894 88.4921 91.1178 88.615 91.0297 86.6486C91.0297 83.6465 90.2899 84.2083 89.6206 82.6283C89.2576 81.3718 88.8284 80.1353 88.3347 78.9239C88.0986 78.3618 87.7384 77.8601 87.281 77.4558C86.8236 77.0516 86.2806 76.7553 85.6925 76.5889C83.6316 75.7989 84.3538 75.9042 82.839 74.5348C81.8312 73.5534 80.7603 72.6386 79.6331 71.796C79.1329 71.4988 78.5845 71.2908 78.0126 71.1816C77.5194 71.0411 77.1671 70.69 76.6915 70.5495C76.2159 70.4091 75.6875 70.5495 74.7715 70.1457C74.2431 69.8473 73.6618 69.6542 73.0101 69.3557C71.3543 68.3375 70.4207 69.6366 69.1525 69.6366Z"
          fill="#8B2628"></path>
    <path fill-rule="evenodd"
          clip-rule="evenodd"
          d="M50.2168 108.014C50.2168 108.998 50.71 109.489 50.7276 110.104C50.7276 110.999 50.0935 111.14 50.7276 112.246C51.3617 113.352 52.4891 113.299 53.0527 115.318C53.4715 116.62 54.0639 117.86 54.8142 119.005C55.5012 120.357 55.5892 121.866 56.6989 122.692C57.0367 122.996 57.4619 123.186 57.9143 123.236C60.7327 123.464 60.856 121.34 62.3884 121.199C63.322 121.199 63.3748 121.621 64.1499 121.621C64.9249 121.621 65.9113 120.515 66.2812 120.076C66.5399 119.777 66.8739 119.553 67.2486 119.427C67.6233 119.3 68.0252 119.276 68.4126 119.356C69.5575 119.356 69.9098 119.11 70.6144 118.18C71.0474 117.459 71.5178 116.762 72.0236 116.09C72.7105 115.195 74.0316 115.213 74.0492 114.335C74.0669 113.457 72.4639 113.562 71.8298 113.773C70.4383 114.194 70.0684 115.177 69.17 115.055C68.2717 114.932 67.9898 114.756 67.4086 114.721C66.8273 114.686 66.4222 114.932 65.8409 114.897C64.9425 114.897 64.8192 113.755 63.1811 113.773C62.3592 113.895 61.5274 113.936 60.6974 113.896C59.0593 113.668 59.1826 112.509 56.1705 111.649C55.7001 111.466 55.2783 111.177 54.9375 110.806C54.4619 110.332 54.1096 109.735 53.5636 109.208C53.1361 108.807 52.6561 108.464 52.1368 108.19L51.3265 107.698C50.6748 107.277 50.2168 107.277 50.2168 108.014Z"
          fill="#8B2628"></path>
    <path fill-rule="evenodd"
          clip-rule="evenodd"
          d="M38.133 7.62784C36.8472 7.62784 36.3716 8.73388 35.0857 8.927C34.6547 8.86566 34.2153 8.90861 33.8044 9.05223C33.3936 9.19585 33.0235 9.43592 32.7254 9.75215C32.1793 10.3315 31.9327 10.2262 31.1577 10.2437C30.6422 10.1655 30.1152 10.2269 29.6317 10.4215C29.1482 10.6161 28.7262 10.9367 28.4098 11.3498C28.1676 11.6895 27.8699 11.9862 27.5291 12.2276C27.2473 12.3856 26.9302 12.368 26.666 12.5085C26.4018 12.6489 25.8029 13.0878 25.5034 13.2458C22.826 14.703 24.0767 15.0015 23.3721 16.0197C22.6675 17.038 21.0822 15.8442 20.4481 17.9334C20.0429 18.7936 19.7083 18.5303 19.0741 18.9516C18.44 19.373 18.4576 19.8997 18.0701 20.4088C17.4536 21.1988 16.4496 21.3744 15.6393 22.8316C14.829 24.2887 13.8778 24.0956 12.8386 25.0437C10.9538 27.1329 12.134 26.9046 11.9403 28.3794C11.9403 29.2572 11.5527 29.4854 11.0948 29.977C10.6368 30.4686 9.82651 31.2059 9.4566 31.6097C10.9187 31.9248 12.4025 32.1302 13.8955 32.2242C15.6569 32.2242 16.432 31.6624 19.356 31.7853C20.6066 31.7853 21.2231 32.6104 22.1391 32.6104C23.055 32.6104 23.2664 32.0662 24.2 31.9608C26.1376 31.9608 27.6172 32.3997 29.9775 32.5226H32.3379C34.6101 32.5226 36.4597 31.6624 39.1018 31.6448C40.8633 31.5395 42.9947 31.996 46.5352 31.9608H49.7058C49.6043 32.4423 49.3687 32.8855 49.026 33.2395C48.6832 33.5935 48.2473 33.844 47.7682 33.9623C46.6696 34.2666 45.5514 34.4953 44.4214 34.647C43.5759 34.8295 42.7457 35.076 41.9378 35.3843C38.9746 36.4876 35.8646 37.1501 32.7078 37.3506H23.5482C20.7972 37.3188 18.0573 36.9951 15.3751 36.385C13.8426 36.069 10.8658 35.0507 9.12193 34.4889C8.3645 34.2432 7.67754 34.2256 7.36048 35.1561C7.26885 35.6361 7.23338 36.1251 7.25479 36.6133C7.25479 37.3331 7.34286 37.8246 7.36048 38.3689C7.42836 38.9728 7.32584 39.5835 7.06444 40.1325C6.80305 40.6815 6.39315 41.1469 5.88086 41.4763C5.10582 42.1435 2.62217 43.4075 2.56933 44.654C2.61956 45.2128 2.78125 45.756 3.04492 46.2517C3.24015 47.1128 3.24015 48.0064 3.04492 48.8675C2.79831 50.0438 1.28346 51.6414 1.28346 53.1337C1.28346 54.626 2.83354 55.574 2.79831 57.2945C2.76309 59.0151 1.33631 59.0502 1.31869 60.4196C1.31869 61.2974 2.07612 61.3676 2.0585 62.6668C2.04089 63.9659 0.860716 64.7209 0.68457 65.9147V66.8978C0.68457 68.1092 1.37154 68.6535 2.09373 68.6535C2.7214 68.6028 3.32664 68.3977 3.85519 68.0565C4.41449 67.8205 4.95606 67.5448 5.47572 67.2314C5.79103 66.9932 6.08565 66.7289 6.35645 66.4414C7.08449 65.7468 7.95626 65.2195 8.91055 64.8964C10.7914 64.3934 12.772 64.3934 14.6529 64.8964C15.2809 65.1782 15.936 65.3958 16.6081 65.546C17.7178 65.6689 18.0173 65.3353 18.9861 65.7918C19.673 66.1254 20.1486 66.4063 20.6594 66.5994C21.1703 66.7925 21.8925 66.9505 22.7027 67.3016C24.0767 67.881 24.2352 69.0573 26.0319 69.0573C26.6211 69.0335 27.2112 69.0688 27.7933 69.1626C28.8502 69.4259 29.044 70.1809 30.5588 70.1809C31.5276 70.1809 31.968 69.6191 33.3595 69.6191C34.7511 69.6191 36.354 70.3389 36.354 71.6731C36.4397 73.3019 35.9539 74.9095 34.98 76.2202C34.5431 76.766 33.9799 77.1981 33.3388 77.4794C32.6976 77.7607 31.9975 77.8828 31.2986 77.8354C31.0642 77.8261 30.8349 77.7644 30.6276 77.6551C30.4203 77.5457 30.2403 77.3913 30.1008 77.2034C29.7309 76.782 29.5724 76.2378 29.1849 75.7989C28.4451 74.9562 28.3218 75.0088 27.3001 75.0264H25.6972C23.3368 75.0264 22.8613 72.4281 21.5578 72.3052C20.589 72.1998 19.7963 73.183 18.8099 73.1479C18.5573 73.1297 18.3141 73.0449 18.1053 72.9021C17.1894 72.4105 16.8019 70.7075 15.5865 70.7427C15.1285 70.7427 14.741 71.0938 14.0716 71.3922C13.4023 71.6907 13.279 71.638 12.8386 71.8487C12.0459 72.2174 11.6584 72.6036 11.0771 72.6036C10.4959 72.6036 10.1436 72.2349 9.40376 72.2349C8.4778 72.266 7.57731 72.545 6.79681 73.0425C4.70825 74.5155 2.88065 76.3252 1.38915 78.3972C1.07209 78.801 0.948788 78.8361 1.12493 79.2926C1.30108 79.749 1.31869 79.8895 1.9352 79.8544C3.06253 79.8544 3.36198 79.2926 4.22509 78.8712C4.57738 78.6957 5.00013 78.6957 5.37004 78.5377C5.73994 78.3796 6.26837 77.9758 6.74397 77.7827C7.40331 77.4679 8.12103 77.2929 8.85174 77.2687C9.58244 77.2445 10.3102 77.3717 10.9891 77.6423C11.7993 77.9232 12.0988 77.6423 12.7505 77.8881C13.7193 78.3094 14.3358 79.6437 15.6393 79.6437H16.749C18.3167 79.6437 19.5497 79.0643 20.8004 79.8895C21.7692 80.5215 22.3328 81.6451 23.1783 82.3649C23.8592 82.9061 24.6753 83.2521 25.5387 83.3656C27.0007 83.6816 28.674 85.2793 30.2593 85.1212C31.4043 85.1212 31.3867 84.5594 31.9151 84.5594C32.2659 84.5663 32.6035 84.6943 32.8701 84.9217C33.1368 85.149 33.316 85.4616 33.3771 85.8059C33.3771 86.7364 32.8487 86.7715 32.7958 88.1585C32.7958 89.1592 33.2362 89.8088 33.0248 90.7744C31.2634 90.3706 31.2634 91.1431 30.2065 91.1431H29.4667C28.1985 91.1431 27.3177 90.2301 26.1904 89.7912C24.6227 89.1943 24.059 89.3348 23.055 88.0356C22.051 86.7364 22.3504 86.28 20.1134 86.28C19.1622 86.28 18.9156 85.8235 18.2286 85.7533C17.5417 85.6831 17.0308 86.0868 16.1854 86.0868C15.3399 86.0868 14.6881 85.0686 13.1909 84.9632C11.1476 84.9632 11.2181 84.3663 9.28046 84.419C7.84752 84.7637 6.45873 85.2703 5.14105 85.9288C4.57738 86.1044 4.55977 86.2097 4.68307 86.754C5.22103 88.7394 5.89189 90.6867 6.69112 92.5827C7.0258 93.32 7.04341 93.2674 7.80084 93.3551C8.73871 93.6257 9.69997 93.8079 10.672 93.8994C11.6408 93.8994 12.0812 93.7238 12.9267 93.7238C14.3567 93.6682 15.7698 94.0478 16.978 94.8123C18.0701 95.7779 18.3343 95.3215 19.5673 95.8833C21.1174 96.6031 21.3288 96.8664 21.8748 96.8664C22.4209 96.8664 22.4737 96.6908 22.9846 96.6908C24.4818 96.6908 24.746 97.2526 25.7853 97.7618C26.8245 98.2709 27.7229 98.0778 29.2025 98.464C30.2773 98.7782 31.3941 98.9262 32.514 98.9029C34.4516 98.9029 35.5437 99.693 35.6494 100.553C35.6494 101.08 35.6494 101.185 35.6494 101.694C35.6918 102.406 35.8525 103.106 36.125 103.766C36.1868 104.062 36.1633 104.368 36.0573 104.651C35.9513 104.934 35.7671 105.181 35.5261 105.364C34.6454 105.873 32.9896 105.364 31.6333 105.364C30.7702 105.364 30.1889 105.539 29.6957 105.539C28.5313 105.458 27.4138 105.05 26.4722 104.363C25.3801 103.696 25.2568 104.363 23.9005 103.555C23.2664 103.222 22.3152 102.379 21.5225 102.379C20.7299 102.379 20.6242 102.555 20.2367 102.537C18.8451 102.397 18.7218 101.694 18.211 101.01C17.3655 99.8861 16.9252 99.9563 15.7626 100.343L14.6177 100.694C13.9659 100.694 13.5784 100.325 13.1204 100.325C12.8044 100.336 12.4934 100.408 12.2045 100.536C11.6056 100.781 11.6408 101.238 11.9579 101.817C13.1287 104.159 14.6033 106.337 16.3439 108.296C16.7921 108.941 17.4353 109.427 18.1798 109.683C18.9243 109.938 19.7313 109.951 20.4833 109.718C22.4385 109.366 24.0062 111.315 25.0807 111.315C26.1552 111.315 26.1199 110.789 27.3177 110.789H27.4939C28.2161 110.789 28.8502 111.385 29.5724 111.842C30.6469 112.491 31.1577 112.298 32.0913 111.491C32.4259 111.21 32.7078 110.701 33.1129 110.35C34.6982 109.05 36.6358 107.909 37.7808 108.717C38.0471 108.92 38.2555 109.188 38.3853 109.496C38.5151 109.804 38.5617 110.141 38.5206 110.473C38.7672 112.79 40.6695 113.369 39.1195 115.353C38.591 116.003 38.0097 116.003 36.7239 116.793C35.438 117.583 35.438 117.776 34.6101 117.741H34.0465C31.9327 117.741 29.6957 116.161 28.9911 115.985C28.6388 115.985 28.4627 116.249 28.4979 116.565C28.6036 117.319 29.8366 118.32 31.1401 118.9C31.706 119.183 32.2953 119.418 32.9015 119.602C33.3044 119.65 33.7004 119.744 34.0817 119.883C35.7199 120.831 36.1426 122.112 38.0274 122.112H38.5734C40.7224 122.112 40.8104 120.866 42.66 121.814C43.4174 122.183 45.0027 124.096 45.9539 123.973C46.4577 123.94 46.952 123.821 47.4159 123.622C47.795 123.56 48.1817 123.56 48.5608 123.622C48.8366 123.609 49.0965 123.49 49.2867 123.29C49.4769 123.091 49.5828 122.826 49.5825 122.551C49.09 121.025 48.4034 119.567 47.5392 118.215C46.6166 116.785 45.9214 115.222 45.4783 113.58C44.3862 110.069 42.4662 107.751 41.6383 103.977C41.4651 102.051 41.1352 100.143 40.6519 98.2709C39.7523 96.6527 39.2343 94.8515 39.1371 93.004C39.1299 90.8964 39.2653 88.7908 39.5422 86.7013C39.6479 85.964 39.965 84.6824 40.0706 83.8396C40.1763 82.9969 39.6479 81.8909 39.6479 80.9429C39.6479 79.5208 40.1939 78.2743 40.2116 76.8522C39.9506 75.5059 40.1818 74.1109 40.8633 72.9196C41.3771 72.0341 41.7682 71.0833 42.0258 70.0931C42.1484 68.4933 42.4376 66.9105 42.889 65.3704C43.436 64.33 43.9184 63.2571 44.3334 62.1576C44.6282 60.7112 44.8049 59.2434 44.8618 57.7686C45.1084 55.7847 45.5135 56.0129 46.6232 54.9069C47.733 53.8008 47.733 53.6253 47.6801 52.9055C47.5901 52.4654 47.5312 52.0195 47.504 51.5712V50.2896C47.4159 47.3401 50.3223 48.6217 49.6706 44.9174C49.4601 43.9339 49.5841 42.9086 50.0228 42.003C50.6746 40.8794 51.7843 40.5108 51.7843 38.9482C51.7843 37.7544 51.1854 37.5437 51.1854 36.8064C51.1854 36.069 52.4889 35.4194 52.5417 34.7523C52.5417 33.6989 52.2247 33.8394 52.1542 32.8738C52.0025 31.2281 51.9437 29.5752 51.9781 27.9229V26.3077C51.9781 25.0437 52.7707 24.3941 52.7355 22.9018C52.7974 22.4063 52.7974 21.905 52.7355 21.4095C52.1014 19.0921 50.974 14.5626 50.2342 11.9291C50.0816 10.6144 49.768 9.32315 49.3006 8.0843C49.1342 7.63231 48.8512 7.23203 48.4801 6.92381C48.109 6.61559 47.663 6.41031 47.1869 6.32867H46.3414C44.9573 6.46657 43.5854 6.70717 42.2372 7.04848C39.6479 7.20649 40.0706 8.17208 38.133 7.62784ZM31.9856 17.1433C31.9839 16.7413 32.1207 16.3509 32.3731 16.0373C33.0844 15.3798 33.9958 14.9782 34.9624 14.8961C36.354 14.8961 37.6398 15.8091 38.4853 15.8091H39.049C40.2468 15.8091 40.0706 14.8961 41.4622 14.8961C43.1341 14.9991 44.7171 15.6824 45.9363 16.8273C46.6232 17.4769 46.6761 18.0387 45.9363 18.7936C45.4073 19.1287 44.8007 19.3222 44.1748 19.3554C42.9947 19.3554 41.7792 18.7059 40.9338 18.8287C40.7559 18.8394 40.5821 18.8863 40.4232 18.9665C40.2642 19.0467 40.1234 19.1585 40.0095 19.2951C39.8956 19.4316 39.811 19.59 39.7609 19.7604C39.7109 19.9308 39.6964 20.1097 39.7184 20.2859C39.7184 21.7431 41.0042 22.7614 43.3646 23.7972C44.0426 24.0397 44.6741 24.396 45.2317 24.8505C45.9891 25.6055 46.2357 26.6062 44.7913 27.642C42.9184 28.6183 40.7999 29.0272 38.6967 28.8183C37.6222 28.8183 35.9665 28.8183 34.98 28.8183C33.9897 29.0682 32.9833 29.2501 31.968 29.3625C29.9951 29.3625 25.204 29.4854 25.0455 26.3779C25.0455 25.5352 25.6091 25.0612 26.4018 24.3239C26.9421 23.7127 27.5715 23.186 28.2689 22.7614C29.59 22.182 30.9992 22.0767 31.6157 20.8828C31.9659 20.2866 32.1484 19.6074 32.1441 18.9165C32.06 18.3287 32.0071 17.7368 31.9856 17.1433ZM19.3383 43.2495C19.3465 43.7445 19.5265 44.2214 19.8476 44.5991C20.1687 44.9768 20.6112 45.232 21.0998 45.3212C22.8613 45.7776 25.5563 45.3212 27.0887 45.5845C30.2417 46.0761 33.5885 46.5501 33.5885 42.8282V41.1603C33.5885 38.2635 28.4803 38.8253 25.5387 38.9131C23.6011 38.9131 23.4073 40.3879 22.5266 41.2832C21.6458 42.1786 19.3383 42.0733 19.3383 43.2495ZM12.5391 56.0481C12.5391 53.3093 15.5512 52.5368 16.978 51.1674C17.8235 50.3247 18.0877 49.2889 19.0565 48.5866C20.9413 47.2875 20.9765 48.2706 22.8436 47.7088C26.5955 46.5326 26.4722 49.4645 28.9735 50.0438C29.7225 50.1381 30.4564 50.3269 31.1577 50.6056C31.9026 51.0371 32.5016 51.6801 32.8781 52.4525C33.2547 53.2249 33.3916 54.0917 33.2714 54.942C33.2714 55.9076 32.9015 56.0129 32.9015 56.803C32.9082 56.986 32.9516 57.1658 33.0293 57.3317C33.1069 57.4977 33.2171 57.6465 33.3534 57.7692C33.4897 57.892 33.6493 57.9862 33.8228 58.0464C33.9963 58.1067 34.1802 58.1316 34.3635 58.1197C34.8744 58.0677 35.3478 57.829 35.6925 57.4497C36.0373 57.0704 36.229 56.5774 36.2307 56.0656C35.9889 54.3567 35.3888 52.7176 34.4692 51.2552C34.1169 50.4476 34.8039 50.2194 35.3323 50.6934C35.9397 51.2508 36.4672 51.8888 36.9 52.5895C37.4648 53.5037 37.8029 54.5388 37.8864 55.6091C37.969 56.2194 37.9202 56.8402 37.7433 57.4302C37.5664 58.0202 37.2655 58.5658 36.8606 59.0309C36.4556 59.4959 35.956 59.8697 35.3948 60.1273C34.8337 60.3849 34.2239 60.5205 33.6061 60.5249H33.0601C30.9287 60.5249 28.7269 55.8725 23.1431 55.8725C21.34 55.7896 19.559 56.295 18.0701 57.3121C17.2598 57.8564 17.0837 58.2426 16.3087 58.6991C15.6312 59.1948 14.8228 59.4816 13.9835 59.5242C12.8034 59.3135 12.5391 57.7686 12.5391 56.7327V56.0481Z"
          fill="#22612B"></path>
    <path fill-rule="evenodd"
          clip-rule="evenodd"
          d="M201.561 57.031L195.29 43.1616H200.574L202.9 49.3414C202.9 49.3414 202.9 49.4643 203.005 49.5696C203.255 50.1939 203.443 50.8406 203.569 51.5008C203.675 50.8969 203.852 50.3076 204.097 49.7452C204.153 49.6257 204.2 49.5025 204.238 49.3765L206.599 43.2493H211.724L205.383 57.1188L201.561 57.031ZM195.413 50.1314C195.421 51.1113 195.217 52.0813 194.814 52.9755C194.4 53.8949 193.8 54.7195 193.053 55.3983C192.313 56.0863 191.454 56.6337 190.517 57.0135C189.572 57.3963 188.56 57.5873 187.54 57.5753C185.492 57.5964 183.518 56.8145 182.044 55.3983C181.293 54.7364 180.693 53.9223 180.282 53.0106C179.902 52.0986 179.71 51.1192 179.719 50.1314C179.706 49.1489 179.898 48.1746 180.282 47.2697C180.682 46.3578 181.258 45.5333 181.977 44.8434C182.696 44.1535 183.545 43.6119 184.475 43.2493C186.415 42.5478 188.541 42.5478 190.481 43.2493C191.418 43.6015 192.27 44.1458 192.983 44.847C193.725 45.5303 194.324 46.3538 194.744 47.2697C195.161 48.1681 195.389 49.142 195.413 50.1314ZM190.534 50.1314C190.588 49.2474 190.305 48.3758 189.741 47.6911C189.464 47.4076 189.133 47.1823 188.767 47.0285C188.401 46.8747 188.007 46.7954 187.61 46.7954C187.213 46.7954 186.82 46.8747 186.454 47.0285C186.088 47.1823 185.756 47.4076 185.479 47.6911C184.976 48.406 184.705 49.2581 184.705 50.1314C184.705 51.0047 184.976 51.8568 185.479 52.5717C185.745 52.8693 186.075 53.104 186.443 53.2589C186.812 53.4138 187.21 53.4849 187.61 53.4671C188.01 53.4887 188.41 53.4193 188.779 53.2642C189.149 53.1091 189.478 52.8723 189.741 52.5717C190.305 51.887 190.588 51.0154 190.534 50.1314ZM164.447 57.031V35.7353H169.273V49.2185L174.346 43.1616H180.423L174.17 49.8329L180.987 57.031H174.54L169.256 50.8688V57.031H164.447ZM156.626 43.1616H161.558V57.031H156.626V43.1616ZM144.789 57.031V43.1616H149.422V46.427C149.801 45.3632 150.48 44.4307 151.377 43.7409C152.26 43.1299 153.315 42.8162 154.389 42.8456H154.988H155.569L155.094 47.3048C154.816 47.1998 154.526 47.1291 154.231 47.0942C153.965 47.0312 153.693 47.0017 153.42 47.0064C152.903 46.9755 152.386 47.0587 151.905 47.2498C151.424 47.441 150.991 47.7355 150.637 48.1124C149.937 48.9851 149.592 50.0878 149.668 51.2023V56.9432L144.789 57.031ZM142.834 51.097H132.265C132.192 51.98 132.456 52.858 133.005 53.5549C133.302 53.8537 133.661 54.0852 134.056 54.2336C134.451 54.382 134.874 54.444 135.295 54.4151C135.947 54.4323 136.593 54.2938 137.18 54.0113C137.696 53.723 138.108 53.281 138.36 52.7473L142.041 54.2396C141.591 55.3187 140.757 56.194 139.699 56.6975C138.416 57.3182 137.002 57.6195 135.577 57.5753C133.439 57.6793 131.344 56.9559 129.729 55.5563C129.01 54.8834 128.444 54.0656 128.067 53.1575C127.691 52.2493 127.512 51.2716 127.545 50.2894C127.521 49.2901 127.703 48.2966 128.078 47.3698C128.454 46.443 129.016 45.6024 129.729 44.8996C130.468 44.1937 131.341 43.6421 132.297 43.2773C133.253 42.9125 134.272 42.7418 135.295 42.7753C136.31 42.7199 137.326 42.8843 138.271 43.257C139.217 43.6298 140.07 44.2021 140.773 44.9348C142.172 46.5938 142.884 48.7223 142.764 50.8863L142.834 51.097ZM137.99 48.3231C137.927 47.6044 137.609 46.9318 137.092 46.427C136.582 45.9512 135.905 45.6929 135.207 45.7072C134.861 45.6859 134.515 45.734 134.188 45.8486C133.861 45.9632 133.561 46.142 133.305 46.3744C132.783 46.9034 132.449 47.5876 132.353 48.3231H137.99ZM114.122 50.5176C114.807 51.3408 115.622 52.0466 116.536 52.6068C117.252 53.0472 118.072 53.2896 118.914 53.3091C119.552 53.3146 120.173 53.1041 120.675 52.7122C120.901 52.5314 121.082 52.3012 121.204 52.0393C121.326 51.7775 121.386 51.4911 121.38 51.2023C121.395 50.9157 121.348 50.6291 121.242 50.3624C121.135 50.0957 120.972 49.8551 120.763 49.6574C119.917 49.1072 118.972 48.7256 117.98 48.5338C116.426 48.2159 114.982 47.5021 113.788 46.4621C112.934 45.4971 112.497 44.2352 112.572 42.9509C112.541 42.0744 112.697 41.2012 113.031 40.3898C113.365 39.5784 113.87 38.8475 114.51 38.2458C115.889 37.0292 117.691 36.399 119.53 36.4902C120.604 36.4867 121.672 36.6405 122.701 36.9466C123.706 37.2456 124.657 37.7019 125.519 38.2985L123.757 42.2486C123.182 41.7513 122.535 41.343 121.838 41.0373C121.255 40.7686 120.628 40.608 119.988 40.5632C119.418 40.5324 118.853 40.6931 118.385 41.0197C118.19 41.1593 118.032 41.3441 117.924 41.5582C117.817 41.7724 117.764 42.0093 117.769 42.2486C117.754 42.4771 117.796 42.7057 117.891 42.914C117.986 43.1223 118.132 43.3038 118.315 43.4425C118.939 43.8757 119.647 44.1747 120.393 44.3203H120.64C122.257 44.6287 123.778 45.3146 125.079 46.3217C125.565 46.8222 125.937 47.4209 126.171 48.0773C126.426 48.817 126.551 49.5951 126.541 50.3772C126.579 51.3355 126.41 52.2909 126.045 53.1784C125.681 54.0659 125.129 54.8649 124.427 55.5212C122.878 56.8717 120.863 57.5703 118.808 57.4699C117.487 57.4839 116.176 57.2393 114.95 56.7501C113.72 56.2424 112.592 55.5167 111.621 54.6083L114.122 50.5176Z"
          fill="#1D1D1B"></path>
    <path fill-rule="evenodd"
          clip-rule="evenodd"
          d="M184.44 74.447H175.421C175.38 75.2182 175.631 75.9766 176.126 76.5713C176.38 76.8256 176.686 77.0229 177.023 77.15C177.361 77.2772 177.721 77.3313 178.081 77.3086C178.636 77.3231 179.186 77.2026 179.684 76.9575C180.115 76.7096 180.459 76.3358 180.67 75.8866L183.823 77.1506C183.425 78.0448 182.719 78.7673 181.833 79.1872C180.737 79.7183 179.527 79.9716 178.31 79.9245C176.488 80.0018 174.708 79.3725 173.342 78.1689C172.721 77.5933 172.232 76.8904 171.91 76.1084C171.588 75.3264 171.439 74.484 171.475 73.6394C171.449 72.7881 171.601 71.9407 171.923 71.1516C172.244 70.3624 172.728 69.6491 173.342 69.0572C173.973 68.4615 174.718 67.9989 175.532 67.6972C176.346 67.3955 177.213 67.2609 178.081 67.3016C178.944 67.261 179.807 67.4061 180.609 67.7273C181.412 68.0484 182.135 68.5379 182.731 69.1625C183.958 70.5613 184.589 72.3811 184.492 74.2363L184.44 74.447ZM180.318 72.1646C180.267 71.5496 179.992 70.9746 179.543 70.5495C179.111 70.1419 178.535 69.921 177.94 69.935C177.347 69.9059 176.766 70.1073 176.319 70.4968C175.858 70.9739 175.572 71.5928 175.509 72.2524L180.318 72.1646ZM170.489 74.5172H161.47C161.437 75.2872 161.688 76.0427 162.175 76.6415C162.434 76.8945 162.743 77.0907 163.083 77.2177C163.423 77.3446 163.785 77.3995 164.148 77.3789C164.697 77.3955 165.242 77.2748 165.733 77.0277C166.173 76.7855 166.524 76.4105 166.737 75.9568L169.89 77.2209C169.477 78.0935 168.765 78.7907 167.882 79.1872C166.787 79.7211 165.577 79.9745 164.359 79.9245C162.532 80.0064 160.744 79.3768 159.374 78.1689C158.774 77.5825 158.306 76.875 158.002 76.0939C157.699 75.3127 157.566 74.4759 157.613 73.6394C157.576 72.7961 157.713 71.9542 158.016 71.166C158.319 70.3778 158.781 69.66 159.374 69.0572C160.009 68.4626 160.757 68.0009 161.574 67.6994C162.391 67.3978 163.26 67.2626 164.13 67.3016C164.994 67.2621 165.856 67.4078 166.658 67.7289C167.46 68.0499 168.184 68.5388 168.78 69.1625C169.999 70.5659 170.629 72.3824 170.542 74.2363L170.489 74.5172ZM166.473 72.1646C166.406 71.5542 166.133 70.9845 165.698 70.5495C165.263 70.1467 164.689 69.9266 164.095 69.935C163.497 69.9068 162.911 70.1078 162.457 70.4968C162.009 70.9833 161.726 71.5972 161.646 72.2524L166.473 72.1646ZM151.007 79.6085V70.6548H149.246V67.7054H151.007V65.2826C150.965 64.7147 151.043 64.1442 151.237 63.6087C151.432 63.0731 151.737 62.5846 152.135 62.1751C153.08 61.4103 154.285 61.0392 155.499 61.1393H156.256C156.577 61.1754 156.895 61.2341 157.208 61.3149V64.4926L156.697 64.3346C156.545 64.3106 156.39 64.3106 156.239 64.3346C156.077 64.3206 155.915 64.3452 155.765 64.4063C155.615 64.4673 155.481 64.5631 155.376 64.6857C155.17 65.0292 155.078 65.4283 155.111 65.8268V67.7054H157.208V70.6548H155.023V79.5383L151.007 79.6085ZM141.126 79.6085V70.6548H139.364V67.7054H141.126V65.2826C141.087 64.7151 141.168 64.1458 141.362 63.6109C141.556 63.076 141.859 62.5871 142.253 62.1751C143.207 61.414 144.416 61.0437 145.635 61.1393H146.392C146.713 61.1785 147.03 61.2371 147.343 61.3149V64.4926L146.815 64.3346C146.669 64.3106 146.52 64.3106 146.375 64.3346C146.213 64.316 146.049 64.3385 145.898 64.3998C145.747 64.4612 145.614 64.5595 145.512 64.6857C145.306 65.0292 145.214 65.4283 145.247 65.8268V67.7054H147.343V70.6548H145.159V79.5383L141.126 79.6085ZM139.065 73.7096C139.073 74.5428 138.905 75.3684 138.571 76.1324C138.237 76.9141 137.746 77.6191 137.127 78.204C136.498 78.7976 135.763 79.2681 134.96 79.591C133.324 80.1992 131.523 80.1992 129.887 79.591C129.075 79.2548 128.338 78.7592 127.721 78.1338C127.103 77.5618 126.611 76.8684 126.276 76.0973C125.951 75.3184 125.783 74.4831 125.783 73.6394C125.785 72.8072 125.953 71.9837 126.276 71.2166C126.611 70.4349 127.102 69.7298 127.721 69.145C128.324 68.5538 129.044 68.0935 129.835 67.7931C131.485 67.1619 133.311 67.1619 134.96 67.7931C135.754 68.0971 136.479 68.5568 137.092 69.145C137.712 69.7387 138.209 70.4487 138.554 71.2342C138.855 71.9995 138.999 72.8175 138.977 73.6394L139.065 73.7096ZM134.925 73.7096C134.957 72.9588 134.712 72.2223 134.238 71.638C134.018 71.3908 133.746 71.1951 133.442 71.0646C133.138 70.9341 132.808 70.8721 132.477 70.883C132.145 70.8696 131.815 70.9305 131.51 71.0611C131.205 71.1918 130.934 71.3889 130.715 71.638C130.248 72.2247 130.01 72.961 130.046 73.7096C129.984 74.3993 130.151 75.0901 130.522 75.6759C130.761 75.9153 131.045 76.1053 131.357 76.2349C131.67 76.3645 132.006 76.4313 132.345 76.4313C132.683 76.4313 133.019 76.3645 133.332 76.2349C133.645 76.1053 133.929 75.9153 134.168 75.6759C134.604 75.0895 134.816 74.3676 134.767 73.6394L134.925 73.7096ZM124.903 63.1758V68.2847C124.353 67.6549 123.698 67.126 122.965 66.7222C122.335 66.393 121.633 66.2241 120.922 66.2306C120.309 66.2083 119.698 66.3192 119.132 66.5556C118.566 66.7921 118.059 67.1485 117.645 67.6C116.808 68.5753 116.368 69.8283 116.412 71.1113C116.376 71.7514 116.47 72.3922 116.688 72.9955C116.906 73.5988 117.244 74.1521 117.681 74.6225C118.09 75.0704 118.591 75.4247 119.151 75.6611C119.71 75.8975 120.314 76.0103 120.922 75.9919C121.634 75.9923 122.336 75.8174 122.965 75.4828C123.698 75.0722 124.354 74.5376 124.903 73.9027V79.0292C124.185 79.3704 123.436 79.6409 122.665 79.8367C121.939 80.0108 121.194 80.0992 120.446 80.1001C119.566 80.1117 118.688 79.9995 117.839 79.7665C117.064 79.5451 116.328 79.2076 115.655 78.7658C114.415 77.948 113.403 76.8307 112.713 75.5179C112.121 74.2811 111.784 72.9388 111.72 71.5699C111.656 70.201 111.868 68.8333 112.343 67.5473C112.787 66.4511 113.445 65.4543 114.281 64.6155C115.054 63.8039 115.991 63.1639 117.029 62.7369C118.119 62.3181 119.278 62.1095 120.446 62.1225C121.194 62.1233 121.939 62.2117 122.665 62.3858C123.403 62.5345 124.123 62.7581 124.814 63.0529L124.903 63.1758Z"
          fill="#1D1D1B"></path>
    <path fill-rule="evenodd"
          clip-rule="evenodd"
          d="M207.25 107.646L210.579 100.623L205.806 90.6163H210.509L212.165 94.8824C212.305 95.2336 212.411 95.5671 212.517 95.8832C212.61 96.1639 212.681 96.4515 212.728 96.7434C212.728 96.4625 212.851 96.1816 212.94 95.8656C213.028 95.5496 213.151 95.2336 213.274 94.8824L215.036 90.6163H219.316L211.847 107.646H207.25Z"
          fill="#1D1D1B"></path>
    <path fill-rule="evenodd"
          clip-rule="evenodd"
          d="M192.895 102.432V90.6164H196.717V93.004C197.176 92.157 197.835 91.4339 198.637 90.8973C199.433 90.4369 200.341 90.2059 201.261 90.2302C201.96 90.2171 202.655 90.3425 203.305 90.5988C203.847 90.7981 204.329 91.1341 204.702 91.5741C205.076 92.0141 205.329 92.543 205.436 93.1094C205.601 93.9475 205.672 94.8013 205.647 95.655V102.432H201.455V96.0939C201.51 95.3791 201.351 94.6642 200.997 94.0399C200.819 93.8192 200.589 93.6448 200.329 93.5317C200.068 93.4186 199.784 93.3701 199.5 93.3903C199.127 93.3629 198.753 93.4365 198.418 93.6034C198.083 93.7703 197.8 94.0242 197.598 94.3383C197.134 95.312 196.928 96.3878 196.999 97.4633V102.432H192.895Z"
          fill="#1D1D1B"></path>
    <path fill-rule="evenodd"
          clip-rule="evenodd"
          d="M186.658 90.6164V92.5476C186.269 91.8291 185.698 91.224 185.003 90.792C184.297 90.4033 183.501 90.2094 182.695 90.2302C181.941 90.2011 181.19 90.3441 180.501 90.6484C179.811 90.9527 179.2 91.4101 178.714 91.9858C177.657 93.2793 177.123 94.9199 177.217 96.5855C177.125 98.2422 177.624 99.878 178.626 101.203C179.078 101.772 179.658 102.227 180.319 102.532C180.98 102.837 181.703 102.983 182.431 102.958C183.27 102.974 184.099 102.781 184.844 102.397C185.563 101.96 186.167 101.358 186.605 100.641V102.572H190.445V90.6164H186.658ZM186.112 98.6923C185.567 99.1995 184.85 99.4817 184.104 99.4817C183.359 99.4817 182.641 99.1995 182.096 98.6923C181.575 98.0821 181.305 97.2983 181.339 96.4978C181.296 95.7014 181.568 94.9201 182.096 94.3208C182.345 94.0396 182.656 93.819 183.004 93.676C183.352 93.533 183.728 93.4713 184.104 93.4956C184.479 93.4752 184.855 93.5386 185.202 93.6814C185.549 93.8242 185.86 94.0426 186.112 94.3208C186.631 94.9246 186.895 95.7043 186.852 96.4978C186.893 97.2962 186.628 98.0804 186.112 98.6923Z"
          fill="#1D1D1B"></path>
    <path fill-rule="evenodd"
          clip-rule="evenodd"
          d="M174.558 91.9331C174.072 91.3574 173.461 90.8999 172.771 90.5956C172.081 90.2914 171.331 90.1483 170.577 90.1774C169.804 90.1671 169.042 90.3674 168.375 90.7568C167.664 91.2047 167.063 91.8043 166.613 92.5124V90.6163H162.756V107.646H166.772V102.607C166.772 102.116 166.772 101.712 166.772 101.378C166.772 101.045 166.772 100.746 166.684 100.518C167.107 101.246 167.715 101.852 168.445 102.274C169.478 102.784 170.65 102.943 171.782 102.727C172.914 102.512 173.945 101.933 174.716 101.08C175.677 99.7375 176.194 98.1294 176.194 96.4801C176.194 94.8309 175.677 93.2228 174.716 91.8804L174.558 91.9331ZM171.14 98.7273C170.882 98.9943 170.569 99.203 170.222 99.3393C169.876 99.4755 169.504 99.5363 169.132 99.5174C168.766 99.5358 168.399 99.4747 168.059 99.3383C167.718 99.2019 167.411 98.9935 167.159 98.7273C166.69 98.0978 166.437 97.3345 166.437 96.5504C166.437 95.7662 166.69 95.0029 167.159 94.3734C167.411 94.105 167.717 93.8939 168.057 93.7545C168.398 93.6151 168.765 93.5508 169.132 93.5658C169.506 93.5491 169.878 93.6126 170.224 93.752C170.571 93.8913 170.883 94.1032 171.14 94.3734C171.632 94.9933 171.899 95.7603 171.899 96.5504C171.899 97.3404 171.632 98.1074 171.14 98.7273Z"
          fill="#1D1D1B"></path>
    <path fill-rule="evenodd"
          clip-rule="evenodd"
          d="M156.344 102.432V95.9886C156.399 95.2535 156.265 94.5165 155.956 93.8467C155.801 93.6502 155.599 93.4958 155.368 93.3976C155.137 93.2995 154.885 93.2607 154.635 93.2849C154.317 93.2606 153.998 93.3229 153.713 93.4651C153.427 93.6074 153.186 93.8242 153.015 94.0925C152.608 95.1489 152.446 96.283 152.539 97.4107V102.432H148.506V95.9886C148.568 95.2549 148.441 94.5174 148.136 93.8467C147.981 93.649 147.779 93.4936 147.548 93.3953C147.317 93.297 147.064 93.2591 146.814 93.2849C146.495 93.2555 146.174 93.3135 145.885 93.4528C145.596 93.592 145.351 93.8071 145.176 94.075C144.77 95.1376 144.608 96.2773 144.701 97.4107V102.432H140.649V90.6164H144.736V92.6529C145.181 91.941 145.783 91.3404 146.497 90.8973C147.192 90.4965 147.985 90.2959 148.787 90.3179C149.611 90.2885 150.427 90.4827 151.148 90.8797C151.79 91.2829 152.26 91.908 152.469 92.6354C152.88 91.8975 153.49 91.2892 154.23 90.8797C154.955 90.4929 155.768 90.2994 156.591 90.3179C157.196 90.311 157.796 90.4307 158.352 90.669C158.842 90.8905 159.274 91.2208 159.616 91.6347C159.958 92.0486 160.201 92.535 160.325 93.0567C160.47 93.8617 160.529 94.6797 160.501 95.497V102.52L156.344 102.432Z"
          fill="#1D1D1B"></path>
    <path fill-rule="evenodd"
          clip-rule="evenodd"
          d="M138.483 94.1275C138.151 93.3393 137.659 92.628 137.038 92.0383C136.421 91.4559 135.697 90.997 134.907 90.6865C133.253 90.0777 131.435 90.0777 129.781 90.6865C128.995 90.9912 128.278 91.45 127.673 92.0357C127.068 92.6214 126.587 93.3222 126.259 94.0964C125.93 94.8707 125.761 95.7028 125.761 96.5435C125.761 97.3841 125.93 98.2162 126.258 98.9906C126.6 99.7623 127.098 100.456 127.72 101.027C128.324 101.635 129.05 102.108 129.851 102.414C131.487 103.022 133.288 103.022 134.924 102.414C135.734 102.104 136.472 101.632 137.091 101.027C137.709 100.442 138.201 99.7372 138.535 98.9555C138.869 98.1976 139.037 97.3778 139.029 96.5503C139.021 95.7133 138.834 94.8875 138.483 94.1275ZM134.167 98.6219C133.928 98.8613 133.644 99.0513 133.331 99.1809C133.018 99.3106 132.683 99.3773 132.344 99.3773C132.005 99.3773 131.67 99.3106 131.357 99.1809C131.044 99.0513 130.76 98.8613 130.521 98.6219C130.063 98.0305 129.832 97.2961 129.869 96.5503C129.83 95.7959 130.068 95.0533 130.538 94.4611C130.774 94.2227 131.055 94.0335 131.365 93.9043C131.675 93.7752 132.008 93.7087 132.344 93.7087C132.68 93.7087 133.012 93.7752 133.322 93.9043C133.632 94.0335 133.913 94.2227 134.149 94.4611C134.601 95.0606 134.82 95.8026 134.766 96.5503C134.825 97.2904 134.613 98.0269 134.167 98.6219Z"
          fill="#1D1D1B"></path>
    <path fill-rule="evenodd"
          clip-rule="evenodd"
          d="M124.814 85.9639V91.0728C124.27 90.4331 123.613 89.8976 122.876 89.4927C122.246 89.1635 121.544 88.9946 120.833 89.0011C120.22 88.9788 119.609 89.0897 119.043 89.3261C118.478 89.5626 117.97 89.919 117.557 90.3705C116.719 91.3458 116.279 92.5988 116.323 93.8818C116.291 94.5216 116.386 95.1616 116.603 95.7645C116.821 96.3673 117.157 96.9209 117.592 97.393C118.004 97.8359 118.506 98.1856 119.065 98.4188C119.624 98.652 120.227 98.7632 120.833 98.7449C121.546 98.7452 122.247 98.5703 122.876 98.2357C123.613 97.8308 124.27 97.2953 124.814 96.6557V101.782C124.095 102.121 123.346 102.391 122.577 102.59C120.992 102.987 119.334 102.987 117.75 102.59C116.973 102.376 116.235 102.038 115.566 101.589C114.326 100.771 113.314 99.6538 112.624 98.3411C111.932 96.9767 111.587 95.4632 111.62 93.9344C111.61 92.7349 111.825 91.544 112.255 90.4232C112.698 89.3269 113.357 88.3301 114.192 87.4913C114.961 86.679 115.899 86.0439 116.94 85.6303C118.026 85.1955 119.187 84.9806 120.357 84.9983C121.105 84.9982 121.85 85.0866 122.577 85.2616C123.344 85.4191 124.094 85.6544 124.814 85.9639Z"
          fill="#1D1D1B"></path>
    <path d="M161.558 35.7704H156.626V40.3526H161.558V35.7704Z" fill="#1D1D1B"></path>
</svg>