<svg height="18" viewBox="0 0 14 18" width="14" xmlns="http://www.w3.org/2000/svg"><path d="m1050.99 407c-1.6 0-4.32-1-7.5-6.34-2.09-3.526-2.87-6.384-2.3-8.5a3.4 3.4 0 0 1 1.44-2.111l1.28-.715a2.429 2.429 0 0 1 3.36.885l1.47 2.478a1.657 1.657 0 0 1 .2 1.3 1.842 1.842 0 0 1 -.84 1.066l-1.28.715-.13.078a6.611 6.611 0 0 0 1.07 2.352c1.08 1.82 1.56 2.09 1.64 2.127-.03-.018.06-.068.13-.105l1.27-.716a1.721 1.721 0 0 1 2.36.623l1.47 2.478a2.58 2.58 0 0 1 .28 1.891 2.369 2.369 0 0 1 -1.19 1.447l-1.28.715a2.982 2.982 0 0 1 -1.45.332zm-7.38-15.2s-2.13 1.558 1.6 7.84c3.75 6.317 6.23 5.3 6.26 5.285l1.27-.715a.357.357 0 0 0 .16-.587l-1.33-2.245-1.06.6c-1.78 1-2.99-.253-4.47-2.744-1.14-1.931-1.52-3.076-1.28-3.952a1.985 1.985 0 0 1 1.09-1.245l1.02-.571-1.31-2.206a.443.443 0 0 0 -.68-.172l-1.27.715z" fill="#36394d" fill-rule="evenodd" transform="translate(-1041 -389)"/></svg>