<svg width="24" height="24" viewBox="0 0 24 24" fill="none" xmlns="http://www.w3.org/2000/svg">
<path fill-rule="evenodd" clip-rule="evenodd" d="M8.43018 12.9704C8.43018 11.0004 10.0302 9.40039 12.0002 9.40039C13.9702 9.40039 15.5702 11.0004 15.5702 12.9704C15.5702 14.9404 13.9702 16.5404 12.0002 16.5404C10.0302 16.5404 8.43018 14.9404 8.43018 12.9704ZM9.63018 12.9704C9.63018 14.2804 10.6902 15.3404 12.0002 15.3404C13.3102 15.3404 14.3702 14.2804 14.3702 12.9704C14.3702 11.6604 13.3102 10.6004 12.0002 10.6004C10.6902 10.6004 9.63018 11.6604 9.63018 12.9704Z" fill="#333333"/>
<path fill-rule="evenodd" clip-rule="evenodd" d="M16.12 7.41H18C19.1 7.41 20 8.31 20 9.41V17.01C20 18.11 19.1 19.01 18 19.01H6C4.9 19.01 4 18.11 4 17.01V9.41C4 8.31 4.9 7.41 6 7.41H7.82L8.84 5.89C9.21 5.33 9.83 5 10.5 5H13.4C14.06 5 14.68 5.32 15.05 5.86L16.12 7.41ZM18 17.8C18.44 17.8 18.8 17.44 18.8 17V9.4C18.8 8.96 18.44 8.6 18 8.6H16.12C15.72 8.6 15.35 8.4 15.13 8.08L14.06 6.53C13.91 6.32 13.66 6.19 13.4 6.19H10.5C10.24 6.19 9.99 6.33 9.84 6.55L8.82 8.07C8.59 8.4 8.22 8.6 7.82 8.6H6C5.56 8.6 5.2 8.96 5.2 9.4V17C5.2 17.44 5.56 17.8 6 17.8H18Z" fill="#333333"/>
</svg>
