<svg height="448.094" viewBox="0 0 488 448.094" width="488" xmlns="http://www.w3.org/2000/svg"><path d="m1387.5 793.994h-256.06a24.037 24.037 0 0 1 -24.01-24.011v-200.09a24.037 24.037 0 0 1 24.01-24.011h256.06a24.037 24.037 0 0 1 24.01 24.011v200.09a24.037 24.037 0 0 1 -24.01 24.011zm8-224.1a8.005 8.005 0 0 0 -8-8h-256.06a8.012 8.012 0 0 0 -8 8v200.09a8.01 8.01 0 0 0 8 8h256.06a8 8 0 0 0 8-8v-200.091zm-35.98 184.212h-84.04c-.19 0-.35-.1-.53-.108a27.694 27.694 0 0 1 -38.75-.042c-.26.025-.48.15-.74.15h-76.03a20.07 20.07 0 0 1 0-40.139h76.03c.1 0 .18.053.28.057a27.815 27.815 0 0 1 39.75.042c.17-.011.31-.1.49-.1h83.54a20.07 20.07 0 0 1 0 40.139zm-131.53-24.084h-68.56a4.014 4.014 0 0 0 0 8.028h68.61a28.533 28.533 0 0 1 -.43-4.264 29.171 29.171 0 0 1 .38-3.765zm27.61-8.277a12.042 12.042 0 1 0 11.99 12.041 12.032 12.032 0 0 0 -11.99-12.042zm103.92 8.277h-76.32a20.094 20.094 0 0 1 -.05 8.028h76.37a4.014 4.014 0 0 0 0-8.029zm0-40.138h-20.01c-.21 0-.38-.1-.59-.118a27.7 27.7 0 0 1 -38.75-.02c-.23.021-.44.138-.68.138h-140.06a19.945 19.945 0 1 1 0-39.89h140.06c.02 0 .03.01.05.01a27.742 27.742 0 0 1 40.03-.01h19.95a19.945 19.945 0 1 1 0 39.889zm-67.58-23.934h-132.51a3.989 3.989 0 1 0 0 7.978h132.59a27.324 27.324 0 0 1 -.44-4.364 28.686 28.686 0 0 1 .36-3.615zm27.62-8.428a12.042 12.042 0 1 0 11.99 12.042 12.031 12.031 0 0 0 -11.99-12.043zm39.96 8.428h-12.34a26.943 26.943 0 0 1 .36 3.614 27.324 27.324 0 0 1 -.44 4.364h12.42a3.989 3.989 0 1 0 0-7.979zm0-40.038h-132.06c-.26 0-.48-.124-.74-.148a27.6 27.6 0 0 1 -38.26-.058 7.521 7.521 0 0 1 -1.02.206h-28.01a19.945 19.945 0 1 1 0-39.89h27.98a27.677 27.677 0 0 1 40.44 0h131.67a19.945 19.945 0 1 1 0 39.889zm-179.54-23.934h-20.55a3.989 3.989 0 1 0 0 7.978h20.68a28.087 28.087 0 0 1 -.47-4.615 28.689 28.689 0 0 1 .34-3.364zm27.65-8.678a12.042 12.042 0 1 0 11.99 12.041 12.032 12.032 0 0 0 -11.99-12.041zm151.89 8.678h-124.25a26.694 26.694 0 0 1 .34 3.363 27.04 27.04 0 0 1 -.47 4.615h124.38a3.989 3.989 0 1 0 0-7.979zm36-79.932h-79.96a8.028 8.028 0 0 1 0-16.056h79.96a8.028 8.028 0 0 1 0 16.055zm-31.99-24.08h-47.97a8.028 8.028 0 0 1 0-16.055h47.97a8.028 8.028 0 0 1 0 16.054zm-127.92 31.86a7.977 7.977 0 0 1 -7.98-7.978v-15.956a7.988 7.988 0 0 0 -7.98-7.978h-23.95a7.992 7.992 0 0 1 -7.37-4.9l-10.33-24.757a7.965 7.965 0 0 1 1.72-8.714l16.93-16.925a7.969 7.969 0 0 0 0-11.282l-22.58-22.566a7.992 7.992 0 0 0 -11.29 0l-16.93 16.93a7.982 7.982 0 0 1 -8.68 1.737l-24.82-10.195a7.967 7.967 0 0 1 -4.95-7.378v-23.941a7.99 7.99 0 0 0 -7.99-7.978h-31.93a7.988 7.988 0 0 0 -7.98 7.978v23.937a7.969 7.969 0 0 1 -4.91 7.363l-24.76 10.335a8 8 0 0 1 -8.72-1.723l-16.94-16.925a8.173 8.173 0 0 0 -11.287 0l-22.583 22.567a7.983 7.983 0 0 0 0 11.28l16.937 16.926a7.976 7.976 0 0 1 1.738 8.672l-10.2 24.806a7.975 7.975 0 0 1 -7.382 4.947h-23.948a7.992 7.992 0 0 0 -7.983 7.982v31.91a7.991 7.991 0 0 0 7.983 7.978h23.949a7.978 7.978 0 0 1 7.366 4.9l10.34 24.754a7.974 7.974 0 0 1 -1.724 8.715l-16.935 16.922a7.99 7.99 0 0 0 0 11.288l22.577 22.563a8.157 8.157 0 0 0 11.287 0l16.94-16.922a7.949 7.949 0 0 1 8.67-1.737l24.83 10.19a7.987 7.987 0 0 1 4.95 7.378v23.934a7.986 7.986 0 0 0 7.98 7.978h15.97a7.978 7.978 0 1 1 0 15.956h-15.97a23.973 23.973 0 0 1 -23.95-23.934v-18.589l-14.96-6.139-13.165 13.165c-9.04 9.038-24.819 9.038-33.869 0l-22.577-22.562a23.964 23.964 0 0 1 0-33.852l13.155-13.143-6.228-14.912h-18.636a23.967 23.967 0 0 1 -23.945-23.931v-31.91a23.97 23.97 0 0 1 23.948-23.938h18.6l6.147-14.946-13.175-13.167a23.925 23.925 0 0 1 0-33.844l22.58-22.566c9.047-9.05 24.826-9.042 33.866 0l13.15 13.143 14.93-6.225v-18.624a23.964 23.964 0 0 1 23.94-23.934h31.93a23.966 23.966 0 0 1 23.95 23.934v18.589l14.96 6.143 13.17-13.167a23.993 23.993 0 0 1 33.87 0l22.58 22.571a23.935 23.935 0 0 1 0 33.848l-13.15 13.143 6.23 14.912h18.63a23.973 23.973 0 0 1 23.95 23.934v15.955a7.979 7.979 0 0 1 -7.996 7.974zm-15.87-133.768a7.941 7.941 0 0 1 -5.63-2.336 181.562 181.562 0 0 0 -44.51-32.683 8.021 8.021 0 0 1 7.36-14.253 197.364 197.364 0 0 1 48.42 35.553 8.048 8.048 0 0 1 .03 11.355 7.944 7.944 0 0 1 -5.67 2.363zm-262.248 254.11a180.79 180.79 0 0 0 88.948 48.832 8.031 8.031 0 0 1 -1.71 15.868 8.218 8.218 0 0 1 -1.73-.189 196.763 196.763 0 0 1 -96.79-53.129 8.013 8.013 0 0 1 11.282-11.382zm22.268 127.77h23.99a8.028 8.028 0 0 1 0 16.056h-23.99a8.028 8.028 0 0 1 0-16.056zm55.72 0h47.97a8.028 8.028 0 0 1 0 16.056h-47.97a8.028 8.028 0 0 1 0-16.056zm48.22-175.882c-44.49 0-80.68-36.341-80.68-81.011s36.19-81.007 80.68-81.007 80.68 36.34 80.68 81.007a8 8 0 1 1 -15.99 0 64.691 64.691 0 1 0 -64.69 64.955 8.028 8.028 0 0 1 0 16.056zm0-52.55a8.028 8.028 0 0 1 0 16.056 44.518 44.518 0 1 1 44.34-44.517 8 8 0 1 1 -15.99 0 28.35 28.35 0 1 0 -28.35 28.461z" fill="#fff" fill-rule="evenodd" opacity=".2" transform="translate(-923.5 -345.906)"/></svg>